<?xml version="1.0" encoding="utf-8"?>
<!-- Generator: Adobe Illustrator 27.5.0, SVG Export Plug-In . SVG Version: 6.00 Build 0)  -->
<svg version="1.1" xmlns="http://www.w3.org/2000/svg" xmlns:xlink="http://www.w3.org/1999/xlink" x="0px" y="0px"
	 viewBox="0 0 2100 2100" style="enable-background:new 0 0 2100 2100;" xml:space="preserve">

<g id="Layer_1">
	<g>
		<g>
			<path style="fill:#F29727;" d="M1407.217,1235.135H1050H692.783c-16.675,0-30.204,13.529-30.204,30.214
				c0,25.626,10.383,48.827,27.185,65.619c16.792,16.792,39.993,27.185,65.619,27.185H1050h294.617
				c25.626,0,48.827-10.393,65.619-27.185c16.802-16.792,27.185-39.993,27.185-65.619
				C1437.421,1248.664,1423.892,1235.135,1407.217,1235.135z"/>
			<path style="fill:#592418;" d="M1436.746,1131.444c-3.784-16.878-24.75-22.857-37.47-11.135
				c-14.978,13.803-30.891,25.688-44.627,35c-20.824,14.127-47.292,17.021-70.665,7.695
				c-45.566-18.187-91.984-31.588-131.447-41.144c-33.572-8.13-67.995-12.195-102.538-12.195l0,0h0
				c-34.542,0-68.966,4.065-102.537,12.195c-39.463,9.556-85.881,22.957-131.447,41.144c-23.373,9.327-49.841,6.432-70.665-7.695
				c-13.736-9.312-29.649-21.197-44.627-35c-12.72-11.721-33.686-5.743-37.47,11.135c-0.443,1.975-0.676,4.028-0.676,6.137v39.276
				c0,15.417,12.498,27.915,27.915,27.915H1050h359.507c15.417,0,27.915-12.498,27.915-27.915v-39.276
				C1437.422,1135.473,1437.189,1133.419,1436.746,1131.444z"/>
			<path style="fill:#468E33;" d="M1374.595,1037.565H1050H725.405c-16.999,0-30.779,13.78-30.779,30.779l0,0
				c0,9.426,4.297,18.36,11.721,24.168c14.644,11.456,29.287,24.941,43.931,34.92c19.251,13.118,43.821,15.704,65.34,6.781
				c30.449-12.625,66.794-24.891,108.496-33.849c47.956-10.302,90.869-13.627,125.886-13.955
				c35.017,0.328,77.929,3.653,125.886,13.955c41.702,8.959,78.047,21.224,108.496,33.849c21.518,8.923,46.089,6.337,65.34-6.781
				c14.644-9.978,29.287-23.464,43.931-34.92c7.424-5.808,11.721-14.742,11.721-24.168l0,0
				C1405.374,1051.345,1391.594,1037.565,1374.595,1037.565z"/>
			<path style="fill:#F29727;" d="M1255.745,742.047H1050H844.255c-100.337,0-181.677,81.34-181.677,181.677v54.271
				c0,16.129,13.075,29.204,29.204,29.204H1050h358.218c16.129,0,29.204-13.075,29.204-29.204v-54.271
				C1437.422,823.387,1356.083,742.047,1255.745,742.047z"/>
			<path style="fill:#468E33;" d="M1143.782,369.781l-79.712-36.11v-8.174c0-7.771-6.3-14.07-14.07-14.07s-14.07,6.299-14.07,14.07
				V480.04c0,7.771,6.3,14.07,14.07,14.07s14.07-6.299,14.07-14.07v-74.148L1143.782,369.781z"/>
			<path style="fill:#592418;" d="M1351.795,737.082c-29.347-15.156-62.094-23.172-96.064-23.172h-124.968v-20.333
				c0-18.918-9.029-36.044-23.622-48.442c-14.585-12.39-34.75-20.06-57.021-20.06c-44.534,0-80.626,30.665-80.626,68.502v20.333
				H844.237c-33.961,0-66.693,8.016-96.031,23.156c7.292-91.24,14.593-182.487,21.893-273.719c0-9.624,9.174-17.423,20.502-17.423
				h85.105c11.329,0,20.502,7.799,20.502,17.423v74.934c0,10.106,9.64,18.299,21.54,18.299h47.783
				c11.899,0,21.531-8.193,21.531-18.299v-74.934c0-9.624,9.182-17.423,20.502-17.423h85.113c11.32,0,20.502,7.799,20.502,17.423
				v74.934c0,10.106,9.64,18.299,21.532,18.299h47.791c11.891,0,21.531-8.193,21.531-18.299v-74.934
				c0-9.624,9.182-17.423,20.502-17.423h85.121c11.313,0,20.502,7.799,20.502,17.423
				C1337.363,554.587,1344.591,645.843,1351.795,737.082z"/>
		</g>
		<g>
			<path style="fill:#468E33;" d="M1754.829,1788.574c-2.277,0-4.582-0.182-6.853-0.541
				c-131.43-20.787-265.047-36.158-397.14-45.688c-99.707-7.194-200.923-11.228-300.837-11.988
				c-99.913,0.761-201.129,4.794-300.837,11.988c-132.092,9.53-265.709,24.901-397.139,45.688c-2.271,0.36-4.577,0.541-6.854,0.541
				c-32.129,0-58.267-35.234-58.267-78.541v-202.057c0-43.305,26.17-78.537,58.337-78.537h1409.519
				c32.168,0,58.338,35.232,58.338,78.537v202.057c0,21.083-6.114,40.869-17.218,55.717c-11.006,14.718-25.583,22.824-41.048,22.824
				C1754.83,1788.574,1754.83,1788.574,1754.829,1788.574z"/>
			<path style="fill:#592418;" d="M1050,1468.476L1050,1468.476H345.24c-16.205,0-29.341,17.685-29.341,39.501v202.056
				c0,23.633,15.307,41.988,32.741,39.23c126.042-19.935,259.214-35.816,398.971-45.899c104.446-7.535,205.343-11.31,302.389-12.046
				c97.046,0.735,197.943,4.51,302.389,12.046c139.757,10.083,272.929,25.964,398.971,45.899
				c17.434,2.757,32.741-15.598,32.741-39.23v-202.056c0-21.816-13.136-39.501-29.341-39.501H1050z"/>
			<g>
				<path style="fill:#F29727;" d="M452.616,1603.731c4.305,6.843,6.456,14.867,6.448,24.151
					c-0.01,13.777-3.623,24.699-10.829,32.916c-7.209,8.214-17.541,13.01-30.998,14.301c-20.659,1.973-41.313,4.043-61.963,6.21
					c0-56.323,0-112.646,0-168.969c20.209-0.033,40.418-0.063,60.626-0.093c12.644-0.014,22.539,3.562,29.685,10.596
					c7.144,7.048,10.712,17.179,10.701,30.522c-0.007,9.449-1.962,17.416-5.866,23.957c-3.903,6.543-9.044,10.962-15.424,13.225
					C442.437,1592.488,448.309,1596.895,452.616,1603.731z M390.177,1578.422c5.847-0.238,11.694-0.473,17.541-0.704
					c8.74-0.355,13.114-5.264,13.119-14.745c0.005-9.782-4.423-14.586-13.284-14.394c-5.789,0.131-11.578,0.264-17.368,0.399
					C390.182,1558.792,390.18,1568.607,390.177,1578.422z M423.462,1623.628c0.005-10.074-4.54-14.863-13.633-14.346
					c-6.554,0.38-13.109,0.765-19.663,1.156c-0.003,10.127-0.006,20.253-0.009,30.38c6.552-0.509,13.105-1.011,19.658-1.505
					C418.907,1638.62,423.457,1633.4,423.462,1623.628z"/>
				<path style="fill:#F29727;" d="M507.902,1512.124c-0.03,29.473-0.061,58.946-0.091,88.419
					c-0.009,8.756,1.548,15.426,4.675,19.974c3.124,4.553,7.878,6.619,14.257,6.239c6.379-0.381,11.194-3.037,14.451-7.945
					c3.254-4.91,4.887-11.567,4.897-20.011c0.034-28.907,0.068-57.815,0.103-86.722c11.582-0.014,23.164-0.026,34.745-0.039
					c-0.037,28.43-0.073,56.86-0.11,85.29c-0.018,14.074-2.426,26.142-7.224,36.306c-4.797,10.164-11.336,18.072-19.61,23.725
					c-8.277,5.655-17.613,8.937-28.005,9.766c-10.396,0.83-19.574-0.944-27.542-5.441c-7.967-4.492-14.19-11.748-18.668-21.804
					c-4.48-10.046-6.713-22.631-6.699-37.647c0.026-30.022,0.051-60.044,0.077-90.066
					C484.738,1512.153,496.32,1512.138,507.902,1512.124z"/>
				<path style="fill:#F29727;" d="M662.99,1656.198c-8.426-17.231-16.851-34.626-25.276-52.201
					c-1.182,0.047-2.363,0.094-3.545,0.141c-0.025,17.936-0.049,35.872-0.074,53.808c-11.64,0.73-23.28,1.49-34.918,2.281
					c0.066-49.403,0.131-98.807,0.197-148.209c18.377-0.019,36.754-0.037,55.132-0.054c10.044-0.008,18.58,1.994,25.607,5.948
					c7.025,3.96,12.307,9.408,15.844,16.348c3.536,6.943,5.297,14.744,5.286,23.444c-0.014,9.908-2.449,18.552-7.305,26
					c-4.858,7.449-11.838,12.82-20.941,16.115c9.488,18.269,18.977,36.343,28.467,54.246
					C688.638,1654.739,675.814,1655.45,662.99,1656.198z M634.206,1576.926c5.732-0.163,11.464-0.323,17.195-0.479
					c9.689-0.272,14.543-5.412,14.557-15.448c0.007-4.746-1.201-8.455-3.619-11.135c-2.42-2.677-6.052-3.989-10.896-3.917
					c-5.732,0.085-11.464,0.172-17.195,0.26C634.235,1556.447,634.22,1566.686,634.206,1576.926z"/>
				<path style="fill:#F29727;" d="M814.037,1523.482c10.272,8.495,16.466,19.906,18.578,34.289
					c-12.234,0.139-24.468,0.29-36.702,0.452c-1.887-3.74-4.663-6.694-8.322-8.869c-3.662-2.171-7.974-3.237-12.938-3.184
					c-8.51,0.091-15.282,3.342-20.312,9.791c-5.033,6.45-7.555,15.036-7.569,25.71c-0.016,12.128,2.66,21.25,8.031,27.321
					c5.369,6.079,13.256,8.918,23.661,8.591c5.91-0.185,11.113-1.908,15.611-5.153c4.494-3.244,8.047-7.94,10.656-14.093
					c-11.585,0.271-23.17,0.562-34.755,0.873c0.012-9.158,0.023-18.317,0.035-27.475c21.217-0.394,42.436-0.743,63.654-1.046
					c-0.013,12.541-0.027,25.082-0.04,37.624c-4.507,11.424-11.7,21.312-21.58,29.717c-9.883,8.406-22.333,12.948-37.346,13.577
					c-12.769,0.534-23.937-1.937-33.505-7.526c-9.568-5.583-16.915-13.719-22.042-24.433c-5.127-10.706-7.681-23.106-7.661-37.111
					c0.019-14.006,2.607-26.502,7.763-37.405c5.156-10.903,12.463-19.374,21.928-25.412c9.462-6.037,20.576-9.018,33.34-9.021
					C790.591,1510.695,803.765,1514.989,814.037,1523.482z"/>
				<path style="fill:#F29727;" d="M884.223,1541.791c-0.007,7.446-0.013,14.892-0.02,22.338c13.535-0.134,27.07-0.252,40.606-0.353
					c-0.006,9.421-0.013,18.842-0.019,28.262c-13.537,0.154-27.075,0.333-40.611,0.538c-0.007,8.146-0.014,16.292-0.021,24.438
					c15.312-0.299,30.625-0.557,45.938-0.773c-0.006,9.919-0.013,19.839-0.019,29.758c-26.964,0.487-53.927,1.138-80.888,1.954
					c0.046-45.374,0.092-90.748,0.138-136.122c26.946-0.012,53.892-0.022,80.837-0.03c-0.006,9.919-0.013,19.839-0.019,29.759
					C914.837,1541.624,899.53,1541.701,884.223,1541.791z"/>
				<path style="fill:#F29727;" d="M1009.906,1645.037c-8.453-16.323-16.903-32.648-25.351-48.994
					c-1.182,0.007-2.365,0.015-3.547,0.023c-0.006,16.403-0.013,32.805-0.019,49.208c-11.65,0.121-23.299,0.273-34.948,0.455
					c0.025-44.644,0.051-89.289,0.076-133.933c18.377-0.004,36.755-0.008,55.133-0.01c10.044-0.002,18.583,1.853,25.615,5.547
					c7.03,3.7,12.32,8.807,15.866,15.324c3.546,6.519,5.318,13.851,5.318,21.999c0,9.279-2.424,17.331-7.271,24.167
					c-4.849,6.837-11.824,11.641-20.929,14.424c9.515,17.219,19.033,34.434,28.554,51.668
					C1035.571,1644.92,1022.738,1644.96,1009.906,1645.037z M981.017,1571.18c5.734-0.027,11.467-0.05,17.201-0.071
					c9.692-0.035,14.542-4.684,14.544-13.97c0.001-4.39-1.212-7.839-3.633-10.344c-2.423-2.504-6.058-3.754-10.903-3.745
					c-5.733,0.011-11.466,0.024-17.199,0.038C981.024,1552.452,981.021,1561.816,981.017,1571.18z"/>
				<path style="fill:#F29727;" d="M1181.452,1516.836c8.452,4.252,15.343,10.283,20.667,18.117
					c5.326,7.83,8.937,16.916,10.839,27.24c-12.235-0.115-24.47-0.217-36.705-0.306c-2.015-5.328-5.149-9.486-9.406-12.477
					c-4.257-2.988-9.165-4.493-14.719-4.516c-7.685-0.031-13.89,3.005-18.613,9.088c-4.726,6.086-7.087,14.215-7.082,24.403
					c0.005,10.188,2.371,18.377,7.105,24.583c4.731,6.21,10.94,9.356,18.629,9.447c5.556,0.065,10.464-1.385,14.718-4.364
					c4.254-2.978,7.384-7.107,9.391-12.397c12.237,0.146,24.474,0.314,36.712,0.504c-2.824,15.734-9.526,28.158-20.1,37.268
					c-10.578,9.114-23.968,13.483-40.17,13.23c-12.418-0.193-23.27-3.193-32.556-9.007c-9.289-5.809-16.445-13.866-21.472-24.188
					c-5.03-10.319-7.544-22.058-7.547-35.235c-0.003-13.176,2.505-24.897,7.528-35.184c5.02-10.281,12.167-18.28,21.445-23.993
					c9.274-5.712,20.117-8.577,32.526-8.577C1163.393,1510.474,1172.998,1512.589,1181.452,1516.836z"/>
				<path style="fill:#F29727;" d="M1307.893,1626.915c-14.837-0.482-29.675-0.922-44.514-1.321
					c-2.297,7.522-4.595,15.032-6.892,22.532c-12.239-0.38-24.478-0.727-36.718-1.04c15.274-44.507,30.538-89.345,45.795-134.669
					c13.414,0.009,26.828,0.018,40.242,0.028c15.301,45.813,30.608,92.205,45.919,139.327c-12.295-0.559-24.591-1.084-36.887-1.574
					C1312.523,1642.421,1310.208,1634.66,1307.893,1626.915z M1299.169,1597.845c-4.51-15.021-9.019-29.986-13.527-44.898
					c-4.534,14.812-9.069,29.574-13.604,44.291C1281.082,1597.428,1290.126,1597.631,1299.169,1597.845z"/>
				<path style="fill:#F29727;" d="M1450.278,1637.12c-3.537,6.37-8.73,11.258-15.579,14.67c-6.85,3.415-15.062,4.83-24.635,4.304
					c-14.538-0.799-26.514-5.359-35.922-13.614c-9.409-8.254-14.538-19.531-15.382-33.946c12.353,0.399,24.705,0.822,37.057,1.269
					c0.36,4.961,1.724,8.688,4.093,11.196c2.366,2.507,5.262,3.835,8.693,3.984c3.071,0.134,5.463-0.637,7.176-2.315
					c1.711-1.673,2.566-4.136,2.561-7.372c-0.006-4.314-1.726-7.721-5.156-10.199c-3.433-2.475-8.872-5.254-16.322-8.298
					c-7.924-3.324-14.458-6.507-19.603-9.568c-5.146-3.058-9.583-7.54-13.316-13.441c-3.732-5.897-5.602-13.383-5.614-22.492
					c-0.011-8.712,1.988-16.177,5.999-22.436c4.008-6.255,9.497-11.007,16.467-14.258c6.967-3.246,14.884-4.888,23.747-4.887
					c14.418-0.003,25.916,3.865,34.497,11.724c8.577,7.855,13.291,18.951,14.138,33.188c-12.468-0.231-24.937-0.451-37.406-0.661
					c-0.479-4.454-1.695-7.771-3.647-9.948c-1.953-2.177-4.526-3.282-7.716-3.318c-2.722-0.029-4.847,0.75-6.378,2.337
					c-1.536,1.587-2.3,3.985-2.295,7.192c0.007,4.012,1.694,7.18,5.065,9.519c3.372,2.343,8.663,4.991,15.878,7.979
					c7.921,3.408,14.484,6.757,19.692,10.019c5.203,3.266,9.7,7.958,13.491,14.092c3.79,6.135,5.693,14.015,5.706,23.594
					C1455.578,1623.512,1453.816,1630.75,1450.278,1637.12z"/>
				<path style="fill:#F29727;" d="M1565.154,1512.091c0.013,11.297,0.026,22.594,0.039,33.892
					c-11.285-0.205-22.57-0.403-33.855-0.594c0.049,38.998,0.098,77.997,0.146,116.996c-11.578-0.841-23.157-1.651-34.737-2.431
					c-0.051-38.378-0.102-76.755-0.153-115.133c-11.168-0.176-22.335-0.345-33.503-0.508c-0.015-10.777-0.03-21.554-0.045-32.331
					C1497.082,1512.014,1531.118,1512.05,1565.154,1512.091z"/>
				<path style="fill:#F29727;" d="M1611.714,1635.752c13.052,0.877,26.102,1.784,39.151,2.722
					c0.008,11.219,0.016,22.439,0.024,33.658c-24.677-2.238-49.358-4.338-74.044-6.3c-0.056-51.243-0.113-102.485-0.169-153.728
					c11.641,0.014,23.281,0.029,34.922,0.044C1611.637,1553.349,1611.676,1594.551,1611.714,1635.752z"/>
				<path style="fill:#F29727;" d="M1698.827,1548.723c0.003,9.055,0.007,18.111,0.01,27.166c13.525,0.525,27.05,1.066,40.574,1.624
					c0,11.815,0.001,23.63,0.002,35.445c-13.52-0.849-27.041-1.674-40.562-2.473c0.004,9.906,0.008,19.813,0.011,29.719
					c15.29,1.171,30.578,2.383,45.864,3.636c0,12.49,0,24.979,0,37.469c-26.904-2.823-53.815-5.482-80.733-7.976
					c-0.034-53.705-0.068-107.41-0.102-161.114c26.945,0.038,53.89,0.079,80.834,0.122c0,12.49,0,24.979,0,37.469
					C1729.427,1549.435,1714.127,1549.073,1698.827,1548.723z"/>
			</g>
		</g>
	</g>
</g>
</svg>
