<?xml version="1.0" encoding="utf-8"?>
<!-- Generator: Adobe Illustrator 27.5.0, SVG Export Plug-In . SVG Version: 6.00 Build 0)  -->
<svg version="1.1" xmlns="http://www.w3.org/2000/svg" xmlns:xlink="http://www.w3.org/1999/xlink" x="0px" y="0px"
	 viewBox="0 0 500 500" style="enable-background:new 0 0 500 500;" xml:space="preserve">
<g id="BACKGROUND">
	
</g>
<g id="OBJECTS">
	<path style="fill:#D5A978;" d="M358.879,158.305c8.688-6.785,14.515-17.292,15.209-28.326c0.207-3.291-0.283-7.116-3.044-8.917
		c-0.182-0.119-0.389-0.231-0.605-0.208c-0.368,0.039-0.578,0.428-0.724,0.768c-0.952,2.211-1.911,4.442-2.384,6.803
		c-0.404,2.013-0.446,4.078-0.655,6.121c-0.398,3.887-1.411,7.711-2.989,11.286c-1.5,3.4-3.549,6.619-6.376,9.032
		c-2.827,2.413-6.49,3.966-10.203,3.806c-1.186-0.051-2.661-0.594-2.681-1.781c-0.008-0.501,0.268-0.958,0.534-1.383
		c2.867-4.577,5.675-9.25,7.433-14.357c1.758-5.107,2.413-10.736,0.908-15.923c-0.37-1.276-0.913-2.577-1.966-3.388
		c-1.052-0.81-2.736-0.924-3.619,0.068c-0.483,0.543-0.643,1.292-0.782,2.005c-1.433,7.345-1.522,15.174-4.615,22.039
		c-1.081,2.4-4.919,13.474-8.466,10.539c-1.426-1.18-1.628-3.26-1.658-5.111c-0.097-5.93,0.451-11.853,1.14-17.743
		c0.724-6.181,1.75-12.69,5.699-17.5c2.906-3.54,7.071-5.751,10.843-8.348c5.115-3.522,9.704-7.962,12.7-13.402
		c2.995-5.44,4.295-11.947,2.845-17.986c-0.362-1.507-1.807-3.324-3.073-2.43c-0.349,0.247-0.548,0.649-0.733,1.035
		c-3.977,8.285-7.954,16.57-11.932,24.855c-1.694,3.529-3.648,7.322-7.204,8.959c-1.22,0.561-2.706,0.808-3.874,0.145
		c-1.181-0.671-1.721-2.078-2.003-3.407c-0.695-3.28-0.353-6.681,0.047-10.009c1.463-12.16,3.675-24.346,2.875-36.568
		c-0.8-12.221-5.048-24.806-14.374-32.745c-0.372-0.317-0.785-0.639-1.272-0.676c-0.597-0.044-1.133,0.352-1.558,0.774
		c-3.501,3.48-3.127,9.227-1.835,13.992c1.326,4.887,3.357,9.582,6.011,13.895c-2.469-1.921-4.938-3.842-7.407-5.763
		c-1.474-1.147-3.652-2.287-5.022-1.018c-0.965,0.894-0.818,2.449-0.455,3.713c1.426,4.974,4.922,9.074,8.598,12.716
		c2.422,2.399,5.056,4.815,6.156,8.041c0.77,2.259,0.706,4.706,0.634,7.092c-0.337,11.126-0.674,22.253-1.011,33.379
		c-0.108,3.546-0.856,7.969-4.268,8.942c-1.215,0.346-2.516,0.132-3.738-0.19c-5.751-1.515-10.677-5.312-14.63-9.754
		c-3.953-4.443-7.061-9.556-10.355-14.507c-0.892-1.342-1.984-2.793-3.579-3.022c-1.82-0.26-3.459,1.243-4.254,2.901
		c-2.04,4.251-0.332,9.329,1.92,13.472c1.434,2.638,3.095,5.17,5.148,7.36c6.518,6.952,16.463,9.964,22.8,17.082
		c18.207,20.449-5.848,35.665-13.927,52.069c-2.542,5.162-3.977,11.195-8.366,14.916c-6.538,5.543-16.674,3.422-24.057-0.932
		c-2.887-1.703-5.604-3.695-8.095-5.938c-8.959-8.067,2.716-16.05,8.402-22.169c5.593-6.02,8.51-14.136,9.613-22.279
		c1.103-8.143,0.531-16.409-0.044-24.606c-0.112-1.598-0.368-3.445-1.74-4.273c-2.13-1.285-4.681,1.067-5.584,3.385
		c-1.517,3.893-1.305,8.205-1.558,12.376c-0.484,8-2.784,15.885-6.676,22.891c-1.394,2.508-3.006,4.927-5.085,6.904
		c-3.651,3.473-8.504,5.375-13.332,6.818c-3.073,0.918-6.216,1.689-9.42,1.827c-11.337,0.49-18.363-6.49-26.548-13.085
		c-2.908-2.343-5.83-4.7-8.311-7.491c-8.015-9.016-10.641-21.552-16.979-31.816c-0.859-1.392-2.129-2.909-3.753-2.718
		c-2.191,0.258-2.737,3.178-2.577,5.378c1.064,14.694,10.236,27.207,20.423,37.38c-2.591,0.753-5.39,0.219-7.93-0.69
		c-3.595-1.286-6.92-3.32-9.702-5.934c-4.874-4.581-7.96-10.803-9.786-17.237c-1.964-6.922-2.013-14.224-4.034-21.021
		c-1.095-3.683-1.467-7.751-1.928-11.555c-0.135-1.112-0.447-10.978-0.974-11.158c-3.686-1.259-7.692,1.902-8.809,5.633
		c-1.117,3.731-0.172,7.731,0.774,11.509c2.853,11.386,5.706,22.772,8.558,34.158c-13.572-13.469-21.307-31.975-24.63-50.805
		c-1.947-11.03-5.296-21.451-3.793-32.806c1.024-7.736,3.316-15.238,5.334-22.777c0.825-3.082,1.61-6.223,1.53-9.412
		c-0.032-1.285-0.434-2.844-1.678-3.163c-1.156-0.297-2.215,0.692-2.967,1.619c-6.156,7.589-9.688,17.265-9.87,27.035
		c-1.453-1.408-1.28-3.727-1.69-5.708c-0.41-1.981-2.515-4.083-4.187-2.944c-0.825,0.563-1.062,1.654-1.231,2.638
		c-0.641,3.729-1.269,7.498-1.066,11.277c0.263,4.889,1.902,9.584,3.525,14.203c3.498,9.952,7.002,19.92,11.393,29.511
		c1.478,3.229,3.064,6.434,3.99,9.863c0.266,0.985,0.31,2.331-0.637,2.712c-0.515,0.208-1.094,0.003-1.611-0.201
		c-6.084-2.399-12.315-4.887-17.15-9.291c-5.482-4.994-8.644-11.957-12.237-18.446c-0.935-1.688-2.227-3.56-4.155-3.644
		c-1.77-0.077-3.263,1.537-3.632,3.271c-0.369,1.733,0.119,3.527,0.696,5.202c2.842,8.257,8.001,15.686,14.681,21.302
		c6.176,5.192,14.829,5.806,21.494,10.648c4.14,3.008,7.257,7.177,10.58,11.068c13.195,15.449,30.6,27.267,49.827,33.83
		c13.034,4.45,27.107,6.642,38.683,14.104c11.576,7.462,19.905,22.753,13.816,35.106c-7.172-18.42-25.161-32.147-44.821-34.203
		c-1.048,15.381,4.939,31.102,15.952,41.89c7.783,7.623,18.798,14.677,18.582,25.57c-0.085,4.293-2.04,8.302-4.029,12.107
		c-11.634,22.243-26.01,43.278-33.951,67.09c-9.839,29.505-9.026,62.439,2.257,91.422c6.272,16.112,17.568,30.601,33.002,39.041
		c4.409,2.411,9.272,4.259,14.297,4.249c10.021-0.019,18.422-7.176,25.83-13.925c14.125-12.872,28.251-25.744,42.377-38.616
		c16.693-15.213,9.792-40.241,9.792-59.393c0-7.062-5.482-12.971-8.066-19.205c-1.864-4.498-2.57-15.847-7.62-18.264
		c-15.315-7.329-1.807,28.976-1.1,32.441c2.788,13.664-3.354,27.512-10.516,39.478c-5.083,8.493-10.764,16.628-16.986,24.326
		c-3.504,4.335-7.331,8.649-12.371,11.031c-3.35,1.583-7.622,2.12-10.556-0.143c-1.49-1.149-2.424-2.855-3.317-4.511
		c-7.855-14.566-12.626-32.345-14.283-48.904c-1.459-14.58,0.405-29.783,7.348-42.687c6.943-12.904,19.375-23.219,33.822-25.664
		c9.22-1.561,18.488,0.088,27.7,0.8c6.268,0.485,16.392,0.685,21.942-2.649c5.492-3.299,6.353-11.236,4.02-17.203
		c-2.333-5.966-6.986-10.663-10.746-15.85c-6.895-9.512-10.912-21.082-11.394-32.82c-0.122-2.976-0.014-6.012,0.937-8.834
		c1.706-5.062,5.871-8.825,9.706-12.544c6.762-6.557,12.957-13.672,18.831-21.028c5.194-6.504,10.838-12.827,14.825-20.079
		c0.627-1.139,1.247-2.584,0.515-3.659c-0.62-0.91-1.884-1.042-2.984-1.088c-10.306-0.428-21.614,5.64-29.536,12.052
		c-4.089,3.31-7.73,7.178-10.772,11.471c-1.117,1.576-8.293,11.835-7.023,13.56c-2.132-2.898-3.642-6.387-3.556-9.984
		c0.115-4.841,3.109-9.233,6.87-12.284c3.761-3.05,8.268-5.001,12.633-7.098C338.992,171.914,349.446,165.671,358.879,158.305z"/>
	<g>
		<path style="fill:#E99465;" d="M347.607,355.762c-1.027-10.216-0.569-20.581,1.357-30.666c0.575-3.012,1.319-6.089,3.112-8.577
			c3.728-5.173,11.41-6.415,17.265-3.89s9.972,8.064,12.271,14.012c3.88,10.034,3.108,21.761-2.055,31.199
			C369.305,376.582,350.113,380.681,347.607,355.762z"/>
		<path style="fill:#FFD49A;" d="M375.514,291.597c-1.194,7.429-9.029,17.898-16.488,9.004c-5.703-6.8-5.138-22.473,6.355-22.176
			C371.65,278.587,376.508,285.404,375.514,291.597z"/>
		<path style="fill:#C68A5C;" d="M193.704,272.264c4.733-16.785,3.37-35.041-3.036-51.2c-4.345-10.959-13.219-33.835-28.095-30.079
			c-6.092,1.538-10.931,6.181-14.676,11.227c-16.861,22.718-16.536,60.577,1.406,82.397c5.184,6.304,12.271,11.983,20.433,11.956
			C181.968,296.525,190.384,284.038,193.704,272.264z"/>
		<path style="fill:#D5A978;" d="M327.405,155.515c-0.529,2.036-1.058,4.072-1.586,6.108l0.21-0.057
			c0.673-1.68,1.138-3.447,1.327-5.332C327.38,155.993,327.391,155.755,327.405,155.515z"/>
		<path style="fill:#885A3E;" d="M376.664,125.576c-0.332-2.618-0.746-6.132-3.076-7.754c-0.605-0.421-1.358,0.039-1.57,0.639
			c-3.6,10.206-2.096,22.064-9.79,30.564c-2.693,2.976-6.579,6.946-10.568,7.938c-1.561,0.388-3.201,0.551-4.789,0.8
			c-0.098,0.015-0.209,0.026-0.313,0.039c3.654-6.348,6.155-13.327,7.248-20.583c0.592-3.929,0.822-7.914,0.598-11.884
			c-0.161-2.845-0.57-5.665-3.032-7.425c-0.485-0.347-1.172-0.066-1.462,0.383c-3.103,4.797-2.705,10.508-3.1,15.971
			c-0.42,5.819-2.277,11.459-5.309,16.439c-1.512,2.483-3.281,4.662-5.262,6.631c0.643-4.476,0.702-9.019,1.112-13.519
			c0.431-4.723,1.085-9.422,2.054-14.066c0.841-4.029,1.689-8.303,3.734-11.921c2.086-3.691,5.841-5.903,9.192-8.317
			c6.436-4.637,11.613-10.896,14.721-18.24c1.826-4.315,2.798-9.026,2.366-13.718c-0.237-2.57-0.921-8.887-4.25-9.216
			c-0.484-0.048-0.888,0.37-1.032,0.785c-2.911,8.406-5.162,17.764-9.985,25.321c-2.141,3.354-5.046,6.412-8.685,8.131
			c-0.835,0.394-1.865,0.919-2.813,0.921c-1.736,0.004-1.958-2.096-2.047-3.514c-0.135-2.143-0.305-4.289-0.295-6.438
			c0.021-4.484,0.952-8.961,1.259-13.436c0.287-4.195,0.383-8.411,0.225-12.613c-0.264-7.014-1.247-14.088-3.456-20.768
			c-2.44-7.377-6.413-14.169-12.276-19.337c-0.33-0.291-0.901-0.453-1.297-0.167c-2.592,1.871-3.281,4.789-3.065,7.867
			c0.304,4.333,1.746,8.642,2.756,12.847c0.16,0.665,0.308,1.343,0.454,2.025c-2.088-1.666-4.403-3.067-6.903-4.146
			c-0.871-0.376-1.758,0.238-1.573,1.209c1.754,9.191,9.07,15.23,12.804,23.449c4.147,9.127,1.552,19.096,0.943,28.661
			c-0.406,6.372-1.316,26.387-12.352,20.821c-8.131-4.101-15.201-10.964-19.814-18.767c-1.074-1.817-1.938-3.713-2.848-5.612
			c-0.672-1.401-1.613-2.879-3.238-3.25c-3.56-0.813-5.297,3.494-5.518,6.263c-0.353,4.415,1.635,8.696,3.88,12.372
			c2.341,3.833,5.235,7.348,8.548,10.38c3.25,2.974,6.88,5.318,10.705,7.476c4.167,2.351,7.822,4.696,10.092,9.048
			c3.469,6.65,4.648,16.721,1.365,23.648c-1.842,3.887-5.163,6.733-8.627,9.148c-4.396,3.064-8.499,6.42-12.316,10.186
			c-2.001,1.974-4.775,4.595-4.018,7.194c-3.747,0.958-7.249,2.771-10.96,3.917c-2.642,0.816-5.388,1.223-8.123,0.629
			c-3.03-0.657-5.678-2.589-8.816-2.811c-2.064-0.146-3.903,0.567-5.6,1.589c0.107-1.559,0.153-3.124,0.362-4.673
			c0.487-3.6,2.466-5.971,4.98-8.511c10.355-10.464,14.724-24.613,14.937-39.123c0.059-4.049-0.167-8.126-0.739-12.136
			c-0.487-3.418-2.337-7.053-6.355-6.328c-0.439,0.079-0.81,0.598-0.788,1.035c0.595,11.863-0.226,24.266-5.862,34.965
			c-4.568,8.673-12.336,16.334-22.333,17.936c-9.184,1.472-18.538-1.998-26.27-6.726c-7.821-4.783-14.902-11.289-20.021-18.921
			c-6.533-9.741-9.02-21.636-16.538-30.793c-0.279-0.339-0.942-0.42-1.301-0.168c-4.494,3.153-2.766,9.796-1.674,14.251
			c1.529,6.236,4.103,12.201,7.342,17.734c2.441,4.17,5.267,8.114,8.357,11.832c-4.456-1.365-8.716-3.233-12.23-6.445
			c-10.322-9.436-12.02-24.299-14.037-37.339c-1.269-8.206-2.539-16.412-3.808-24.618c-0.094-0.605-0.807-0.849-1.322-0.751
			c-9.144,1.753-8.239,13.637-7.734,20.554c0.6,8.215,2.181,16.319,4.644,24.166c-19.824-23.226-26.172-56.584-20.834-86.208
			c1.467-8.139,6.399-18.274,1.571-26.068c-0.454-0.733-1.388-0.65-1.858,0c-3.769,5.218-6.658,11.029-8.454,17.216
			c-1.352,4.659-1.436,9.382-1.671,14.118c-0.914-3.552-2.115-7.023-3.6-10.41c-0.177-0.403-0.806-0.639-1.213-0.493
			c-2.239,0.801-3.132,2.784-3.449,5.032c-0.45,3.195-0.241,6.597-0.032,9.806c0.446,6.853,1.597,13.622,4.541,19.864
			c1.442,3.058,3.09,6.017,4.272,9.193c1.339,3.595,2.134,7.358,2.913,11.105c0.666,3.203,1.42,6.23,2.59,9.289
			c1.043,2.726,2.232,5.518,2.443,8.447c-8.261-2.229-15.829-6.57-21.901-12.623c-3.271-3.26-6.076-6.969-8.288-11.025
			c-1.689-3.096-2.948-7.224-6.192-9.105c-0.951-0.551-2.838-1.26-3.848-0.537c-1.338,0.958-1.291,3.663-1.09,5.055
			c0.607,4.211,3.363,8.393,5.626,11.901c4.764,7.384,10.946,13.824,18.113,18.905c3.661,2.595,7.564,4.756,11.644,6.616
			c4.556,2.077,9.437,4.027,12.797,7.904c2.798,3.228,4.418,7.275,6.801,10.787c2.512,3.701,5.98,6.142,9.717,8.509
			c8.602,5.45,17.266,10.824,26.517,15.112c9.413,4.362,19.18,7.9,29.004,11.213c7.451,2.512,15.654,4.509,22.04,9.31
			c3.056,2.297,5.497,5.403,6.156,9.245c0.768,4.48-1.306,11.581-6.835,11.197c-0.078-12.595-9.953-22.232-20.746-27.311
			c-3.105-1.461-6.328-2.663-9.591-3.721c-1.894-0.614-5.604-2.599-7.465-1.065c-1.752,1.444-0.791,5.063-0.544,6.924
			c0.472,3.553,1.317,7.038,2.439,10.441c2.214,6.714,5.395,13.068,8.719,19.289c2.549,4.77,5.612,10.101,10.73,12.48
			c1.858,0.864,3.738,1.185,5.501,0.995c1.064,1.497,2.184,2.954,3.396,4.34c3.842,4.391,9.102,8.496,15.279,7.863
			c4.637-0.476,8.463-3.337,12.619-5.161c-0.448,2.242,1.059,4.358,2.966,5.444c3.287,1.872,7.104,0.442,10.588,0.101
			c0.594-0.058,1.012-0.436,1.051-1.051c0.077-1.226-0.182-2.367-0.685-3.386c2.508,1.242,4.973,2.432,7.631,3.327
			c5.72,1.927,10.65,3.928,14.753,8.559c3.811,4.301,6.878,9.771,8.591,15.258c1.584,5.073,1.831,11.001-3.242,14.108
			c-1.779,1.089-3.755,1.847-5.392,3.164c-1.997,1.607-2.42,3.597-3.309,5.882c-2.493,6.406-10.94,5.228-16.358,5.744
			c-4.587,0.437-8.988,1.981-12.886,4.433c-8.503,5.348-14.34,14.63-14.943,24.676c-0.018,0.02-0.036,0.039-0.054,0.059
			c-1.498-1.755-1.001-10.366-0.833-11.527c0.5-3.461,1.49-6.837,2.534-10.167c2.116-6.748,4.548-13.456,4.805-20.596
			c0.019-0.541-0.496-1.083-1.048-1.048c-2.896,0.182-5.147,1.837-6.832,4.125c-1.068,1.45-1.842,3.078-2.739,4.632
			c-0.327,0.567-1.838,3.724-3.067,2.086c-0.596-0.795-0.012-3.018,0.181-3.842c0.79-3.377,1.881-6.623,2.495-10.054
			c0.517-2.893,0.918-5.822,1.03-8.761c0.185-4.847-0.535-9.661-2.593-14.08c-2.467-5.297-6.618-9.606-10.973-13.401
			c-1.004-0.875-2.466,0.549-1.476,1.476c1.21,1.134,0.745,3.622,0.526,5.049c-0.454,2.958-1.368,5.858-2.333,8.683
			c-2.237,6.547-5.047,12.903-8.036,19.138c-2.583,5.388-5.525,10.434-8.561,15.579c-5.661,9.595-11.029,19.388-15.396,29.648
			c-15.662,36.804-18.148,84.66,7.535,117.759c14.775,19.042,36.994,30.086,58.56,39.618c0.408,0.18,0.913,0.199,1.243-0.16
			c24.28-26.421,58.713-45.396,73.746-79.354c4.679-10.569,8.008-22.874,6.407-34.49c0-0.064,0.017-0.122,0.006-0.19
			c-1.989-11.932-9.71-21.461-16.256-31.233c-3.258-4.864-6.809-10.032-8.34-15.755c-0.7-2.62-1.221-6.52-4.092-7.706
			c-3.319-1.371-7.195,1.79-8.49,4.657c-1.603,3.548-1.051,7.777-0.073,11.417c1.221,4.54,3.453,8.738,5.996,12.667
			c3.378,5.219,8.307,9.537,11.153,15.07c3.616,7.032,1.526,14.742-1.204,21.672c-2.447,6.209-5.107,12.342-7.729,18.483
			c-0.348-4.419-1.047-8.768-2.91-12.877c-0.494-1.089-1.867-0.365-1.986,0.538c-1.049,7.991-3.943,15.563-8.361,22.259
			c-0.617-4.217-1.471-8.385-2.61-12.501c-0.34-1.231-1.967-0.856-2.093,0.283c-2.367,21.379-16.58,38.701-30.305,54.37
			c0.159-10.868-2.711-21.065-7.597-30.84c-2.773-5.547-5.507-11.034-6.806-17.145c-1.344-6.326-1.313-12.857-0.033-19.187
			c0.2-0.986-1.006-1.861-1.782-1.037c-2.988,3.171-5.976,6.343-8.964,9.514c-1.399-13.849,4.176-27.27,9.53-39.775
			c0.486-1.134-0.695-2.053-1.675-1.292c-2.221,1.726-4.443,3.452-6.664,5.178c1.592-5.541,3.252-10.978,6.729-15.728
			c1.504-2.054,2.928-4.166,4.469-6.193c1.488-1.957,3.209-4.403,5.476-5.522c1.246-0.615,0.155-2.388-1.077-1.842
			c-2.504,1.111-4.965,2.305-7.391,3.567c0.002-0.124,0.016-0.247,0.02-0.372c5.88-6.421,13.191-11.489,21.242-14.845
			c4.938-2.058,10.254-3.607,15.582-4.194c5.851-0.645,11.736,0.022,17.527,0.881c9.966,1.479,21.285,3.928,30.987-0.096
			c2.906-1.205,6.561-3.188,7.93-6.197c0.757-1.664,0.423-3.15-0.5-4.203c0.647-0.603,1.224-1.296,1.701-2.095
			c1.576-2.643,1.586-5.813,1.246-8.777c-0.17-1.479-0.427-2.946-0.63-4.421c-0.183-1.324-0.024-3.365-1.116-4.358
			c-0.881-0.8-1.678-0.746-2.347-0.274c-0.196-0.739-0.711-1.467-1.124-2.094c-1.5-2.278-3.157-4.447-4.812-6.612
			c-3.068-4.015-6.154-8.075-8.215-12.722c-2.439-5.499-3.232-11.434-3.212-17.404c0.01-2.943,0.317-5.916,0.105-8.853
			c-0.21-2.911-0.876-5.761-1.396-8.626c-0.034-0.188-0.054-0.374-0.085-0.562c0.523,0.002,1.052-0.026,1.586-0.116
			c3.798-0.638,6.722-3.14,8.972-6.115c0.957-0.789,1.838-1.576,2.6-2.279c5.251-4.849,9.269-10.869,13.286-16.73
			c4.939-7.207,10.215-14.135,15.979-20.705c0.368-0.42,0.447-1.099,0-1.51c-6.587-6.07-17.141,1.491-23.314,4.621
			c-8.613,4.367-17.48,9.037-23.345,16.978c-2.725,3.69-5.028,8.651-5.277,13.505c-0.987-1.553-1.798-3.209-2.172-5.021
			c-1.363-6.599,3.225-12.53,8.187-16.26c4.955-3.724,10.724-6.24,16.253-8.966c11.562-5.7,23.626-11.96,31.699-22.347
			c4.009-5.158,7.071-11.214,8.232-17.68C376.914,131.734,377.052,128.639,376.664,125.576z M224.397,217.773
			c-3.543-6.31-7.453-12.883-9.289-19.933c-0.755-2.897-1.427-5.815-2.23-8.699c-0.163-0.586-0.332-1.437-0.571-2.29
			c8.596,3.525,16.089,9.455,20.135,18.027c1.782,3.775,3.067,8.046,2.935,12.254c-0.123,3.926-2.136,8.21-5.763,9.299
			C227.717,223.63,226.027,220.676,224.397,217.773z M264.277,239.525c-1.55-0.757-3.249-2.778-1.711-4.436
			c0.192-0.207,0.423-0.366,0.675-0.494c1.611-0.392,3.279-0.501,4.87,0.006c2.221,0.707,4.06,2.44,4.331,4.727
			C269.771,239.768,266.714,240.716,264.277,239.525z M252.652,325c-1.725,2.207-3.29,4.527-4.94,6.789
			c-4.337,5.947-6.054,12.737-8.094,19.701c-0.329,1.121,1.006,1.64,1.782,1.037c2.011-1.563,4.022-3.125,6.033-4.688
			c-5.28,12.595-9.97,25.82-7.857,39.649c0.123,0.804,1.275,1.008,1.782,0.47c2.715-2.882,5.43-5.763,8.145-8.645
			c-1.367,10.723,0.951,20.979,5.787,30.775c2.802,5.676,5.651,11.235,7.272,17.392c1.633,6.2,2.178,12.598,1.762,18.989
			c-0.059,0.902,1.221,1.434,1.82,0.754c13.566-15.421,27.852-32.177,32.011-52.727c0.715,3.209,1.289,6.447,1.678,9.72
			c0.128,1.071,1.334,1.423,1.986,0.538c4.744-6.446,7.939-13.77,9.541-21.549c1.176,4.142,1.412,8.507,1.607,12.817
			c0.058,1.273,1.642,1.355,2.093,0.283c2.676-6.355,5.36-12.708,8.03-19.066c2.15-5.12,4.328-10.388,4.729-15.989
			c0.401-5.6-1.468-10.596-4.816-15.026c-3.556-4.706-7.464-8.974-10.409-14.131c-3.092-5.414-9.023-18.505-0.728-22.304
			c3.998-1.831,4.608,3.194,5.348,5.963c1.372,5.133,4.322,9.831,7.209,14.232c6.769,10.317,15.337,20.201,17.427,32.744
			c0.007,0.041,0.029,0.065,0.04,0.103c1.519,10.908-1.701,22.669-6.033,32.617c-3.535,8.117-8.385,15.615-13.981,22.458
			c-11.14,13.624-24.889,24.78-38.081,36.316c-7.298,6.382-14.474,12.916-21.068,20.031c-19.352-8.581-39.075-18.313-53.452-34.278
			c-14.021-15.57-20.91-36.09-22.269-56.77c-1.418-21.581,2.722-43.304,11.154-63.167c4.408-10.384,9.865-20.283,15.599-29.984
			c2.973-5.029,5.836-9.971,8.364-15.24c3.262-6.8,6.348-13.757,8.683-20.936c0.945-2.906,1.815-5.901,2.107-8.954
			c0.044-0.457,0.077-0.943,0.081-1.437c3.562,3.436,6.742,7.324,8.493,11.993c1.99,5.306,1.926,11.04,1.161,16.583
			c-0.506,3.67-1.229,7.32-2.326,10.859c-0.787,2.538-1.989,6.299-0.134,8.678c1.922,2.465,4.195,0.051,5.38-1.729
			c2.04-3.064,3.548-7.859,7.453-8.871c-0.62,8.57-4.346,16.485-6.355,24.77c-0.932,3.842-1.514,7.844-1.088,11.797
			c0.178,1.657,0.503,4.542,1.802,5.993c-0.808,0.966-1.585,1.954-2.327,2.964c-0.658,0.897,0.596,1.959,1.459,1.459
			c2.169-1.257,4.371-2.447,6.604-3.577C252.959,324.607,252.804,324.806,252.652,325z M339.004,289.634
			c-1.888,1.12-6.538,0.871-7.998-0.933c-1.409-1.741,0.758-4.948,0.549-7.065c-0.369-3.739-3.625-6.65-7.395-6.375
			c-0.631,0.046-0.992,0.456-1.067,1.067c-0.198,1.602,0.492,3.146,1.162,4.562c0.368,0.777,0.786,1.529,1.164,2.302
			c0.159,0.325,0.581,0.901,0.558,1.272c-0.06,0.977-1.249,0.027-1.633-0.375c-1.977-2.07-3.21-5.18-3.655-7.961
			c-0.881-5.513,5.189-3.17,7.861-1.729c2.128,1.148,4.183,2.24,6.607,2.616c1.374,0.213,3.859,0.431,5.579-0.191
			c-0.204,0.559-0.338,1.1-0.385,1.512C339.973,281.646,342.61,287.493,339.004,289.634z M325.191,200.279
			c2.215-5.894,6.055-11.034,10.751-15.187c2.314-2.046,4.836-3.842,7.488-5.421c2.086-1.243,5.741-3.854,8.417-3.166
			c-4.499,7.897-8.997,15.794-13.496,23.691c-1.744,3.061-3.359,6.405-5.481,9.284c-2.454,1.951-5.784,4.335-8.918,4.5
			c-0.233,0.012-0.46,0.007-0.681-0.012C322.933,209.324,323.508,204.757,325.191,200.279z M320.087,194.362
			c4.553-7.13,11.898-11.74,19.222-15.611c4.224-2.233,8.498-4.396,12.783-6.509c3.391-1.671,8.25-3.693,11.726-1.394
			c-4.528,5.219-8.816,10.642-12.804,16.286c-3.728,5.275-7.17,10.78-11.368,15.706c-0.189,0.222-0.387,0.436-0.579,0.656
			c1.805-3.175,3.516-6.416,5.309-9.564c3.301-5.795,6.602-11.59,9.903-17.385c0.299-0.525,0.1-1.135-0.383-1.461
			c-2.01-1.355-4.332-0.866-6.435,0.053c-2.87,1.254-5.626,2.89-8.198,4.669c-4.879,3.374-9.217,7.569-12.447,12.564
			c-3.378,5.224-5.504,11.312-5.823,17.541c-0.056,1.104-0.034,2.2,0.036,3.291c-1.91-1.153-3.353-3.358-4.66-5.089
			C315.733,203.418,317.908,197.773,320.087,194.362z M314.512,209.171c0.335,1.47,0.911,2.891,1.794,4.219
			c1.265,1.9,3.095,3.188,5.172,3.729c0.14,0.886,0.299,1.771,0.468,2.656c0.736,3.833,1.197,7.462,1.07,11.373
			c-0.208,6.413-0.06,12.778,1.936,18.938c1.9,5.865,5.346,10.859,9.051,15.717c1.866,2.447,3.756,4.878,5.452,7.449
			c0.368,0.557,0.922,0.985,0.494,1.51c-0.337,0.414-2.35,0.305-2.907,0.291c-2.204-0.058-4.183-0.766-6.115-1.786
			c-3.169-1.673-11.102-5.686-12.403,0.435c-0.599,2.817,0.806,6.343,2.139,8.777c1.077,1.966,2.967,5.097,5.664,4.469
			c1.993-0.464,2.074-2.198,1.429-3.763c-0.748-1.815-2.244-3.73-2.507-5.749c2.409,0.35,4.262,2.435,4.218,5.013
			c-0.038,2.2-1.808,3.91-0.98,6.167c1.27,3.461,6.048,4.034,9.191,3.656c3.495-0.421,5.185-3.119,5.304-6.463
			c0.071-2.003-0.508-3.947-0.552-5.941c-0.015-0.682-0.072-1.457,0.176-2.104c0.027-0.109,0.055-0.218,0.082-0.327
			c0.668-1.182,0.961-1.182,0.88-0.002c0.253,0.782,0.226,1.802,0.347,2.624c0.53,3.611,1.503,7.92-0.642,11.204
			c-0.441,0.675-0.957,1.227-1.522,1.698c-0.8-0.303-1.707-0.427-2.64-0.309c-3.495,0.444-6.896,2.046-10.4,2.659
			c-1.156,0.202-2.344,0.38-3.542,0.518c-3.008,0.129-6.048,0.051-8.856-0.969c-2.443-0.888-3.836-2.546-5.402-4.527
			c-1.102-1.393-2.37-2.667-4.169-3.053c-2.492-0.535-5.424,1.724-4.287,4.433c0.764,1.819,1.928,0.962,3.504,1.199
			c2.152,0.324,4.037,1.936,5.843,3.037c3.923,2.392,8.05,2.443,12.536,2.061c0.184-0.016,0.368-0.038,0.552-0.056
			c3.949-0.089,8.018-0.216,11.919-0.755c1.803-0.249,3.543-0.814,5.059-1.73c0.418,0.39,0.618,0.953,0.4,1.718
			c-0.197,0.689-0.721,1.279-1.203,1.785c-1.252,1.311-2.884,2.283-4.493,3.091c-3.784,1.898-8.257,2.41-12.437,2.483
			c-9.668,0.168-19.084-2.57-28.707-3.053c-16.356-0.82-32.727,6.443-44.305,17.988c1.645-10.288,9.155-19.416,18.993-23.011
			c2.933-1.072,5.946-1.515,9.057-1.635c3.297-0.128,6.682-0.1,9.794-1.343c2.254-0.9,4.356-2.406,5.479-4.612
			c0.679-1.335,0.834-2.894,1.556-4.2c0.727-1.315,1.957-2.159,3.23-2.889c2.259-1.295,4.718-2.284,6.415-4.349
			c1.446-1.76,2.151-3.962,2.324-6.211c0.435-5.634-2.102-11.276-4.739-16.098c-2.945-5.385-6.993-10.677-12.49-13.635
			c-2.52-1.357-5.262-2.22-7.967-3.12c-3.424-1.139-6.499-2.782-9.762-4.285c-2.654-1.222-7.866-3.042-10.915-1.356
			c-1.122,0.316-2.22,0.742-3.267,1.213c-4.317,1.944-8.564,5.26-13.543,4.896c-3.308-0.242-6.271-2.072-8.699-4.221
			c-2.161-1.913-4.037-4.114-5.745-6.453c2.017-0.763,3.769-2.274,4.99-4.5c2.362-4.307,1.879-9.607,0.584-14.168
			c-3.605-12.696-13.837-21.363-25.996-25.618c-1.143-0.4-1.823,1.333-0.811,1.924c-0.316-0.184,0.004,0.111,0.118,0.365
			c0.17,0.38,0.292,0.788,0.422,1.182c0.401,1.213,0.732,2.45,1.06,3.684c0.65,2.447,1.23,4.911,1.868,7.361
			c1.734,6.655,5.323,12.94,8.647,18.906c1.765,3.167,3.569,6.341,5.572,9.375c-0.404-0.029-0.817-0.083-1.249-0.185
			c-4.845-1.153-7.975-5.645-10.327-9.7c-2.938-5.067-5.606-10.388-7.857-15.795c-2.255-5.419-4.036-11.118-4.641-16.977
			c-0.085-0.824-0.741-3.405,0.254-3.883c0.645-0.31,3.192,0.871,3.789,1.056c2.701,0.84,5.383,1.758,7.997,2.842
			c11.381,4.724,22.689,14.108,22.254,27.559c-0.014,0.429,0.335,0.935,0.775,1.018c6.282,1.182,10.362-4.882,10.471-10.516
			c0.099-5.087-2.325-9.559-6.183-12.767c-4.105-3.414-9.167-5.483-14.152-7.247c-6.625-2.344-13.337-4.428-19.943-6.831
			c-8.037-2.924-15.977-6.152-23.601-10.039c-7.257-3.699-14.182-8.108-21.059-12.464c-3.408-2.159-6.657-4.366-8.954-7.748
			c-1.899-2.797-3.323-5.884-5.215-8.686c-4.253-6.301-10.948-8.676-17.508-11.876c-7.449-3.633-14.158-8.681-19.764-14.781
			c-2.849-3.1-5.399-6.465-7.607-10.051c-2.024-3.286-5.879-8.711-4.317-12.748c4.174,0.563,6.036,7.447,7.882,10.515
			c2.297,3.817,5.124,7.332,8.34,10.413c6.546,6.272,14.683,10.747,23.502,12.851c0.697,0.166,1.323-0.323,1.354-1.031
			c0.25-5.681-3.164-10.699-4.375-16.101c-1.421-6.336-2.529-12.611-5.286-18.544c-1.286-2.767-2.787-5.439-3.935-8.27
			c-1.195-2.949-1.857-6.033-2.367-9.166c-0.57-3.5-0.886-7.043-0.966-10.588c-0.047-2.071-0.687-7.115,1.256-8.908
			c2.148,5.14,3.607,10.508,4.393,16.028c0.147,1.032,1.912,1.02,2.073,0c1.074-6.826,0.263-13.777,2.109-20.496
			c1.563-5.69,4.091-11.026,7.38-15.903c1.627,3.9,0.806,8.28-0.179,12.34c-0.955,3.932-1.953,7.829-2.624,11.824
			c-1.309,7.784-1.821,15.697-1.541,23.584c0.559,15.762,4.214,31.531,11.33,45.645c3.983,7.9,9.095,15.197,15.248,21.558
			c0.714,0.738,2.174-0.014,1.797-1.046c-2.96-8.087-4.989-16.501-5.894-25.07c-0.637-6.033-2.769-18.863,4.7-21.515
			c1.37,8.856,2.738,17.713,4.11,26.569c1.293,8.344,2.635,16.824,6.337,24.5c3.154,6.54,8.024,12.208,14.642,15.384
			c3.019,1.449,6.222,2.428,9.456,3.263c0.223,0.249,0.443,0.502,0.669,0.749c3.294,3.605,8.636,8.285,13.703,5.128
			c0.296-0.184,0.574-0.556,0.532-0.927c-0.567-5.078-8.099-5.499-11.928-6.423c-0.619-0.149-1.239-0.303-1.858-0.461
			c-0.331-0.386-0.64-0.751-0.922-1.079c-3.455-4.007-6.588-8.294-9.262-12.862c-2.651-4.528-4.836-9.325-6.346-14.355
			c-0.712-2.373-1.28-4.796-1.666-7.244c-0.341-2.158-0.652-5.061,0.885-6.824c6.897,8.884,9.354,20.268,15.59,29.566
			c5.27,7.857,12.484,14.555,20.516,19.522c7.894,4.883,17.345,8.409,26.756,7.312c9.933-1.157,18.083-7.815,23.303-16.079
			c7.141-11.305,8.509-24.969,7.953-38.055c4.53,0.844,3.613,16.419,3.438,19.539c-0.358,6.354-1.558,12.688-3.851,18.637
			c-2.373,6.156-6.001,11.403-10.611,16.085c-1.845,1.873-3.715,3.854-4.615,6.375c-0.636,1.784-0.797,3.709-0.925,5.586
			c-0.091,1.327-0.119,2.694-0.287,4.033c-2.771,2.109-5.261,4.52-7.504,7.18c-0.519,0.616-0.258,1.961,0.758,1.831
			c4.822-0.615,7.794-3.125,8.671-7.787c2.221-1.597,4.563-2.704,7.456-1.926c2.717,0.731,5.086,2.242,7.913,2.642
			c1.982,0.28,3.967,0.147,5.921-0.267c4.268-0.905,8.11-3.11,12.293-4.291c0.468-0.132,0.989-0.25,1.537-0.353
			c0.08,0.073,0.144,0.147,0.231,0.22c1.548,1.289,3.673,2.003,5.508,2.76c2.209,0.912,4.437,1.598,6.777,1.977
			c-0.527,2.645-0.289,5.485,1.029,8.49C311.787,205.5,313.115,207.367,314.512,209.171z M304.382,290.821
			c-0.659-1.196,1.552-1.527,2.105-1.423c0.61,0.114,1.298,0.659,1.752,1.086c0.502,0.472,0.921,1.03,1.335,1.587
			C307.958,291.229,306.277,290.646,304.382,290.821z M202.916,165.608c1.313,0.311,2.625,0.622,3.932,0.953
			c1.5,0.381,4.264,0.829,4.958,2.516C208.713,170.439,205.512,168.198,202.916,165.608z M259.255,196.517
			c-0.576,1.032-1.405,1.759-2.384,2.279C257.641,198.01,258.43,197.244,259.255,196.517z M300.492,189.605
			c3.288-0.108,6.805,0.588,8.531,2.998C306.615,192.087,302.904,191.036,300.492,189.605z M373.017,139.178
			c-2.144,6.334-6.021,12.066-10.814,16.698c-10.069,9.731-23.176,14.935-35.388,21.319c-5.979,3.125-13.026,8.11-15.906,14.456
			c-2.327-3.337-7.321-4.466-11.195-4.218c-0.471,0.03-0.93,0.099-1.39,0.165c-0.27-0.552-0.295-1.136,0.013-1.747
			c0.973-1.931,3.39-3.669,4.951-5.141c1.832-1.727,3.729-3.388,5.704-4.949c5.782-4.567,12.342-8.07,14.806-15.506
			c2.214-6.682,1.261-15.099-1.404-21.513c-1.287-3.098-3.18-5.959-5.838-8.044c-3.665-2.875-8.051-4.67-11.849-7.357
			c-3.937-2.785-7.447-6.234-10.312-10.113c-2.784-3.769-5.657-8.326-5.87-13.135c-0.086-1.931,1.358-8.333,4.252-4.474
			c1.294,1.725,1.951,4.146,3.028,6.031c2.054,3.595,4.572,6.94,7.436,9.929c2.875,3,6.117,5.601,9.605,7.852
			c3.173,2.048,6.946,4.718,10.915,3.394c3.279-1.094,5.008-4.315,5.948-7.416c1.196-3.948,1.925-8.083,2.308-12.184
			c0.516-5.526,0.843-11.035,1.476-16.552c0.538-4.691,0.329-9.493-1.123-14.012c-2.844-8.849-10.613-15.105-13.303-23.959
			c2.419,1.285,4.634,2.884,6.578,4.758c0.54,2.521,1.154,5.033,2.131,7.332c1.161,2.732,3.147,5.047,6.337,4.569
			c0.548-0.082,0.921-0.82,0.748-1.317c-1.513-4.34-3.952-8.25-7.094-11.481c-0.484-2.02-0.97-4.039-1.455-6.058
			c-0.759-3.161-1.684-6.33-2.236-9.535c-0.418-2.426-0.645-5.511,1.183-7.386c11.923,11.094,14.711,28.404,14.446,44.004
			c-0.163,9.585-2.397,19.095-1.087,28.682c0.464,3.398,3.6,3.866,6.394,2.815c3.565-1.342,6.599-3.833,8.978-6.773
			c2.922-3.609,4.852-7.859,6.472-12.18c1.865-4.974,3.535-10.027,5.261-15.052c0.624,1.214,1.151,3.901,1.268,4.498
			c0.419,2.156,0.481,4.379,0.279,6.563c-0.371,4.007-1.764,7.871-3.676,11.39c-1.885,3.468-4.24,6.839-6.994,9.674
			c-2.548,2.623-5.617,4.603-8.553,6.75c-2.636,1.927-5.12,3.914-6.756,6.795c-1.626,2.864-2.495,6.099-3.247,9.282
			c-1.843,7.802-2.785,15.745-3.279,23.738c-0.191,3.09-0.462,6.663-1.251,10.031c-1.263,1.054-2.585,2.057-3.974,3.013
			c-3.429,2.36-7.387,5.316-7.064,9.951c0.05,0.721,0.64,1.18,1.353,1.031c6.375-1.336,9.986-6.821,11.624-12.715
			c3.448-2.959,6.361-6.529,8.59-10.49c2.466-4.382,4.085-9.234,4.699-14.225c0.649-5.273-0.119-10.993,2.346-15.825
			c1.675,2.192,1.286,6.221,1.253,8.672c-0.048,3.524-0.43,7.042-1.143,10.493c-1.401,6.778-4.016,13.197-7.697,19.053
			c-0.586,0.931,0.557,1.965,1.462,1.462c0.545-0.303,2.669-0.424,3.626-0.574c1.447-0.227,3.002-0.354,4.401-0.808
			c2.056-0.667,3.883-2.139,5.523-3.502c1.982-1.647,3.951-3.325,5.645-5.274c7.191-8.278,6.38-19.192,9.305-29.126
			c0.483,1.065,0.666,2.428,0.851,3.39c0.343,1.791,0.474,3.619,0.434,5.442C374.68,132.974,374.044,136.143,373.017,139.178z
			 M328.876,57.169c1.346,1.838,2.482,3.838,3.364,5.98C330.244,62.372,329.346,59.086,328.876,57.169z M332.398,163.402
			c-1.424,3.613-3.764,6.602-7.689,7.919C325.358,167.74,329.306,165.468,332.398,163.402z"/>
		<path style="fill:#885A3E;" d="M271.828,236.282c-1.058-2.281-4.159-2.605-6.651-2.27c-2.035,0.274-4.529,1.375-4.398,3.424
			c0.173,2.703,4.353,3.185,6.303,3.739c1.385,0.394,3.069-0.128,4.102-1.178C272.122,239.044,272.391,237.495,271.828,236.282z
			 M270.033,237.516l-0.108,0.26l-0.176,0.239l-0.192,0.194c-0.104,0.101-0.219,0.203-0.345,0.272
			c-0.121,0.067-0.25,0.122-0.382,0.163l-0.084,0.02c-0.102,0.018-0.207,0.035-0.311,0.04l-0.07-0.002
			c-0.103-0.009-0.212-0.019-0.313-0.045c-0.222-0.057-0.465-0.195-0.617-0.368c-0.162-0.184-0.303-0.401-0.352-0.646
			c-0.025-0.128-0.05-0.266-0.047-0.398l0.006-0.072c0.013-0.11,0.023-0.222,0.047-0.33c0.064-0.281,0.216-0.515,0.406-0.726
			c0.095-0.105,0.224-0.195,0.333-0.276l0.166-0.103c0.14-0.07,0.286-0.133,0.436-0.179c0.279-0.084,0.617-0.079,0.866,0.089
			l0.033,0.023l0.218,0.169c0.091,0.084,0.155,0.184,0.192,0.299l0.064,0.235l-0.01,0.229l0.157,0.205
			C270.066,237.027,270.099,237.275,270.033,237.516z"/>
	</g>
</g>
</svg>
