<?xml version="1.0" encoding="utf-8"?>
<!-- Generator: Adobe Illustrator 27.5.0, SVG Export Plug-In . SVG Version: 6.00 Build 0)  -->
<svg version="1.1" id="Layer_1" xmlns="http://www.w3.org/2000/svg" xmlns:xlink="http://www.w3.org/1999/xlink" x="0px" y="0px"
	 viewBox="0 0 2000 2000" style="enable-background:new 0 0 2000 2000;" xml:space="preserve">
<g>
	
	<g>
		<g>
			<path style="fill:#B3B3B3;" d="M1869.191,1050.846V277c0,0-63.936,13.228-78.266,182.989
				c-14.331,169.761-34.173,504.874-31.968,522.511c1.821,14.568,28.456,50.175,51.96,68.345h29.062H1869.191z"/>
			<path d="M1869.191,1058.346h-58.275c-1.66,0-3.273-0.551-4.587-1.566c-22.746-17.584-52.507-54.885-54.814-73.35
				c-2.275-18.204,17.715-355.604,31.937-524.071c14.633-173.347,81.387-189.116,84.221-189.703
				c2.209-0.457,4.507,0.104,6.255,1.528c1.749,1.424,2.765,3.56,2.765,5.816v773.846
				C1876.691,1054.987,1873.334,1058.346,1869.191,1058.346z M1813.524,1043.346h48.167V288.927
				c-5.645,3.773-13.342,10.459-21.448,22.083c-15.164,21.742-34.732,65.346-41.845,149.61
				c-14.882,176.28-33.927,505.537-31.999,520.949C1767.824,992.978,1791.449,1025.462,1813.524,1043.346z"/>
		</g>
		<g>
			<path style="fill:#A97C50;" d="M1906.946,1608.907l-22.323-558.062h-15.433h-29.212h-29.062h-15.583l-22.323,558.062
				c0,0-7.441,114.093,66.967,114.093C1914.387,1723,1906.946,1608.907,1906.946,1608.907z"/>
			<path d="M1839.979,1730.5c-18.852,0-34.597-6.604-46.798-19.626c-31.426-33.543-27.907-98.389-27.659-102.355l22.318-557.973
				c0.161-4.022,3.469-7.2,7.494-7.2h89.29c4.025,0,7.333,3.178,7.494,7.2l22.318,557.973c0.248,3.967,3.766,68.813-27.66,102.355
				C1874.575,1723.896,1858.83,1730.5,1839.979,1730.5z M1802.54,1058.346l-22.034,550.861c-0.003,0.063-0.006,0.126-0.01,0.188
				c-0.04,0.613-3.644,62.146,23.652,91.245c9.379,9.999,21.099,14.859,35.83,14.859c14.742,0,26.47-4.868,35.852-14.882
				c27.34-29.181,23.672-90.605,23.632-91.223c-0.004-0.063-0.007-0.126-0.01-0.188l-22.034-550.861H1802.54z"/>
		</g>
		<g>
			<path style="fill:#B3B3B3;" d="M238.39,349.102c0,0-7.188-13.476-7.188,33.241v291.985c0,5.458-4.424,9.882-9.882,9.882h-3.396
				c-5.458,0-9.883-4.424-9.883-9.882V384.14c0-35.937-10.032-33.541-10.032-33.541s-10.032-2.396-10.032,33.541v290.188
				c0,5.458-4.425,9.882-9.882,9.882H174.7c-5.458,0-9.883-4.424-9.883-9.882V384.14c0-35.937-10.032-33.541-10.032-33.541
				s-10.032-2.396-10.032,33.541v290.188c0,5.458-4.424,9.882-9.882,9.882h-6.888c-5.458,0-9.883-4.424-9.883-9.882V382.344
				c0-46.718-7.187-33.241-7.187-33.241c-24.257,25.156-17.07,335.108-17.07,335.108v46.499c0,2.395,0.864,4.702,2.442,6.503
				c10.3,11.751,49.666,60.851,49.666,124.884c0,19.511,0,62.846-0.501,118.45h58.5c-0.501-55.604-0.501-98.939-0.501-118.45
				c0-64.032,39.366-113.133,49.666-124.884c1.579-1.801,2.442-4.108,2.442-6.503v-46.499h-0.096
				C255.46,684.211,262.648,374.258,238.39,349.102z"/>
			<path d="M203.95,988.047h-58.5c-2.001,0-3.919-0.799-5.327-2.221c-1.408-1.421-2.19-3.346-2.172-5.347
				c0.5-55.57,0.5-99.587,0.5-118.383c0-60.685-36.591-107.146-47.806-119.94c-2.774-3.165-4.302-7.23-4.302-11.447v-46.413
				c-0.069-3.043-1.766-79.677-0.561-158.322c0.72-46.986,2.32-85.519,4.756-114.527c4.051-48.238,9.697-61.464,14.329-66.842
				c2.423-3.705,6.461-5.517,10.347-4.546c6.67,1.667,8.09,9.657,8.697,13.069c1.137,6.394,1.689,15.951,1.689,29.215v291.984
				c0,1.314,1.069,2.383,2.382,2.383h6.888c1.313,0,2.382-1.069,2.382-2.383V384.141c0-20.896,3.132-33.101,9.856-38.409
				c2.953-2.332,5.825-2.725,7.676-2.653c1.844-0.071,4.723,0.322,7.676,2.653c6.724,5.308,9.856,17.512,9.856,38.409v290.188
				c0,1.314,1.069,2.383,2.383,2.383h3.396c1.313,0,2.382-1.069,2.382-2.383V384.141c0-20.896,3.132-33.101,9.856-38.409
				c2.953-2.332,5.823-2.725,7.676-2.653c1.842-0.071,4.722,0.322,7.676,2.653c6.724,5.308,9.856,17.512,9.856,38.409v290.188
				c0,1.314,1.069,2.383,2.383,2.383h3.396c1.313,0,2.382-1.069,2.382-2.383V382.344c0-13.264,0.553-22.821,1.689-29.215
				c0.606-3.412,2.027-11.402,8.697-13.069c3.887-0.969,7.924,0.841,10.347,4.546c4.632,5.377,10.278,18.604,14.329,66.842
				c2.436,29.008,4.037,67.541,4.756,114.527c1.14,74.429-0.318,147.055-0.536,157.208c0.047,0.336,0.072,0.679,0.072,1.028v46.499
				c0,4.217-1.528,8.282-4.302,11.447c-11.214,12.794-47.806,59.257-47.806,119.94c0,18.796,0,62.813,0.5,118.383
				c0.018,2-0.764,3.925-2.172,5.347S205.951,988.047,203.95,988.047z M153.015,973.047h43.369
				c-0.436-52.052-0.436-92.995-0.436-110.95c0-65.919,39.438-116.037,51.526-129.827c0.375-0.429,0.582-0.982,0.582-1.56v-45.339
				c-0.072-0.438-0.104-0.884-0.094-1.333c0.018-0.774,1.78-78.302,0.56-157.871c-0.715-46.637-2.298-84.816-4.706-113.479
				c-1.56-18.571-3.332-31.282-4.991-39.971c-0.078,2.815-0.123,6.008-0.123,9.627v291.984c0,9.585-7.798,17.383-17.382,17.383
				h-3.396c-9.585,0-17.383-7.798-17.383-17.383V384.141c0-12.911-1.362-19.77-2.532-23.279c-1.17,3.509-2.532,10.368-2.532,23.279
				v290.188c0,9.585-7.798,17.383-17.382,17.383H174.7c-9.585,0-17.383-7.798-17.383-17.383V384.141
				c0-12.911-1.362-19.77-2.532-23.279c-1.17,3.509-2.532,10.368-2.532,23.279v290.188c0,9.585-7.798,17.383-17.382,17.383h-6.888
				c-9.584,0-17.382-7.798-17.382-17.383V382.344c0-3.619-0.045-6.813-0.123-9.627c-1.66,8.691-3.432,21.408-4.992,39.987
				c-2.407,28.668-3.99,66.856-4.705,113.501c-1.219,79.568,0.542,157.059,0.561,157.833c0.001,0.058,0.002,0.116,0.002,0.174
				v46.499c0,0.578,0.207,1.131,0.582,1.559c12.088,13.79,51.526,63.906,51.526,129.828
				C153.45,880.052,153.45,920.995,153.015,973.047z M156.509,357.899c-0.002,0-0.005,0.001-0.007,0.001
				C156.504,357.9,156.506,357.899,156.509,357.899z M199.733,357.899c-0.002,0-0.004,0.001-0.007,0.001
				C199.729,357.9,199.731,357.899,199.733,357.899z M196.288,357.899c0.001,0,0.003,0,0.004,0.001
				C196.291,357.9,196.29,357.9,196.288,357.899z M153.063,357.899c0.001,0,0.002,0,0.004,0.001
				C153.066,357.9,153.065,357.9,153.063,357.899z M156.526,357.895c-0.004,0.001-0.008,0.002-0.013,0.003
				C156.518,357.896,156.522,357.896,156.526,357.895z M199.751,357.895c-0.004,0.001-0.008,0.002-0.013,0.003
				C199.743,357.896,199.748,357.896,199.751,357.895z M196.268,357.895c0.004,0.001,0.008,0.002,0.013,0.003
				C196.276,357.896,196.272,357.896,196.268,357.895z M153.043,357.895c0.004,0.001,0.008,0.002,0.012,0.003
				C153.051,357.896,153.047,357.896,153.043,357.895z"/>
		</g>
		<g>
			<path style="fill:#A97C50;" d="M140.74,980.547c-1.39,154.342-1.976,403.23-21.79,499.659
				c-26.952,131.168,8.984,172.496,55.702,172.496s82.654-41.327,55.702-172.496c-19.814-96.429-21.223-345.317-22.613-499.659
				h-3.79h-58.5H140.74z"/>
			<path d="M174.651,1660.201c-21.276,0-39.033-7.984-51.351-23.091c-23.452-28.76-27.387-82.059-11.698-158.414
				c18.244-88.784,20.108-314.326,21.342-463.572c0.099-11.976,0.195-23.554,0.295-34.645c0.037-4.116,3.384-7.433,7.5-7.433h67
				c4.116,0,7.462,3.317,7.5,7.433l0.166,18.719c1.358,154.345,3.409,387.592,22.294,479.498
				c15.689,76.355,11.753,129.654-11.698,158.414C213.684,1652.217,195.927,1660.201,174.651,1660.201z M148.174,988.047
				c-0.077,8.798-0.152,17.879-0.229,27.201c-1.313,158.786-3.111,376.251-21.648,466.468c-18.358,89.34-5.44,128.661,8.629,145.915
				c9.506,11.659,22.872,17.57,39.726,17.57c16.853,0,30.219-5.911,39.725-17.57c14.069-17.254,26.987-56.575,8.63-145.915
				c-19.178-93.334-21.238-327.46-22.601-482.385l-0.1-11.284H148.174z"/>
		</g>
		<g>
			<path style="fill:#F0F0F1;" d="M999.999,385.851c-338.642,0-614.15,275.506-614.15,614.149
				c0,338.644,275.508,614.15,614.15,614.15c338.646,0,614.152-275.506,614.152-614.15
				C1614.151,661.357,1338.646,385.851,999.999,385.851z M1319.119,1319.119c-85.241,85.238-198.574,132.18-319.12,132.18
				c-120.547,0-233.877-46.942-319.116-132.18C595.643,1233.88,548.7,1120.547,548.7,1000.002
				c0-120.548,46.942-233.878,132.183-319.119C766.122,595.645,879.452,548.7,999.999,548.7
				c120.546,0,233.879,46.945,319.12,132.183c85.238,85.241,132.181,198.571,132.181,319.119
				C1451.3,1120.547,1404.357,1233.88,1319.119,1319.119z"/>
			<path d="M999.999,1621.649c-342.779,0-621.65-278.871-621.65-621.65c0-342.778,278.871-621.649,621.65-621.649
				c342.78,0,621.652,278.871,621.652,621.649C1621.651,1342.778,1342.779,1621.649,999.999,1621.649z M999.999,393.351
				c-334.508,0-606.65,272.142-606.65,606.649c0,334.508,272.142,606.65,606.65,606.65c334.51,0,606.652-272.142,606.652-606.65
				C1606.651,665.492,1334.509,393.351,999.999,393.351z M999.999,1458.799c-122.55,0-237.765-47.723-324.418-134.376
				c-86.657-86.655-134.38-201.869-134.38-324.42c0-122.551,47.724-237.766,134.38-324.422
				c86.656-86.656,201.87-134.38,324.418-134.38c122.549,0,237.765,47.724,324.423,134.379
				c86.655,86.658,134.378,201.874,134.378,324.423c0,122.55-47.723,237.764-134.377,324.419c0,0.001-0.001,0.001-0.001,0.001
				C1237.766,1411.076,1122.55,1458.799,999.999,1458.799z M999.999,556.2c-118.542,0-229.989,46.164-313.812,129.986
				C602.364,770.01,556.2,881.458,556.2,1000.002c0,118.544,46.164,229.992,129.987,313.813
				c83.821,83.821,195.268,129.983,313.812,129.983s229.993-46.162,313.817-129.983c83.821-83.822,129.983-195.27,129.983-313.813
				c0-118.543-46.163-229.992-129.984-313.816C1229.99,602.364,1118.541,556.2,999.999,556.2z M1319.119,1319.119h0.01H1319.119z"/>
		</g>
		<g>
			<path style="fill:#CFCECF;" d="M1470.412,529.589c-61.09-61.09-132.233-109.055-211.454-142.561
				c-82.034-34.698-169.159-52.291-258.959-52.291c-89.798,0-176.922,17.593-258.956,52.291
				c-79.222,33.507-150.366,81.472-211.457,142.561c-61.088,61.087-109.051,132.231-142.558,211.451
				c-34.7,82.034-52.292,169.16-52.292,258.959c0,89.8,17.591,176.925,52.292,258.96c33.507,79.222,81.47,150.366,142.558,211.453
				c61.091,61.09,132.234,109.052,211.457,142.561c82.034,34.696,169.158,52.289,258.956,52.289
				c89.8,0,176.925-17.593,258.959-52.289c79.222-33.509,150.367-81.471,211.454-142.561
				c61.087-61.087,109.052-132.231,142.562-211.453c34.695-82.035,52.289-169.16,52.289-258.96
				c0-89.799-17.594-176.925-52.289-258.959C1579.465,661.82,1531.499,590.677,1470.412,529.589z M999.999,1614.149
				c-338.642,0-614.15-275.506-614.15-614.15c0-338.643,275.508-614.149,614.15-614.149c338.646,0,614.152,275.506,614.152,614.149
				C1614.151,1338.643,1338.646,1614.149,999.999,1614.149z"/>
			<path d="M999.999,1672.763c-90.805,0-178.914-17.792-261.877-52.882c-80.12-33.888-152.065-82.393-213.838-144.165
				c-61.773-61.772-110.277-133.717-144.163-213.835c-35.091-82.959-52.884-171.068-52.884-261.881
				c0-90.813,17.793-178.922,52.884-261.881c33.886-80.117,82.389-152.061,144.162-213.833
				c61.779-61.778,133.725-110.282,213.838-144.166c82.963-35.091,171.072-52.883,261.877-52.883
				c90.808,0,178.917,17.792,261.881,52.883c80.112,33.883,152.058,82.388,213.836,144.166
				c61.773,61.774,110.278,133.718,144.166,213.833c35.09,82.969,52.882,171.079,52.882,261.881
				c0,90.803-17.792,178.913-52.882,261.88c-33.888,80.116-82.392,152.061-144.166,213.836
				c-61.768,61.771-133.713,110.275-213.836,144.165C1178.915,1654.971,1090.807,1672.763,999.999,1672.763z M999.999,342.237
				c-88.787,0-174.93,17.394-256.035,51.699c-78.325,33.127-148.668,80.552-209.075,140.957
				c-60.4,60.399-107.824,130.741-140.954,209.07c-34.305,81.1-51.699,167.243-51.699,256.037
				c0,88.794,17.394,174.938,51.699,256.038c33.129,78.331,80.553,148.673,140.954,209.071
				c60.4,60.4,130.743,107.825,209.075,140.958c81.105,34.303,167.248,51.696,256.034,51.696
				c88.789,0,174.933-17.394,256.037-51.696c78.335-33.134,148.678-80.559,209.072-140.957
				c60.402-60.402,107.827-130.744,140.959-209.072c34.303-81.109,51.696-167.253,51.696-256.038
				c0-88.784-17.394-174.928-51.696-256.038c-33.132-78.326-80.558-148.667-140.959-209.069
				c-60.405-60.405-130.747-107.83-209.072-140.957C1174.932,359.631,1088.788,342.237,999.999,342.237z M999.999,1621.649
				c-342.779,0-621.65-278.871-621.65-621.65c0-342.778,278.871-621.649,621.65-621.649c342.78,0,621.652,278.871,621.652,621.649
				C1621.651,1342.778,1342.779,1621.649,999.999,1621.649z M999.999,393.351c-334.508,0-606.65,272.142-606.65,606.649
				c0,334.508,272.142,606.65,606.65,606.65c334.509,0,606.652-272.142,606.652-606.65
				C1606.651,665.492,1334.508,393.351,999.999,393.351z"/>
		</g>
		<g>
			<circle style="fill:#F0F0F1;" cx="999.999" cy="1000.002" r="429.394"/>
			<path d="M999.999,1436.896c-240.904,0-436.895-195.989-436.895-436.893c0-240.906,195.99-436.897,436.895-436.897
				s436.895,195.991,436.895,436.897C1436.894,1240.906,1240.903,1436.896,999.999,1436.896z M999.999,578.105
				c-232.633,0-421.895,189.262-421.895,421.897c0,232.632,189.261,421.893,421.895,421.893
				c232.634,0,421.895-189.261,421.895-421.893C1421.894,767.368,1232.633,578.105,999.999,578.105z"/>
		</g>
		<g>
			<path style="fill:#CFCECF;" d="M1319.119,680.883c-85.241-85.238-198.574-132.183-319.12-132.183
				c-120.547,0-233.877,46.945-319.116,132.183C595.643,766.125,548.7,879.455,548.7,1000.002
				c0,120.545,46.942,233.877,132.183,319.116c85.238,85.238,198.568,132.18,319.116,132.18c120.546,0,233.879-46.942,319.12-132.18
				c85.238-85.239,132.181-198.572,132.181-319.116C1451.3,879.455,1404.357,766.125,1319.119,680.883z M999.999,1429.396
				c-236.768,0-429.395-192.625-429.395-429.393c0-236.769,192.626-429.397,429.395-429.397
				c236.77,0,429.395,192.628,429.395,429.397C1429.394,1236.771,1236.769,1429.396,999.999,1429.396z"/>
			<path d="M999.999,1458.799c-122.55,0-237.765-47.723-324.418-134.376c-86.657-86.655-134.38-201.869-134.38-324.42
				c0-122.55,47.724-237.766,134.38-324.422c86.656-86.656,201.87-134.38,324.418-134.38c122.549,0,237.765,47.724,324.424,134.38
				l0,0c86.654,86.657,134.377,201.873,134.377,324.422c0,122.55-47.723,237.764-134.377,324.42
				C1237.766,1411.076,1122.55,1458.799,999.999,1458.799z M999.999,556.2c-118.542,0-229.989,46.164-313.812,129.986
				C602.364,770.01,556.2,881.458,556.2,1000.002c0,118.544,46.164,229.992,129.987,313.813
				c83.821,83.821,195.268,129.983,313.812,129.983s229.993-46.162,313.816-129.983c83.821-83.822,129.984-195.27,129.984-313.813
				c0-118.543-46.163-229.992-129.984-313.816l0,0C1229.99,602.364,1118.541,556.2,999.999,556.2z M999.999,1436.896
				c-240.904,0-436.895-195.989-436.895-436.893c0-240.906,195.99-436.897,436.895-436.897s436.895,195.991,436.895,436.897
				C1436.894,1240.906,1240.903,1436.896,999.999,1436.896z M999.999,578.105c-232.633,0-421.895,189.262-421.895,421.897
				c0,232.632,189.261,421.893,421.895,421.893c232.634,0,421.895-189.261,421.895-421.893
				C1421.894,767.368,1232.633,578.105,999.999,578.105z"/>
		</g>
	</g>
</g>
</svg>
