<?xml version="1.0" encoding="utf-8"?>
<!-- Generator: Adobe Illustrator 27.5.0, SVG Export Plug-In . SVG Version: 6.00 Build 0)  -->
<svg version="1.1" id="Bell_Pepper" xmlns="http://www.w3.org/2000/svg" xmlns:xlink="http://www.w3.org/1999/xlink" x="0px"
	 y="0px" viewBox="0 0 2000 2000" style="enable-background:new 0 0 2000 2000;" xml:space="preserve">
<rect id="Background" x="0" style="fill:#FFFFFF;" width="2000" height="2000"/>
<g id="Bell_Pepper_00000008125132111780966700000005274121254922839198_">
	<g>
		<g>
			<path style="fill:#5B7A0D;" d="M1014.67,1695.522c-47.079-8.365-90.465-23.726-128.955-45.653
				c-35.21-20.06-65.487-45.166-90.237-74.795c-31.18,1.73-62.128-0.091-92.241-5.442c-83.62-14.858-160.938-56.805-223.598-121.307
				c-29.268-30.128-54.7-64.522-75.588-102.226c-20.69-37.346-36.501-77.17-46.994-118.365
				c-20.188-79.257-19.737-160.198,1.304-234.071c11.238-39.451,28.277-76.655,50.645-110.576
				c20.661-31.332,45.948-59.961,75.303-85.283c2.805-70.332,18.502-135.786,46.739-194.786
				c28.185-58.893,68.061-109.938,118.517-151.716c105.538-87.384,248.303-125.382,381.899-101.643
				c51.197,9.097,98.734,26.849,141.287,52.763c39.347,23.961,73.466,54.353,101.65,90.512c34.297-2.213,68.276-0.379,101.266,5.483
				c85.657,15.22,164.317,57.39,227.475,121.95c60.27,61.607,103.014,139.689,123.612,225.805
				c21.553,90.11,17.178,183.292-12.654,269.471c-15.939,46.047-39.058,89.789-68.712,130.01
				c-28.514,38.674-63.228,74.276-103.33,105.992c-7.628,51.528-24.563,99.512-50.433,142.835
				c-26.265,43.984-61.288,82.501-104.097,114.482c-51.232,38.272-113.189,66.384-179.173,81.298
				c-64.303,14.533-131.28,16.354-193.68,5.267C1014.67,1695.523,1014.673,1695.523,1014.67,1695.522z"/>
			<path style="fill:#75A81E;" d="M1258.097,529.067c-199.033-285.048-734.412-156.458-739.617,285.308
				c-302.966,242.336-80.044,762.859,292.769,724.765c169.453,230.926,658.909,145.475,698.36-206.146
				C1895.995,1042.052,1657.551,485.019,1258.097,529.067z M1329.445,1499.934c-78.615,72.321-213.37,99.325-306.901,66.774
				c-30.01-10.435-55.766-27.009-74.08-50.182c-28.337-35.862-38.809-87.547-19.488-156.791c3.65-13.079,32.057-85.96,11.324-94.176
				c-42.716-16.917-134.478,233.235-294.079,134.097l-0.008-0.002c-10.141-6.298-20.548-14.006-31.248-23.284
				c-53.442-46.366-92.348-110.577-113.674-177.69c-11.198-35.241-15.905-76.961-13.131-118.273l0.001-0.009
				c2.264-33.85,9.549-67.432,22.373-96.946c10.553-24.298,31.214-61.835,58.17-71.29c43.228-15.172,96.844,0.363,137.865,16.092
				c13.551,5.192,89.655,31.23,99.601,9.609c8.928-19.404-60.65-73.125-72.106-81.554
				c-73.651-54.225-111.088-128.881-65.092-211.978c5.974-10.786,12.799-21.369,20.386-31.64
				c71.49-96.826,210.434-166.63,338.845-133.309c25.147,6.515,49.888,16.988,73.64,31.994
				c46.068,29.097,66.606,107.715,58.067,157.498c-3.599,21-46.329,135.487-17.161,147.591
				c22.519,9.341,48.264-40.352,56.699-54.214c20.07-32.978,50.978-85.83,89.616-98.892c51.644-17.461,101.153-11.879,144.698,8.681
				c57.212,27.029,104.127,79.928,132.052,140.396c36.094,78.159,40.868,167.598,15.096,248.184
				c-10.235,31.995-25.289,62.597-45.115,90.543c-9.983,14.07-22.302,24.581-36.168,32.129
				c-103.97,56.653-232.684-51.77-248.536-19.5c-0.109,0.218-0.209,0.437-0.31,0.656c-0.1,0.219-0.192,0.44-0.284,0.661
				c-19.121,46.664,157.2,102.023,141.028,221.308c-1.321,9.76-3.445,19.193-6.284,28.297c-10.28,32.944-30.016,61.52-55.789,85.221
				L1329.445,1499.934z"/>
		</g>
	</g>
	<path style="fill:#75A81E;" d="M1409.993,1257.976l-57.112,10.913c-51.607-34.157-98.221-62.552-140.906-80.438
		c-1.484-0.299-2.927-0.529-4.329-0.699c-87.977-10.618-20.922,222.287-47.681,249.905c-50.333,51.947-83.26-230.822-169.064-186.75
		c-1.393,2.01-2.777,4.064-4.161,6.164c-22.541,34.182-44.139,79.316-65.211,137.261c-23.484,56.243-90.16-25.322-90.16-25.322
		c32.435-54.67,57.568-100.274,74.498-139.405c5.112-11.818,9.478-23.039,13.067-33.749c-13.032-71.927-223.834,3.06-251.99-20.773
		c-53.343-45.145,206.189-95.085,178.899-172.971c-8.923-6.135-18.583-12.313-28.992-18.58
		c-37.131-22.354-83.809-45.842-140.78-72.643c0,0-37.148-108.111,65.66-48.74c38.561,24.979,73.529,42.162,105.235,52.978
		c12.088,4.133,23.702,7.329,34.86,9.681c93.154,1.156-11.197-222.575,11.195-254.289c42.81-60.617,121.817,229.68,201.9,153.352
		c2.463-2.347,4.925-5.027,7.382-8.086c30.586-53.058,44.878-108.484,52.315-126.959l64.195-44.6c0,0,14.123,56.347,14.131,56.401
		c-26.782,62.842-48.55,113.137-63.36,155.56c-0.085,0.327-0.168,0.646-0.242,0.967c-31.297,127.25,209.878,47.507,239.496,76.948
		c54.866,54.514-271.234,81.008-173.505,182.212c1.219,0.998,2.441,1.98,3.673,2.954c55.152,43.806,119.961,67.872,150.221,76.349
		C1389.234,1195.628,1409.993,1257.976,1409.993,1257.976z"/>
	<path style="fill:#BCE87D;" d="M1109.587,1259.65c-17.092,5.526-21.621-73.647-124.666-71.739
		c-12.874,0.195-9.522-10.553-12.462-20.072c-2.354-7.614-5.859-14.874-10.4-21.426c-15.345-22.141-43.231-33.621-69.425-35.81
		c-8.486-0.709-42.875,10.307-43.963-3.361c-0.891-11.203,32.694-27.081,39.318-32.653c18.696-15.727,24.65-38.207,21.366-61.97
		c-1.506-10.897-13.274-17.462-14.645-28.283c-1.326-10.464,5.587-18.785,14.532-22.581c26.513-11.252,50.364-18.916,61.523-48.701
		c11.981-31.98-5.355-59.185,3.956-66.764c15.28-12.438,21.617,55.668,89.346,52.918c8.291-0.337,25.563-7.63,33.681-5.993
		c22.006,4.436,15.603,31.837,25.45,47.105c9.664,14.984,23.783,26.286,39.858,33.783c30.621,14.281,91.654,9.59,62.51,29.317
		c-26.077,17.65-61.236,31.252-62.342,66.324c-0.403,12.785,3.957,24.653,8.796,36.246c3.819,9.15,9.592,20.337,2.401,29.362
		c-6.402,8.035-18.168,7.848-27.164,10.1c-11.907,2.981-19.339,12.532-25.085,23.12c-9.898,18.238-10.323,38.986-8.807,59.168
		C1113.874,1234.495,1119.203,1256.541,1109.587,1259.65z"/>
	<g>
		<path style="fill:#75A81E;" d="M845.45,955.934c-3.704,8.045-11.824,20.33-28.599,27.599
			c-37.131-22.354-83.809-45.842-140.78-72.643c0,0-37.148-108.111,65.66-48.74c38.561,24.979,73.529,42.162,105.235,52.978
			C852.791,932.463,849.847,946.361,845.45,955.934z"/>
		<path style="fill:#75A81E;" d="M1232.943,700.627c-26.782,62.842-48.55,113.137-63.36,155.56
			c-0.085,0.327-0.168,0.646-0.242,0.967c-12.333,4.457-23.194,4.196-30.984,2.812c0,0,0,0-0.008-0.002
			c-4.146-0.737-8.245-1.939-12.164-3.558c-9.136-3.793-23.463-12.679-31.264-32.536c2.463-2.347,4.925-5.027,7.382-8.086
			c30.586-53.058,44.878-108.484,52.315-126.959l64.195-44.6C1218.813,644.226,1232.936,700.574,1232.943,700.627z"/>
		<path style="fill:#75A81E;" d="M1409.993,1257.976l-57.112,10.913c-51.607-34.157-98.221-62.552-140.906-80.438
			c-1.484-0.299-2.927-0.529-4.329-0.699c-3.904-15.642-1.251-29.038,2.844-39.034l0.122-0.294c0.276-0.662,0.541-1.266,0.818-1.883
			l0.069-0.146c0.303-0.666,0.613-1.323,0.94-1.976c2.828-5.637,10.651-18.229,26.566-25.149
			c55.152,43.806,119.961,67.872,150.221,76.349C1389.234,1195.628,1409.993,1257.976,1409.993,1257.976z"/>
		<path style="fill:#75A81E;" d="M986.741,1257.071c-22.541,34.182-44.139,79.316-65.211,137.261
			c-23.484,56.243-90.16-25.322-90.16-25.322c32.435-54.67,57.568-100.274,74.498-139.405c10.626-5.779,24.227-10.011,39.74-7.255
			c3.627,0.644,7.189,1.655,10.611,3.01C963.634,1228.303,979.201,1236.681,986.741,1257.071z"/>
	</g>
	<g>
		<path style="fill:#BCE87D;" d="M806.171,937.863c-9.946,21.621-86.05-4.417-99.601-9.609
			c-41.022-15.729-94.638-31.264-137.865-16.092c-26.957,9.456-47.617,46.993-58.17,71.29
			c-12.824,29.514-20.108,63.096-22.373,96.946c-16.731-192.394,88.756-200.134,110.49-255.634
			c21.734-55.5-1.233-147.254,90.708-212.073c-7.586,10.272-14.411,20.854-20.386,31.64
			c-45.996,83.096-8.559,157.753,65.092,211.978C745.521,864.738,815.098,918.459,806.171,937.863z"/>
		<path style="fill:#BCE87D;" d="M1433.762,672.04c-43.545-20.56-93.053-26.143-144.698-8.681
			c-38.638,13.062-69.546,65.914-89.616,98.892c-8.435,13.862-34.181,63.555-56.699,54.214
			c-29.168-12.104,13.562-126.59,17.161-147.591c8.539-49.783-11.999-128.401-58.067-157.498
			c-23.752-15.006-48.493-25.479-73.64-31.994c111.262,4.939,139.142,83.178,208.574,109.086
			C1294.883,610.15,1373.724,623.958,1433.762,672.04z"/>
		<path style="fill:#BCE87D;" d="M1450.998,1303.63c-23.797,45.104-55.642,172.43-121.544,196.306
			c25.773-23.701,45.509-52.277,55.789-85.221c2.839-9.104,4.963-18.536,6.284-28.297
			c16.172-119.285-160.149-174.644-141.028-221.308c0.092-0.221,0.184-0.442,0.284-0.661c0.101-0.219,0.201-0.439,0.31-0.656
			c15.851-32.27,144.565,76.153,248.536,19.5c13.866-7.548,26.185-18.059,36.168-32.129c19.826-27.946,34.881-58.548,45.115-90.543
			C1577.22,1206.935,1476.961,1254.388,1450.998,1303.63z"/>
		<path style="fill:#BCE87D;" d="M1025.534,1570.489c-91.368,5.643-148.124-90.417-186.603-102.6
			c-38.479-12.183-155.364-7.004-192.71-68.232c159.601,99.138,251.363-151.014,294.079-134.097
			c20.734,8.216-7.674,81.097-11.324,94.176c-19.321,69.243-8.849,120.928,19.488,156.791c18.313,23.173,44.07,39.747,74.08,50.182
			C1023.597,1568.045,1024.603,1569.304,1025.534,1570.489z"/>
	</g>
	<g>
		<path style="fill:#75A81E;" d="M1041.667,739.76c-0.098-3.537-0.693-7.035-1.171-10.537c-0.514-3.763-0.552-7.55-1.021-11.357
			c-0.86-6.987-1.553-14.043-2.758-20.99c-2.598-14.981-5.602-29.726-9.817-44.362c-8.089-28.078-17.05-55.795-26.903-83.303
			c-2.794-7.8-5.962-15.405-9.21-23.028c-1.711-4.014-3.666-7.845-5.938-11.573c-2.043-3.354-4.175-7.796-7.522-9.95
			c-2.05-1.32-4.422-1.565-6.338,0.198c-0.714,0.657-1.258,1.644-1.494,2.692c-0.007-0.003-0.015-0.007-0.022-0.01
			c-0.963,3.19-0.062,6.737,0.342,9.989c0.456,3.682,1.013,7.424,1.916,11.026c1.801,7.177,3.924,14.427,6.206,21.463
			c4.506,13.888,8.971,27.784,13.223,41.753c4.25,13.961,8.733,27.848,12.933,41.825c4.185,13.929,8.135,28.048,13.723,41.49
			c3.047,7.331,5.34,15.063,8.698,22.25c3.602,7.712,6.111,15.905,9.834,23.564C1037.673,743.626,1041.758,743.025,1041.667,739.76z
			"/>
		<path style="fill:#75A81E;" d="M1093.023,672.919c-2.134-18.089-6.74-36.204-10.726-53.962c-1.973-8.79-4.552-17.379-7.068-26.027
			c-2.747-9.44-5.265-18.644-9.403-27.577c-2.416-5.216-11.187-4.245-10.455,2.235c1.041,9.219,3.364,17.819,5.78,26.765
			c2.438,9.03,4.648,18.149,7.648,27.01c5.945,17.561,11.527,35.746,19.245,52.621
			C1089.183,676.474,1093.385,675.997,1093.023,672.919z"/>
		<path style="fill:#75A81E;" d="M867.596,793.51c-13.424-34.373-26.062-68.903-43.253-101.652
			c-8.553-16.292-16.824-32.773-25.893-48.784c-8.905-15.722-17.396-33.046-30.332-45.817c-2.516-2.484-6.882-0.653-6.298,3.049
			c2.813,17.861,11.81,34.722,19.359,51.033c7.723,16.686,16.294,32.998,24.547,49.428c16.671,33.188,37.449,63.703,57.629,94.774
			C864.975,798.035,868.723,796.395,867.596,793.51z"/>
		<path style="fill:#75A81E;" d="M875.137,883.449c-14.447-13.04-28.513-26.642-42.653-40.057
			c-13.563-12.867-27.102-25.653-39.458-39.713c-25.51-29.028-46.505-61.299-65.743-94.718
			c-10.663-18.523-20.353-37.637-30.306-56.537c-0.589-1.119-2.502-0.368-2.314,0.832c3.077,19.544,8.685,38.242,16.315,56.504
			c7.645,18.298,17.058,35.642,27.586,52.438c10.46,16.689,22.51,32.469,35.277,47.452c12.965,15.216,26.782,30.177,41.865,43.334
			c16.983,14.814,35.686,26.326,55.911,36.054C875.096,890.712,877.894,885.937,875.137,883.449z"/>
		<path style="fill:#75A81E;" d="M1325.357,733.586c-2.598,1.313-5.542,1.307-8.271,2.265c-2.419,0.849-4.765,2.255-7.052,3.414
			c-4.992,2.527-9.615,5.9-14.188,9.11c-9.037,6.346-17.415,13.699-25.509,21.193c-8.08,7.481-15.558,15.338-22.37,23.994
			c-3.296,4.189-6.059,8.82-8.835,13.366c-2.748,4.503-5.957,9.568-7.209,14.729c-0.535,2.203,2.23,3.73,3.966,2.533
			c4.075-2.809,7.567-7.115,10.958-10.708c3.685-3.903,7.602-7.584,11.225-11.542c7.213-7.88,14.621-15.683,22.294-23.115
			c7.618-7.378,15.761-14.133,23.972-20.833c3.961-3.233,8.178-6.185,12-9.577c1.938-1.72,4.112-3.311,5.892-5.193
			c1.818-1.922,2.906-4.281,5.079-5.837C1329.204,736.03,1327.596,732.456,1325.357,733.586z"/>
		<path style="fill:#75A81E;" d="M1467.872,756.49c-31.825,7.769-62.931,20.916-92.251,35.425
			c-15.058,7.452-30.212,14.974-44.736,23.432c-7.167,4.174-14.491,8.234-21.317,12.951c-3.426,2.367-6.833,4.724-10.09,7.319
			c-3.25,2.591-6.928,4.618-10.156,7.24c-7.283,5.915-14.576,11.8-21.992,17.561c-3.502,2.721-6.818,5.685-10.271,8.471
			c-3.635,2.933-7.496,5.714-10.616,9.208c-1.732,1.94,0.511,5.117,2.92,4.182c7.491-2.907,14.459-7.735,21.596-11.443
			c7.182-3.732,14.262-7.598,21.494-11.236c14.756-7.423,29.564-14.617,44.067-22.604c28.39-15.633,56.806-31.242,85.818-45.706
			c16.814-8.383,33.67-16.841,49.973-26.168C1477.465,762.175,1472.82,755.281,1467.872,756.49z"/>
		<path style="fill:#75A81E;" d="M1487.128,839.417c-2.213,0.101-4.431-0.158-6.622,0.186c-2.044,0.321-4.061,1.044-6.052,1.594
			c-4.506,1.243-9.049,2.742-13.401,4.451c-8.573,3.369-17.038,6.815-25.449,10.574c-16.772,7.496-33.538,14.935-50.89,21.006
			c-2.365,0.827-1.644,4.708,0.934,4.37c18.583-2.432,37.142-5.488,55.19-10.604c8.915-2.526,17.364-5.789,25.751-9.722
			c4.391-2.059,8.744-4.453,12.807-7.104c4.335-2.828,7.121-5.707,10.397-9.626C1491.57,842.418,1489.777,839.296,1487.128,839.417z
			"/>
		<path style="fill:#75A81E;" d="M1543.687,1020.203c-4.5-4.074-13.019-3.417-18.673-3.623c-7.19-0.261-14.359,0.388-21.538,0.815
			c-14.907,0.886-29.748,2.595-44.605,4.092c-14.583,1.469-29.117,3.285-43.656,5.136c-14.647,1.866-28.952,5.152-43.451,7.665
			c-16.499,2.86-32.865,6.653-49.169,10.456c-3.426,0.799-1.899,5.724,1.218,5.7c29.29-0.224,58.663-0.987,87.855-3.552
			c14.574-1.281,29.17-3.077,43.662-5.071c14.509-1.996,29.159-3.562,43.575-6.149c8.002-1.436,16.176-2.517,24.089-4.388
			c4.089-0.967,8.14-2.218,12.094-3.629c3.13-1.116,6.859-2.407,8.807-5.245C1544.389,1021.688,1544.364,1020.817,1543.687,1020.203
			z"/>
		<path style="fill:#75A81E;" d="M1484.301,1109.03c-15.775-3.168-31.181-7.799-47.171-9.934
			c-16.223-2.167-32.453-4.533-48.776-5.82c-16.274-1.283-32.629-1.712-48.941-2.163c-7.881-0.218-15.896-0.594-23.772-0.395
			c-8.212,0.207-16.414-0.784-24.628-0.49c-4.138,0.148-3.86,5.818-0.324,6.794c7.757,2.139,15.763,3.143,23.566,5.081
			c7.791,1.936,15.683,3.554,23.531,5.275c15.918,3.491,32.04,6.891,48.173,9.215c15.937,2.296,31.95,3.848,47.964,5.473
			c16.547,1.679,33.12,0.729,49.694,1.329C1492.068,1123.699,1492.086,1110.593,1484.301,1109.03z"/>
		<path style="fill:#75A81E;" d="M1098.195,1537.651c-0.828-4.172-0.583-8.363-1.303-12.586c-0.628-3.675-1.471-7.303-2.247-10.949
			c-1.712-8.051-3.854-15.955-5.898-23.928c-3.91-15.252-8.081-30.438-11.897-45.715c-3.807-15.244-7.044-30.636-11.115-45.814
			c-2.086-7.774-4.27-15.591-6.93-23.184c-2.621-7.487-4.194-15.716-7.489-22.909c-0.986-2.153-4.841-2.468-5.098,0.421
			c-0.681,7.657,0.64,15.664,1.002,23.338c0.382,8.098,1.242,16.096,2.418,24.125c2.343,16,6.361,31.767,10.342,47.422
			c3.942,15.505,8.061,30.956,13.1,46.143c2.562,7.723,5.077,15.451,8.257,22.944c1.487,3.505,2.94,7.026,4.626,10.44
			c1.986,4.021,4.787,7.446,6.721,11.427C1093.954,1541.442,1098.878,1541.09,1098.195,1537.651z"/>
		<path style="fill:#75A81E;" d="M1003.579,1445.754c0.029-6.541-0.559-13.042-0.888-19.574c-0.67-13.322-1.572-26.63-1.843-39.969
			c-0.265-13.032-0.422-26.096-0.419-39.129c0.002-6.479-0.45-12.943-0.844-19.408c-0.424-6.965-0.223-13.974-0.796-20.922
			c-0.264-3.197-4.416-2.978-5.241-0.25c-2.034,6.728-3.137,13.786-4.559,20.667c-1.313,6.355-2.473,12.75-2.967,19.226
			c-1.046,13.724-1.393,27.33-0.895,41.085c0.493,13.602,1.3,27.199,3.244,40.676c0.934,6.473,1.822,12.955,3.517,19.279
			c1.572,5.868,2.948,12.413,7.562,16.591c0.553,0.501,1.34,0.195,1.666-0.378
			C1004.122,1458.374,1003.552,1451.703,1003.579,1445.754z"/>
		<path style="fill:#75A81E;" d="M1241.296,1487.305c-0.134-3.776,0.343-7.663-0.14-11.41c-0.506-3.918-1.508-8.011-2.553-11.804
			c-1.987-7.211-4.296-14.35-6.441-21.516c-4.494-15.012-11.554-28.312-18.616-42.224c-1.122-2.211-4.085-0.691-3.802,1.471
			c0.972,7.441,2.073,14.922,2.864,22.371c0.827,7.787,3.135,15.204,5.497,22.629c2.27,7.137,4.401,14.338,6.817,21.427
			c1.197,3.51,2.66,7.1,4.256,10.457c1.7,3.577,4.302,6.633,6.423,9.989C1237.096,1491.062,1241.409,1490.518,1241.296,1487.305z"/>
		<path style="fill:#75A81E;" d="M1290.941,1473.293c0.044-3.456,0.581-6.976,0.416-10.428c-0.163-3.4-1.084-6.892-1.694-10.243
			c-1.269-6.972-2.677-14.08-4.649-20.889c-3.956-13.656-8.446-27.094-13.319-40.446c-9.829-26.926-20.067-53.73-32.286-79.676
			c-3.438-7.299-7.219-14.525-11.53-21.349c-4.296-6.801-8.357-13.806-13.607-19.953c-1.756-2.056-6.04-1.291-5.517,1.983
			c1.086,6.804,3.265,13.189,5.173,19.762c1.982,6.83,3.878,13.585,6.261,20.301c4.727,13.326,10.216,26.492,15.614,39.56
			c10.945,26.499,20.885,53.384,31.436,80.036c2.925,7.389,6.165,14.622,9.65,21.767c1.681,3.447,3.313,6.965,5.138,10.337
			c1.938,3.58,4.914,6.531,7.314,9.812C1289.884,1474.614,1290.93,1474.141,1290.941,1473.293z"/>
		<path style="fill:#75A81E;" d="M1315.8,1349.328c-4.672-9.771-9.964-19.232-15.423-28.583
			c-10.617-18.186-23.996-36.209-39.7-50.369c-2.058-1.855-5.451,0.085-4.174,2.839c4.382,9.451,9.842,18.477,14.591,27.757
			c4.799,9.38,10.187,18.445,15.533,27.517c5.234,8.88,10.14,17.944,15.149,26.951c4.556,8.193,9.117,20.132,18.223,23.94
			c1.274,0.532,2.806-0.43,3.203-1.648C1326.196,1368.542,1319.708,1357.502,1315.8,1349.328z"/>
		<path style="fill:#75A81E;" d="M804.49,1278.003c-17.011,16.582-36.608,30.001-56.578,42.755
			c-9.728,6.214-20.019,10.921-30.418,15.851c-5.279,2.504-10.702,4.674-16.018,7.09c-5.679,2.582-11.191,5.495-17.001,7.778
			c-2.194,0.861-1.146,3.765,0.949,3.765c6.301,0,12.539,0.18,18.793-0.67c6.346-0.862,12.561-2.62,18.679-4.495
			c11.967-3.668,23.436-9.848,34.2-16.141c21.512-12.576,38.382-31.911,50.831-53.255
			C809.035,1278.781,806.068,1276.465,804.49,1278.003z"/>
		<path style="fill:#75A81E;" d="M851.095,1198.602c-7.657,1.601-14.984,5.771-22.438,8.231c-7.805,2.576-15.67,5.298-23.245,8.549
			c-14.815,6.356-29.431,13.16-44.209,19.602c-14.801,6.453-29.742,12.659-44.686,18.773c-7.729,3.163-15.205,6.981-22.83,10.393
			c-3.779,1.692-7.622,3.264-11.345,5.07c-3.095,1.502-6.895,2.72-8.314,6.086c-0.43,1.019-0.28,2.591,0.74,3.261
			c3.065,2.016,6.141,1.313,9.641,0.796c4.036-0.595,8.031-1.512,12.025-2.36c8.219-1.745,16.581-3.323,24.644-5.698
			c16.009-4.717,31.556-10.642,46.956-17.044c15.725-6.537,31.198-13.666,46.029-22.059c7.152-4.047,14.006-8.912,20.472-13.941
			c6.174-4.802,13.862-8.914,19.143-14.693C855.317,1201.774,853.686,1198.06,851.095,1198.602z"/>
		<path style="fill:#75A81E;" d="M651.622,1220.839c-14.073-3.36-29.591,4.457-42.096,9.987
			c-3.396,1.502-35.69,15.582-28.876,21.058c4.414,3.548,11.994,0.801,16.928-0.507c6.895-1.828,13.555-4.119,20.289-6.463
			c12.229-4.257,27.619-9.268,35.148-20.624C653.837,1223.053,653.04,1221.177,651.622,1220.839z"/>
		<path style="fill:#75A81E;" d="M678.983,1072.617c-4.948-1.36-10.694-1.414-15.802-1.796c-5.359-0.401-10.666-0.95-16.059-0.877
			c-11.429,0.154-22.724,0.897-34.116,1.796c-13.626,1.075-27.223,2.47-40.813,3.911c-5.429,0.576-26.985,1.753-30.216,7.183
			c-3.883,6.532,19.054,6.863,22.106,6.86c16.748-0.013,33.618-1.006,50.335-1.967c11.146-0.641,22.171-1.485,33.256-2.831
			c5.337-0.649,10.432-1.976,15.679-2.975c5.289-1.008,11.227-1.999,16.184-4.111
			C681.839,1076.829,681.207,1073.228,678.983,1072.617z"/>
		<path style="fill:#75A81E;" d="M765.829,1027.656c-5.308-4.072-12.752-6.573-18.996-8.884c-6.415-2.374-12.627-5.235-19.174-7.261
			c-13.59-4.205-27.383-7.319-41.408-9.668c-17.809-2.983-35.783-5.001-53.818-5.909c-8.912-0.449-18.948-1.739-27.809-0.519
			c-6.31,0.869-6.944,4.215-1.674,7.719c5.904,3.927,16.276,3.564,23.297,4.76c19.067,3.248,38.091,6.761,57.02,10.742
			c13.306,2.798,26.575,5.73,39.931,8.287c6.66,1.275,13.436,1.854,20.088,3.151c6.584,1.284,14.133,3.291,20.848,2.946
			C766.735,1032.888,767.922,1029.262,765.829,1027.656z"/>
	</g>
</g>
</svg>
