<?xml version="1.0" encoding="utf-8"?>
<!-- Generator: Adobe Illustrator 27.5.0, SVG Export Plug-In . SVG Version: 6.00 Build 0)  -->
<svg version="1.1" xmlns="http://www.w3.org/2000/svg" xmlns:xlink="http://www.w3.org/1999/xlink" x="0px" y="0px"
	 viewBox="0 0 500 500" style="enable-background:new 0 0 500 500;" xml:space="preserve">
<g id="background">
	
</g>
<g id="objects">
	<g>
		<path style="fill:#FFD8A8;" d="M196.064,372.306c8.078,7.273,16.261,14.579,26.168,19.264c8.85,4.185,17.732,8.671,26.723,12.68
			c0.759,0.843,1.605,1.632,2.533,2.345c6.903,5.309,14.251,8.723,20.57,14.927c2.262,2.221,4.51,4.454,6.76,6.685
			c0.643,2.26,2.289,3.669,4.24,4.184c3.23,3.191,6.468,6.374,9.754,9.512c0.125,0.12,0.252,0.238,0.378,0.358
			c0.493,2.065,1.649,4.108,3.676,5.955c7.358,6.706,11.291,19.456,13.979,28.791c2.221,7.713,4.696,15.349,7.158,22.993h26.436
			c-0.063-0.211-0.128-0.42-0.191-0.632c0.153,0.217,0.326,0.418,0.483,0.632h102.515c-1.548-1.747-3.067-3.637-4.593-5.896
			c-4.957-7.334-18.734-27.606-24.211-34.554c-5.4-6.85-8.418-16.805-12.96-24.262c-0.63-1.034-1.214-2.09-1.773-3.158
			c-1.175-3.091-3.513-5.636-5.432-8.034c-0.959-1.199-1.814-2.361-2.367-3.536c1.848-4.427,3.027-8.977,3.637-13.592
			c0.305-2.307,0.463-4.629,0.468-6.958C399,376,387,354,373.792,333.714c-1.585-2.131-3.195-4.225-4.793-6.279
			c-1.597-2.054-3.182-4.069-4.734-6.041c0.216-0.47-1.534-3.575-1.359-4.097c2.174-6.492,4.643-11.961,4.999-18.79
			c0.363-6.977-0.103-14.155-4.022-20.161c-3.726-5.71-9.019-11.344-15.742-13.219c-6.785-1.893-12.357,0.385-17.549,3.929
			c0.162-0.839,0.254-1.729,0.253-2.68c-0.015-9.939,2.172-19.786-5.946-27.253c-3.822-3.515-8.504-6.38-13.605-7.531
			c-2.657-0.6-5.567-0.769-8.31-0.371c-4.351-0.61-8.864,1.037-12.136,4.117c-0.568-1.008-1.297-1.996-2.243-2.938
			c-4.834-4.815-11.624-7.364-18.133-7.028c2.37-6.19,3.596-12.902,3.382-19.269c5.812-5.366,11.223-11.212,15.194-18.073
			c5.867-10.135,5.864-20.743,6.07-32.086c0.217-11.944-11.974-15.983-20.356-12.132c-3.882,0.384-6.813,2.151-8.802,4.624
			c-0.494,0.405-0.964,0.833-1.384,1.302c-0.603,0.412-1.194,0.858-1.758,1.368c-7.64,6.912-13.729,15.684-18.168,24.986
			c-0.382,0.8-0.698,1.633-0.951,2.485c-0.271-0.938-0.565-1.877-0.911-2.822c-1.833-5.003-2.82-10.559-5.498-15.229
			c-5.743-10.02-14.475-15.903-25.908-17.159c-7.543-0.829-14.029,7.041-14.029,14.029c0,0.742,0.069,1.448,0.169,2.136
			c-0.902,4.53,0.141,9.494,3.758,12.504c6.21,5.169,8.085,14.495,10.774,21.8c2.988,8.114,3.499,16.527,5.706,24.697
			c-0.527,0.459-1.02,1.008-1.455,1.675c-5.04,7.721-6.341,17.465-10.649,25.638c-4.155,7.882-7.312,14.801-8.622,23.73
			c-2.27,15.474-12.192,27.994-14.857,43.268c-0.12,0.281-0.246,0.556-0.352,0.854c-1.651,4.645-1.472,10.262-1.818,15.19
			c-0.37,5.274-0.892,10.481-0.294,15.753C181.016,356.104,187.765,364.833,196.064,372.306z M415.409,493.742
			c-0.387-0.085-0.778-0.15-1.168-0.226c-0.032-0.543-0.076-1.082-0.131-1.619C414.543,492.513,414.982,493.123,415.409,493.742z
			 M383.093,400.779c-2.142-2.126-4.143-3.158-3.611-6.673c1.064,1.086,1.204,2.241,1.868,3.049
			C381.948,398.355,382.531,399.563,383.093,400.779z M365.044,461.226c-0.001,0.118-0.004,0.236-0.006,0.354
			c-1.576,0.91-3.055,1.954-4.41,3.125c-0.067-0.065-0.135-0.129-0.202-0.194C361.683,462.506,363.258,461.103,365.044,461.226z
			 M349.363,341.547C350,343,352,345,352,347c-1-2-4-3-3.875-6.11C348.517,341.125,348.921,341.35,349.363,341.547z M336.26,429.298
			c0.032,0.458,0.062,0.917,0.106,1.374c-0.197,0.26-0.399,0.521-0.606,0.781c-0.399-1.066-0.761-2.153-1.08-3.266
			C335.206,428.557,335.732,428.928,336.26,429.298z M321.901,278.047c-0.169,0.543-0.273,1.093-0.343,1.645
			c-1.021-0.394-2.044-0.789-3.054-1.238C319.651,278.44,320.797,278.332,321.901,278.047z M253.453,366.747
			c-0.05,2.885-0.118,5.77-0.232,8.654c-0.063,1.593,0.491,2.914,1.375,3.956c-1.093-0.54-2.185-1.086-3.274-1.639
			C252.277,374.119,252.92,370.456,253.453,366.747z M245.539,191.726c0.309,0.421,0.657,0.818,1.024,1.201
			c-0.392,0.434-0.73,0.902-1.044,1.385c0.026-0.378,0.044-0.761,0.043-1.156C245.562,192.674,245.549,192.202,245.539,191.726z
			 M234.034,366.776c0.036,0.871,0.07,1.742,0.127,2.612c-0.549-0.283-1.1-0.566-1.637-0.859
			C233.039,367.954,233.557,367.381,234.034,366.776z M232.355,232.646c-1.02,1.629-1.973,3.289-2.864,4.978
			c0.23-1.011,0.453-2.024,0.64-3.049c0.181-0.99-0.246-1.773-0.888-2.254C230.266,232.53,231.31,232.641,232.355,232.646z
			 M225.547,234.882c-0.262,1.278-0.554,2.546-0.877,3.802c-0.002-0.006-0.003-0.013-0.005-0.019
			c-0.059-0.217-0.155-0.416-0.278-0.594C224.756,236.996,225.141,235.932,225.547,234.882z M218.015,320.555
			c0.007-1.394,0.019-2.787,0.025-4.181c0.001-0.198-0.04-0.367-0.053-0.556c0.493,0.112,0.994,0.198,1.505,0.254
			C218.963,317.557,218.477,319.053,218.015,320.555z M221.385,247.535c0.005,0.602-0.001,1.205-0.023,1.81
			c-1.361,3.868-2.81,7.713-4.172,11.604C218.302,256.394,219.698,251.911,221.385,247.535z M206.568,310.147
			c0.219-0.925,0.45-1.839,0.71-2.727c0.207-0.708,0.423-1.414,0.635-2.12c0.195,0.889,0.461,1.753,0.8,2.58
			C208.018,308.656,207.303,309.411,206.568,310.147z M207.203,287.37c0.958-2.258,1.834-4.543,2.546-6.882
			c-0.142,2.19-0.226,4.384-0.247,6.579c-1.282,3.263-2.467,6.564-3.574,9.895C206.442,293.78,206.849,290.58,207.203,287.37z"/>
		<path style="opacity:0.6;fill:#FFD8A8;" d="M284.248,149.061c-2.656-2.237-5.694-4.017-8.876-5.505
			c-0.202,0.082-0.41,0.147-0.608,0.238c-3.882,0.384-6.813,2.151-8.802,4.624c-0.494,0.405-0.964,0.833-1.384,1.303
			c-0.603,0.412-1.194,0.858-1.758,1.368c-3.34,3.022-6.366,6.414-9.104,10.037c-6.555,4.72,1.812,15.634,17.073,11.939
			c0.002-0.001,0.004-0.001,0.006-0.002c3.078-1.295,4.845-4.014,6.807-6.576c1.959-2.559,3.942-5.071,5.98-7.566
			c1.232-1.509,3.237-3.564,3.401-5.578C287.143,151.387,285.514,150.127,284.248,149.061z"/>
		<path style="opacity:0.6;fill:#FFD8A8;" d="M285.622,156.403c0.703-0.978,1.277-2.024,1.361-3.06
			c0.159-1.955-1.47-3.215-2.736-4.281c-2.656-2.237-5.694-4.017-8.876-5.505c-0.202,0.082-0.41,0.147-0.608,0.238
			c-3.032,0.3-5.475,1.451-7.352,3.115C273.751,149.279,279.807,152.428,285.622,156.403z"/>
		<path style="fill:#F24B52;" d="M295.303,75.183c-0.251-1.654-0.768-3.219-1.477-4.667c-0.044-0.015-0.089-0.029-0.133-0.029
			c0.015-0.03,0.044-0.074,0.059-0.103c-0.797-1.625-1.861-3.101-3.131-4.401c-0.797,0.901-1.595,1.816-2.392,2.732
			c-0.089,0.103-0.177,0.207-0.266,0.31c0.015-0.059,0.044-0.118,0.059-0.192c0.015-0.089,0.044-0.192,0.044-0.28
			c0.103-0.532,0.089-1.049,0-1.521c0.517-0.679,1.034-1.344,1.565-2.023c-2.215-1.964-4.888-3.47-7.753-4.342
			c-0.768,0.975-1.506,1.964-2.245,2.968c-1.624,2.2-3.205,4.445-4.74,6.704c-0.354,0.354-0.694,0.709-1.034,1.078
			c1.654-2.643,3.308-5.287,4.918-7.975c0.62-1.034,1.24-2.068,1.846-3.116c-1.698-0.414-3.441-0.591-5.184-0.546
			c-0.679,0.015-1.373,0.089-2.068,0.192c-1.418-0.074-2.85-0.059-4.238,0.03c-2.26,0.162-4.327,0.679-6.247,1.565
			c-3.042,0.871-5.361,2.378-7.871,4.46c-1.92,1.595-4.135,6.055-5.582,8.167c-1.462-2.112-3.677-6.572-5.597-8.167
			c-2.496-2.082-4.814-3.589-7.856-4.46c-1.935-0.886-3.987-1.403-6.247-1.565c-1.403-0.089-2.821-0.103-4.253-0.03
			c-0.694-0.103-1.373-0.177-2.053-0.192c-3.278-0.089-6.557,0.664-9.481,2.082c-0.015,0-0.015,0-0.015,0
			c-0.148,0.222-0.31,0.428-0.458,0.65c-1.004,1.093-2.008,2.186-2.983,3.308c-0.015,0.015-0.03,0.03-0.044,0.03
			c-1.122,1.24-2.215,2.496-3.323,3.766c-1.063,1.241-2.127,2.496-3.175,3.751c-0.162,0.591-0.295,1.196-0.384,1.817
			c-0.916,5.892,0.074,12.242,2.215,18.179c0.605-0.606,1.211-1.226,1.816-1.846v-0.015c0.384-0.384,0.768-0.783,1.152-1.181
			c-0.369,0.458-0.738,0.916-1.122,1.373c-0.295,0.354-0.591,0.709-0.886,1.078c-0.281,0.31-0.546,0.62-0.842,0.916
			c0.561,1.536,1.211,3.057,1.92,4.534c0.679,1.624,1.433,3.234,2.333,4.711c0.044,0.074,0.103,0.148,0.148,0.222
			c1.772,3.042,3.973,5.833,6.498,8.536c0.34-0.857,0.694-1.713,1.063-2.57c0.044-0.118,0.089-0.236,0.148-0.354
			c0.192-0.458,0.384-0.916,0.591-1.359c0.325-0.738,0.65-1.462,0.989-2.186c0.561-0.65,1.122-1.3,1.669-1.949
			c-0.738,1.536-1.477,3.057-2.23,4.578c-0.207,0.428-0.428,0.856-0.65,1.299c-0.044,0.089-0.089,0.177-0.148,0.281
			c-0.399,0.812-0.827,1.639-1.255,2.451c1.078,1.167,2.215,2.319,3.396,3.485c0.665,0.635,1.344,1.255,1.994,1.89
			c0.295,0.281,0.605,0.561,0.901,0.842c3.81,3.662,7.694,7.251,11.637,10.766c0.369,0.34,0.753,0.665,1.137,1.004
			c1.093-0.236,2.097-1.181,2.968-2.318c0.724-0.916,1.373-1.964,1.935-2.865c-0.502,1.27-0.783,2.584-0.65,3.987
			c0.015,0.295,0.059,0.591,0.118,0.901c0.192,0.93,0.635,1.639,1.226,2.141l-0.591,0.591l-0.93,0.945
			c2.702,2.097,5.567,3.972,8.757,5.361c0.059,0.029,0.103,0.044,0.148,0.059c0.015,0,0.015,0.015,0.03,0.015
			c0.133,0.059,0.251,0.059,0.384,0.044c0.118,0.015,0.251,0.015,0.384-0.044c0.015,0,0.015-0.015,0.03-0.015
			c0.044-0.015,0.089-0.03,0.133-0.059c5.287-2.304,9.702-5.937,13.985-9.747c3.943-3.515,7.812-7.103,11.637-10.766
			c0.295-0.281,0.591-0.561,0.886-0.842c0.664-0.635,1.344-1.255,1.994-1.89c4.017-3.913,7.502-7.783,10.086-12.213
			c0.044-0.074,0.103-0.148,0.148-0.222c0.901-1.477,1.639-3.087,2.333-4.711C294.52,90.999,296.455,82.714,295.303,75.183z
			 M289.573,71.668c-2.599,4.253-5.375,8.373-8.27,12.42c-0.502-0.266-1.034-0.443-1.61-0.576
			C282.928,79.524,286.206,75.552,289.573,71.668z M256.361,79.82c-2.245,3.441-4.489,6.882-6.749,10.308
			c1.226-2.171,2.451-4.371,3.662-6.557C254.293,82.315,255.342,81.06,256.361,79.82z M273.978,94.056
			c-0.724,0.96-1.462,1.935-2.186,2.895c-1.314,1.418-2.584,2.88-3.825,4.371c1.373-2.215,2.776-4.401,4.194-6.572
			C272.767,94.513,273.373,94.277,273.978,94.056z M233.102,88.902c1.122-1.477,2.289-2.939,3.456-4.416
			c-0.487,0.798-0.975,1.58-1.447,2.378c-2.88,4.105-5.715,8.226-8.492,12.405c-0.192,0.281-0.399,0.576-0.605,0.856
			c0.93-1.949,1.861-3.899,2.791-5.848C230.251,92.505,231.699,90.718,233.102,88.902z M217.846,76.29
			c-1.255,1.418-2.51,2.821-3.81,4.194c-0.93,0.99-1.89,1.994-2.835,2.983c0.738-1.122,1.462-2.245,2.186-3.367
			c1.625-1.979,3.249-3.943,4.844-5.922c0.901-1.122,1.787-2.245,2.673-3.382C219.914,72.642,218.895,74.474,217.846,76.29z
			 M220.445,83.556c0.059-0.103,0.133-0.207,0.192-0.325c0.812-1.329,1.624-2.658,2.437-3.987c0.458-0.605,0.901-1.211,1.359-1.802
			c1.078-1.432,2.141-2.865,3.219-4.297C225.289,76.689,222.941,80.233,220.445,83.556z"/>
	</g>
	<g>
		<path style="opacity:0.5;fill:#F24B52;" d="M316.605,500h2.414c-2.712-7.624-5.792-15.151-8.545-22.7
			c-3.861-10.587-8.563-20.875-14.609-30.402c-3.607-5.684-7.482-11.405-11.633-16.706c-2.43-3.104-5.364-5.244-8.384-7.383
			c-0.55-0.527-1.121-1.031-1.716-1.504c-0.083-0.132-0.184-0.257-0.328-0.364c-8.911-6.573-18.671-12.043-27.764-18.391
			c-6.718-4.689-13.473-9.323-20.253-13.923c-1.731-1.605-3.464-3.218-5.247-4.722c5.204,3.595,8.915,6.256,9.301,6.793
			c0.342,0.476,1.14,0.018,0.794-0.464c-1.199-1.666-30.318-21.148-42.921-29.579c-0.244-0.399-0.479-0.802-0.697-1.213
			c12.387,8.368,41.508,27.43,42.77,28.755c0.409,0.429,1.058-0.221,0.65-0.65c-1.314-1.38-32.821-21.982-44.207-29.729
			c-0.374-0.856-0.696-1.736-0.979-2.638c12.692,8.391,42.128,27.973,43.91,29.22c0.486,0.34,0.945-0.456,0.464-0.794
			c-1.824-1.276-32.598-21.748-44.766-29.786c-0.165-0.628-0.313-1.267-0.444-1.916c12.202,7.769,42.991,28.118,44.754,29.274
			c0.496,0.325,0.957-0.47,0.464-0.794c-1.799-1.179-33.787-22.321-45.458-29.722c-0.002-0.014-0.005-0.027-0.008-0.04
			c-0.069-0.417-0.132-0.84-0.195-1.264c12.608,8.208,42.759,27.709,44.629,28.869c0.504,0.313,0.966-0.482,0.464-0.794
			c-1.902-1.18-33.093-21.354-45.278-29.292c-0.14-0.923-0.303-1.843-0.51-2.749c0.801,0.581,1.692,1.22,2.632,1.891
			c0.06,0.057,0.124,0.121,0.184,0.177c1.195,1.128,2.485,2.112,3.842,2.991c1.687,1.67,3.521,3.139,5.836,4.183
			c0.406,0.183,0.835,0.365,1.261,0.548c0.575,0.415,0.98,0.712,1.15,0.85c1.161,0.94,31.146,19.821,32.119,20.958
			c0.385,0.45,1.033-0.203,0.65-0.65c-0.811-0.948-21.516-14.058-29.258-19.064c1.283,0.443,2.592,0.769,3.921,0.994
			c12.545,8.05,25.148,15.998,26.75,17.18c0.477,0.351,0.935-0.446,0.464-0.794c-1.5-1.107-13.117-8.441-25.102-16.122
			c0.804,0.065,1.613,0.099,2.43,0.086c10.2,6.754,24.012,16.094,26.027,17.018c0.532,0.244,1.02-0.536,0.484-0.782
			c-1.986-0.91-14.893-9.613-24.995-16.305c0.042-0.003,0.083-0.002,0.125-0.006c0.836-0.067,1.652-0.183,2.456-0.331
			c9.748,6.112,23.105,14.73,24.172,15.753c0.427,0.41,1.078-0.24,0.65-0.65c-1.113-1.067-13.802-9.262-23.543-15.371
			c0.51-0.12,1.017-0.249,1.518-0.395c9.288,6.05,23.319,14.941,24.317,15.355c0.546,0.227,0.784-0.662,0.244-0.886
			c-0.872-0.362-14.227-8.844-23.422-14.823c0.38-0.124,0.758-0.255,1.134-0.391c9.12,5.741,23.486,14.747,24.209,15.065
			c0.536,0.236,1.005-0.556,0.464-0.794c-0.268-0.118-2.415-1.432-5.469-3.328c0.622,0.192,1.248,0.363,1.883,0.482
			c0.547,0.102,1.1,0.171,1.655,0.224c1.787,1.12,2.946,1.837,3.079,1.893c0.538,0.23,1.007-0.562,0.464-0.794
			c-0.093-0.04-0.689-0.403-1.651-1.001c2.72,0.046,5.489-0.278,8.154-0.406c4.11-0.197,8.349-0.851,12.233-2.244
			c0.302-0.108,0.428-0.366,0.429-0.62c0.693-0.213,0.359-1.335-0.413-1.197c-6.042,1.081-13.668,0.962-19.589-0.633
			c-2.771-0.747-5.671-1.78-8.115-3.291c-1.086-0.671-2.085-1.473-3.073-2.292c-0.438-0.619-0.822-1.268-1.385-1.801
			c-1.73-1.639-4.253-2.4-6.327-3.494c-0.447-0.236-0.861,0.094-0.944,0.47c-7.951,2.87-17.24,3.692-25.238,0.74
			c-2.053-0.758-4.138-1.618-6.13-2.645c-2.163-1.76-4.159-3.727-6.174-5.663c-2.935-2.82-5.817-5.743-7.639-9.405
			c-0.117-2.017-0.113-4.062,0.024-6.165c0.183-2.811,0.402-5.688,0.733-8.555c0.217-1.031,0.438-2.062,0.657-3.093
			c1.205-5.657,2.677-11.26,4.604-16.717c1.579-4.469,3.621-8.722,5.526-13.044c0.281-0.134,0.507-0.391,0.596-0.799
			c0.093-0.43,0.204-0.864,0.311-1.298c0.123-0.292,0.256-0.58,0.377-0.873c4.128-9.996,7.068-20.412,10.758-30.565
			c1.495-3.409,2.952-6.835,4.348-10.286c0.058-0.143,0.118-0.284,0.176-0.427c1.207-2.557,2.418-5.113,3.46-7.743
			c1.599-4.037,3.02-8.116,4.944-11.981c1.14-1.934,2.305-3.856,3.483-5.771c0.093-0.078,0.164-0.177,0.188-0.307
			c10.321-16.75,21.843-32.881,30.938-50.307c0.103,1.673,0.441,3.3,1.565,4.654c1.463,1.764,3.504,2.417,5.645,2.644
			c1.017,0.269,2.051,0.43,3.035,0.476c2.73,0.126,6.467-0.02,9-1.195c2.903-1.347,5.288-4.252,7.458-6.509
			c2.62-2.725,5.151-5.649,7.501-8.61c1.083-1.364,3.68-4.344,3.375-6.309c-0.027-0.175-0.085-0.348-0.156-0.518
			c0.105-0.172,0.13-0.391-0.009-0.612c-0.788-1.255-1.953-2.044-3.214-2.709c-2.563-1.858-5.474-3.373-8.401-4.475
			c3.009-0.376,6.141-0.68,9.035,0.146c2.258,0.644,3.925,1.805,5.153,3.355c1.835,3.458,2.139,8.278,2.246,11.654
			c0.221,6.961,0.204,14.06-1.54,20.85c-0.047,0.15-0.085,0.3-0.134,0.449c0,0,0,0,0,0.001c-0.919,2.84-2.115,5.641-3.536,8.32
			c-0.903,1.539-1.931,2.999-3.007,4.433c-0.172,0.174-0.325,0.363-0.503,0.532c-3.172,3.015-6.78,5.702-9.143,9.353
			c-0.545,0.307-1.238,0.63-1.579,1.009c-0.542,0.602-0.663,1.128-0.699,1.741c-0.636-0.499-1.23-1.046-1.709-1.698
			c-0.347-0.472-1.145-0.014-0.794,0.464c0.682,0.928,1.551,1.657,2.465,2.336c-0.005,0.093-0.008,0.184-0.016,0.283
			c-0.047,0.581-0.129,1.184-0.204,1.783c-0.922-0.926-1.767-1.93-2.526-2.984c-0.342-0.476-1.14-0.018-0.794,0.464
			c0.943,1.31,2.006,2.533,3.178,3.639c-0.034,0.223-0.08,0.451-0.117,0.676c-1.159-1.035-2.341-2.043-3.415-3.169
			c-0.409-0.429-1.058,0.221-0.65,0.65c1.217,1.278,2.576,2.403,3.879,3.588c-0.049,0.267-0.085,0.531-0.138,0.799
			c-0.087,0.383-0.171,0.767-0.259,1.15c-1.422-1.16-2.762-2.427-4.269-3.482c-0.486-0.34-0.946,0.457-0.464,0.794
			c1.593,1.115,2.994,2.471,4.509,3.681c-0.052,0.231-0.106,0.462-0.156,0.694c-0.035,0.136-0.075,0.27-0.111,0.406
			c-1.77-1.053-3.306-2.472-5.033-3.604c-0.496-0.325-0.957,0.47-0.464,0.794c1.796,1.178,3.384,2.666,5.246,3.729
			c-0.076,0.268-0.152,0.535-0.232,0.801c-1.911-1.303-3.838-2.581-5.804-3.801c-0.504-0.313-0.966,0.482-0.464,0.794
			c2.028,1.258,4.016,2.577,5.985,3.923c-0.226,0.71-0.461,1.412-0.711,2.097c-0.982-0.923-1.997-1.808-3.046-2.657
			c-1.161-0.94-2.489-1.782-3.462-2.92c-0.385-0.45-1.033,0.203-0.65,0.65c0.979,1.144,2.299,1.978,3.463,2.92
			c1.153,0.934,2.271,1.903,3.339,2.931c-0.041,0.105-0.081,0.212-0.122,0.316c-2.48-2.024-5.563-3.41-8.093-5.276
			c-0.476-0.351-0.935,0.446-0.464,0.794c2.382,1.757,5.3,3.087,7.688,4.955c-0.479,0.076-0.958,0.167-1.438,0.274
			c-2.541-1.33-4.833-3.184-7.489-4.321c-0.538-0.23-1.007,0.561-0.464,0.794c2.364,1.013,4.449,2.567,6.666,3.848
			c-0.819,0.228-1.635,0.49-2.445,0.798c-1.748-0.864-3.337-2.053-4.739-3.398c-0.427-0.41-1.078,0.239-0.65,0.65
			c1.288,1.236,2.714,2.337,4.271,3.205c-0.587,0.25-1.171,0.515-1.748,0.802c-0.905-0.855-1.904-1.608-3.061-2.088
			c-0.546-0.227-0.784,0.662-0.244,0.886c0.913,0.379,1.713,0.983,2.445,1.654c-0.343,0.183-0.683,0.37-1.02,0.565
			c-0.69-0.437-1.394-0.848-2.146-1.178c-0.536-0.236-1.005,0.556-0.464,0.794c0.597,0.262,1.163,0.577,1.717,0.914
			c-0.442,0.273-0.878,0.557-1.308,0.85c-0.51-0.361-0.978-0.787-1.557-1.034c-0.538-0.23-1.007,0.562-0.464,0.794
			c0.455,0.195,0.84,0.501,1.232,0.799c-2.838,2.04-5.359,4.456-7.29,7.016c-3.044,4.034-5.18,9.058-7.286,13.633
			c-2.162,4.696-4.106,9.517-5.491,14.503c-0.966,3.477-1.974,6.774-3.141,10.059c-2.828,6.047-10.779,25.794-11.675,32.326
			c-0.161,0.526-0.307,1.057-0.418,1.603c-0.111,0.549,0.429,0.872,0.833,0.766c0.269-0.001,0.546-0.139,0.641-0.436
			c0.527-1.656,0.98-3.313,1.43-4.966c0.233-0.57,0.466-1.142,0.688-1.723c0.815-2.139,6.375-17.954,7.062-20.134
			c0.274-0.869,0.604-1.71,0.957-2.54c0.116-0.265,0.23-0.531,0.346-0.796c1.204-2.688,2.627-5.269,3.494-8.14
			c0.1-0.33,0.217-0.656,0.321-0.985c1.501-3.572,2.867-7.198,4.129-10.861c2.33-5.326,4.972-10.535,7.588-15.67
			c1.251-2.456,2.242-4.886,3.737-7.008c3.661-3.831,8.134-6.955,12.92-7.941c4.066-0.838,8.688-0.89,12.741,0.051
			c4.468,1.037,8.193,3.696,11.668,6.568c-0.341,0.544-0.651,1.107-0.948,1.679c-1.388-1.337-2.657-2.801-4.229-3.938
			c-0.48-0.347-0.939,0.45-0.464,0.794c1.588,1.149,2.857,2.65,4.271,3.996c-0.25,0.525-0.488,1.054-0.711,1.589
			c-1.427-1.35-2.879-2.67-4.439-3.87c-0.469-0.36-0.927,0.438-0.464,0.794c1.6,1.23,3.08,2.598,4.538,3.99
			c-0.104,0.267-0.213,0.534-0.311,0.801c-0.07,0.189-0.132,0.38-0.201,0.57c-1.631-1.266-3.111-2.729-4.807-3.916
			c-0.486-0.34-0.945,0.457-0.464,0.794c1.747,1.223,3.266,2.73,4.955,4.021c-0.116,0.325-0.231,0.65-0.344,0.977
			c-1.93-1.068-3.554-2.61-5.401-3.82c-0.496-0.325-0.957,0.47-0.464,0.794c1.896,1.243,3.556,2.835,5.555,3.905
			c-0.091,0.268-0.186,0.535-0.276,0.804c-1.997-1.367-4.013-2.704-6.07-3.98c-0.504-0.313-0.966,0.482-0.464,0.794
			c2.115,1.312,4.188,2.688,6.24,4.095c-0.23,0.703-0.46,1.406-0.683,2.112c-0.629-0.552-1.272-1.088-1.924-1.616
			c-1.16-0.94-2.489-1.782-3.462-2.92c-0.385-0.45-1.033,0.203-0.65,0.65c0.979,1.144,2.299,1.978,3.462,2.92
			c0.773,0.626,1.528,1.27,2.269,1.93c-0.091,0.292-0.177,0.585-0.267,0.877c-1.842-1.15-3.78-2.185-5.472-3.432
			c-0.477-0.351-0.935,0.446-0.464,0.794c1.739,1.283,3.764,2.341,5.66,3.544c-0.178,0.589-0.361,1.175-0.537,1.765
			c-1.663-1.046-3.302-2.148-5.108-2.922c-0.538-0.23-1.007,0.561-0.464,0.794c1.876,0.804,3.578,1.945,5.308,3.022
			c-0.224,0.755-0.447,1.51-0.669,2.266c-1.457-0.822-2.792-1.872-3.993-3.025c-0.427-0.41-1.078,0.24-0.65,0.65
			c1.319,1.265,2.777,2.394,4.378,3.271c-0.189,0.643-0.38,1.285-0.57,1.928c-0.948-0.717-1.881-1.46-2.875-2.111
			c-0.496-0.325-0.957,0.47-0.464,0.794c1.059,0.694,2.05,1.49,3.063,2.25c-0.116,0.39-0.232,0.781-0.348,1.171
			c-1.005-0.662-2.014-1.317-3.038-1.952c-0.504-0.313-0.966,0.482-0.464,0.794c1.086,0.673,2.156,1.37,3.222,2.074
			c-0.179,0.593-0.36,1.186-0.543,1.777c-0.889-0.671-1.794-1.346-2.507-2.18c-0.385-0.45-1.033,0.203-0.65,0.65
			c0.817,0.955,1.869,1.696,2.872,2.462c-0.149,0.474-0.308,0.944-0.46,1.417c-0.835-0.506-1.656-1.021-2.42-1.585
			c-0.477-0.351-0.935,0.446-0.464,0.794c0.814,0.6,1.696,1.148,2.593,1.686c-0.188,0.575-0.37,1.153-0.564,1.726
			c-0.655-0.374-1.32-0.728-2.014-1.026c-0.538-0.23-1.007,0.561-0.464,0.794c0.747,0.32,1.462,0.704,2.167,1.107
			c-0.221,0.638-0.447,1.275-0.678,1.91c-0.286-0.246-0.571-0.494-0.842-0.754c-0.427-0.41-1.078,0.24-0.65,0.65
			c0.374,0.359,0.763,0.702,1.162,1.034c-0.007,0.018-0.012,0.036-0.019,0.053c-2.22,5.943-4.801,11.757-6.669,17.826
			c-1.689,5.489-7.895,23.738-7.684,29.549c0.025,0.69,1.089,0.897,1.249,0.169c0.677-3.068,1.904-5.961,2.741-8.984
			c0.857-3.095,5.488-18.342,6.586-21.364c2.015-5.549,4.382-10.964,6.394-16.514c2.168-5.98,3.826-12.131,6.077-18.082
			c0.904-2.391,1.799-4.795,2.838-7.123c0.104-0.179,0.217-0.356,0.311-0.538c0.869-1.671,0.834-3.803,1.925-5.343
			c1.407-1.984,2.678-4.225,4.214-6.267c2.107-2.683,8.581-2.256,12.891-1.867c6.017,0.543,10.576,3.55,15.205,6.993
			c2.226,1.656,4.361,4.622,5.67,7.147c0.768,1.482,1.085,3.137,1.203,4.827c-0.852-0.859-1.715-1.704-2.701-2.418
			c-0.48-0.347-0.939,0.45-0.464,0.794c1.188,0.86,2.199,1.917,3.223,2.96c0.013,0.768-0.002,1.534-0.022,2.29
			c-1.312-1.232-2.65-2.435-4.08-3.535c-0.469-0.36-0.927,0.438-0.464,0.794c1.59,1.223,3.063,2.582,4.513,3.966
			c-0.003,0.119-0.007,0.241-0.01,0.359c-0.01,0.442-0.029,0.888-0.051,1.337c-1.799-1.333-3.394-2.931-5.233-4.218
			c-0.486-0.34-0.945,0.457-0.464,0.794c1.976,1.383,3.668,3.122,5.639,4.506c-0.018,0.327-0.036,0.655-0.051,0.984
			c-0.007-0.004-0.01-0.01-0.018-0.013c-2.373-1.037-4.216-2.894-6.36-4.3c-0.496-0.325-0.957,0.47-0.464,0.794
			c2.145,1.406,3.986,3.262,6.36,4.3c0.168,0.073,0.325,0.04,0.451-0.039c-0.02,0.575-0.028,1.149-0.016,1.72
			c-2.417-1.714-5.751-4.113-7.585-5.251c-0.504-0.313-0.966,0.482-0.464,0.794c1.97,1.222,5.672,3.901,8.107,5.62
			c0.081,0.987,0.248,1.957,0.559,2.893c-1.819-1.453-4.139-3.198-5.032-3.922c-1.161-0.94-2.489-1.782-3.462-2.92
			c-0.385-0.45-1.033,0.203-0.65,0.65c0.979,1.144,2.299,1.978,3.462,2.92c1.07,0.866,4.186,3.198,6.036,4.739
			c-0.199,0.203-0.386,0.417-0.579,0.626c-2.591-2.438-6.107-3.909-8.927-5.989c-0.476-0.351-0.935,0.446-0.464,0.794
			c2.753,2.031,6.228,3.489,8.765,5.872c-0.296,0.338-0.576,0.69-0.859,1.041c-2.704-1.338-5.097-3.328-7.891-4.526
			c-0.538-0.23-1.007,0.561-0.464,0.794c2.753,1.18,5.128,3.092,7.773,4.453c-0.45,0.589-0.882,1.192-1.298,1.808
			c-0.049-0.071-0.113-0.136-0.209-0.175c-2.107-0.866-3.984-2.254-5.62-3.823c-0.427-0.41-1.078,0.24-0.65,0.65
			c1.757,1.685,3.762,3.128,6.02,4.057c-0.403,0.626-0.79,1.261-1.159,1.907c-1.327-0.927-2.57-1.987-3.927-2.877
			c-0.496-0.325-0.957,0.47-0.464,0.794c1.362,0.893,2.61,1.956,3.944,2.885c-0.181,0.331-0.36,0.662-0.532,0.997
			c-1.234-0.821-2.474-1.633-3.734-2.414c-0.504-0.313-0.966,0.482-0.464,0.794c1.278,0.793,2.536,1.616,3.787,2.449
			c-0.269,0.55-0.528,1.103-0.776,1.659c-0.994-0.758-2.036-1.498-2.84-2.437c-0.385-0.45-1.033,0.203-0.65,0.65
			c0.882,1.031,2.038,1.813,3.11,2.647c-0.188,0.444-0.364,0.889-0.539,1.334c-0.891-0.537-1.765-1.086-2.579-1.686
			c-0.476-0.352-0.935,0.446-0.464,0.794c0.848,0.626,1.766,1.196,2.703,1.758c-0.02,0.055-0.044,0.109-0.064,0.163
			c-0.187,0.505-0.364,1.015-0.548,1.521c-0.674-0.387-1.361-0.749-2.076-1.055c-0.538-0.23-1.007,0.561-0.464,0.794
			c0.767,0.329,1.503,0.719,2.225,1.134c-0.232,0.64-0.465,1.28-0.693,1.922c-0.302-0.258-0.6-0.52-0.885-0.793
			c-0.427-0.41-1.078,0.24-0.65,0.65c0.387,0.371,0.789,0.725,1.203,1.066c-0.716,2.026-1.422,4.058-2.12,6.092
			c-0.204,0.438-0.41,0.874-0.593,1.322c-0.483,1.178-0.813,2.381-1.084,3.598c-0.277,0.818-0.56,1.638-0.837,2.456
			c-0.984,2.908-1.913,5.83-2.922,8.729c-0.353,1.014-0.635,2.056-0.908,3.102c-0.051,0.095-0.073,0.186-0.072,0.275
			c-0.476,1.839-0.927,3.685-1.635,5.426c-0.112,0.275-0.018,0.492,0.158,0.623c0.058,0.673,1.101,0.916,1.22,0.17
			c0.407-2.533,2.061-4.583,2.979-6.94c0.964-2.472,1.545-5.078,2.095-7.667c0.005-0.025,0.009-0.051,0.014-0.076
			c0.418-1.314,0.849-2.62,1.374-3.876c2.018-4.827,4.448-9.502,6.356-14.366c1.868-4.763,4.016-9.667,6.742-14.019
			c1.474-2.354,3.341-3.476,5.582-4.845c2.078-0.568,4.133-1.178,6.42-1.244c1.72-0.049,3.51-0.118,5.297-0.105
			c3.434,0.723,6.607,2.492,9.314,4.883c1.525,1.941,3.308,3.7,4.677,5.797c0.747,1.145,1.448,2.335,2.093,3.557
			c0.739,1.71,1.293,3.472,1.608,5.237c0.277,1.548,0.458,3.105,0.561,4.669c-0.127,4.373-0.564,8.781-0.856,13.032
			c-0.18,2.621-0.849,5.211-1.565,7.795c-0.716,2.584-1.48,5.163-1.853,7.76C359,322,359,324,362,325c1,0,1-2,1-3
			c1.429,1.714,2.913,3.505,4.431,5.365c1.518,1.859,3.07,3.787,4.632,5.776C386,353,397,376,398.013,401.083
			c-0.224,2.716-0.681,5.417-1.383,8.091c-0.709,2.677-1.662,5.327-2.887,7.938c-0.797,1.306-1.709,2.559-2.745,3.75
			c-1.189,0.882-2.48,1.655-3.849,2.334s-2.813,1.266-4.324,1.775c-6.467,2.177-13.288,3.714-20.117,3.865
			c-3.535,0.078-7.213,0.234-10.726-0.19c-0.942-0.114-1.827-0.344-2.687-0.628c-0.069-0.133-0.188-0.245-0.373-0.298
			c-0.371-0.107-0.764-0.191-1.163-0.27c-1.721-0.693-3.395-1.496-5.25-1.96c-0.427-0.107-0.789,0.247-0.799,0.622
			c-0.057,0.192-0.036,0.408,0.138,0.596c3.553,3.839,9.316,4.377,14.252,4.556c1.16,0.042,2.331,0.069,3.5,0.099
			c13.477,8.771,36.773,23.953,37.451,24.875c0.347,0.472,1.145,0.014,0.794-0.464c-0.729-0.992-22.818-15.432-36.509-24.362
			c1.225,0.024,2.455,0.027,3.685,0.032c13.831,9.266,32.219,21.68,33.106,22.912c0.342,0.476,1.14,0.018,0.794-0.464
			c-0.926-1.286-18.496-13.193-32.26-22.436c0.376-0.001,0.75-0.015,1.126-0.018c13.336,8.858,29.357,19.443,30.286,20.418
			c0.409,0.429,1.058-0.221,0.65-0.65c-0.907-0.953-16.209-11.07-29.347-19.794c1.007-0.017,2.012-0.032,3.016-0.066
			c11.928,7.928,23.937,15.931,25.055,16.713c0.486,0.34,0.946-0.456,0.464-0.794c-1.084-0.759-12.409-8.307-23.971-15.993
			c0.906-0.04,1.813-0.072,2.713-0.128c10.403,6.827,19.849,13.068,20.803,13.693c0.496,0.325,0.957-0.47,0.464-0.794
			c-0.923-0.605-9.798-6.468-19.794-13.032c0.537-0.054,1.073-0.109,1.597-0.191c8.857,5.728,16.269,10.51,17.166,11.066
			c0.504,0.313,0.966-0.482,0.464-0.794c-0.868-0.538-7.838-5.034-16.315-10.516c0.572-0.115,1.135-0.249,1.691-0.396
			c7.719,4.952,15.374,9.904,15.858,10.469c0.385,0.45,1.033-0.203,0.65-0.65c-0.476-0.556-7.798-5.298-15.334-10.134
			c0.529-0.164,1.042-0.356,1.556-0.548c7.85,5.007,14.095,8.982,15.192,9.791c0.476,0.352,0.935-0.446,0.464-0.794
			c-1.046-0.772-7.017-4.575-14.598-9.411c0.381-0.159,0.758-0.328,1.13-0.502c5.904,3.934,11.576,7.704,14.665,9.632
			c0.4,0.672,0.797,1.349,1.206,2.011c4.445,7.203,9.362,14.158,14.517,20.959c6.545,9.742,20.68,29.857,28.253,38.994h2.515
			c-6.631-8.116-13.206-16.28-19.595-24.588c-2.271-2.953-10.766-17.972-13.017-20.961c-3.389-5.705-6.429-11.446-9.233-17.29
			c-0.701-1.461-1.387-2.929-2.06-4.404c-1.267-1.904-2.901-4.106-4.093-6.457c-0.596-1.175-1.081-2.388-1.355-3.62
			c0.319-2.622,0.825-4.972,1.398-7.158c0.716-2.652,1.23-5.329,1.56-8.022c0.323-2.69,0.462-5.395,0.417-8.105
			C400,374,388,351,374.663,331.148c-1.736-2.217-3.469-4.373-5.175-6.462c-1.706-2.089-3.385-4.11-5.012-6.058
			c1.121-3.692,2.037-7.423,2.663-11.279c0.881-5.421,2.305-10.315,2.077-15.863c-0.369-8.979-3.413-16.794-9.879-23.178
			c-5.708-5.636-14.477-9.189-22.296-5.302c-0.99,0.492-1.936,1.049-2.84,1.659c-0.189-1.937-0.092-3.894-0.245-5.841
			c-0.203-2.586-0.423-5.212-0.884-7.768c-0.752-4.167-1.985-8.448-4.674-11.803c-2.931-3.657-6.782-7.543-10.932-9.804
			c-3.865-2.105-8.272-1.937-12.535-1.841c-4.196,0.094-8.838-0.19-12.362,2.498c-0.739,0.564-1.397,1.205-2,1.892
			c-4.113-4.722-9.824-8.026-15.993-8.772c1.013-2.921,1.132-6.307,1.857-9.223c0.612-2.463,0.801-5.442,2.284-7.508
			c1.35-1.88,3.369-3.281,4.958-4.958c3.17-3.347,4.827-7.735,7.58-11.396c2.809-3.737,4.58-7.199,5.661-11.758
			c1.066-4.496,1.1-8.928,0.848-13.52c-0.256-4.661-0.686-8.736-3.054-12.833c-0.084-0.145-0.168-0.292-0.252-0.438
			c-0.65-2.311-1.755-4.456-3.623-6.184c-3.464-3.204-9.39-3.286-13.8-2.864c-0.479,0.046-0.93,0.133-1.37,0.238
			c-0.002,0-0.004,0-0.006,0c-0.116,0.001-0.211,0.032-0.294,0.077c-0.778,0.21-1.512,0.493-2.22,0.848
			c-0.238-0.025-0.444,0.11-0.566,0.301c-0.077,0.043-0.153,0.089-0.23,0.132c-0.04,0.018-0.077,0.037-0.111,0.063
			c-0.175,0.098-0.351,0.193-0.525,0.301c-2.987,1.242-5.613,3.166-8.181,5.703c-0.135,0.133-0.275,0.264-0.411,0.397
			c-0.068,0.059-0.141,0.11-0.208,0.17c-0.768,0.68-1.491,1.397-2.197,2.13c-3.743,3.52-7.569,7.026-10.392,11.28
			c-0.202,0.1-0.39,0.248-0.524,0.511c-1.497,2.955-3.074,5.867-4.699,8.752c-0.463-0.632-0.897-1.29-1.296-1.982
			c-0.035-0.096-0.061-0.199-0.1-0.292c-0.048-0.117-0.138-0.216-0.245-0.292c-1.805-3.318-3.063-7.128-4.706-10.386
			c-2.139-4.241-4.754-8.197-8.306-11.39c-6.206-5.578-14.55-8.639-22.93-6.532c-2.8,0.704-4.96,2.454-6.597,4.698
			c-3.658,2.872-5.57,7.502-5.435,12.656c0.09,3.425,1.17,6.382,2.717,9.354c0.142,0.376,0.285,0.751,0.447,1.123
			c0.006,0.012,0.012,0.024,0.018,0.037c0.264,0.699,0.556,1.392,0.912,2.072c1.406,2.687,3.122,5.188,4.745,7.748
			c0.709,1.276,1.408,2.556,2.085,3.849c0.24,0.458,0.469,0.917,0.702,1.375c2.154,5.454,3.95,11.075,5.661,16.68
			c0.033,0.251,0.081,0.495,0.11,0.748c0.622,5.535,1.973,10.692,3.849,15.899c-1.328,2.174-2.638,4.357-3.914,6.559
			c-5.47,9.437-9.605,19.063-13.013,29.403c-1.861,5.646-3.893,11.259-5.623,16.945c-0.622,2.044-1.336,4.102-2.04,6.168
			c-0.455,1.262-0.897,2.53-1.316,3.806c-0.787,2.398-1.506,4.817-2.232,7.234c-1.994,4.567-3.766,9.167-5.102,14.057
			c-1.822,6.667-4.553,13.097-5.623,19.958c-0.459,2.942-0.452,5.825-0.244,8.694c-0.068,1.371-0.055,2.744,0.074,4.121
			c0.226,2.415,0.695,4.824,1.266,7.187c0.048,0.409,0.102,0.816,0.145,1.226c0.023,0.221,0.139,0.376,0.288,0.476
			c0.526,1.871,1.259,3.752,1.596,5.673c-0.005,0.032-0.019,0.057-0.019,0.092c-0.02,3.912,1.854,7.257,3.711,10.585
			c1.288,2.309,2.623,5.06,4.625,6.942c0.604,0.802,1.228,1.583,1.881,2.338c0.457,0.627,0.999,1.204,1.594,1.745
			c2.59,2.694,5.503,5.067,8.691,7.125c2.835,1.83,5.679,3.728,8.539,5.599c1.664,1.316,3.378,2.566,5.014,3.806
			c9.02,6.831,18.649,12.813,28.418,18.503c3.519,2.05,7.058,4.067,10.607,6.066c4.291,3.029,8.513,6.154,12.837,9.133
			c6.139,5.149,13.061,9.311,18.812,14.898c1.691,2.716,3.245,5.535,4.858,8.214c6.419,10.665,12.582,21.488,17.707,32.844
			c2.098,4.649,4.057,9.354,5.902,14.103C315.01,494.865,315.815,497.43,316.605,500z M259.427,365.933
			c-0.848,0.179-1.703,0.326-2.559,0.457c-0.043-0.156-0.14-0.292-0.295-0.368C257.529,366.011,258.485,365.993,259.427,365.933z
			 M245.453,364.937c2.802,0.637,5.869,0.964,8.955,1.054c-1.747,0.048-3.518,0.124-5.292,0.164c-0.556-0.05-1.112-0.121-1.67-0.242
			c-1.74-0.378-3.392-1.022-4.979-1.808C243.463,364.422,244.464,364.712,245.453,364.937z M229.905,359.577
			c0.102,0.101,0.202,0.198,0.303,0.297c-1.247-0.791-2.492-1.582-3.704-2.351c-0.101-0.14-0.212-0.276-0.305-0.419
			c1.087,0.882,2.332,1.555,3.532,2.349C229.791,359.493,229.846,359.537,229.905,359.577z M225.942,354.026
			c1.042,0.516,2.1,0.996,3.131,1.534c0.177,0.092,0.336,0.191,0.496,0.29c-0.017,0.093-0.011,0.188,0.012,0.281
			c-1.293-0.864-2.744-1.554-4.242-1.406c-0.041,0.004-0.083,0.016-0.124,0.028c-0.201-0.053-0.402-0.107-0.608-0.131
			C225.051,354.423,225.495,354.227,225.942,354.026z M222.008,355.755c0.286,0.181,0.576,0.366,0.871,0.553
			c0.034,0.122,0.07,0.246,0.128,0.389c0.599,1.464,2.451,2.813,3.873,3.742c0.031,0.032,0.064,0.063,0.096,0.095
			c-2.291-1.438-4.544-2.854-6.574-4.131C220.94,356.195,221.475,355.98,222.008,355.755z M213.377,356.993
			c-2.282,0.47-4.826,0.362-7.381-0.122C208.443,357.059,210.903,357.035,213.377,356.993z M243.475,248.238
			c-0.019,0.039-0.037,0.078-0.056,0.117c0.537-1.478,1.144-2.925,1.902-4.297c0.558-1.009,1.193-2.033,1.882-3.053
			C245.99,243.431,244.675,245.805,243.475,248.238z M264.587,309.503c-0.233,0.855-0.5,1.699-0.777,2.539
			c0.664-3.02,5.445-18.239,6.41-21.102C269.54,293.046,265.17,307.358,264.587,309.503z M271.172,288.139
			c-0.188,0.518-0.362,1.037-0.538,1.557c0.155-0.464,0.312-0.931,0.458-1.384c1.783-5.522,4.097-10.85,6.148-16.274
			c0.043,0.031,0.083,0.065,0.126,0.097C275.394,277.505,273.126,282.762,271.172,288.139z M277.768,271.062
			c-0.022,0.062-0.047,0.122-0.069,0.184c-0.042-0.032-0.083-0.066-0.125-0.099c0.078-0.21,0.159-0.418,0.236-0.628
			c0.179-0.488,0.343-0.98,0.518-1.47c0.038,0.023,0.077,0.044,0.114,0.067C278.22,269.768,277.999,270.418,277.768,271.062z
			 M278.739,268.238c-0.034-0.021-0.07-0.04-0.104-0.061c0.199-0.566,0.404-1.131,0.598-1.699c0.023,0.014,0.046,0.028,0.069,0.042
			C279.117,267.094,278.929,267.667,278.739,268.238z M279.59,265.624c-0.019-0.011-0.037-0.022-0.056-0.034
			c0.137-0.407,0.268-0.817,0.403-1.225c0.014,0.012,0.027,0.023,0.041,0.034C279.849,264.809,279.72,265.217,279.59,265.624z
			 M281.793,258.63c-0.005-0.004-0.011-0.007-0.016-0.011c0.224-0.723,0.451-1.446,0.672-2.17c0.015,0.007,0.03,0.015,0.045,0.022
			C282.258,257.189,282.024,257.909,281.793,258.63z M282.787,255.606c-0.024-0.01-0.047-0.024-0.07-0.034
			c0.216-0.711,0.433-1.423,0.648-2.135c0.047,0.027,0.094,0.054,0.142,0.081C283.26,254.212,283.021,254.908,282.787,255.606z
			 M283.818,252.663c-0.062-0.036-0.125-0.071-0.187-0.107c0.146-0.487,0.288-0.979,0.429-1.471
			c0.046,0.114,0.128,0.203,0.237,0.265C284.132,251.784,283.977,252.225,283.818,252.663z M284.403,249.94
			c-0.004-0.003-0.008-0.006-0.013-0.009c0.059-0.21,0.119-0.421,0.178-0.63c0.042,0.041,0.086,0.079,0.128,0.12
			C284.599,249.594,284.493,249.761,284.403,249.94z M285.909,247.429c-0.249,0.395-0.501,0.782-0.745,1.173
			c-0.104-0.1-0.211-0.195-0.316-0.294c0.123-0.437,0.245-0.872,0.369-1.31c0.238,0.035,0.493-0.04,0.641-0.28
			c0.546-0.879,1.102-1.751,1.659-2.623C286.948,245.189,286.41,246.299,285.909,247.429z M321.461,285.529
			c-0.009-0.006-0.019-0.012-0.029-0.017c0.199-0.564,0.404-1.127,0.612-1.687c0.052,0.031,0.104,0.061,0.155,0.092
			C321.956,284.455,321.712,284.993,321.461,285.529z M322.582,283.079c-0.071-0.042-0.141-0.084-0.212-0.126
			c0.148-0.387,0.302-0.77,0.457-1.154c0.078,0.066,0.156,0.13,0.234,0.196C322.901,282.357,322.743,282.719,322.582,283.079z
			 M323.446,281.124c-0.083-0.071-0.168-0.141-0.252-0.211c0.253-0.601,0.516-1.196,0.79-1.786c0.089,0.06,0.179,0.119,0.268,0.18
			C323.985,279.913,323.713,280.517,323.446,281.124z M324.632,278.456c-0.082-0.056-0.166-0.11-0.248-0.166
			c0.171-0.349,0.342-0.698,0.522-1.042c0.071,0.043,0.142,0.085,0.213,0.127C324.955,277.735,324.793,278.095,324.632,278.456z
			 M326.283,274.892c-0.266,0.547-0.517,1.099-0.773,1.649c-0.054-0.032-0.108-0.065-0.162-0.097
			c0.351-0.632,0.713-1.257,1.103-1.866C326.397,274.684,326.335,274.785,326.283,274.892z M395.343,423.178
			c0.016-0.229,2.016,2.771-0.707,0.645C394.873,423.607,395.115,423.401,395.343,423.178z M393.931,424.45
			c2.428,0.499,3.428,1.499,3.428,3.499c-1-1-3-2-4.288-2.829C393.361,424.898,393.652,424.681,393.931,424.45z M392.287,425.703
			c1.799,1.154,3.608,2.311,5.356,3.423c0.266,0.612,0.538,1.222,0.825,1.826c-2.213-1.438-4.661-3.012-7.151-4.6
			C391.643,426.14,391.969,425.928,392.287,425.703z M388.582,427.945c0.642-0.329,1.272-0.679,1.887-1.052
			c3.108,1.983,6.165,3.952,8.787,5.663c0.443,0.87,0.899,1.734,1.373,2.588c0.163,0.368,0.347,0.727,0.536,1.084
			C398.022,434.217,393.404,431.153,388.582,427.945z M401.163,427.962c-0.902-1.007-1.853-2.26-2.578-3.637
			c-0.725-1.377-1.225-2.877-1.229-4.377c1.001,1,1.003,3,2.1,4.215C400.035,425.431,400.604,426.697,401.163,427.962z
			 M397.82,418.002c1.534-2.058,2.485-5.105,2.374-8.21c0.037,1.036,0.111,3.106-0.777,4.259
			C399.004,415.421,398.474,416.743,397.82,418.002z M400.874,391.253c-0.665-0.77-0.78-1.891-1.799-3.171
			c0,0,1.018,1.28,0.943,1.382C400.296,390.059,400.585,390.658,400.874,391.253z M397.02,377.249
			c0.197,1.535,1.008,1.772,1.111,2.804c-0.914-1.269-1.049-3.305-2.054-4.82C396.378,375.905,396.703,376.568,397.02,377.249z
			 M389.433,362.012c-0.77-1.501-1.617-2.943-2.43-4.408C387.961,358.96,388.749,360.448,389.433,362.012z M384.891,349.962
			 M366.974,321.16C366,321,366,320,365.162,320.161C365.788,320.414,366.392,320.754,366.974,321.16z M363.25,318.394
			c-0.005-0.001-0.011-0.002-0.016-0.003c-0.021-0.002-0.035,0.006-0.055,0.006c0.124-0.611,0.248-1.223,0.37-1.833
			c0.142-0.399,0.276-0.8,0.394-1.207c0.277-0.959,0.6-1.904,0.928-2.848C364.409,314.492,363.855,316.449,363.25,318.394z
			 M365.604,305.298c0.059-0.641,0.11-1.283,0.155-1.927c0.388-3.205,0.621-6.435,0.634-9.708c0.041-0.651,0.075-1.303,0.104-1.956
			c0.104,0.837,0.175,1.679,0.184,2.528C366.72,297.883,366.385,301.662,365.604,305.298z M367.917,290.922
			c0.035,0.8,0.032,1.586,0.008,2.365c-0.003-0.056-0.002-0.114-0.005-0.17c-0.125-2.425-0.65-4.702-1.425-6.903
			c-0.159-2.726-0.618-5.395-1.603-7.927C366.706,282.143,367.716,286.375,367.917,290.922z M364.909,282.432
			c-0.11-0.231-0.216-0.462-0.331-0.692c0.027-0.097,0.04-0.202,0.018-0.324c-0.234-1.337-0.704-2.611-1.337-3.821
			c-0.102-0.294-0.206-0.59-0.312-0.885C363.913,278.507,364.594,280.426,364.909,282.432z M359.445,272.313
			c0.141,0.22,0.277,0.444,0.408,0.673c-1.169-1.215-2.454-2.32-3.75-3.314c-0.048-0.084-0.104-0.165-0.151-0.25
			C357.192,270.269,358.259,271.389,359.445,272.313z M347.489,263.695c-0.878,0.004-1.757,0.043-2.635,0.127
			c0.03-0.249-0.064-0.499-0.285-0.616C345.553,263.237,346.526,263.405,347.489,263.695z M332.599,265.519
			c0.022-1.345,0.116-2.763,0.216-4.212c0.031,1.407,0.043,2.802,0.225,4.198c-0.311,0.236-0.614,0.483-0.915,0.732
			c-0.002-0.042-0.003-0.084-0.005-0.126C332.374,266.061,332.593,265.873,332.599,265.519z M330.143,259.871
			c0.017-0.009,0.034-0.018,0.049-0.028c0.048,0.37,0.096,0.741,0.143,1.111c-0.002,0.012-0.01,0.019-0.011,0.031
			c-0.133,0.911-0.147,1.807-0.127,2.703c-0.007-0.005-0.013-0.009-0.021-0.014C330.063,262.432,330.074,261.15,330.143,259.871z
			 M322.95,239.078c0.791,0.655,1.591,1.304,2.402,1.934c0.727,0.646,1.458,1.286,2.221,1.887c-0.078,0.065-0.133,0.149-0.162,0.248
			c-1.645-1.53-3.327-3.056-5.065-4.472c-0.03-0.024-0.061-0.046-0.091-0.07C322.487,238.763,322.721,238.918,322.95,239.078z
			 M312.898,229.182c-0.111,0.163-0.155,0.381-0.116,0.585c-0.828-0.439-1.687-0.72-2.57-0.908
			C311.114,228.908,312.01,229.007,312.898,229.182z M310.622,230.263c-1.835-0.064-3.708-0.34-5.539-0.496
			c-0.043-0.026-0.064-0.068-0.116-0.085c-0.291-0.099-0.6-0.176-0.914-0.243C306.349,229.397,308.692,229.642,310.622,230.263z
			 M296.882,230.685c-0.177,0.068-0.353,0.138-0.527,0.214c-1.272,0.283-2.538,0.631-3.801,1.028
			C293.475,230.803,295.222,230.653,296.882,230.685z M280.745,227.113c1.353,0.615,5.17,2.558,7.05,4.499
			c-3-2.243-6.452-4.328-9.797-5.415c-0.45-0.146-0.918-0.255-1.385-0.367C278.056,226.118,279.455,226.527,280.745,227.113z
			 M252.552,169.801c1.018,1.451,2.246,2.78,3.595,3.651C254.446,172.733,253.091,171.583,252.552,169.801z M254.144,163.283
			c3.492-5.092,6.373-7.625,11.428-11.272c1.956-1.411,4.933-5.376,7.016-6.6c2.638,0.936,5.221,1.762,7.667,3.166
			c1.994,1.145,4.397,2.265,6.046,3.898c-0.346,4.066-4.165,8.133-6.758,11.007c-2.391,2.649-4.382,5.421-7.363,7.482
			c-3.602,2.49-7.448,3.31-11.769,2.595c-3.635-0.601-6.723-3.599-8.321-7.013c0.001-0.116-0.002-0.233-0.001-0.348
			C252.776,165.225,253.471,164.263,254.144,163.283z M196.871,158.322c-0.04,0.317-0.06,0.632-0.087,0.948
			c0-0.456-0.007-0.909,0.033-1.382c0.16-1.894,0.625-3.666,1.373-5.248C197.534,154.538,197.101,156.494,196.871,158.322z
			 M219.166,214.869c-0.052-1.364-0.26-2.759-0.572-4.124c0.787,0.43,1.556,0.895,2.317,1.374
			C220.329,213.036,219.741,213.949,219.166,214.869z M221.393,211.357c-1.016-0.645-2.043-1.273-3.115-1.81
			c-0.236-0.848-0.497-1.683-0.801-2.473c-0.005-0.022-0.01-0.044-0.014-0.066c1.572,0.897,3.586,2.178,4.814,2.958
			C221.98,210.429,221.687,210.894,221.393,211.357z M237.655,161.135c0.184,0.364,0.357,0.742,0.533,1.117
			c-0.077-0.123-0.156-0.244-0.234-0.367c-1.81-3.476-4.022-6.751-6.492-9.784c-0.286-0.351-0.578-0.698-0.873-1.041
			C233.483,153.972,235.762,157.387,237.655,161.135z M210.475,143.433c0.276-0.018,0.542-0.015,0.815-0.026
			c-0.48,0.038-0.955,0.088-1.421,0.158c-1.147,0.172-2.315,0.581-3.452,1.126c-0.327,0.076-0.651,0.156-0.965,0.251
			C206.888,144.096,208.552,143.559,210.475,143.433z M213.728,199.743c-0.164-0.936-0.367-1.859-0.605-2.77
			c0.354,0.821,0.676,1.638,0.939,2.473C213.915,199.505,213.793,199.606,213.728,199.743z M216.124,201.441
			c-0.259-0.902-0.559-1.785-0.877-2.661c-0.813-2.73-2.198-5.373-3.266-7.905c-1.754-4.159-4.275-7.88-6.39-11.848
			c-2.967-5.566-6.9-13.094-7.019-20.041c0.027-0.387,0.042-0.769,0.082-1.161c0.501-4.901,3.297-9.534,7.63-11.757
			c0.115-0.049,0.232-0.095,0.349-0.141c5.328-1.256,11.739-1.076,16.398,1.892c2.141,1.364,4.201,2.933,6.077,4.691
			c1.946,2.272,3.854,4.55,5.591,6.918c1.371,2.361,2.458,4.881,3.773,7.273c0.133,0.242,0.282,0.48,0.432,0.718
			c0.394,1.129,0.747,2.272,1.09,3.42c-0.263-0.262-0.513-0.538-0.735-0.84c-0.347-0.472-1.145-0.014-0.794,0.464
			c0.567,0.772,1.263,1.405,2.005,1.989c0.289,1.001,0.577,2.005,0.872,3.012c-1.173-1.082-2.231-2.294-3.158-3.583
			c-0.342-0.476-1.14-0.018-0.794,0.464c1.268,1.763,2.742,3.377,4.438,4.731c0.083,0.272,0.16,0.544,0.246,0.816
			c-0.04,0.055-0.078,0.11-0.118,0.165c-1.599-1.568-3.374-2.944-4.92-4.567c-0.409-0.429-1.058,0.222-0.65,0.65
			c1.577,1.655,3.393,3.051,5.016,4.658c0.005,0.005,0.011,0.006,0.016,0.011c-0.321,0.446-0.641,0.893-0.958,1.341
			c-1.652-1.275-3.146-2.754-4.861-3.954c-0.486-0.34-0.946,0.457-0.464,0.794c1.693,1.185,3.168,2.643,4.794,3.907
			c-0.251,0.358-0.494,0.721-0.742,1.081c-1.353-0.94-2.61-2.03-3.991-2.935c-0.496-0.325-0.957,0.47-0.464,0.794
			c1.363,0.893,2.604,1.967,3.936,2.898c-0.14,0.206-0.284,0.41-0.424,0.617c-1.421-0.949-2.85-1.885-4.303-2.786
			c-0.504-0.313-0.966,0.482-0.464,0.794c1.439,0.892,2.854,1.819,4.261,2.759c-0.37,0.561-0.722,1.131-1.078,1.699
			c-1.134-0.905-2.407-1.731-3.35-2.832c-0.385-0.45-1.033,0.203-0.65,0.65c0.979,1.144,2.299,1.977,3.463,2.92
			c0.015,0.012,0.029,0.026,0.045,0.038c-0.153,0.249-0.314,0.494-0.465,0.744c-1.06-0.632-2.104-1.272-3.067-1.982
			c-0.477-0.352-0.935,0.446-0.464,0.794c0.959,0.708,2.006,1.346,3.07,1.979c-0.194,0.328-0.384,0.657-0.576,0.986
			c-1.205-0.76-2.424-1.497-3.732-2.057c-0.538-0.23-1.007,0.561-0.464,0.794c1.309,0.561,2.531,1.292,3.739,2.046
			c-0.167,0.292-0.343,0.578-0.508,0.871c-0.219,0.259-0.435,0.519-0.653,0.779c-1.11-0.714-2.15-1.54-3.096-2.448
			c-0.427-0.41-1.078,0.24-0.65,0.65c0.972,0.932,2.031,1.771,3.16,2.504c-0.328,0.398-0.653,0.797-0.972,1.202
			c-0.817-0.727-1.709-1.364-2.726-1.786c-0.546-0.227-0.784,0.662-0.244,0.886c0.9,0.374,1.691,0.967,2.415,1.628
			c-0.209,0.275-0.417,0.549-0.62,0.829c-0.809-0.525-1.629-1.026-2.516-1.415c-0.536-0.236-1.005,0.556-0.464,0.794
			c0.863,0.379,1.664,0.864,2.452,1.374c-0.11,0.16-0.226,0.315-0.334,0.476c-0.225,0.337-0.424,0.696-0.639,1.041
			c-0.89-0.779-2.121-1.945-2.628-2.162c-0.538-0.23-1.007,0.562-0.464,0.794c0.504,0.215,1.724,1.37,2.613,2.149
			c-0.092,0.154-0.19,0.301-0.28,0.456c-1.393-0.94-3.244-2.222-4.416-2.724c-0.538-0.23-1.007,0.561-0.464,0.794
			c1.171,0.502,3.044,1.794,4.43,2.72c-0.33,0.593-0.648,1.193-0.958,1.799c-1.594-1.09-4.346-3.18-5.253-4.05
			c-0.427-0.41-1.078,0.24-0.65,0.65c0.971,0.932,3.854,3.11,5.485,4.213c-0.236,0.476-0.459,0.958-0.684,1.438
			c-1.64-1.49-5.843-5.019-6.989-5.495c-0.546-0.227-0.784,0.662-0.244,0.886c1.087,0.451,5.261,4.025,6.82,5.477
			c-0.137,0.3-0.269,0.598-0.403,0.898c-0.023-0.023-0.04-0.049-0.07-0.069c-0.952-0.628-7.103-5.64-8.15-6.1
			c-0.536-0.236-1.005,0.556-0.464,0.794c1.047,0.46,7.198,5.472,8.15,6.1c0.063,0.041,0.124,0.064,0.184,0.073
			c-0.202,0.462-0.412,0.925-0.609,1.387c-0.062,0.145-0.116,0.294-0.171,0.443c-0.023-0.021-0.039-0.045-0.069-0.063
			c-0.568-0.342-5.657-4.787-7.363-6.067C216.153,201.557,216.14,201.499,216.124,201.441z M216.547,203.072
			c2.138,1.728,6.029,5.108,6.521,5.405c0.042,0.025,0.083,0.033,0.123,0.044c-0.146,0.228-0.288,0.457-0.434,0.684
			c-1.381-0.883-3.923-2.509-5.56-3.391C216.998,204.896,216.779,203.982,216.547,203.072z M209.836,236.636
			c-0.068,0.174-0.128,0.35-0.197,0.523c-0.823,1.951-1.718,3.87-2.615,5.788C207.921,240.825,208.848,238.719,209.836,236.636z
			 M210.267,377.202c-1.956-1.109-3.977-2.102-6-3.114c-1.274-0.637-2.528-1.303-3.783-1.965c-2.2-2.467-4.896-4.385-7.91-5.73
			c-0.603-0.554-1.188-1.121-1.752-1.703c-0.628-0.648-1.187-1.321-1.715-2.005c6.258,4.181,15.376,10.279,23.407,15.732
			C211.771,378.004,211.026,377.595,210.267,377.202z M226.831,393.829c0.197-0.114,0.363-0.29,0.481-0.501
			c1.665,1.419,3.343,2.824,5.066,4.177C230.516,396.301,228.668,395.073,226.831,393.829z M280.58,430.884
			c-2.447-1.889-4.979-3.666-7.476-5.484c0.268-0.025,0.525-0.074,0.75-0.171c0.069,0.038,0.136,0.077,0.206,0.114
			c2.559,1.376,4.807,2.917,6.76,5.101c0.547,0.612,1.068,1.25,1.576,1.902C281.802,431.849,281.198,431.36,280.58,430.884z
			 M286.633,436.266c-1.049-1.633-2.137-3.232-3.304-4.76c-1.513-1.982-3.233-3.838-5.272-5.289c0.079-0.061,0.148-0.133,0.19-0.224
			c1.403,1.088,2.739,2.264,3.915,3.658c2.377,2.817,4.55,5.868,6.654,8.956C288.108,437.808,287.381,437.027,286.633,436.266z
			 M293.517,447.826c-1.033-1.736-2.05-3.505-3.078-5.274c6.915,8.982,11.972,19.575,16.359,30.03
			C302.763,464.17,298.339,455.925,293.517,447.826z"/>
		<path style="opacity:0.5;fill:#F24B52;" d="M229.365,360.433c-0.011-0.009-0.021-0.018-0.032-0.026
			c0.042,0.027,0.085,0.054,0.127,0.081C229.429,360.47,229.396,360.452,229.365,360.433z"/>
		<path style="opacity:0.5;fill:#F24B52;" d="M281.493,259.53c0.004,0.003,0.009,0.006,0.013,0.009
			c-0.118,0.373-0.236,0.746-0.353,1.119c-0.004-0.002-0.007-0.005-0.01-0.007C281.26,260.278,281.376,259.904,281.493,259.53z"/>
		<path style="opacity:0.5;fill:#F24B52;" d="M280.866,261.57c-0.197,0.629-0.393,1.258-0.59,1.885
			c-0.01-0.009-0.021-0.018-0.032-0.026c0.203-0.622,0.414-1.242,0.612-1.865C280.86,261.566,280.863,261.568,280.866,261.57z"/>
		<path style="opacity:0.5;fill:#F24B52;" d="M344.64,370.794c-3.141,1.247-5.79,1.406-9.062,1.428
			c-3.189,0.016-6.379,0.357-9.49-0.533c-3.384-0.969-6.732-2.797-9.373-5.106c-1.144-1-2.105-2.93-3.832-2.797
			c-1.966,0.151-4.465,2.471-6.126,3.443c-3.271,1.913-6.514,2.866-10.303,3c-3.417,0.121-6.831-0.263-10.151-1.07
			c-2.729-0.663-5.068-2.179-7.605-3.154c-0.264-0.192-0.543-0.372-0.794-0.573c-0.317-0.252-0.7-0.162-0.922,0.061
			c-0.611,0.061-0.806,1.051-0.101,1.242c0.309,0.084,0.61,0.186,0.91,0.29c2.949,2.557,6.907,5.115,10.341,6.57
			c3.349,1.419,7.178,1.431,10.765,1.261c5.742-0.273,11.682-1.913,14.445-7.102c0.844,2.465,1.775,4.734,4.011,6.428
			c2.368,1.793,5.592,2.399,8.476,2.718c3.1,0.343,6.736,0.203,10.197-0.575c3.468-0.783,6.797-2.226,9.244-4.471
			C345.726,371.431,345.256,370.549,344.64,370.794z M287.654,371.97c-0.533-0.268-1.085-0.564-1.643-0.873
			c0.711,0.239,1.427,0.452,2.149,0.641c0.007,0.258,0.144,0.522,0.413,0.636C288.265,372.249,287.957,372.122,287.654,371.97z
			 M288.623,372.396c0.49,0.186,0.971,0.352,1.447,0.504C289.582,372.762,289.1,372.589,288.623,372.396z M309.606,367.842
			c-0.31,0.286-0.632,0.554-0.955,0.822c-1.415,0.826-2.859,1.367-4.581,1.909C305.914,369.747,307.724,368.782,309.606,367.842z
			 M304.765,372.689c1.445-0.63,2.801-1.499,4.064-2.496c0.476-0.248,0.94-0.531,1.388-0.87c0.505-0.382,1.087-1.073,1.672-1.56
			C310.278,370.371,307.679,371.865,304.765,372.689z M316.766,371.818c-0.288-0.359-0.544-0.737-0.773-1.131
			c0.511,0.371,1.084,0.713,1.672,1.018c0.009,0.009,0.018,0.02,0.027,0.029C317.384,371.75,317.076,371.778,316.766,371.818z
			 M327.57,375.747c-2.212-0.076-4.885-0.421-7.112-1.303c0.709,0.106,1.43,0.168,2.149,0.21c2.394,0.757,5.016,0.873,7.697,0.684
			c2.681-0.189,5.421-0.684,8.06-1.15C339,375,340,372,341,373c-2,1-5,1-6.665,2.306C332.009,375.7,329.666,375.819,327.57,375.747z
			"/>
		<path style="opacity:0.5;fill:#F24B52;" d="M205.941,94.804c0.561,1.536,1.211,3.057,1.92,4.534
			c0.679,1.624,1.433,3.234,2.333,4.711c0.044,0.074,0.103,0.148,0.148,0.222c1.772,3.042,3.973,5.833,6.498,8.536
			c0.044,0.074,0.103,0.133,0.177,0.192c1.078,1.167,2.215,2.318,3.396,3.485c0.665,0.635,1.344,1.255,1.994,1.89
			c0.295,0.281,0.605,0.561,0.901,0.842c3.81,3.662,7.694,7.251,11.637,10.766c0.369,0.34,0.753,0.665,1.137,1.004
			c1.329,1.167,2.688,2.304,4.076,3.382c2.702,2.097,5.567,3.973,8.757,5.361c0.059,0.03,0.103,0.044,0.148,0.059
			c0.015,0,0.015,0.015,0.029,0.015c0.133,0.059,0.251,0.059,0.384,0.044c0.118,0.015,0.251,0.015,0.384-0.044
			c0.015,0,0.015-0.015,0.03-0.015c0.044-0.015,0.089-0.03,0.133-0.059c5.287-2.304,9.702-5.936,13.985-9.747
			c3.943-3.515,7.812-7.103,11.637-10.766c0.295-0.281,0.591-0.561,0.886-0.842c0.664-0.635,1.344-1.255,1.994-1.89
			c4.017-3.913,7.502-7.783,10.086-12.213c0.044-0.074,0.103-0.148,0.148-0.222c0.901-1.477,1.639-3.087,2.333-4.711
			c3.47-7.221,5.405-15.506,4.253-23.038c-0.251-1.654-0.768-3.219-1.477-4.667c-0.015-0.044-0.044-0.089-0.074-0.133
			c-0.797-1.625-1.861-3.101-3.131-4.401c-0.31-0.34-0.65-0.65-0.989-0.975c-2.215-1.964-4.888-3.47-7.753-4.342
			c-0.413-0.133-0.827-0.251-1.255-0.34c-1.698-0.414-3.441-0.591-5.184-0.546c-0.679,0.015-1.373,0.089-2.068,0.192
			c-1.418-0.074-2.85-0.059-4.238,0.03c-2.259,0.162-4.327,0.679-6.247,1.565c-3.042,0.871-5.361,2.378-7.871,4.46
			c-1.92,1.595-4.135,6.055-5.582,8.166c-1.462-2.112-3.677-6.572-5.597-8.166c-2.496-2.082-4.814-3.589-7.856-4.46
			c-1.935-0.886-3.987-1.403-6.247-1.565c-1.403-0.089-2.821-0.103-4.253-0.03c-0.694-0.103-1.373-0.177-2.053-0.192
			c-3.278-0.089-6.557,0.665-9.481,2.082c-0.015,0-0.015,0-0.015,0c-4.755,2.319-8.58,6.394-9.983,11.504
			c-0.162,0.591-0.295,1.196-0.384,1.816c-0.916,5.892,0.074,12.242,2.215,18.179C205.868,94.583,205.897,94.686,205.941,94.804z
			 M218.273,110.547c-0.133-0.103-0.251-0.192-0.369-0.31c-1.285-1.049-2.525-2.141-3.663-3.352
			c-0.797-1.063-1.536-2.156-2.23-3.264c1.935,2.141,4.031,4.179,6.04,6.262c0.133,0.133,0.266,0.251,0.369,0.384
			c0.517,0.532,1.034,1.063,1.521,1.61C219.38,111.433,218.819,110.99,218.273,110.547z M220.99,114.534
			c1.122,0.901,2.245,1.831,3.338,2.762c0.576,0.753,1.167,1.492,1.757,2.215C224.342,117.901,222.658,116.232,220.99,114.534z
			 M241.089,133.422c-1.034-0.753-2.038-1.536-3.027-2.348c0.118,0.089,0.251,0.162,0.369,0.236c0.93,0.664,1.861,1.314,2.791,1.979
			c1.211,0.842,2.407,1.698,3.559,2.599C243.525,135.12,242.285,134.293,241.089,133.422z M254.173,135.888
			c2.023-1.595,4.224-3.057,6.335-4.578c0.133-0.074,0.251-0.148,0.384-0.236C258.736,132.831,256.506,134.47,254.173,135.888z
			 M272.854,119.511c0.606-0.724,1.181-1.462,1.772-2.215c1.093-0.93,2.2-1.861,3.323-2.762
			C276.295,116.232,274.597,117.901,272.854,119.511z M293.691,80.671c0,0.133-0.015,0.266-0.015,0.399
			c-0.118-0.842-0.236-1.698-0.384-2.555c-0.015-0.31-0.03-0.635-0.044-0.96c-0.044-0.783-0.148-1.521-0.281-2.245
			C293.706,76.847,293.824,78.397,293.691,80.671z M235.137,63.851c0.266,0.118,0.561,0.222,0.812,0.354
			c0.945,0.502,1.905,1.108,2.85,1.772c-0.413-0.222-0.827-0.443-1.241-0.635c-1.285-0.62-2.643-1.24-4.046-1.846
			C234.059,63.6,234.591,63.718,235.137,63.851z M220.473,64.486c5.892-1.063,11.711-0.133,16.909,2.259
			c3.958,2.082,7.605,7.561,10.574,10.722c0.103,0.118,0.192,0.251,0.281,0.384c0,0.015,0,0.015,0,0.03
			c0,0.015,0.015,0.015,0.015,0.029c0.251,0.532,1.004,1.196,1.61,0.93c0.34-0.133,0.62-0.473,0.901-0.812
			c-0.015-0.059-0.044-0.118-0.059-0.177c0.103-0.133,0.192-0.266,0.295-0.384c2.968-3.16,6.601-8.639,10.559-10.722
			c5.198-2.392,11.031-3.323,16.909-2.259c0.118,0.015,0.236,0.044,0.354,0.074c0.295,0.059,0.576,0.118,0.857,0.192
			c3.47,0.886,6.01,2.643,8.432,4.918c0.044,0.059,0.103,0.103,0.162,0.162c0.31,0.295,0.635,0.605,0.945,0.93
			c0.827,1.418,1.462,2.968,1.846,4.711c0.354,1.595,0.709,3.234,1.019,4.888c0.103,2.998-0.148,6.055-0.325,8.565
			c-0.163,2.481-1.903,4.28-2.568,6.702c-3.81,7.162-9.867,12.939-14.637,19.378c-0.384,0.517-0.797,1.019-1.181,1.521
			c-4.253,3.736-8.491,7.502-12.626,11.371c-3.662,3.426-8.078,6.409-11.268,10.278c-2.599-3.145-5.996-5.7-9.141-8.388
			c-0.443-0.354-0.871-0.738-1.285-1.122c-0.295-0.251-0.576-0.502-0.857-0.768c-4.12-3.869-8.359-7.635-12.612-11.371
			c-0.399-0.502-0.812-1.004-1.196-1.521c-1.565-2.112-3.411-4.091-5.316-6.04c-0.148-0.148-0.281-0.295-0.428-0.443
			c-3.766-3.825-7.709-7.591-10.175-12.228c-0.31-1.152-0.576-2.319-0.798-3.485c0-0.059-0.015-0.118-0.029-0.177v-0.015
			c-0.222-1.226-0.369-2.451-0.458-3.692c-0.162-2.51-0.414-5.567-0.325-8.565c0.31-1.654,0.679-3.293,1.019-4.888
			c0.384-1.743,1.034-3.293,1.861-4.711C212.779,67.691,215.806,65.342,220.473,64.486z M207.167,70.733
			c0.753-1.255,1.698-2.407,2.895-3.426c0.133-0.118,0.281-0.222,0.428-0.34c0.015,0,0.029-0.015,0.044-0.03
			c0.162-0.118,0.31-0.236,0.472-0.354c-0.797,0.783-1.521,1.654-2.156,2.614c-0.266,0.325-0.502,0.65-0.723,0.975
			c-0.532,0.591-1.063,1.167-1.58,1.713C206.739,71.486,206.946,71.102,207.167,70.733z M205.661,78.515
			c-0.148,0.856-0.266,1.713-0.384,2.555c-0.015-0.133-0.015-0.266-0.03-0.399c-0.118-2.274-0.015-3.825,0.738-5.361
			c-0.148,0.724-0.251,1.462-0.295,2.245C205.676,77.88,205.676,78.205,205.661,78.515z"/>
	</g>
	<g>
		<path style="fill:#333333;" d="M449.055,499.248c-6.732-8.237-11.584-16.713-18.069-25.146
			c-2.271-2.953-12.59-17.78-14.842-20.769c-3.389-5.705-6.429-11.446-9.233-17.29c-0.701-1.461-1.387-2.929-2.06-4.404
			c-1.246-2.345-2.869-4.518-4.056-6.729c-0.593-1.106-1.078-2.221-1.356-3.372c0.153-2.598,0.546-4.931,1.037-7.116
			c0.752-2.442,1.329-4.9,1.746-7.366c0.411-2.464,0.66-4.936,0.75-7.409C403,375,390,352,375.816,331.762
			c-1.322-1.693-2.644-3.35-3.945-4.972c-2.602-3.243-5.117-6.343-7.438-9.279c1.121-3.692,2.037-7.423,2.664-11.279
			c0.881-5.421,2.305-10.315,2.077-15.863c-0.369-8.979-3.413-16.794-9.879-23.178c-5.708-5.636-14.477-9.189-22.296-5.302
			c-0.991,0.492-1.936,1.049-2.84,1.659c-0.19-1.937-0.092-3.894-0.245-5.841c-0.204-2.586-0.423-5.212-0.884-7.768
			c-0.752-4.167-1.985-8.448-4.674-11.803c-2.931-3.657-6.782-7.543-10.932-9.804c-3.865-2.105-8.272-1.937-12.535-1.841
			c-4.196,0.094-8.838-0.19-12.362,2.498c-0.739,0.564-1.397,1.205-2,1.892c-4.113-4.722-9.824-8.026-15.993-8.772
			c1.013-2.921,1.132-6.308,1.857-9.223c0.612-2.463,0.801-5.442,2.284-7.508c1.35-1.88,3.369-3.281,4.958-4.958
			c3.171-3.347,4.827-7.735,7.58-11.396c2.809-3.737,4.58-7.199,5.661-11.758c1.066-4.496,1.099-8.928,0.848-13.52
			c-0.256-4.66-0.686-8.736-3.054-12.833c-0.084-0.145-0.168-0.292-0.252-0.438c-0.65-2.311-1.755-4.456-3.623-6.184
			c-3.464-3.204-9.39-3.286-13.8-2.864c-0.479,0.046-0.93,0.133-1.37,0.238c-0.002,0-0.004,0-0.006,0
			c-0.116,0.001-0.211,0.032-0.294,0.076c-0.778,0.21-1.512,0.493-2.22,0.848c-0.238-0.025-0.444,0.11-0.566,0.301
			c-0.077,0.043-0.154,0.089-0.23,0.132c-0.04,0.018-0.077,0.037-0.111,0.063c-0.175,0.098-0.351,0.193-0.525,0.301
			c-2.987,1.242-5.613,3.167-8.181,5.703c-0.135,0.133-0.275,0.264-0.411,0.397c-0.068,0.059-0.14,0.11-0.208,0.17
			c-0.768,0.68-1.491,1.397-2.197,2.13c-3.743,3.52-7.569,7.026-10.392,11.28c-0.202,0.1-0.39,0.248-0.524,0.511
			c-1.497,2.955-3.074,5.867-4.7,8.752c-0.463-0.632-0.897-1.29-1.296-1.982c-0.035-0.096-0.061-0.199-0.1-0.292
			c-0.048-0.117-0.138-0.216-0.245-0.292c-1.805-3.318-3.063-7.128-4.706-10.386c-2.139-4.242-4.754-8.197-8.306-11.39
			c-6.206-5.578-14.55-8.639-22.93-6.532c-2.799,0.704-4.96,2.454-6.597,4.698c-3.658,2.872-5.57,7.502-5.435,12.656
			c0.09,3.425,1.17,6.382,2.717,9.354c0.142,0.376,0.285,0.751,0.447,1.123c0.005,0.012,0.012,0.024,0.018,0.037
			c0.264,0.699,0.556,1.392,0.912,2.072c1.406,2.687,3.122,5.188,4.745,7.748c0.709,1.276,1.408,2.556,2.085,3.849
			c0.24,0.458,0.469,0.917,0.702,1.375c2.154,5.455,3.95,11.075,5.661,16.68c0.033,0.251,0.081,0.495,0.11,0.748
			c0.622,5.535,1.973,10.691,3.849,15.899c-1.328,2.174-2.638,4.357-3.914,6.559c-5.471,9.437-9.605,19.063-13.013,29.403
			c-1.861,5.646-3.893,11.259-5.623,16.945c-0.622,2.044-1.336,4.102-2.04,6.168c-0.455,1.262-0.897,2.53-1.316,3.806
			c-0.787,2.398-1.506,4.817-2.232,7.234c-1.994,4.567-3.766,9.167-5.102,14.057c-1.822,6.667-4.553,13.097-5.623,19.957
			c-0.459,2.942-0.452,5.825-0.244,8.694c-0.068,1.37-0.055,2.744,0.074,4.121c0.226,2.415,0.695,4.824,1.266,7.187
			c0.048,0.409,0.102,0.815,0.145,1.226c0.023,0.221,0.139,0.376,0.288,0.476c0.526,1.871,1.259,3.752,1.596,5.673
			c-0.005,0.032-0.019,0.057-0.019,0.092c-0.02,3.912,1.854,7.257,3.711,10.585c1.288,2.309,2.623,5.06,4.625,6.942
			c0.604,0.802,1.228,1.583,1.881,2.338c0.457,0.627,0.999,1.204,1.594,1.745c2.59,2.694,5.503,5.067,8.691,7.124
			c2.835,1.83,5.679,3.728,8.539,5.599c1.664,1.316,3.378,2.566,5.014,3.806c9.02,6.831,18.649,12.813,28.418,18.503
			c3.519,2.05,7.058,4.067,10.607,6.066c4.291,3.029,8.513,6.154,12.837,9.133c6.139,5.148,13.061,9.311,18.812,14.898
			c1.691,2.716,3.245,5.535,4.858,8.214c6.419,10.665,12.582,21.488,17.707,32.844c2.098,4.649,4.057,9.354,5.902,14.103
			c0.964,2.923,1.884,5.861,2.783,8.806h2.473c-2.804-8.007-6.064-15.899-8.952-23.818c-3.861-10.587-8.563-20.875-14.609-30.402
			c-3.607-5.684-7.482-11.405-11.633-16.706c-2.43-3.104-5.364-5.244-8.384-7.383c-0.55-0.527-1.121-1.031-1.716-1.503
			c-0.083-0.132-0.184-0.257-0.328-0.364c-8.911-6.573-18.671-12.044-27.764-18.391c-6.718-4.689-13.473-9.323-20.253-13.923
			c-1.731-1.605-3.465-3.218-5.247-4.721c5.204,3.595,8.915,6.256,9.301,6.793c0.342,0.476,1.14,0.018,0.794-0.464
			c-1.199-1.666-30.318-21.148-42.921-29.579c-0.244-0.399-0.479-0.802-0.697-1.213c12.387,8.368,41.508,27.43,42.77,28.755
			c0.409,0.429,1.058-0.221,0.65-0.65c-1.314-1.38-32.82-21.982-44.207-29.729c-0.373-0.856-0.696-1.736-0.979-2.638
			c12.692,8.391,42.128,27.973,43.91,29.22c0.486,0.34,0.946-0.457,0.464-0.794c-1.824-1.276-32.598-21.748-44.766-29.786
			c-0.165-0.628-0.313-1.267-0.444-1.916c12.202,7.769,42.991,28.118,44.754,29.275c0.496,0.325,0.957-0.47,0.464-0.794
			c-1.799-1.179-33.787-22.322-45.458-29.722c-0.002-0.014-0.005-0.027-0.008-0.04c-0.069-0.417-0.132-0.84-0.195-1.264
			c12.608,8.208,42.759,27.709,44.629,28.869c0.504,0.313,0.966-0.482,0.464-0.794c-1.902-1.18-33.093-21.354-45.278-29.292
			c-0.14-0.923-0.303-1.843-0.51-2.749c0.801,0.581,1.692,1.22,2.632,1.891c0.06,0.057,0.125,0.121,0.184,0.177
			c1.195,1.128,2.485,2.111,3.842,2.991c1.687,1.67,3.521,3.139,5.836,4.183c0.406,0.183,0.835,0.365,1.261,0.548
			c0.575,0.414,0.98,0.712,1.15,0.85c1.161,0.94,31.146,19.821,32.119,20.958c0.385,0.45,1.033-0.203,0.65-0.65
			c-0.811-0.948-21.516-14.058-29.258-19.064c1.283,0.443,2.592,0.769,3.921,0.994c12.545,8.05,25.147,15.998,26.75,17.18
			c0.477,0.351,0.935-0.446,0.464-0.794c-1.5-1.107-13.117-8.441-25.102-16.122c0.804,0.065,1.613,0.099,2.43,0.086
			c10.2,6.754,24.012,16.094,26.027,17.018c0.532,0.244,1.02-0.536,0.484-0.782c-1.986-0.91-14.893-9.613-24.995-16.305
			c0.042-0.003,0.083-0.002,0.125-0.006c0.836-0.067,1.652-0.183,2.456-0.331c9.748,6.112,23.105,14.73,24.172,15.754
			c0.427,0.41,1.078-0.24,0.65-0.65c-1.113-1.067-13.802-9.262-23.543-15.371c0.51-0.12,1.017-0.249,1.518-0.395
			c9.288,6.05,23.319,14.941,24.317,15.355c0.546,0.227,0.784-0.662,0.244-0.886c-0.872-0.362-14.227-8.844-23.422-14.823
			c0.38-0.124,0.758-0.256,1.134-0.391c9.12,5.741,23.486,14.747,24.209,15.065c0.536,0.236,1.005-0.556,0.464-0.794
			c-0.268-0.118-2.415-1.432-5.469-3.328c0.622,0.193,1.248,0.364,1.883,0.482c0.547,0.102,1.1,0.171,1.655,0.224
			c1.787,1.12,2.946,1.837,3.079,1.894c0.538,0.23,1.007-0.562,0.464-0.794c-0.093-0.04-0.689-0.403-1.651-1.001
			c2.72,0.047,5.489-0.278,8.154-0.406c4.11-0.197,8.349-0.851,12.233-2.244c0.302-0.109,0.428-0.366,0.429-0.621
			c0.693-0.213,0.359-1.335-0.413-1.197c-6.041,1.082-13.668,0.962-19.589-0.633c-2.771-0.747-5.671-1.78-8.115-3.291
			c-1.086-0.671-2.085-1.473-3.073-2.291c-0.438-0.619-0.822-1.268-1.385-1.801c-1.73-1.639-4.253-2.4-6.327-3.494
			c-0.447-0.236-0.861,0.093-0.944,0.469c-7.951,2.87-17.24,3.692-25.238,0.74c-2.053-0.758-4.138-1.618-6.13-2.645
			c-2.163-1.76-4.159-3.727-6.174-5.663c-2.935-2.82-5.817-5.743-7.639-9.405c-0.117-2.016-0.112-4.062,0.025-6.165
			c0.183-2.811,0.402-5.688,0.733-8.555c0.217-1.031,0.438-2.062,0.657-3.093c1.205-5.657,2.677-11.26,4.604-16.717
			c1.578-4.469,3.621-8.721,5.526-13.044c0.281-0.134,0.507-0.391,0.596-0.799c0.093-0.43,0.203-0.864,0.311-1.298
			c0.124-0.292,0.256-0.58,0.377-0.873c4.128-9.996,7.068-20.412,10.758-30.565c1.495-3.409,2.952-6.835,4.348-10.286
			c0.058-0.143,0.118-0.284,0.176-0.427c1.207-2.557,2.418-5.113,3.46-7.743c1.599-4.037,3.02-8.116,4.944-11.981
			c1.14-1.934,2.305-3.856,3.483-5.771c0.093-0.078,0.164-0.177,0.188-0.307c10.321-16.75,21.843-32.881,30.938-50.307
			c0.103,1.673,0.441,3.3,1.565,4.654c1.463,1.764,3.504,2.417,5.645,2.644c1.017,0.269,2.051,0.431,3.035,0.476
			c2.73,0.126,6.467-0.019,9-1.195c2.903-1.347,5.288-4.253,7.457-6.509c2.62-2.725,5.151-5.649,7.501-8.61
			c1.083-1.364,3.68-4.344,3.375-6.309c-0.027-0.175-0.085-0.348-0.156-0.519c0.105-0.172,0.13-0.39-0.009-0.611
			c-0.788-1.255-1.953-2.044-3.214-2.709c-2.563-1.858-5.474-3.373-8.401-4.475c3.009-0.376,6.141-0.68,9.035,0.146
			c2.258,0.644,3.925,1.805,5.153,3.355c1.835,3.458,2.139,8.278,2.246,11.654c0.221,6.961,0.203,14.06-1.54,20.85
			c-0.047,0.15-0.085,0.3-0.134,0.449c0,0,0,0,0,0.001c-0.919,2.84-2.115,5.641-3.536,8.32c-0.903,1.539-1.932,2.999-3.007,4.433
			c-0.172,0.174-0.325,0.363-0.503,0.532c-3.172,3.015-6.78,5.702-9.144,9.353c-0.544,0.307-1.238,0.63-1.579,1.009
			c-0.542,0.602-0.663,1.128-0.699,1.741c-0.636-0.499-1.23-1.046-1.709-1.698c-0.347-0.472-1.145-0.014-0.794,0.464
			c0.682,0.928,1.551,1.657,2.465,2.336c-0.005,0.093-0.008,0.184-0.016,0.283c-0.047,0.581-0.129,1.184-0.204,1.783
			c-0.922-0.926-1.767-1.93-2.526-2.984c-0.342-0.476-1.14-0.018-0.794,0.464c0.943,1.31,2.005,2.533,3.178,3.639
			c-0.034,0.223-0.08,0.451-0.117,0.676c-1.159-1.035-2.341-2.043-3.414-3.169c-0.409-0.429-1.058,0.221-0.65,0.65
			c1.217,1.278,2.576,2.403,3.879,3.588c-0.049,0.267-0.085,0.531-0.138,0.798c-0.087,0.383-0.171,0.767-0.259,1.15
			c-1.422-1.16-2.762-2.427-4.269-3.482c-0.486-0.34-0.945,0.456-0.464,0.794c1.593,1.115,2.994,2.471,4.509,3.682
			c-0.051,0.231-0.106,0.462-0.156,0.693c-0.035,0.136-0.075,0.27-0.111,0.406c-1.77-1.053-3.306-2.472-5.033-3.604
			c-0.496-0.325-0.957,0.47-0.464,0.794c1.796,1.178,3.384,2.666,5.246,3.729c-0.076,0.268-0.153,0.535-0.232,0.801
			c-1.911-1.303-3.838-2.581-5.804-3.801c-0.504-0.313-0.966,0.482-0.464,0.794c2.028,1.258,4.015,2.577,5.985,3.923
			c-0.226,0.71-0.461,1.413-0.711,2.097c-0.982-0.923-1.997-1.807-3.046-2.657c-1.161-0.94-2.489-1.783-3.462-2.92
			c-0.385-0.45-1.033,0.203-0.65,0.65c0.979,1.144,2.299,1.978,3.462,2.92c1.153,0.934,2.271,1.903,3.339,2.931
			c-0.041,0.105-0.081,0.212-0.122,0.316c-2.48-2.024-5.563-3.41-8.093-5.276c-0.476-0.351-0.935,0.446-0.464,0.794
			c2.381,1.757,5.3,3.087,7.688,4.955c-0.479,0.076-0.958,0.167-1.438,0.274c-2.541-1.33-4.833-3.184-7.488-4.321
			c-0.538-0.23-1.007,0.561-0.464,0.794c2.364,1.013,4.449,2.567,6.666,3.848c-0.819,0.228-1.635,0.49-2.445,0.798
			c-1.748-0.864-3.337-2.053-4.739-3.398c-0.427-0.41-1.078,0.24-0.65,0.65c1.288,1.236,2.714,2.337,4.271,3.205
			c-0.588,0.25-1.171,0.514-1.748,0.802c-0.905-0.855-1.905-1.608-3.061-2.088c-0.546-0.227-0.784,0.662-0.244,0.886
			c0.912,0.379,1.713,0.983,2.445,1.654c-0.342,0.183-0.683,0.37-1.02,0.565c-0.69-0.437-1.394-0.847-2.146-1.178
			c-0.536-0.236-1.005,0.556-0.464,0.794c0.597,0.262,1.163,0.577,1.717,0.914c-0.442,0.273-0.878,0.557-1.308,0.85
			c-0.51-0.361-0.978-0.787-1.557-1.034c-0.538-0.23-1.007,0.562-0.464,0.794c0.455,0.195,0.84,0.501,1.232,0.799
			c-2.838,2.04-5.359,4.456-7.29,7.016c-3.044,4.034-5.18,9.058-7.286,13.633c-2.162,4.696-4.106,9.517-5.491,14.503
			c-0.966,3.477-1.974,6.774-3.141,10.059c-2.829,6.047-10.779,25.794-11.675,32.326c-0.161,0.526-0.307,1.057-0.418,1.603
			c-0.111,0.549,0.429,0.872,0.833,0.766c0.269-0.001,0.546-0.139,0.641-0.436c0.527-1.656,0.98-3.313,1.429-4.966
			c0.233-0.57,0.466-1.142,0.688-1.723c0.815-2.139,6.375-17.954,7.062-20.134c0.274-0.869,0.604-1.71,0.957-2.54
			c0.116-0.265,0.23-0.531,0.346-0.796c1.204-2.688,2.627-5.269,3.494-8.14c0.1-0.33,0.217-0.656,0.321-0.985
			c1.501-3.572,2.867-7.198,4.128-10.861c2.33-5.326,4.971-10.535,7.588-15.67c1.251-2.456,2.242-4.887,3.737-7.008
			c3.661-3.831,8.134-6.955,12.92-7.941c4.066-0.837,8.688-0.89,12.741,0.051c4.468,1.038,8.193,3.696,11.668,6.568
			c-0.341,0.544-0.651,1.108-0.948,1.679c-1.388-1.337-2.658-2.801-4.229-3.939c-0.48-0.347-0.939,0.45-0.464,0.794
			c1.588,1.149,2.857,2.65,4.271,3.996c-0.25,0.525-0.488,1.054-0.711,1.589c-1.427-1.35-2.879-2.67-4.439-3.87
			c-0.469-0.36-0.927,0.438-0.464,0.794c1.6,1.23,3.08,2.598,4.538,3.99c-0.104,0.267-0.213,0.534-0.311,0.801
			c-0.07,0.189-0.132,0.38-0.201,0.57c-1.631-1.266-3.111-2.729-4.807-3.916c-0.486-0.34-0.945,0.457-0.464,0.794
			c1.747,1.223,3.266,2.73,4.955,4.021c-0.116,0.325-0.231,0.65-0.344,0.977c-1.93-1.068-3.555-2.61-5.401-3.82
			c-0.496-0.325-0.957,0.47-0.464,0.794c1.896,1.243,3.556,2.835,5.555,3.905c-0.091,0.268-0.186,0.535-0.275,0.804
			c-1.997-1.367-4.013-2.704-6.07-3.98c-0.504-0.313-0.966,0.482-0.464,0.794c2.115,1.312,4.188,2.688,6.24,4.095
			c-0.23,0.703-0.46,1.406-0.683,2.112c-0.629-0.552-1.272-1.088-1.924-1.616c-1.161-0.94-2.489-1.782-3.463-2.92
			c-0.385-0.45-1.033,0.203-0.65,0.65c0.979,1.144,2.299,1.977,3.462,2.92c0.773,0.626,1.528,1.27,2.269,1.93
			c-0.091,0.292-0.177,0.585-0.267,0.877c-1.842-1.15-3.78-2.184-5.472-3.432c-0.477-0.351-0.935,0.446-0.464,0.794
			c1.739,1.283,3.764,2.341,5.66,3.544c-0.178,0.589-0.361,1.175-0.537,1.765c-1.663-1.046-3.302-2.148-5.108-2.922
			c-0.538-0.23-1.007,0.561-0.464,0.794c1.876,0.804,3.578,1.945,5.308,3.022c-0.224,0.755-0.447,1.51-0.669,2.266
			c-1.457-0.822-2.791-1.873-3.993-3.025c-0.427-0.41-1.078,0.24-0.65,0.65c1.319,1.265,2.778,2.394,4.378,3.271
			c-0.189,0.643-0.38,1.285-0.57,1.928c-0.948-0.717-1.881-1.46-2.875-2.111c-0.496-0.325-0.957,0.47-0.464,0.794
			c1.059,0.694,2.05,1.49,3.063,2.25c-0.116,0.39-0.232,0.781-0.348,1.171c-1.005-0.662-2.014-1.317-3.038-1.952
			c-0.504-0.313-0.966,0.482-0.464,0.794c1.086,0.673,2.156,1.37,3.222,2.074c-0.179,0.593-0.36,1.185-0.543,1.777
			c-0.889-0.671-1.794-1.346-2.507-2.18c-0.385-0.45-1.033,0.203-0.65,0.65c0.817,0.955,1.869,1.696,2.872,2.462
			c-0.149,0.474-0.308,0.944-0.46,1.417c-0.835-0.506-1.655-1.021-2.42-1.585c-0.476-0.352-0.935,0.446-0.464,0.794
			c0.814,0.6,1.696,1.147,2.593,1.686c-0.188,0.575-0.37,1.153-0.564,1.726c-0.655-0.374-1.32-0.728-2.014-1.025
			c-0.538-0.23-1.007,0.561-0.464,0.794c0.747,0.32,1.462,0.704,2.167,1.107c-0.221,0.638-0.447,1.275-0.678,1.91
			c-0.286-0.246-0.571-0.494-0.842-0.754c-0.427-0.41-1.078,0.24-0.65,0.65c0.374,0.359,0.763,0.702,1.162,1.034
			c-0.007,0.018-0.012,0.036-0.019,0.053c-2.22,5.943-4.801,11.757-6.669,17.827c-1.69,5.489-7.895,23.737-7.684,29.549
			c0.025,0.69,1.089,0.897,1.249,0.169c0.677-3.068,1.904-5.961,2.741-8.984c0.857-3.095,5.488-18.342,6.586-21.364
			c2.015-5.549,4.382-10.964,6.394-16.514c2.168-5.98,3.826-12.131,6.077-18.082c0.904-2.391,1.799-4.795,2.838-7.123
			c0.104-0.179,0.217-0.356,0.312-0.538c0.869-1.671,0.834-3.804,1.925-5.343c1.407-1.984,2.678-4.226,4.214-6.267
			c2.107-2.683,8.581-2.256,12.891-1.866c6.017,0.543,10.576,3.55,15.205,6.993c2.226,1.656,4.361,4.622,5.67,7.147
			c0.768,1.482,1.085,3.137,1.203,4.827c-0.852-0.859-1.715-1.704-2.701-2.418c-0.48-0.347-0.939,0.45-0.464,0.794
			c1.188,0.86,2.199,1.917,3.223,2.96c0.013,0.768-0.002,1.534-0.022,2.29c-1.312-1.232-2.65-2.435-4.08-3.535
			c-0.469-0.36-0.927,0.438-0.464,0.794c1.59,1.223,3.063,2.583,4.513,3.966c-0.003,0.119-0.007,0.241-0.01,0.359
			c-0.01,0.441-0.029,0.888-0.051,1.337c-1.799-1.333-3.394-2.931-5.233-4.218c-0.486-0.34-0.945,0.456-0.464,0.794
			c1.976,1.383,3.668,3.122,5.64,4.506c-0.018,0.327-0.036,0.655-0.052,0.984c-0.008-0.004-0.01-0.01-0.018-0.013
			c-2.373-1.037-4.216-2.894-6.36-4.3c-0.496-0.325-0.957,0.47-0.464,0.794c2.145,1.406,3.986,3.262,6.36,4.3
			c0.168,0.073,0.325,0.04,0.451-0.039c-0.02,0.575-0.028,1.149-0.016,1.72c-2.417-1.714-5.751-4.113-7.585-5.251
			c-0.504-0.313-0.966,0.482-0.464,0.794c1.97,1.222,5.672,3.9,8.107,5.62c0.081,0.987,0.248,1.957,0.559,2.893
			c-1.82-1.453-4.139-3.198-5.032-3.922c-1.161-0.94-2.489-1.782-3.463-2.92c-0.385-0.45-1.033,0.203-0.65,0.65
			c0.979,1.144,2.299,1.978,3.463,2.92c1.07,0.866,4.186,3.199,6.036,4.739c-0.199,0.203-0.386,0.417-0.579,0.626
			c-2.591-2.438-6.107-3.909-8.927-5.989c-0.476-0.352-0.935,0.446-0.464,0.794c2.753,2.031,6.228,3.489,8.765,5.872
			c-0.296,0.338-0.576,0.69-0.859,1.041c-2.704-1.338-5.097-3.328-7.891-4.526c-0.538-0.23-1.007,0.561-0.464,0.794
			c2.753,1.18,5.128,3.092,7.773,4.453c-0.45,0.589-0.882,1.192-1.298,1.808c-0.049-0.071-0.113-0.136-0.209-0.175
			c-2.107-0.866-3.984-2.254-5.62-3.823c-0.427-0.41-1.078,0.239-0.65,0.65c1.756,1.685,3.762,3.128,6.02,4.057
			c-0.403,0.626-0.79,1.261-1.159,1.907c-1.327-0.927-2.57-1.987-3.927-2.877c-0.496-0.325-0.957,0.47-0.464,0.794
			c1.362,0.893,2.61,1.956,3.944,2.885c-0.181,0.331-0.36,0.662-0.532,0.998c-1.234-0.821-2.474-1.633-3.734-2.414
			c-0.504-0.313-0.966,0.482-0.464,0.794c1.278,0.793,2.536,1.616,3.787,2.449c-0.269,0.55-0.528,1.103-0.776,1.659
			c-0.994-0.758-2.036-1.498-2.84-2.437c-0.385-0.45-1.033,0.203-0.65,0.65c0.882,1.031,2.038,1.813,3.11,2.647
			c-0.188,0.444-0.364,0.889-0.539,1.334c-0.891-0.537-1.765-1.086-2.579-1.687c-0.476-0.351-0.935,0.446-0.464,0.794
			c0.848,0.626,1.767,1.196,2.703,1.758c-0.02,0.055-0.044,0.109-0.064,0.163c-0.187,0.505-0.364,1.015-0.548,1.521
			c-0.674-0.387-1.361-0.749-2.075-1.055c-0.538-0.23-1.007,0.561-0.464,0.794c0.767,0.329,1.503,0.718,2.225,1.134
			c-0.232,0.64-0.465,1.28-0.693,1.922c-0.302-0.258-0.6-0.52-0.885-0.793c-0.427-0.41-1.078,0.24-0.65,0.65
			c0.387,0.371,0.789,0.725,1.203,1.066c-0.716,2.026-1.422,4.058-2.12,6.092c-0.203,0.438-0.41,0.874-0.593,1.322
			c-0.483,1.178-0.813,2.381-1.084,3.598c-0.277,0.818-0.56,1.638-0.837,2.455c-0.984,2.907-1.913,5.83-2.923,8.729
			c-0.353,1.014-0.635,2.056-0.908,3.102c-0.051,0.095-0.073,0.186-0.072,0.275c-0.475,1.839-0.927,3.686-1.635,5.426
			c-0.112,0.275-0.018,0.492,0.158,0.623c0.058,0.673,1.1,0.916,1.22,0.17c0.407-2.533,2.061-4.583,2.979-6.94
			c0.964-2.472,1.545-5.078,2.095-7.667c0.005-0.025,0.009-0.051,0.014-0.076c0.418-1.314,0.849-2.62,1.374-3.876
			c2.018-4.827,4.448-9.502,6.356-14.366c1.868-4.763,4.016-9.667,6.742-14.019c1.474-2.354,3.341-3.476,5.582-4.846
			c2.078-0.568,4.133-1.178,6.421-1.244c1.72-0.049,3.51-0.118,5.297-0.105c3.434,0.723,6.607,2.492,9.314,4.883
			c1.525,1.941,3.308,3.7,4.677,5.797c0.747,1.145,1.449,2.335,2.093,3.557c0.739,1.71,1.293,3.472,1.608,5.237
			c0.277,1.548,0.458,3.106,0.561,4.669c-0.127,4.373-0.564,8.781-0.856,13.032c-0.361,5.241-2.673,10.361-3.417,15.555
			c-0.416,1.195-0.758,2.401-0.848,3.724C361,323,364,324,363,321c2.5,2.625,4.922,5.344,7.252,8.148
			c1.165,1.402,2.306,2.827,3.41,4.273C384,355,400,378,398.498,403.003c-0.373,2.416-0.987,4.789-1.882,7.105
			c-0.895,2.316-2.07,4.574-3.565,6.76c-1.112,1.485-2.422,2.864-3.955,4.119c-0.962,0.583-1.975,1.108-3.029,1.584
			c-1.054,0.475-2.15,0.901-3.284,1.283c-6.467,2.178-13.288,3.714-20.117,3.865c-3.535,0.078-7.213,0.234-10.726-0.19
			c-0.942-0.114-1.827-0.344-2.687-0.628c-0.069-0.133-0.188-0.245-0.374-0.298c-0.371-0.107-0.764-0.191-1.163-0.27
			c-1.721-0.693-3.395-1.496-5.25-1.96c-0.427-0.107-0.789,0.247-0.799,0.622c-0.057,0.192-0.036,0.408,0.138,0.596
			c3.553,3.84,9.316,4.377,14.252,4.556c1.16,0.042,2.331,0.069,3.5,0.099c13.476,8.771,36.773,23.953,37.451,24.875
			c0.346,0.472,1.145,0.014,0.794-0.464c-0.729-0.992-22.818-15.432-36.509-24.362c1.226,0.024,2.455,0.027,3.685,0.033
			c13.831,9.266,32.219,21.68,33.106,22.913c0.342,0.476,1.14,0.017,0.794-0.464c-0.926-1.286-18.496-13.193-32.26-22.436
			c0.376-0.001,0.75-0.015,1.126-0.018c13.336,8.858,29.357,19.443,30.286,20.418c0.409,0.429,1.058-0.221,0.65-0.65
			c-0.908-0.952-16.209-11.07-29.347-19.794c1.007-0.017,2.012-0.032,3.016-0.066c11.928,7.928,23.937,15.931,25.055,16.713
			c0.486,0.34,0.946-0.456,0.464-0.794c-1.084-0.759-12.409-8.307-23.971-15.993c0.905-0.04,1.813-0.072,2.713-0.128
			c10.403,6.827,19.849,13.068,20.802,13.694c0.496,0.325,0.957-0.47,0.464-0.794c-0.923-0.605-9.798-6.468-19.794-13.032
			c0.537-0.054,1.073-0.11,1.597-0.191c8.857,5.728,16.269,10.51,17.166,11.066c0.504,0.313,0.966-0.482,0.464-0.794
			c-0.868-0.538-7.838-5.034-16.315-10.516c0.572-0.115,1.135-0.249,1.691-0.396c7.719,4.952,15.374,9.903,15.858,10.469
			c0.385,0.45,1.033-0.203,0.65-0.65c-0.476-0.556-7.798-5.298-15.334-10.134c0.529-0.164,1.042-0.356,1.556-0.548
			c7.85,5.007,14.095,8.983,15.192,9.791c0.476,0.351,0.935-0.446,0.464-0.794c-1.046-0.772-7.017-4.575-14.598-9.411
			c0.381-0.159,0.758-0.328,1.13-0.502c5.904,3.934,11.576,7.704,14.665,9.632c0.401,0.673,0.797,1.349,1.206,2.012
			c4.445,7.203,9.362,14.158,14.517,20.959c6.812,10.14,21.292,30.595,29.178,40.112h2.492
			C449.458,499.75,449.258,499.497,449.055,499.248z M196.829,157.204c-0.04,0.317-0.061,0.632-0.087,0.948
			c-0.001-0.456-0.007-0.91,0.033-1.382c0.16-1.895,0.624-3.666,1.373-5.248C197.492,153.42,197.059,155.376,196.829,157.204z
			 M306.755,471.464c-4.034-8.412-8.459-16.657-13.281-24.756c-1.033-1.736-2.05-3.505-3.078-5.274
			C297.311,450.416,302.368,461.009,306.755,471.464z M278.205,424.875c1.403,1.088,2.739,2.264,3.915,3.658
			c2.377,2.817,4.55,5.868,6.653,8.956c-0.708-0.799-1.434-1.58-2.183-2.34c-1.049-1.633-2.137-3.232-3.304-4.76
			c-1.513-1.982-3.233-3.838-5.272-5.289C278.093,425.038,278.163,424.966,278.205,424.875z M273.811,424.111
			c0.07,0.038,0.136,0.077,0.206,0.114c2.559,1.376,4.807,2.917,6.76,5.101c0.547,0.612,1.069,1.25,1.576,1.902
			c-0.594-0.497-1.197-0.985-1.815-1.462c-2.447-1.889-4.979-3.666-7.476-5.483C273.33,424.258,273.586,424.208,273.811,424.111z
			 M226.789,392.712c0.197-0.114,0.363-0.29,0.481-0.501c1.665,1.419,3.343,2.824,5.066,4.177
			C230.474,395.183,228.626,393.956,226.789,392.712z M212.471,377.298c-0.742-0.413-1.488-0.821-2.246-1.215
			c-1.956-1.109-3.977-2.102-6-3.114c-1.274-0.637-2.528-1.303-3.783-1.965c-2.2-2.467-4.896-4.385-7.91-5.73
			c-0.603-0.554-1.188-1.121-1.752-1.703c-0.628-0.648-1.186-1.321-1.714-2.005C195.323,365.747,204.44,371.846,212.471,377.298z
			 M220.361,355.285c0.537-0.208,1.072-0.424,1.606-0.648c0.286,0.181,0.576,0.366,0.871,0.553c0.034,0.122,0.07,0.246,0.128,0.389
			c0.599,1.464,2.451,2.813,3.874,3.742c0.031,0.032,0.064,0.063,0.096,0.095C224.643,357.979,222.39,356.562,220.361,355.285z
			 M229.323,359.316c-0.011-0.008-0.021-0.018-0.032-0.026c0.042,0.027,0.085,0.054,0.127,0.081
			C229.387,359.352,229.354,359.334,229.323,359.316z M259.385,364.815c-0.848,0.179-1.703,0.326-2.559,0.457
			c-0.043-0.156-0.14-0.293-0.296-0.368C257.487,364.893,258.443,364.876,259.385,364.815z M245.411,363.819
			c2.802,0.637,5.869,0.964,8.955,1.054c-1.747,0.048-3.518,0.124-5.292,0.164c-0.556-0.05-1.112-0.121-1.67-0.242
			c-1.739-0.378-3.391-1.022-4.979-1.808C243.421,363.305,244.421,363.594,245.411,363.819z M229.863,358.459
			c0.102,0.101,0.202,0.198,0.303,0.297c-1.247-0.791-2.492-1.582-3.704-2.351c-0.101-0.14-0.212-0.276-0.305-0.419
			c1.087,0.882,2.332,1.555,3.532,2.349C229.748,358.375,229.804,358.419,229.863,358.459z M225.899,352.908
			c1.042,0.516,2.1,0.995,3.131,1.534c0.177,0.092,0.336,0.191,0.496,0.29c-0.017,0.093-0.01,0.188,0.012,0.281
			c-1.293-0.864-2.744-1.554-4.242-1.406c-0.041,0.004-0.083,0.016-0.124,0.028c-0.201-0.053-0.401-0.107-0.608-0.131
			C225.009,353.306,225.452,353.109,225.899,352.908z M213.335,355.875c-2.282,0.47-4.826,0.362-7.381-0.122
			C208.401,355.941,210.86,355.917,213.335,355.875z M209.597,236.042c-0.823,1.951-1.718,3.87-2.615,5.787
			c0.897-2.122,1.824-4.228,2.812-6.31C209.726,235.692,209.665,235.868,209.597,236.042z M237.613,160.018
			c0.184,0.364,0.357,0.742,0.533,1.116c-0.076-0.123-0.156-0.244-0.233-0.367c-1.81-3.476-4.022-6.751-6.492-9.784
			c-0.286-0.351-0.578-0.698-0.873-1.041C233.441,152.854,235.72,156.269,237.613,160.018z M210.433,142.315
			c0.276-0.018,0.542-0.015,0.815-0.026c-0.48,0.038-0.955,0.088-1.421,0.158c-1.147,0.172-2.315,0.581-3.452,1.126
			c-0.327,0.076-0.651,0.156-0.965,0.251C206.846,142.979,208.509,142.441,210.433,142.315z M213.686,198.626
			c-0.164-0.936-0.367-1.859-0.605-2.77c0.354,0.821,0.676,1.638,0.939,2.473C213.872,198.387,213.75,198.488,213.686,198.626z
			 M217.434,205.956c-0.005-0.022-0.01-0.044-0.014-0.066c1.572,0.897,3.586,2.178,4.813,2.958
			c-0.295,0.463-0.588,0.928-0.882,1.391c-1.016-0.645-2.043-1.273-3.115-1.811C217.999,207.581,217.738,206.746,217.434,205.956z
			 M217.156,204.696c-0.2-0.918-0.419-1.831-0.651-2.742c2.138,1.728,6.029,5.108,6.521,5.405c0.042,0.025,0.083,0.033,0.123,0.044
			c-0.146,0.227-0.288,0.457-0.434,0.684C221.334,207.203,218.792,205.577,217.156,204.696z M219.123,213.752
			c-0.052-1.364-0.26-2.759-0.573-4.124c0.787,0.43,1.556,0.895,2.317,1.374C220.287,211.918,219.699,212.831,219.123,213.752z
			 M223.559,206.628c-0.023-0.021-0.039-0.045-0.069-0.063c-0.568-0.342-5.657-4.787-7.363-6.068
			c-0.016-0.058-0.029-0.117-0.045-0.174c-0.259-0.902-0.559-1.785-0.877-2.661c-0.813-2.73-2.198-5.373-3.266-7.905
			c-1.754-4.159-4.275-7.88-6.39-11.847c-2.967-5.567-6.9-13.094-7.019-20.041c0.027-0.387,0.042-0.769,0.082-1.161
			c0.501-4.902,3.297-9.534,7.63-11.757c0.115-0.049,0.232-0.095,0.349-0.141c5.328-1.256,11.739-1.076,16.398,1.892
			c2.141,1.364,4.201,2.933,6.077,4.691c1.946,2.273,3.854,4.55,5.591,6.918c1.371,2.361,2.458,4.881,3.773,7.273
			c0.133,0.242,0.282,0.48,0.432,0.718c0.394,1.129,0.747,2.272,1.09,3.419c-0.263-0.262-0.513-0.538-0.735-0.84
			c-0.347-0.472-1.145-0.014-0.794,0.464c0.567,0.772,1.263,1.405,2.006,1.989c0.289,1.001,0.577,2.005,0.872,3.012
			c-1.173-1.081-2.231-2.294-3.158-3.583c-0.342-0.476-1.14-0.018-0.794,0.464c1.268,1.763,2.742,3.377,4.438,4.731
			c0.083,0.272,0.16,0.544,0.246,0.816c-0.04,0.055-0.078,0.11-0.118,0.165c-1.598-1.568-3.374-2.944-4.919-4.567
			c-0.409-0.429-1.058,0.221-0.65,0.65c1.577,1.655,3.394,3.051,5.016,4.658c0.005,0.005,0.011,0.006,0.016,0.011
			c-0.321,0.446-0.641,0.893-0.958,1.341c-1.652-1.275-3.146-2.754-4.861-3.954c-0.486-0.34-0.946,0.456-0.464,0.794
			c1.693,1.185,3.167,2.643,4.794,3.907c-0.251,0.358-0.494,0.721-0.742,1.081c-1.353-0.94-2.61-2.03-3.991-2.935
			c-0.496-0.325-0.957,0.47-0.464,0.794c1.363,0.893,2.604,1.967,3.936,2.898c-0.141,0.206-0.284,0.41-0.424,0.617
			c-1.421-0.949-2.85-1.885-4.302-2.786c-0.504-0.313-0.966,0.482-0.464,0.794c1.438,0.892,2.854,1.819,4.261,2.758
			c-0.37,0.561-0.722,1.131-1.078,1.699c-1.134-0.905-2.407-1.731-3.35-2.832c-0.385-0.45-1.033,0.202-0.65,0.65
			c0.979,1.144,2.299,1.977,3.462,2.92c0.015,0.012,0.029,0.026,0.045,0.038c-0.153,0.249-0.314,0.494-0.465,0.744
			c-1.06-0.632-2.104-1.272-3.067-1.982c-0.477-0.351-0.936,0.446-0.464,0.794c0.959,0.708,2.006,1.346,3.069,1.979
			c-0.194,0.327-0.384,0.657-0.575,0.986c-1.205-0.76-2.424-1.497-3.732-2.057c-0.538-0.23-1.007,0.561-0.464,0.794
			c1.31,0.561,2.531,1.292,3.739,2.046c-0.167,0.292-0.343,0.578-0.508,0.871c-0.219,0.259-0.435,0.52-0.653,0.779
			c-1.109-0.714-2.15-1.54-3.096-2.448c-0.427-0.41-1.078,0.24-0.65,0.65c0.972,0.932,2.031,1.771,3.16,2.504
			c-0.327,0.398-0.653,0.797-0.972,1.202c-0.817-0.727-1.709-1.364-2.726-1.786c-0.546-0.227-0.784,0.662-0.244,0.886
			c0.9,0.374,1.691,0.967,2.415,1.628c-0.209,0.274-0.417,0.549-0.62,0.829c-0.809-0.525-1.629-1.026-2.516-1.415
			c-0.536-0.236-1.005,0.556-0.464,0.794c0.863,0.379,1.664,0.864,2.452,1.374c-0.11,0.16-0.226,0.314-0.334,0.476
			c-0.225,0.337-0.424,0.695-0.639,1.041c-0.889-0.779-2.121-1.945-2.628-2.162c-0.538-0.23-1.007,0.562-0.464,0.794
			c0.504,0.215,1.724,1.37,2.613,2.148c-0.091,0.154-0.19,0.301-0.28,0.456c-1.393-0.94-3.244-2.222-4.416-2.724
			c-0.538-0.23-1.007,0.561-0.464,0.794c1.171,0.502,3.044,1.794,4.43,2.72c-0.33,0.593-0.648,1.193-0.959,1.799
			c-1.594-1.09-4.346-3.18-5.253-4.05c-0.427-0.41-1.078,0.24-0.65,0.65c0.971,0.932,3.854,3.11,5.485,4.213
			c-0.236,0.476-0.458,0.958-0.684,1.438c-1.64-1.49-5.843-5.019-6.989-5.495c-0.546-0.227-0.784,0.662-0.244,0.886
			c1.087,0.451,5.261,4.025,6.82,5.477c-0.137,0.3-0.269,0.598-0.403,0.898c-0.023-0.023-0.04-0.049-0.07-0.069
			c-0.952-0.628-7.103-5.64-8.15-6.1c-0.536-0.236-1.005,0.556-0.464,0.794c1.047,0.46,7.198,5.472,8.15,6.1
			c0.063,0.041,0.124,0.064,0.184,0.073c-0.202,0.462-0.412,0.926-0.608,1.387C223.668,206.33,223.614,206.48,223.559,206.628z
			 M252.51,168.683c1.018,1.451,2.246,2.78,3.595,3.652C254.403,171.616,253.049,170.465,252.51,168.683z M280.214,147.459
			c1.994,1.145,4.397,2.265,6.046,3.898c-0.346,4.066-4.165,8.133-6.758,11.007c-2.39,2.649-4.381,5.421-7.363,7.482
			c-3.602,2.49-7.448,3.31-11.769,2.595c-3.635-0.601-6.723-3.599-8.321-7.013c0.001-0.116-0.002-0.233-0.001-0.348
			c0.685-0.971,1.381-1.933,2.054-2.913c3.492-5.092,7.275-10.095,12.331-13.743c1.956-1.411,4.031-2.906,6.114-4.13
			C275.184,145.228,277.767,146.055,280.214,147.459z M243.433,247.121c-0.019,0.039-0.037,0.078-0.056,0.117
			c0.537-1.478,1.144-2.925,1.902-4.297c0.558-1.009,1.193-2.033,1.882-3.053C245.948,242.314,244.633,244.688,243.433,247.121z
			 M277.955,225.079c-0.45-0.146-0.918-0.255-1.385-0.367c1.443,0.289,2.842,0.697,4.132,1.283c1.354,0.615,5.17,2.558,7.05,4.499
			C284.752,228.251,281.301,226.166,277.955,225.079z M284.526,248.183c0.042,0.041,0.086,0.079,0.128,0.12
			c-0.097,0.173-0.204,0.34-0.293,0.52c-0.004-0.003-0.009-0.006-0.013-0.009C284.407,248.604,284.467,248.393,284.526,248.183z
			 M283.322,252.32c0.047,0.027,0.095,0.054,0.142,0.081c-0.246,0.693-0.484,1.39-0.719,2.088c-0.024-0.01-0.047-0.023-0.07-0.034
			C282.89,253.743,283.107,253.032,283.322,252.32z M282.408,255.331c0.015,0.007,0.03,0.015,0.045,0.022
			c-0.237,0.719-0.471,1.438-0.702,2.16c-0.005-0.004-0.011-0.007-0.016-0.011C281.96,256.779,282.186,256.056,282.408,255.331z
			 M281.451,258.413c0.004,0.003,0.009,0.006,0.013,0.008c-0.118,0.373-0.236,0.746-0.353,1.119
			c-0.004-0.002-0.007-0.005-0.01-0.007C281.218,259.16,281.334,258.786,281.451,258.413z M280.824,260.452
			c-0.197,0.629-0.393,1.258-0.59,1.885c-0.01-0.009-0.021-0.018-0.032-0.026c0.203-0.622,0.414-1.242,0.613-1.865
			C280.818,260.448,280.821,260.45,280.824,260.452z M279.895,263.248c0.014,0.012,0.027,0.023,0.041,0.034
			c-0.129,0.409-0.258,0.817-0.388,1.224c-0.019-0.011-0.037-0.022-0.056-0.034C279.629,264.066,279.76,263.656,279.895,263.248z
			 M279.191,265.36c0.023,0.014,0.046,0.028,0.069,0.042c-0.186,0.575-0.374,1.147-0.564,1.718c-0.034-0.021-0.07-0.04-0.104-0.061
			C278.792,266.492,278.997,265.928,279.191,265.36z M277.768,269.402c0.179-0.488,0.343-0.98,0.517-1.469
			c0.038,0.023,0.077,0.044,0.114,0.067c-0.221,0.651-0.443,1.301-0.673,1.945c-0.022,0.061-0.047,0.122-0.069,0.184
			c-0.042-0.032-0.083-0.066-0.125-0.099C277.61,269.82,277.691,269.612,277.768,269.402z M264.544,308.385
			c-0.232,0.855-0.5,1.699-0.777,2.539c0.664-3.02,5.445-18.238,6.41-21.102C269.498,291.928,265.127,306.241,264.544,308.385z
			 M271.13,287.021c-0.188,0.517-0.362,1.037-0.538,1.557c0.155-0.464,0.312-0.931,0.458-1.384
			c1.783-5.522,4.097-10.85,6.148-16.274c0.043,0.031,0.083,0.066,0.126,0.097C275.352,276.387,273.084,281.644,271.13,287.021z
			 M283.776,251.545c-0.062-0.036-0.125-0.071-0.187-0.107c0.146-0.487,0.288-0.979,0.429-1.471
			c0.046,0.114,0.127,0.203,0.237,0.265C284.09,250.667,283.935,251.107,283.776,251.545z M285.867,246.311
			c-0.249,0.395-0.501,0.782-0.745,1.173c-0.104-0.1-0.211-0.195-0.316-0.294c0.123-0.437,0.245-0.872,0.369-1.31
			c0.238,0.035,0.493-0.04,0.641-0.28c0.546-0.879,1.102-1.751,1.659-2.623C286.906,244.071,286.368,245.181,285.867,246.311z
			 M296.312,229.782c-1.272,0.283-2.538,0.631-3.801,1.028c0.922-1.124,2.668-1.275,4.328-1.242
			C296.663,229.636,296.486,229.705,296.312,229.782z M305.041,228.65c-0.043-0.026-0.064-0.068-0.116-0.085
			c-0.291-0.099-0.599-0.176-0.914-0.243c2.296-0.043,4.639,0.202,6.569,0.824C308.744,229.082,306.872,228.806,305.041,228.65z
			 M312.74,228.649c-0.828-0.439-1.687-0.72-2.57-0.908c0.901,0.049,1.798,0.148,2.686,0.323
			C312.745,228.226,312.701,228.445,312.74,228.649z M327.369,242.031c-1.645-1.53-3.327-3.056-5.065-4.471
			c-0.03-0.024-0.061-0.046-0.091-0.071c0.233,0.156,0.467,0.312,0.695,0.472c0.791,0.655,1.591,1.304,2.402,1.934
			c0.727,0.646,1.458,1.286,2.221,1.887C327.453,241.847,327.398,241.931,327.369,242.031z M330.1,258.753
			c0.017-0.009,0.034-0.017,0.049-0.028c0.048,0.37,0.096,0.741,0.143,1.111c-0.002,0.012-0.01,0.019-0.011,0.031
			c-0.133,0.911-0.147,1.807-0.127,2.702c-0.007-0.005-0.013-0.009-0.021-0.014C330.02,261.314,330.032,260.033,330.1,258.753z
			 M324.863,276.131c0.071,0.043,0.142,0.085,0.213,0.127c-0.164,0.36-0.326,0.72-0.487,1.081c-0.082-0.056-0.166-0.11-0.248-0.166
			C324.512,276.823,324.683,276.474,324.863,276.131z M324.211,278.189c-0.268,0.606-0.54,1.211-0.807,1.817
			c-0.083-0.071-0.168-0.141-0.252-0.211c0.253-0.601,0.516-1.196,0.79-1.786C324.032,278.07,324.122,278.129,324.211,278.189z
			 M322.002,282.707c0.052,0.031,0.103,0.061,0.155,0.092c-0.243,0.538-0.488,1.077-0.739,1.613
			c-0.009-0.006-0.019-0.012-0.028-0.018C321.589,283.829,321.794,283.267,322.002,282.707z M322.54,281.961
			c-0.071-0.042-0.141-0.084-0.212-0.126c0.148-0.387,0.302-0.77,0.457-1.154c0.078,0.066,0.156,0.13,0.234,0.196
			C322.859,281.239,322.701,281.601,322.54,281.961z M326.24,273.774c-0.266,0.547-0.517,1.099-0.773,1.65
			c-0.054-0.032-0.108-0.064-0.162-0.097c0.351-0.632,0.713-1.257,1.103-1.866C326.354,273.566,326.292,273.668,326.24,273.774z
			 M332.083,265.118c-0.002-0.042-0.003-0.084-0.005-0.126c0.254-0.049,0.473-0.238,0.479-0.592
			c0.022-1.345,0.116-2.763,0.217-4.212c0.031,1.407,0.043,2.802,0.225,4.198C332.686,264.623,332.384,264.869,332.083,265.118z
			 M344.812,262.704c0.03-0.249-0.064-0.499-0.285-0.616c0.984,0.031,1.957,0.2,2.919,0.489
			C346.569,262.581,345.69,262.62,344.812,262.704z M356.062,268.553c-0.048-0.084-0.104-0.165-0.151-0.25
			c1.239,0.848,2.306,1.968,3.492,2.891c0.141,0.22,0.277,0.444,0.408,0.673C358.643,270.653,357.357,269.547,356.062,268.553z
			 M365.562,304.181c0.059-0.641,0.11-1.283,0.155-1.927c0.388-3.205,0.621-6.435,0.634-9.708c0.041-0.651,0.075-1.303,0.104-1.956
			c0.104,0.837,0.175,1.679,0.184,2.528C366.678,296.766,366.343,300.544,365.562,304.181z M364.536,280.622
			c0.027-0.097,0.04-0.202,0.018-0.324c-0.234-1.337-0.704-2.611-1.337-3.821c-0.102-0.294-0.206-0.59-0.312-0.885
			c0.965,1.797,1.645,3.715,1.961,5.722C364.757,281.084,364.651,280.852,364.536,280.622z M364.851,277.169
			c1.814,3.857,2.823,8.089,3.024,12.636c0.035,0.8,0.032,1.586,0.008,2.365c-0.003-0.056-0.002-0.114-0.005-0.17
			c-0.125-2.425-0.65-4.702-1.425-6.904C366.294,282.37,365.836,279.7,364.851,277.169z M363.208,317.276
			c-0.005,0-0.01-0.002-0.016-0.003c-0.021-0.002-0.035,0.006-0.055,0.006c0.124-0.611,0.248-1.223,0.37-1.833
			c0.141-0.399,0.276-0.8,0.394-1.207c0.277-0.959,0.6-1.904,0.927-2.848C364.367,313.374,363.813,315.332,363.208,317.276z
			 M366.924,320.048 M385.859,350.986 M387.188,356.612c0.991,1.345,1.801,2.822,2.518,4.356
			C388.901,359.498,388.032,358.069,387.188,356.612z M397.042,376.02c0.041,0.728,0.908,1.976,0.986,3.001
			c-0.891-1.259-0.975-3.279-1.868-5.005C396.442,374.684,396.747,375.342,397.042,376.02z M398.835,387.076
			c0.753,1.409,1.538,1.643,1.951,3.897C400.171,389.697,399.511,388.397,398.835,387.076z M395.523,422.747
			c-6.164,0.201-0.164-0.799-0.273-0.689C395.339,422.289,395.425,422.52,395.523,422.747z M396.288,424.86
			c0.213,0.561,0.44,1.117,0.67,1.67c-1.305-0.835-2.616-1.677-3.94-2.53c0.286-0.221,0.573-0.438,0.848-0.67
			C394.671,423.84,395.476,424.348,396.288,424.86z M397.595,428.008c0.27,0.613,0.543,1.223,0.831,1.827
			c-1.107-0.719-2.272-1.472-3.472-2.243c-1.2-0.772-2.434-1.562-3.679-2.356c0.326-0.213,0.651-0.425,0.968-0.65
			C394.039,425.739,395.847,426.896,397.595,428.008z M401.068,426.844c-0.854-0.947-1.781-2.171-2.495-3.533
			c-0.714-1.362-1.215-2.862-1.225-4.362c1.003,1,1.012,3,1.97,4.099C399.906,424.314,400.49,425.58,401.068,426.844z
			 M399.408,409.879c-0.241-0.12-0.303-1.19-0.303-1.19c1.168,3.178,0.237,6.243-1.749,8.257c0.984-2.016,0.937-4.06,1.688-5.774
			C399.174,410.743,399.294,410.312,399.408,409.879z M390.427,425.775c3.108,1.983,6.165,3.952,8.787,5.663
			c0.443,0.87,0.899,1.734,1.373,2.588c0.163,0.368,0.347,0.727,0.536,1.084c-3.142-2.012-7.761-5.076-12.583-8.284
			C389.182,426.498,389.812,426.148,390.427,425.775z"/>
		<path style="fill:#333333;" d="M344.601,369.674c-3.142,1.247-5.792,1.407-9.063,1.428c-3.191,0.018-6.382,0.358-9.493-0.532
			c-3.384-0.969-6.732-2.797-9.373-5.106c-1.144-1-2.105-2.93-3.832-2.797c-1.966,0.151-4.465,2.471-6.126,3.443
			c-3.27,1.913-6.514,2.866-10.303,3c-3.417,0.121-6.832-0.263-10.151-1.07c-2.729-0.663-5.068-2.179-7.605-3.155
			c-0.263-0.192-0.543-0.372-0.794-0.573c-0.317-0.252-0.7-0.162-0.922,0.061c-0.611,0.061-0.806,1.051-0.101,1.242
			c0.309,0.084,0.61,0.186,0.91,0.29c2.949,2.558,6.907,5.115,10.341,6.57c3.349,1.419,7.177,1.431,10.764,1.261
			c5.742-0.273,11.682-1.914,14.445-7.102c0.844,2.465,1.775,4.734,4.011,6.428c2.368,1.793,5.592,2.399,8.475,2.718
			c3.1,0.343,6.736,0.203,10.198-0.575c3.469-0.784,6.8-2.229,9.247-4.474C345.689,370.311,345.218,369.429,344.601,369.674z
			 M287.612,370.853c-0.533-0.268-1.085-0.564-1.643-0.873c0.711,0.239,1.427,0.452,2.149,0.641
			c0.007,0.258,0.144,0.522,0.413,0.636C288.223,371.131,287.915,371.005,287.612,370.853z M288.581,371.279
			c0.49,0.186,0.971,0.352,1.447,0.504C289.54,371.644,289.058,371.471,288.581,371.279z M309.564,366.724
			c-0.31,0.286-0.632,0.554-0.955,0.822c-1.415,0.826-2.859,1.367-4.581,1.909C305.871,368.629,307.681,367.664,309.564,366.724z
			 M304.723,371.571c1.445-0.63,2.801-1.499,4.064-2.496c0.476-0.248,0.94-0.531,1.388-0.87c0.505-0.382,1.088-1.073,1.672-1.56
			C310.236,369.253,307.636,370.747,304.723,371.571z M316.724,370.7c-0.288-0.359-0.544-0.737-0.773-1.131
			c0.511,0.371,1.084,0.713,1.672,1.018c0.009,0.009,0.018,0.02,0.027,0.029C317.342,370.633,317.033,370.661,316.724,370.7z
			 M327.528,374.629c-2.212-0.076-4.885-0.421-7.112-1.302c0.709,0.106,1.43,0.167,2.149,0.21c2.394,0.757,5.016,0.873,7.696,0.684
			c2.681-0.189,5.421-0.684,8.061-1.151C339,374,340,371,341,372c-2,1-5,1-6.707,2.188
			C331.967,374.582,329.624,374.701,327.528,374.629z"/>
		<path style="fill:#333333;" d="M205.899,93.686c0.561,1.536,1.211,3.057,1.92,4.534c0.679,1.624,1.433,3.234,2.333,4.711
			c0.044,0.074,0.103,0.148,0.148,0.221c1.772,3.042,3.973,5.833,6.498,8.536c0.044,0.074,0.103,0.133,0.177,0.192
			c1.078,1.167,2.215,2.319,3.397,3.485c0.665,0.635,1.344,1.255,1.994,1.89c0.295,0.281,0.605,0.561,0.901,0.842
			c3.81,3.662,7.694,7.251,11.637,10.766c0.369,0.34,0.753,0.665,1.137,1.004c1.329,1.167,2.688,2.304,4.076,3.382
			c2.702,2.097,5.567,3.973,8.757,5.361c0.059,0.03,0.103,0.044,0.148,0.059c0.015,0,0.015,0.015,0.03,0.015
			c0.133,0.059,0.251,0.059,0.384,0.044c0.118,0.015,0.251,0.015,0.384-0.044c0.015,0,0.015-0.015,0.03-0.015
			c0.044-0.015,0.089-0.03,0.133-0.059c5.287-2.304,9.702-5.936,13.985-9.747c3.943-3.515,7.812-7.103,11.637-10.766
			c0.295-0.281,0.591-0.561,0.886-0.842c0.664-0.635,1.344-1.255,1.994-1.89c4.017-3.913,7.502-7.783,10.086-12.213
			c0.044-0.074,0.103-0.148,0.148-0.221c0.901-1.477,1.639-3.087,2.333-4.711c3.47-7.221,5.405-15.506,4.253-23.038
			c-0.251-1.654-0.768-3.219-1.477-4.667c-0.015-0.044-0.044-0.089-0.074-0.133c-0.797-1.624-1.861-3.101-3.131-4.401
			c-0.31-0.34-0.65-0.65-0.989-0.975c-2.215-1.964-4.888-3.47-7.753-4.342c-0.413-0.133-0.827-0.251-1.255-0.34
			c-1.698-0.414-3.441-0.591-5.184-0.546c-0.679,0.015-1.373,0.089-2.068,0.192c-1.418-0.074-2.85-0.059-4.238,0.03
			c-2.259,0.162-4.327,0.679-6.247,1.565c-3.042,0.871-5.361,2.378-7.871,4.46c-1.92,1.595-4.135,6.055-5.582,8.167
			c-1.462-2.112-3.677-6.572-5.597-8.167c-2.496-2.082-4.814-3.589-7.856-4.46c-1.935-0.886-3.987-1.403-6.247-1.565
			c-1.403-0.089-2.821-0.103-4.253-0.03c-0.694-0.103-1.373-0.177-2.053-0.192c-3.278-0.089-6.557,0.664-9.481,2.082
			c-0.015,0-0.015,0-0.015,0c-4.755,2.319-8.58,6.395-9.983,11.504c-0.162,0.591-0.295,1.196-0.384,1.817
			c-0.916,5.892,0.074,12.242,2.215,18.179C205.825,93.465,205.855,93.568,205.899,93.686z M218.23,109.429
			c-0.133-0.103-0.251-0.192-0.369-0.31c-1.285-1.049-2.525-2.141-3.662-3.352c-0.797-1.063-1.536-2.156-2.23-3.264
			c1.935,2.141,4.032,4.179,6.04,6.262c0.133,0.133,0.266,0.251,0.369,0.384c0.517,0.532,1.034,1.063,1.521,1.61
			C219.338,110.315,218.777,109.872,218.23,109.429z M220.948,113.416c1.122,0.901,2.245,1.831,3.337,2.762
			c0.576,0.753,1.167,1.491,1.757,2.215C224.3,116.783,222.616,115.114,220.948,113.416z M241.046,132.304
			c-1.034-0.753-2.038-1.536-3.027-2.348c0.118,0.089,0.251,0.162,0.369,0.236c0.93,0.664,1.861,1.314,2.791,1.979
			c1.211,0.842,2.407,1.698,3.559,2.599C243.483,134.002,242.243,133.175,241.046,132.304z M254.131,134.77
			c2.023-1.595,4.223-3.057,6.335-4.578c0.133-0.074,0.251-0.148,0.384-0.236C258.694,131.713,256.464,133.352,254.131,134.77z
			 M272.812,118.393c0.606-0.724,1.181-1.462,1.772-2.215c1.093-0.93,2.2-1.861,3.323-2.762
			C276.253,115.114,274.554,116.783,272.812,118.393z M293.649,79.554c0,0.133-0.015,0.266-0.015,0.399
			c-0.118-0.842-0.236-1.698-0.384-2.555c-0.015-0.31-0.03-0.635-0.044-0.96c-0.044-0.783-0.148-1.521-0.281-2.245
			C293.664,75.729,293.782,77.28,293.649,79.554z M235.095,62.733c0.266,0.118,0.561,0.222,0.812,0.354
			c0.945,0.502,1.905,1.108,2.85,1.772c-0.413-0.222-0.827-0.443-1.24-0.635c-1.285-0.62-2.644-1.24-4.046-1.846
			C234.017,62.482,234.549,62.6,235.095,62.733z M220.431,63.368c5.892-1.063,11.711-0.133,16.909,2.259
			c3.958,2.082,7.605,7.561,10.574,10.721c0.103,0.118,0.192,0.251,0.281,0.384c0,0.015,0,0.015,0,0.03
			c0,0.015,0.015,0.015,0.015,0.029c0.251,0.532,1.004,1.196,1.61,0.93c0.34-0.133,0.62-0.473,0.901-0.812
			c-0.015-0.059-0.044-0.118-0.059-0.177c0.103-0.133,0.192-0.266,0.295-0.384c2.968-3.16,6.601-8.639,10.559-10.721
			c5.198-2.392,11.031-3.323,16.909-2.259c0.118,0.015,0.236,0.044,0.354,0.074c0.295,0.059,0.576,0.118,0.856,0.192
			c3.471,0.886,6.01,2.643,8.432,4.918c0.044,0.059,0.103,0.103,0.162,0.162c0.31,0.295,0.635,0.605,0.945,0.93
			c0.827,1.418,1.462,2.968,1.846,4.711c0.354,1.595,0.709,3.234,1.019,4.888c0.103,2.998-0.148,6.055-0.325,8.565
			c-0.162,2.481-1.903,4.28-2.568,6.702c-3.81,7.162-9.867,12.939-14.637,19.378c-0.384,0.517-0.797,1.019-1.181,1.521
			c-4.253,3.736-8.491,7.502-12.626,11.371c-3.662,3.426-8.078,6.409-11.268,10.278c-2.599-3.146-5.996-5.7-9.141-8.388
			c-0.443-0.354-0.871-0.738-1.285-1.122c-0.295-0.251-0.576-0.502-0.857-0.768c-4.12-3.869-8.359-7.635-12.612-11.371
			c-0.399-0.502-0.812-1.004-1.196-1.521c-1.565-2.112-3.411-4.091-5.316-6.04c-0.148-0.148-0.281-0.295-0.428-0.443
			c-3.766-3.825-7.709-7.591-10.175-12.228c-0.31-1.152-0.576-2.319-0.798-3.485c0-0.059-0.015-0.118-0.029-0.177v-0.015
			c-0.222-1.226-0.369-2.451-0.458-3.692c-0.162-2.51-0.414-5.567-0.325-8.565c0.31-1.654,0.679-3.293,1.019-4.888
			c0.384-1.743,1.034-3.293,1.861-4.711C212.737,66.573,215.764,64.225,220.431,63.368z M207.125,69.615
			c0.753-1.255,1.698-2.407,2.895-3.426c0.133-0.118,0.281-0.222,0.428-0.34c0.015,0,0.029-0.015,0.044-0.029
			c0.162-0.118,0.31-0.236,0.473-0.354c-0.797,0.783-1.521,1.654-2.156,2.614c-0.266,0.325-0.502,0.65-0.723,0.975
			c-0.532,0.591-1.063,1.167-1.58,1.713C206.697,70.368,206.903,69.984,207.125,69.615z M205.619,77.398
			c-0.148,0.856-0.266,1.713-0.384,2.555c-0.015-0.133-0.015-0.266-0.029-0.399c-0.118-2.274-0.015-3.825,0.738-5.361
			c-0.148,0.724-0.251,1.462-0.295,2.245C205.633,76.763,205.633,77.088,205.619,77.398z"/>
	</g>
</g>
</svg>
