<?xml version="1.0" encoding="utf-8"?>
<!-- Generator: Adobe Illustrator 27.5.0, SVG Export Plug-In . SVG Version: 6.00 Build 0)  -->
<svg version="1.1" id="Layer_1" xmlns="http://www.w3.org/2000/svg" xmlns:xlink="http://www.w3.org/1999/xlink" x="0px" y="0px"
	 viewBox="0 0 2000 2000" style="enable-background:new 0 0 2000 2000;" xml:space="preserve">

<g>
	<g>
		<g>
			<path style="fill:#D5863C;" d="M1760.304,1420.447c-1.864-29.613-3.844-59.252-5.6-88.865
				c-4.826-73.23-2.854-146.727-10.118-219.808c-3.362-44.699-4.851-89.531-8.346-134.23c-3.986-46.08-8.828-92.127-15.327-137.915
				c-10.076-60.442-24.704-120.109-40.721-179.22c-14.237-48.418-33.541-95.23-46.846-143.931
				c-8.013-33.84-11.216-67.364-13.796-102.744c-1.454-19.938,2.333-56.327-9.257-73.483c-14.268-21.117-65.02-21.716-87.33-25.159
				c-22.915-3.536-46.08-4.618-69.22-5.6c-46.113-2.496-92.268-2.804-138.431-2.271c-46.679,0.89-93.358,0-140.021,0.349
				c-52.57,0.541-104.974,5.7-157.536,6.665c-36.578,0.682-73.147-2.954-109.725-1.14c-89.387,4.433-127.113,80.268-174.566,145.031
				c-42.657,58.218-81.938,118.868-117,181.964c-7.638,13.746-14.345,32.717,2.138,42.702c29.542,17.895,73.583,22.129,107.32,27.35
				c4.893,0.757,6.39,5.999,8.088,10.01c1.714,6.515,0.399,12.756-0.316,20.261c-2.33,16.658-5.067,33.258-7.68,49.874
				c-14.277,98.629-37.239,196.014-51.653,294.789c-14.274,97.824-24.728,197.982-35.39,294.99
				c-6.798,61.848-14.087,123.637-17.765,185.768c-0.957,14.744-1.797,29.505-1.789,44.283c0.333,20.028-0.94,40.247,1.614,60.159
				c0.691,9.935,11.632,11.591,19.687,11.657c7.272,0.324,14.545,0.516,21.817,0.741c36.744,2.022,73.472,4.651,110.124,7.955
				c41.604,5.5,83.091,12.323,125.069,14.278c38.899,2.629,77.815,4.427,116.739,6.54c55.441,5.267,110.466,14.719,166.164,17.665
				c29.955,2.355,60.051,2.896,89.955,5.883c28.124,4.269,56.206,8.878,84.33,13.23c22.033,4.235,44.033,9.086,65.517,15.601
				c13.238,3.719,27.292,3.877,40.946,4.918c11.865,1.598,19.945-8.828,28.066-15.884c15.127-14.353,29.023-29.905,43.193-45.181
				c40.497-40.048,82.625-78.406,122.897-118.695c21.867-21.526,43.742-43.051,65.026-65.168
				c10.276-10.767,20.302-21.767,30.279-32.825c5.691-7.148,28.369-18.026,28.86-27.753
				C1779.648,1464.325,1760.853,1432.188,1760.304,1420.447z M939.275,1639.731c-27.55-1.032-55.141-1.29-82.699-1.756
				c-54.401-0.89-109.517-0.832-163.668,0.208c-18.771,0.008-37.526,2.521-56.273,1.581c-0.216,0.025-0.424,0.025-0.641,0.017
				c-0.033,0-0.058,0-0.092-0.008c-0.091,0-0.183-0.008-0.283-0.025c-0.025,0-0.058-0.008-0.091-0.017
				c-0.117-0.008-0.233-0.033-0.349-0.058c-0.017-0.008-0.042-0.008-0.067-0.017c-0.1-0.025-0.2-0.05-0.291-0.083
				c-0.116-0.033-0.233-0.075-0.349-0.125c-0.1-0.033-0.2-0.083-0.291-0.125c-0.1-0.05-0.2-0.1-0.3-0.158
				c-0.091-0.042-0.175-0.1-0.258-0.158c-0.092-0.05-0.175-0.108-0.258-0.175c-0.083-0.058-0.158-0.117-0.233-0.175
				c-0.066-0.058-0.125-0.108-0.183-0.166c-0.183-0.167-0.358-0.358-0.508-0.557c-0.058-0.075-0.116-0.15-0.166-0.233
				c-0.117-0.175-0.216-0.349-0.308-0.541c-0.066-0.125-0.116-0.258-0.158-0.391c-0.092-0.258-0.158-0.533-0.191-0.816
				c-0.023-0.258-0.024-0.525,0-0.79c0.017-0.225,0.033-0.433,0.067-0.632c0.017-0.108,0.033-0.216,0.058-0.316
				c0.033-0.166,0.075-0.316,0.125-0.466c0.017-0.058,0.033-0.117,0.05-0.167c0.091-0.25,0.191-0.474,0.316-0.682
				c0.008-0.017,0.017-0.033,0.033-0.05c0.05-0.091,0.108-0.191,0.175-0.275c0.042-0.058,0.083-0.117,0.133-0.166
				c0.05-0.067,0.108-0.133,0.166-0.191c0.083-0.092,0.158-0.166,0.25-0.241c0.083-0.083,0.175-0.15,0.275-0.216
				c0.033-0.033,0.066-0.05,0.1-0.075c0.075-0.058,0.158-0.108,0.25-0.158c0.108-0.066,0.225-0.133,0.341-0.183
				c0.117-0.058,0.241-0.116,0.358-0.158c0.1-0.042,0.2-0.075,0.299-0.108c0.058-0.025,0.117-0.042,0.183-0.058
				c0.091-0.033,0.191-0.058,0.291-0.083c0.216-0.058,0.441-0.1,0.666-0.141c0.05-0.008,0.108-0.017,0.158-0.025
				c0.441-0.066,0.899-0.116,1.365-0.141c1.281-0.075,2.596-0.017,3.728-0.033c12.997-0.84,25.911-2.721,38.908-3.586
				c41.129-2.696,82.35-4.094,123.562-4.393c45.514-0.483,91.045-0.158,136.534,1.548c4.244,0.166,7.614,3.936,7.414,8.154
				C947.222,1636.586,943.511,1639.889,939.275,1639.731z"/>
		</g>
		<g>
			<path style="fill:#333333;" d="M1457.355,755.024c6.573-11.433,9.893-24.604,14.586-36.919
				c6.814-19.496,13.03-39.174,19.221-58.861c16.575-52.961,33.241-106.097,57.221-156.279
				c11.108-24.679,24.031-48.468,36.079-72.69c1.231-2.371,2.396-4.759,3.52-7.18c0.383-0.807,0.749-1.614,1.115-2.421
				c1.107-2.422,2.172-4.868,3.212-7.322c0.349-0.815,0.699-1.631,1.041-2.455c0.69-1.639,1.381-3.278,2.063-4.918
				c2.056-4.926,4.102-9.843,6.274-14.703c0.025-0.05,0.042-0.1,0.066-0.15c0.466-1.04,0.941-2.08,1.423-3.112
				c0.499-1.082,1.015-2.163,1.539-3.245c1.531-1.773,1.281-4.543-0.491-6.049c-0.199-0.167-0.407-0.316-0.624-0.441
				c-0.216-0.125-0.432-0.225-0.665-0.308c-0.224-0.083-0.458-0.142-0.691-0.183c-0.466-0.083-0.949-0.083-1.423,0
				c-0.982,0.15-1.914,0.641-2.638,1.423c-2.197,2.538-3.253,5.791-4.709,8.77c-8.088,19.179-17.149,37.917-27.367,56.048
				c-21.226,38.375-41.054,77.641-56.922,118.553c-22.782,57.879-38.857,118.137-61.623,176c-0.998,2.271-1.797,4.685-3.062,6.815
				c-1.39,1.215-3.262,1.597-4.959,2.214c-8.537,2.172-17.382,2.38-26.144,2.637c-48.767-0.025-97.552,0.716-146.294-0.973
				c-62.671-2.854-125.202-8.87-187.964-9.71c-41.612-1.855-83.432,1.381-124.911-2.954
				c-51.464-5.982-102.345-15.926-152.809-27.492c-56.506-15.293-112.854-31.161-168.919-47.969
				c3.786-18.248,14.537-33.882,24.247-49.459c5.691-9.028,11.491-17.989,17.216-26.992c16.849-25.985,31.719-53.169,48.185-79.388
				c1.407-2.321,1.523-4.593,0.841-6.498v-0.009c-0.008-0.033-0.025-0.066-0.042-0.1c-0.042-0.125-0.091-0.25-0.15-0.375
				c-0.175-0.399-0.391-0.782-0.641-1.148c-0.091-0.133-0.183-0.258-0.283-0.391c-0.117-0.15-0.233-0.291-0.366-0.433
				c-0.05-0.066-0.108-0.125-0.166-0.183c-0.108-0.108-0.217-0.216-0.325-0.325c-0.1-0.092-0.2-0.183-0.308-0.266
				c-0.075-0.067-0.158-0.133-0.242-0.2c-0.308-0.241-0.633-0.458-0.974-0.649c-0.141-0.083-0.291-0.167-0.433-0.233
				c-0.183-0.091-0.366-0.175-0.549-0.25c-0.141-0.058-0.291-0.116-0.441-0.166c-0.091-0.033-0.183-0.058-0.275-0.083
				c-0.167-0.058-0.341-0.1-0.508-0.133c-0.166-0.042-0.333-0.075-0.499-0.1c-0.15-0.025-0.3-0.05-0.45-0.058
				c-0.066-0.017-0.141-0.017-0.216-0.017c-0.175-0.016-0.349-0.025-0.524-0.025c-2.205,0-4.452,0.998-6.124,3.403
				c-2.088,3.17-4.16,6.357-6.232,9.544c-11.158,16.916-21.693,34.248-32.218,51.547c-12.548,20.319-25.636,40.281-37.917,60.75
				c-5.658,9.369-10.525,19.279-13.779,29.747c-4.693,12.631-4.768,24.954,10.526,28.698c10.592,3.228,21.193,6.415,31.81,9.56
				c4.177,1.24,8.371,2.471,12.556,3.703c0.167,0.05,0.341,0.1,0.508,0.15c4.502,1.315,9.003,2.63,13.513,3.928
				c10.492,3.045,20.993,6.041,31.51,9.019c4.61,1.298,9.22,2.596,13.838,3.886c4.951,1.389,9.91,2.771,14.869,4.143
				c8.479,2.355,16.966,4.693,25.453,7.014c59.976,16.442,121.441,27.741,183.205,34.864c31.469,3.262,63.196,1.448,94.781,2.064
				c83.315,0.116,166.256,9.527,249.513,11.133c32.002,0.341,64.02,0.025,96.029,0.034
				C1414.637,766.066,1445.531,769.27,1457.355,755.024z"/>
			<path style="fill:#333333;" d="M981.561,698.202c12.156,2.006,24.363,3.761,36.561,5.534
				c97.385,15.942,196.26,13.804,294.544,18.197c32.285,1.747,64.552-2.388,96.77-1.464c1.148-0.075,2.105-0.549,2.813-1.256
				c4.027,1.215,8.869-1.04,10.051-5.234c11.799-42.46,29.347-82.982,48.402-122.63c16.076-34.938,34.231-67.98,53.227-101.521
				c23.972-42.419,47.42-85.37,74.245-126.142c0.275-0.416,0.549-0.824,0.824-1.24v-0.008c0.433-0.649,0.866-1.298,1.298-1.947
				c0.433-0.658,0.865-1.307,1.307-1.956c0.258-0.399,0.524-0.79,0.79-1.181c0.466-0.699,0.941-1.398,1.423-2.097
				c0.474-0.699,0.948-1.39,1.439-2.089c0.949-1.381,1.922-2.754,2.904-4.11c0.508-0.699,1.007-1.39,1.523-2.08
				c0.166-0.15,0.324-0.316,0.482-0.482c0.15-0.158,0.291-0.316,0.433-0.491c0.042-0.058,0.092-0.116,0.133-0.175
				c0.108-0.133,0.208-0.266,0.299-0.408c0.125-0.191,0.241-0.383,0.358-0.574v-0.008c1.273-2.197,1.44-4.843-0.824-6.815
				c-1.364-0.998-2.646-1.306-3.844-1.123c-0.008,0-0.017,0-0.025,0.008c-0.141,0.017-0.283,0.042-0.425,0.083
				c-0.125,0.025-0.249,0.066-0.383,0.108c-0.108,0.034-0.225,0.075-0.332,0.125c-0.2,0.083-0.408,0.183-0.608,0.291
				c-0.258,0.142-0.524,0.3-0.774,0.483c-1.581,1.123-3.02,2.937-4.352,4.859c-0.125,0.175-0.241,0.349-0.358,0.524
				c-0.183,0.258-0.358,0.516-0.524,0.774c-0.183,0.266-0.358,0.541-0.533,0.807c-0.632,0.957-1.231,1.889-1.822,2.713
				c-0.158,0.233-0.325,0.458-0.482,0.666c-0.308,0.416-0.608,0.79-0.907,1.123c-0.008,0.009-0.008,0.009-0.016,0.017
				c-25.262,35.555-47.287,73.239-69.778,110.557c-40.122,67.065-78.681,135.794-105.706,209.365
				c-4.585,13.072-9.186,26.16-12.814,39.532c-0.108,0.341-0.199,0.691-0.258,1.04c-0.158-0.034-0.308-0.058-0.458-0.092
				c-23.615-3.029-47.603-0.699-71.35-1.889c-71.109-3.894-142.309-5.691-213.418-9.369c-31.519-1.947-62.821-6.124-94.257-9.968
				c-14.269-1.706-28.548-3.461-42.752-5.741C974.081,681.437,971.751,696.131,981.561,698.202z"/>
			<path style="fill:#333333;" d="M1594.738,1378.004c-4.002-35.505-6.856-71.117-10.825-106.63
				c-3.811-36.12-8.57-72.182-10.101-108.502c-2.787-69.902-1.389-139.88,1.381-209.773c2.596-61.573,5.142-123.188,10.368-184.611
				c4.485-45.339,8.787-91.711,25.212-134.554c0.924-2.355-0.882-5.034-3.253-5.475c-2.097-0.383-3.936,0.824-4.693,2.679
				c-1.048,2.43-2.205,5.167-3.279,7.963c-5.5,14.969-9.111,30.504-12.581,46.039c-6.024,30.246-10.035,60.866-13.013,91.544
				c-11.865,134.488-21.243,269.774-15.41,404.81c3.345,48.094,9.927,95.888,14.195,143.898
				c5.55,60.101,12.631,120.035,20.17,179.91c1.231,10.842,3.22,21.601,4.094,32.468c-1.157,5.716-4.576,10.792-7.139,15.959
				c-7.131,12.473-15.127,24.413-22.982,36.436c-20.543,33.666-41.104,67.265-64.261,99.224
				c-7.33,10.75-14.669,21.509-21.717,32.442c-0.35-4.143-0.732-8.279-1.141-12.414c-0.199-2.072-0.416-4.135-0.632-6.207
				c-0.366-3.52-0.749-7.031-1.148-10.542c-0.299-2.688-0.607-5.367-0.924-8.055c-0.241-2.063-0.491-4.135-0.732-6.199
				c-0.016-0.158-0.033-0.324-0.058-0.491c-0.424-3.594-0.857-7.189-1.281-10.784c-0.199-1.672-0.399-3.337-0.599-5.001
				c-0.1-0.874-0.208-1.756-0.308-2.638c-0.432-3.686-0.857-7.372-1.273-11.058c-0.133-1.182-0.266-2.355-0.391-3.536
				c-0.416-3.736-0.807-7.472-1.181-11.216c-0.166-1.623-0.325-3.245-0.474-4.868c-0.199-2.072-0.382-4.135-0.565-6.207
				c-1.631-17.681-3.287-35.363-4.876-53.053c-0.341-3.853-0.682-7.705-1.023-11.566c-0.067-0.765-0.134-1.539-0.2-2.313
				c-0.308-3.536-0.616-7.072-0.915-10.617c-0.549-6.465-1.082-12.931-1.59-19.396c-0.175-2.155-0.341-4.31-0.507-6.465
				c-0.058-0.807-0.125-1.614-0.183-2.43c-0.25-3.32-0.5-6.648-0.733-9.968c-1.007-13.912-1.889-27.833-2.604-41.77
				c-0.083-1.573-0.158-3.137-0.233-4.71c-0.1-1.955-0.191-3.911-0.275-5.866c-0.291-6.482-0.541-12.964-0.748-19.445
				c-0.075-2.163-0.134-4.327-0.192-6.482c-0.125-4.327-0.217-8.654-0.291-12.98c0-0.1-0.008-0.2-0.008-0.3
				c-0.092-2.746-0.166-5.492-0.241-8.246c-0.008-0.433-0.017-0.865-0.034-1.298c-0.058-2.571-0.108-5.15-0.149-7.73
				c-0.042-2.38-0.084-4.76-0.108-7.131c-0.034-2.946-0.05-5.891-0.067-8.837c-0.15-37.909,1.448-75.743,4.085-113.528
				c0.258-3.802,0.541-7.605,0.824-11.416c0.425-5.7,0.882-11.408,1.348-17.116c0.316-3.802,0.632-7.605,0.965-11.408
				c0.824-9.51,1.706-19.013,2.613-28.515c0.366-3.794,0.741-7.597,1.115-11.4c0.374-3.794,0.757-7.596,1.148-11.399
				c0.382-3.794,0.782-7.597,1.173-11.391c0.391-3.803,0.791-7.597,1.198-11.4c0.2-1.897,0.408-3.794,0.608-5.7
				c0.399-3.794,0.815-7.588,1.223-11.391c0.408-3.794,0.824-7.588,1.24-11.391c0.624-5.691,1.248-11.391,1.872-17.083
				c0.416-3.794,0.832-7.597,1.257-11.391c0.624-5.691,1.248-11.383,1.872-17.083c0.416-3.794,0.824-7.588,1.24-11.383
				c2.055-18.979,4.052-37.951,5.907-56.93c9.111-73.372,19.754-146.993,33.949-219.608c5.899-26.876,11.874-53.735,17.066-80.752
				c15.8-82.508,31.976-164.95,50.282-246.942c0.724-2.837,1.481-6.34,2.787-9.618c0.882-2.23-0.641-4.835-2.812-5.542
				c-2.38-0.774-4.651,0.591-5.534,2.812c-2.055,5.408-3.253,11.1-4.734,16.683c-24.297,99.166-44.691,199.197-67.19,298.763
				c-6.848,28.298-12.506,56.864-17.091,85.612c-19.787,110.857-30.446,222.911-42.511,334.8
				c-5.949,54.501-9.918,109.218-10.7,164.042c-1.63,91.985,6.249,183.721,15.443,275.182
				c3.569,39.324,10.176,78.365,12.872,117.755c0.008,0.158,0.025,0.325,0.042,0.474c0,0.017,0,0.025,0,0.042
				c-0.766,1.481-1.523,2.979-2.247,4.485c-0.083,0.167-0.149,0.333-0.216,0.499c-0.042,0.108-0.083,0.216-0.116,0.325
				c-0.05,0.125-0.083,0.241-0.117,0.366c-0.083,0.275-0.149,0.549-0.2,0.832c0,0.016-0.008,0.033-0.008,0.05
				c-0.033,0.191-0.058,0.375-0.067,0.557c-0.009,0.05-0.017,0.092-0.009,0.133c-0.016,0.108-0.025,0.208-0.016,0.308
				c-0.008,0.258-0.008,0.508,0.008,0.766c0.008,0.108,0.017,0.225,0.025,0.333c0.033,0.291,0.083,0.582,0.141,0.865
				c0.033,0.141,0.067,0.291,0.108,0.433c0.017,0.092,0.042,0.175,0.075,0.266c0.067,0.208,0.133,0.408,0.216,0.607
				c0.017,0.05,0.034,0.091,0.05,0.133c0.083,0.2,0.175,0.391,0.275,0.583c0.175,0.325,0.366,0.641,0.574,0.94
				c0.217,0.3,0.45,0.591,0.707,0.857c0.641,0.682,1.398,1.248,2.272,1.664c3.852,1.897,8.545,0.15,10.525-3.703
				c0.575-1.115,1.174-2.23,1.773-3.337c6.681-11.732,14.261-22.907,21.767-34.148c1.805-2.729,3.627-5.45,5.458-8.163
				c1.398-2.064,2.796-4.135,4.211-6.191c0.008-0.008,0.016-0.008,0.016-0.017c1.357-1.989,2.721-3.969,4.086-5.949
				c0.083-0.116,0.166-0.241,0.249-0.358c1.439-2.097,2.896-4.193,4.352-6.291c5.816-8.387,11.649-16.758,17.382-25.203
				c1.398-2.063,2.788-4.127,4.169-6.19c0.116-0.167,0.225-0.325,0.324-0.491c1.348-2.014,2.688-4.027,4.011-6.049
				c13.255-20.411,25.12-41.678,38.558-61.981c6.432-9.769,12.614-19.654,18.472-29.78c4.102-7.755,9.111-15.693,9.752-24.637
				c-1.34-17.041-4.343-34.023-6.099-51.064C1602.876,1450.859,1598.749,1414.431,1594.738,1378.004z"/>
			<path style="fill:#333333;" d="M1764.722,1454.82c-0.034,0.008-0.383,0.133-0.516,0.191c-0.175,0.067-0.35,0.15-0.533,0.233
				c-2.38,1.231-4.768,2.463-7.147,3.703c-2.33,1.207-4.651,2.413-6.973,3.628c-0.058,0.033-0.117,0.058-0.175,0.092
				c-5.192,2.704-10.376,5.425-15.543,8.171c-1.148,0.608-2.304,1.223-3.453,1.839c-9.428,5.026-18.805,10.135-28.116,15.385
				c-1.331,0.749-2.663,1.506-3.994,2.264c-3.079,1.747-6.141,3.511-9.194,5.292c-14.978,8.371-30.047,16.583-44.716,25.47
				c-2.663,1.548-5.358,3.054-8.005,4.635c-2.812,1.681-6.656,3.511-7.197,6.973c-0.565,2.479,1.514,4.901,3.977,5.017
				c2.064-0.998,4.135-2.014,6.2-3.029c4.293-2.105,8.57-4.235,12.847-6.391c1.581-0.798,3.17-1.597,4.759-2.413
				c4.742-2.405,9.477-4.843,14.203-7.297c2.03-1.048,4.052-2.105,6.074-3.162c4.285-2.239,8.562-4.502,12.839-6.773
				c2.097-1.107,4.194-2.23,6.291-3.345c4.194-2.238,8.387-4.485,12.573-6.74c4.194-2.255,8.379-4.51,12.556-6.773
				c4.185-2.263,8.37-4.527,12.547-6.79c10.742-5.816,21.484-11.624,32.218-17.374c1.015-0.541,2.039-1.09,3.054-1.63
				C1775.938,1462.292,1771.278,1452.765,1764.722,1454.82z"/>
			<path style="fill:#333333;" d="M940.007,1624.163c-45.489-1.706-91.02-2.03-136.534-1.548
				c-41.212,0.3-82.433,1.697-123.563,4.393c-12.996,0.865-25.91,2.746-38.907,3.586c-1.131,0.017-2.446-0.042-3.728,0.033
				c-0.466,0.025-0.923,0.075-1.365,0.141c-0.05,0.008-0.108,0.017-0.158,0.025c-0.224,0.042-0.449,0.083-0.665,0.141
				c-0.1,0.025-0.2,0.05-0.291,0.083c-0.066,0.017-0.125,0.033-0.183,0.058c-0.099,0.033-0.199,0.066-0.299,0.108
				c-0.117,0.042-0.241,0.1-0.358,0.158c-0.117,0.05-0.233,0.117-0.341,0.183c-0.091,0.05-0.175,0.1-0.25,0.158
				c-0.033,0.025-0.066,0.042-0.099,0.075c-0.1,0.067-0.192,0.133-0.275,0.216c-0.091,0.075-0.167,0.15-0.25,0.241
				c-0.058,0.058-0.116,0.125-0.166,0.192c-0.05,0.05-0.091,0.108-0.133,0.166c-0.067,0.083-0.125,0.183-0.175,0.275
				c-0.016,0.017-0.025,0.033-0.033,0.05c-0.125,0.208-0.225,0.433-0.316,0.682c-0.017,0.05-0.033,0.108-0.05,0.167
				c-0.05,0.15-0.091,0.299-0.125,0.466c-0.025,0.1-0.042,0.208-0.058,0.316c-0.033,0.2-0.05,0.408-0.067,0.633
				c-0.024,0.266-0.023,0.532,0,0.79c0.034,0.283,0.1,0.558,0.192,0.816c0.042,0.133,0.091,0.266,0.158,0.391
				c0.091,0.191,0.191,0.366,0.308,0.541c0.05,0.083,0.108,0.158,0.167,0.233c0.149,0.2,0.325,0.391,0.508,0.557
				c0.058,0.058,0.116,0.108,0.183,0.167c0.075,0.058,0.149,0.116,0.232,0.175c0.084,0.066,0.167,0.125,0.258,0.175
				c0.083,0.058,0.166,0.116,0.258,0.158c0.1,0.058,0.2,0.108,0.3,0.158c0.092,0.042,0.191,0.092,0.291,0.125
				c0.117,0.05,0.233,0.092,0.35,0.125c0.091,0.033,0.191,0.058,0.291,0.083c0.025,0.008,0.05,0.008,0.067,0.017
				c0.116,0.025,0.233,0.05,0.35,0.058c0.033,0.008,0.066,0.017,0.091,0.017c0.099,0.017,0.191,0.025,0.282,0.025
				c0.033,0.008,0.058,0.008,0.092,0.008c0.216,0.009,0.424,0.009,0.641-0.016c18.747,0.94,37.501-1.573,56.273-1.581
				c54.151-1.04,109.267-1.098,163.668-0.208c27.558,0.466,55.149,0.724,82.699,1.756c4.235,0.158,7.946-3.145,8.146-7.413
				C947.621,1628.099,944.251,1624.33,940.007,1624.163z"/>
		</g>
	</g>
</g>
<g>
	<path style="fill:#C94035;" d="M706.471,1806.13c-133.529,46.6-267.367,46.387-401.51,0l-70.73-629.416h544.352L706.471,1806.13z"
		/>
	<path style="fill:#EACEBD;" d="M802.511,1112.952c0-26.837-28.778-51.332-76.162-69.966c1.88-3.693,2.884-7.476,2.884-11.333
		c0-39.644-103.11-71.783-230.303-71.783s-230.303,32.138-230.303,71.783c0,3.857,1.004,7.641,2.884,11.333
		c-47.384,18.634-76.162,43.129-76.162,69.966c0,10.39,4.331,20.426,12.363,29.91c-8.032,9.484-12.363,19.52-12.363,29.909
		c0,58.34,135.918,105.635,303.581,105.635s303.581-47.294,303.581-105.635c0-10.389-4.331-20.425-12.363-29.909
		C798.18,1133.378,802.511,1123.342,802.511,1112.952z"/>
	<g>
		<g>
			<path d="M492.591,1087.024c-5.484,0-11.01-0.066-16.579-0.207c-95.904-2.421-134.989-24.153-150.888-41.959
				c-6.257-7.005-8.07-15.495-5.11-23.91c6.913-19.645,38.264-35.476,86.013-43.433c3.918-0.639,7.639,1.997,8.292,5.924
				c0.655,3.925-1.998,7.639-5.924,8.292c-49.257,8.21-71.07,23.448-74.785,34.002c-0.757,2.151-1.346,5.481,2.264,9.525
				c19.798,22.169,69.695,35.361,140.502,37.149c59.995,1.512,119.501-5.958,142.373-14.059c28.049-9.935,44.283-20.98,43.424-29.55
				c-1.515-15.099-47.31-32.017-71.53-35.442c-3.941-0.557-6.685-4.204-6.127-8.146c0.556-3.939,4.197-6.692,8.144-6.127
				c13.185,1.864,80.792,17.753,83.854,48.277c1.683,16.778-15.638,31.358-52.953,44.573
				C601.856,1079.622,550.119,1087.024,492.591,1087.024z"/>
		</g>
		<g>
			<path d="M491.704,1225.69c-81.892,0-183.314-14.862-278.999-69.641c-3.454-1.977-4.652-6.38-2.674-9.835
				c1.977-3.453,6.378-4.655,9.835-2.672c215.665,123.463,484.087,50.285,554.552,0.372c3.246-2.296,7.745-1.532,10.046,1.715
				c2.301,3.249,1.533,7.747-1.715,10.048c-36.421,25.798-123.825,57.852-229.66,67.27
				C534.375,1224.612,513.74,1225.69,491.704,1225.69z"/>
		</g>
		<g>
			<path d="M334.822,1796.48c-2.057,0-4.1-0.877-5.526-2.576c-2.558-3.048-2.159-7.595,0.891-10.152
				c23.747-19.917,83.754-41.068,181.145-41.068c0.797,0,1.587,0.002,2.389,0.004c64.573,0.227,144.75,11.222,176.126,41.392
				c2.869,2.757,2.959,7.319,0.2,10.189c-2.758,2.869-7.32,2.962-10.19,0.199c-23.323-22.424-88.555-37.093-166.187-37.366
				c-0.716-0.002-1.439-0.004-2.153-0.004c-77.308,0-144.691,14.735-172.069,37.698
				C338.098,1795.927,336.455,1796.48,334.822,1796.48z"/>
		</g>
	</g>
</g>
</svg>
