<svg id="Layer_1" viewBox="0 0 157.55 219.35" xmlns="http://www.w3.org/2000/svg" data-name="Layer 1"><path d="m124.02 23.87c4.59-.06 7.08 1.95 7.63 6.1 1.1.37 2.06-.1 3.03-.25 1.22-.18 2.38-.07 3.43.51 2.46 1.37 4.34 3.34 5.3 5.98.74 2.04.25 4-1.49 5.41-1.33 1.08-2.8 2.01-4.21 3-.81.56-1.79.88-2.61 1.97 1.89.71 3.67.84 5.5.37 1.95-.5 3.9-.83 5.93-.57 4.07.52 5.85 2.96 5.12 7.04-.32 1.8-1.15 3.44-1.69 5.17-.63 1.98-.61 1.99 1.09 3.34 1.82 1.45 2.07 3.28.35 4.86-1.16 1.07-1.78 2.11-1.74 3.69.04 1.55-1.55 2.37-2.1 3.72.96.69 1.57-.03 2.23-.39 2.19-1.19 3.12-.87 4.32 1.35 1.76 3.25 2.11 6.73 1.69 10.31-.12 1.03-.19 1.89.53 2.79.87 1.1.43 2.23-.43 3.2-1.49 1.7-3.37 2.73-5.57 3.21-.53.12-1.05.29-1.58.43-2.21.58-2.59 1.44-1.31 3.39 1.56 2.4 3.99 3.64 6.57 4.62.42.16.88.22 1.32.34 1 .27 1.92.7 2.16 1.83.28 1.27-.52 2.03-1.43 2.71-1.38 1.03-2.75 2.07-4.19 3.17.49 1.37 1.73 1.85 2.71 2.57 2.17 1.62 2.21 3.18.05 4.73-1.49 1.07-3.17 1.73-4.9 2.34-1.45.51-2.86 1.15-4.26 1.8-.64.3-1.34.59-1.76 1.25.03.17-.01.42.09.5.9.74 1.64 1.57.96 2.79-.7 1.26-1.9 1.28-3.11.95-2.66-.72-5.23-.11-7.78.55-1.43.37-2.6 1.18-3.59 2.34-1.69 1.98-2.97 1.83-4.46-.37-1.43-2.1-2.1-2.31-4.55-1.42-1.82.66-3.05 2.39-2.95 4.13.08 1.45.63 1.9 2.12 1.65 1.61-.28 3.2-.68 4.81-.9 4.34-.61 7.69 1.43 10.16 4.62 1.87 2.41 1.95 5.45.61 8.29-.92 1.96-2.64 2.94-4.81 3.07-1.74.1-3.43-.17-5.12-.6-1.29-.33-2.59-.81-3.98-.36.25.93 1.11.96 1.66 1.36 1.88 1.36 2.38 3.09 1.48 5.25-1.37 3.29-4.93 5.22-8.67 4.71-1.04-.14-2.07-.62-3.31-.21 4.42 3.33 5.67 7.68 4.62 12.83-.17.81-.43 1.58-.85 2.28-1.47 2.46-3.35 2.87-5.67 1.21-1.03-.74-1.98-1.6-3.03-2.3-.78-.51-1.43-.14-1.5.78s.18 1.81.51 2.66c1.83 4.72.28 7.48-4.87 10.17-.23.12-.47.23-.67.33-.15.44.03.76.26 1.04 1.39 1.68 1 3.35.02 5.05-1.4 2.43-3.48 4.28-5.75 5.71-3.5 2.21-5.03 5.6-6.45 9.16-.46 1.15-.23 2.33-.18 3.5.11 2.67-.18 3.07-2.82 3.68-.99.23-1.85.67-2.7 1.23-2.63 1.73-5.46 2.38-8.55 1.34-.86-.29-1.76-.45-2.62-.73-5.93-1.86-9.64-6.46-10.24-12.66-.05-.54-.1-1.09-.12-1.63-.06-2.61-1.33-4.51-3.57-5.69-3.74-1.99-5.43-5.2-5.74-9.27-.17-2.26-.25-4.53-.39-6.8-.17-2.87-1.06-4.06-3.78-4.98-1.38-.46-2.81-.76-4.17-1.25-5.22-1.86-7.24-4.7-7.34-10.18 0-.54-.04-1.09.01-1.63.16-1.67-.57-2.77-2.08-3.45-2.02-.91-3.74-2.23-5.2-3.89-1.97-2.24-2.78-4.75-1.19-7.49.73-1.25.28-1.97-.47-2.86-1.97-2.3-2.95-4.97-2.82-8.02.09-2.21 1-3.77 3.24-4.5 2.01-.65 2.77-1.68 2.75-3.22-.02-1.18-1.39-2.81-2.94-3.25-1.13-.32-2.32-.4-3.49-.56-1.35-.19-2.73-.22-4.04-.53-2.82-.66-4.09-2.53-3.85-5.37.16-1.85.16-1.91-1.7-2.08-8.21-.76-10.34-5.37-9.04-12.57.39-2.18 1.56-4.02 2.48-6.09-.67-.06-1.21-.06-1.73-.17-2.13-.45-3.07-1.73-2.86-3.91.06-.63.18-1.26.35-1.87.22-.79.05-1.35-.63-1.89-2.27-1.81-2.34-4.13-1.36-6.64.2-.51.38-1.02.63-1.51.61-1.16.43-1.84-.83-2.59-3.53-2.09-3.85-5.06-1.01-8.05 1.57-1.65 3.62-2.73 5.19-4.39 1.72-1.81 1.81-2.48.25-4.34-.9-1.06-2.02-1.8-3.27-2.39-.82-.39-1.65-.78-2.4-1.28-1.32-.88-1.83-2.29-1.38-3.52.44-1.22 1.77-2.14 3.28-1.9 2.16.34 4.32.56 6.49.65.5.02 1.06.23 1.49-.24.08-.69-.49-.92-.87-1.28-1.05-1.01-2.19-1.93-3.15-3.01-4.27-4.81-3.33-12.62 2.06-16.19 1.28-.84 1.79-1.48 1.29-2.99-.55-1.7-.22-3.44.53-5.04 1.74-3.7 4.26-6.73 7.83-8.82 3.43-2.01 6.81-1.41 10.14.24 1.29.64 1.85 1.94 2.45 3.18.45.93.63 2.06 1.82 2.84.26-1.9.47-3.56.72-5.22.64-4.12 2.51-7.51 5.83-10.13 1.63-1.29 3.4-2.14 5.46-2.19 4.24-.1 8.08 1.01 11.23 4 1.37 1.3 1.38 1.33 2.75.1 1.09-.98 2.23-1.87 3.56-2.48 4.52-2.05 8.93-2.4 12.91 1.1.72-.54.56-1.26.72-1.85 1.22-4.57 5.26-7.99 9.98-8.34 3.7-.27 7.3-.06 10.18 2.75.77.75 1.37.5 2.13-.04 3.37-2.43 6.9-2.39 10.54-.63 2.65 1.28 5.16 2.74 6.45 5.57.47 1.03 1.12 1.27 2.17.94 2.25-.7 4.49-.51 6.67.35 2.55 1 4.16 2.84 4.8 5.51.51 2.1.12 3.99-1.47 5.51-1.24 1.19-2.55 2.29-4.28 3.84zm-58.59 20.08c1.25-.12 1.36.85 1.72 1.69 2.68 6.23 5.11 12.55 7.58 18.86.26.67.21 1.68 1.36 1.75.09-.3.18-.55.25-.81.98-3.94 1.27-8 2.48-11.92 1.33-4.31 3.3-8.41 4.2-12.85.09-.44.37-.94.86-.9.77.06.56.77.62 1.27.21 1.83-.44 3.57-.51 5.39-.28 7.36.54 14.69.55 22.03v2.32c1.92-1.51 3.15-2.97 4.12-4.58 2.11-3.5 5.32-6.18 7.22-9.82.12-.23.35-.42.56-.59 2.63-2.07 5.24-4.16 7.91-6.17.46-.35 1.07-1.05 2.03-.3-.65.72-1.22 1.39-1.84 2.02-2.17 2.2-4.82 4.09-6.41 6.65-1.91 3.07-4.09 5.96-5.93 9.07-1.75 2.96-3.66 5.82-6.39 7.99-1.05.84-1.26 1.8-1.32 3.06-.27 5.37.62 10.68.62 16.03 0 1.78.34 3.49.58 5.19.61 0 .82-.34 1.06-.59 3.69-3.88 7.37-7.76 11.06-11.64.13-.13.27-.25.36-.41 1.93-3.23 5.25-4.93 8.04-7.2.34-.28.97-1.02 1.7 0-.65.69-1.28 1.43-1.99 2.1-1.39 1.3-3.05 2.38-4.18 3.86-3.94 5.21-8.51 9.88-12.51 15.03-1.92 2.47-3.67 5.08-3.18 8.58.28 1.96.07 3.99.1 5.99.01.74.08 1.47.12 2.21 1.69-2.44 3.82-4.31 5.44-6.59 2.38-3.35 5.18-6.38 8.67-8.54 3.55-2.21 6.91-4.62 10.02-7.4.65-.58 1.33-1.17 2.3-1.13.06.33.18.57.11.65-2.33 2.51-4.25 5.47-7.27 7.26-4.88 2.88-8.59 6.86-11.55 11.64-1.67 2.69-3.3 5.42-5.22 7.93-1.77 2.31-3.79 4.39-3.25 7.64.04.24-.17.52-.19.78-.16 2.68-1.06 5.31-.69 8.19 2.31-.6 3.98-1.83 5.32-3.64 1.9-2.56 4.08-4.9 6.71-6.7 3.59-2.45 7.27-4.75 10.54-7.64.62-.55 1.34-1.05 2.95-.61-2.1 1.22-3.35 2.61-4.65 3.96-1.64 1.71-3.45 3.23-5.38 4.57-2.96 2.06-5.44 4.64-7.21 7.68-1.76 3.05-4.28 4.91-7.35 6.09-1.33.51-1.62 1.18-1.61 2.38.01 1.73.11 3.47-.12 5.17-.57 4.31-.44 8.67-.86 12.99-.05.54-.05 1.09 0 1.63.1.94.7 1.21 1.48.64 1.04-.77 1.73-1.84 2.28-3.01 1.62-3.46 3.71-6.58 6.27-9.47 2.29-2.59 4.74-5.06 6.88-7.83.91 1.02.25 1.91-.24 2.7-.86 1.38-1.83 2.69-2.78 4.02-2.35 3.32-4.7 6.61-6.2 10.47-1.24 3.18-3.18 5.94-6.62 7.13-1.03.36-1.21 1.08-1.06 1.91.82 4.42.31 8.87.41 13.3.05 2.26.02 4.52.29 6.78.45 3.79 1.83 7.35 2.52 11.08.36 1.95 1.12 3.89 2.53 5.94 1.05-4.5 3.75-7.32 7.06-9.74 1.23-.9 2.28-2.09 3.3-3.24 1.6-1.79 1.58-2.36.2-4.46-1.37-2.08-.85-3.74 1.5-4.66.68-.27 1.35-.51 1.92-.98 1.48-1.23 2.52-2.52 1.56-4.66-.55-1.21-.79-2.6-.98-3.93-.29-2.01.68-3.57 2.28-4.6 1.47-.95 3.08-.94 4.55.21.85.67 1.69 1.37 2.56 2.02.86.65 1.59.44 1.74-.61.25-1.7.45-3.47-.07-5.14-.62-1.98-1.69-3.54-4.13-3.72-1.6-.11-3.2-.54-4.77-.96-1.98-.52-2.43-2.36-.88-3.68.6-.51 1.34-.89 2.08-1.25 3.39-1.61 6.82-2.24 10.52-1.15 1.6.47 3.06-.17 4.1-1.51.77-.99.54-1.66-.65-2.29-1.2-.63-2.4-1.27-3.56-1.96-1.78-1.05-2.3-1.87-1.97-3.18.39-1.54 1.69-2.01 3.04-2.36.26-.07.54-.07.81-.07 3.07-.05 6.18-.36 9.14.84.96.39 1.97.26 2.96.26.82 0 1.35-.52 1.74-1.15.67-1.08.36-3.95-.57-4.86-2.19-2.14-4.68-3.38-7.86-2.5-1.39.38-2.8.72-4.23.88-2.81.32-5.13-1.53-5.58-4.32-.61-3.78 1.26-6.77 3.75-8.13 2.9-1.57 6.01-2.84 9.01-.05.58.54 1.02.51 1.64.05 2.03-1.5 4.37-2.1 6.85-2.29.92-.07 1.79-.31 2.44-1.02 2.77-3.01 6.23-4.87 10.08-6.12.62-.2 1.48-.26 1.65-1.27-.6-.63-1.27-1.24-1.83-1.94-1.53-1.92-1.3-3.8.48-5.51.7-.68 1.8-.87 2.29-1.97-2.76-1.16-5.04-2.94-6.86-5.25-.79-1-1.54-1.89-2.69-2.56-2.48-1.45-2.26-4.57.32-5.84.64-.31 1.36-.48 2.06-.67 1.91-.53 3.82-1.06 5.74-1.55.73-.19 1.46-.36 1.57-1.24.39-3.02 1.23-6 .56-9.1-.35-1.65-.59-1.95-2.35-1.45-2.57.74-4.42-.56-6.09-2.11-1.25-1.16-1.21-2.82-.09-4.17 1.16-1.41 2.38-2.69 2.08-4.77-.1-.66.33-1.44.89-1.92.85-.73.54-1.37.04-2.11-1.4-2.07-1.3-4.26-.42-6.49.23-.59.57-1.14.75-1.74.44-1.44 1.68-3.11.54-4.34-1.04-1.12-2.89-.6-4.38-.13-3.6 1.13-7.15.77-10.65-.4-2.21-.74-3.1-2.38-2.76-4.67.23-1.53 1.35-2.23 2.52-2.99 2.13-1.38 4.52-2.31 6.45-4 1.14-1 1.22-1.51.34-2.7-1.49-2.02-3.07-2.52-5.44-1.66-1.27.46-2.53.99-3.74 1.59-1.14.56-2.18.37-3.01-.42-.86-.81-1.04-1.86-.38-2.96.32-.54.61-1.12.84-1.71.53-1.42-.13-2.53-1.62-2.73-.93-.12-1.79.15-2.64.51-1.2.51-2.05 1.47-3.04 2.26-1.59 1.26-3.32 1.37-4.49.38-1.03-.87-1.37-2.67-.69-4.27.35-.82.77-1.68 1.36-2.33 1.09-1.21 2.19-2.4 3.58-3.32 1.8-1.21 3.56-2.51 5.18-3.93 1.5-1.31 1.44-2.68-.12-3.85-1.4-1.05-3-1.72-4.79-.82-.97.49-1.92 1.04-2.92 1.45-2.24.94-3.93.16-4.13-2.23-.29-3.57-2.51-5.22-5.49-6.3-2.86-1.04-4.62-.52-6.43 1.84-1.93 2.52-3.36 2.65-4.96-.03-1.96-3.27-5.58-4.19-9.81-2.96-2.99.87-4.66 3.54-4.54 6.62.07 1.67.81 3.14 1.24 4.71.82 2.99-.71 7.74-3.17 9.52-1.99 1.45-4.83 1.5-5.91-.16-1.23-1.87-2.27-3.87-1.5-6.35.47-1.53.96-3.11.76-4.79-.11-.9-.42-1.53-1.35-1.81-1.13-.34-2.17-.62-3.42-.18-2.35.83-4.5 1.81-6.06 3.87-.53.7-1.32 1.24-2.06 1.74-1.76 1.17-3.07.87-4.32-.92-.31-.44-.59-.91-.91-1.35-2.21-3.05-5.46-4.04-8.87-3.56-2.93.42-4.8 2.8-5.82 5.56-1.39 3.76-1.49 7.52 0 11.37 1.06 2.76-1.22 5-4.11 4.31-2.11-.5-3.82-1.64-5.11-3.35-1.14-1.51-2.05-3.16-2.79-4.93-1.15-2.76-3.25-3.41-5.91-2.01-2.61 1.37-4.15 3.71-5.53 6.19-.81 1.44-.59 2.73.27 4.08 2.55 3.99 2.01 5.27-2.74 6.44-1.34.33-2.23 1.02-2.84 2.27-1.41 2.92-1.04 5.22 1.55 7.23 1.87 1.46 3.59 3.07 5.19 4.8 2.02 2.2 1.78 4.44-.5 6.33-.71.59-1.51.97-2.4 1.22-.66.19-1.41.28-1.79 1.06.23.5.47.98.68 1.48 1.64 3.88 1.21 6.07-1.78 9.05-.9.9-1.83 1.74-2.86 2.5-1.29.95-1.33 1.22-.09 2.23 1.59 1.29 2.12 2.84 1.86 4.8-.16 1.21-.78 2.22-1.28 3.27-.54 1.13-.59 2.04.52 2.86 1.13.83 1.49 2 1.32 3.37-.05.43-.14.91.37 1.41 1.66-.6 3.45-.43 5.16.18 1.46.52 2.69.84 3.62-.91.28-.53 1.16-1.01 1.93-.66.72.33.52 1.16.4 1.7-.49 2.32.32 4.27 1.52 6.14.19.3.34.65.45.99.58 1.84-.6 3.48-2.54 3.59-.76.04-1.42-.23-2.08-.55-1.06-.52-2.16-.95-3.34-1.08-2.48-.27-2.88.06-3.97 2.31-.53 1.11-.52 2.29-.78 3.42-.61 2.66.42 3.94 3.13 4.7 1.97.55 3.96.32 5.94.48 2.88.22 4.4 2.32 3.7 5.07-.15.59-.68 1.09-.26 1.92 1.14.2 2.36.48 3.6.61 1.75.18 3.37.7 4.83 1.64 2.72 1.76 4.94 4.25 4.78 7.45-.17 3.51-1.29 7.07-5.4 8.28-1.02.3-.92.85-.73 1.64.38 1.6 1.51 2.65 2.59 3.74 2.65 2.69 2.73 3.38.76 6.58-.09.15-.22.29-.34.43-.54.59-.4 1.11.1 1.67 1.05 1.18 2.3 2.03 3.74 2.66 3.85 1.7 5.48 4.78 5.5 8.86 0 .55.07 1.1 0 1.63-.27 2.07.77 3.27 2.58 3.94 1.61.6 3.28 1.03 4.85 1.71 4.14 1.8 7.15 4.46 7.42 9.43.11 2.07.34 4.14.49 6.21.3 3.97 2.89 7.24 6.36 8.13.12-3.72.87-7.37.75-11.1-.1-3.27-.08-6.54.01-9.81.09-3.26-.29-6.53.4-9.76.32-1.5-.4-2.34-1.76-2.92-2.33-1-4.8-1.94-6.28-4.14-2.51-3.74-5.57-7.15-7.24-11.43-.6-1.53-1.53-2.84-2.7-4.04-1.52-1.55-2.87-3.26-4.23-4.96-.5-.62-1-1.4-.27-2.2.72-.79 1.47-.46 2.17.07.58.43 1.28.78 1.7 1.33 1.66 2.15 3.66 4.17 4.74 6.6 1.92 4.33 4.46 8.26 6.8 12.33 1.61 2.8 4.36 3.81 6.97 5.63.43-3.12.52-5.83.88-8.5.54-4.01 1.44-7.98 2.33-11.94.25-1.13-.02-1.97-.64-2.77-.56-.71-1.2-1.37-1.87-1.97-4.31-3.91-8.04-8.38-11.98-12.64-1.9-2.06-3.5-4.37-4.74-6.92-1.81-3.74-3.7-7.45-5.6-11.15-1.53-2.97-2.62-6.16-4.45-8.99-.57-.89-.52-1.66.27-2.43.91-.87 1.71-.3 2.44.17 1.26.82 2.03 2.13 2.62 3.42 1.79 3.95 3.41 7.98 5.11 11.97 1.52 3.58 2.9 7.19 5.28 10.36 2.18 2.91 4.77 5.45 7.02 8.29 2.22 2.8 4.72 5.37 7.17 8.12.24-.84.52-1.52.61-2.22.4-3.04.8-6.09 1.1-9.15.26-2.61.38-5.23.6-7.85.11-1.3-.15-2.27-1.54-2.78-1.31-.48-2.38-1.46-3.04-2.63-1.92-3.38-3.77-6.81-4.11-10.81-.05-.54-.12-1.09-.3-1.59-1.86-5.37-3.31-10.89-5.76-16.06-1.7-3.59-3.32-7.23-4.73-10.95-1.8-4.75-3.76-9.39-6.64-13.59-.35-.51-.81-1.01-.3-1.75.23.06.58.05.7.2 2.03 2.64 4.63 4.81 6.12 7.91 2.54 5.3 5.18 10.55 8.01 15.71 3.52 6.42 6.56 13.08 7.91 20.38.53 2.87 1.92 5.37 3.6 7.78-.15-6.65.6-13.22.74-19.82.08-3.7.29-7.41.9-11.08.1-.61.24-1.46-.07-1.85-1.39-1.76-1.21-3.93-1.78-5.9-1.56-5.37-3.17-10.73-4.79-16.09-.99-3.28-1.94-6.56-2.53-9.94l-.02.02zm16.35 7.99c-1.62 4.11-1.9 7.81-2.27 11.5-.57 5.68-1.66 11.33-1.84 17.02-.27 8.8-.91 17.59-.6 26.4.48 13.48-.67 26.83-3.28 40.06-.46 2.31-.91 4.64-1.14 6.98-.73 7.5-.94 15.04-.91 22.56.04 9.19-.49 18.31-2.53 27.3-.67 2.93.61 7.2 3.12 8.61 3.67 2.07 7.54 3.71 11.74.99.85-.55 1.17-1.05.91-1.95-.15-.52-.36-1.03-.6-1.51-2.89-5.73-4.19-11.95-5.39-18.17-1.07-5.54-.9-11.2-1.07-16.82-.21-6.9-.37-13.81.15-20.69.65-8.68 1.36-17.36 2.55-25.99 1.02-7.39.85-14.86.61-22.3-.33-10.07-1.18-20.14-.43-30.21.57-7.7.07-15.43.98-23.77zm-5.33-30.6c1.99-1.9 2.14-3.67.57-6.42.5 2.21-1.27 4.19-.57 6.42z" fill="#0e0f0d"/><path d="m65.45 43.93c.59 3.38 1.54 6.66 2.53 9.94 1.61 5.36 3.23 10.71 4.79 16.09.57 1.97.39 4.14 1.78 5.9.31.39.17 1.24.07 1.85-.61 3.67-.82 7.37-.9 11.08-.14 6.6-.9 13.17-.74 19.82-1.68-2.41-3.07-4.91-3.6-7.78-1.35-7.3-4.39-13.96-7.91-20.38-2.83-5.16-5.47-10.41-8.01-15.71-1.48-3.1-4.08-5.27-6.12-7.91-.12-.16-.47-.14-.7-.2-.51.74-.05 1.24.3 1.75 2.88 4.2 4.84 8.84 6.64 13.59 1.41 3.72 3.03 7.36 4.73 10.95 2.45 5.17 3.89 10.69 5.76 16.06.18.5.25 1.06.3 1.59.34 4 2.19 7.43 4.11 10.81.67 1.17 1.73 2.15 3.04 2.63 1.39.51 1.65 1.47 1.54 2.78-.23 2.61-.34 5.24-.6 7.85-.31 3.06-.7 6.1-1.1 9.15-.09.71-.38 1.39-.61 2.22-2.45-2.75-4.95-5.32-7.17-8.12-2.25-2.84-4.84-5.38-7.02-8.29-2.38-3.18-3.76-6.79-5.28-10.36-1.69-3.99-3.32-8.02-5.11-11.97-.59-1.29-1.36-2.6-2.62-3.42-.73-.47-1.53-1.05-2.44-.17-.8.77-.85 1.54-.27 2.43 1.83 2.82 2.92 6.01 4.45 8.99 1.9 3.7 3.79 7.41 5.6 11.15 1.24 2.56 2.84 4.87 4.74 6.92 3.94 4.26 7.67 8.73 11.98 12.64.67.61 1.32 1.26 1.87 1.97.62.8.89 1.64.64 2.77-.88 3.96-1.78 7.93-2.33 11.94-.36 2.67-.45 5.38-.88 8.5-2.61-1.83-5.36-2.83-6.97-5.63-2.34-4.07-4.88-8-6.8-12.33-1.08-2.42-3.08-4.45-4.74-6.6-.43-.55-1.12-.9-1.7-1.33-.71-.53-1.46-.85-2.17-.07-.73.8-.23 1.58.27 2.2 1.36 1.7 2.71 3.41 4.23 4.96 1.17 1.2 2.1 2.51 2.7 4.04 1.67 4.29 4.73 7.69 7.24 11.43 1.47 2.2 3.95 3.13 6.28 4.14 1.35.58 2.08 1.42 1.76 2.92-.69 3.23-.31 6.51-.4 9.76-.09 3.27-.12 6.54-.01 9.81.12 3.73-.63 7.38-.75 11.1-3.47-.89-6.06-4.16-6.36-8.13-.16-2.07-.38-4.15-.49-6.21-.27-4.97-3.28-7.63-7.42-9.43-1.57-.68-3.24-1.12-4.85-1.71-1.81-.67-2.85-1.87-2.58-3.94.07-.54 0-1.09 0-1.63-.02-4.08-1.65-7.16-5.5-8.86-1.43-.63-2.69-1.48-3.74-2.66-.5-.56-.63-1.08-.1-1.67.12-.13.24-.27.34-.43 1.97-3.19 1.88-3.89-.76-6.58-1.08-1.1-2.21-2.14-2.59-3.74-.19-.79-.29-1.34.73-1.64 4.11-1.22 5.24-4.78 5.4-8.28.15-3.21-2.06-5.7-4.78-7.45-1.46-.94-3.08-1.46-4.83-1.64-1.24-.13-2.47-.42-3.6-.61-.42-.83.11-1.33.26-1.92.71-2.75-.82-4.85-3.7-5.07-1.98-.15-3.97.07-5.94-.48-2.71-.76-3.74-2.04-3.13-4.7.26-1.13.25-2.31.78-3.42 1.08-2.26 1.49-2.58 3.97-2.31 1.18.13 2.28.56 3.34 1.08.66.32 1.31.59 2.08.55 1.94-.11 3.12-1.75 2.54-3.59-.11-.34-.26-.69-.45-.99-1.21-1.88-2.01-3.82-1.52-6.14.11-.54.32-1.37-.4-1.7-.76-.35-1.65.13-1.93.66-.93 1.76-2.16 1.43-3.62.91-1.71-.6-3.49-.78-5.16-.18-.51-.5-.42-.97-.37-1.41.17-1.37-.19-2.54-1.32-3.37-1.1-.81-1.05-1.73-.52-2.86.5-1.05 1.12-2.07 1.28-3.27.26-1.96-.27-3.51-1.86-4.8-1.23-1-1.19-1.27.09-2.23 1.03-.76 1.96-1.6 2.86-2.5 2.99-2.99 3.42-5.18 1.78-9.05-.21-.5-.45-.98-.68-1.48.38-.78 1.13-.87 1.79-1.06.89-.25 1.69-.63 2.4-1.22 2.29-1.89 2.53-4.14.5-6.33-1.59-1.73-3.31-3.34-5.19-4.8-2.59-2.01-2.96-4.31-1.55-7.23.61-1.25 1.5-1.94 2.84-2.27 4.75-1.17 5.29-2.45 2.74-6.44-.86-1.34-1.08-2.63-.27-4.08 1.39-2.48 2.92-4.81 5.53-6.19 2.67-1.4 4.77-.75 5.91 2.01.74 1.77 1.65 3.42 2.79 4.93 1.29 1.71 3.01 2.85 5.11 3.35 2.89.69 5.18-1.55 4.11-4.31-1.49-3.86-1.39-7.61 0-11.37 1.02-2.76 2.88-5.14 5.82-5.56 3.41-.49 6.66.51 8.87 3.56.32.44.6.91.91 1.35 1.25 1.78 2.56 2.09 4.32.92.75-.5 1.54-1.04 2.06-1.74 1.55-2.07 3.71-3.04 6.06-3.87 1.25-.44 2.29-.16 3.42.18.93.28 1.24.9 1.35 1.81.2 1.68-.29 3.27-.76 4.79-.77 2.48.27 4.48 1.5 6.35 1.09 1.66 3.92 1.61 5.91.16 2.46-1.79 3.99-6.53 3.17-9.52-.43-1.56-1.17-3.03-1.24-4.71-.12-3.07 1.55-5.74 4.54-6.62 4.23-1.24 7.86-.31 9.81 2.96 1.6 2.68 3.03 2.55 4.96.03 1.81-2.37 3.57-2.89 6.43-1.84 2.98 1.08 5.19 2.73 5.49 6.3.2 2.39 1.89 3.17 4.13 2.23 1-.42 1.95-.97 2.92-1.45 1.8-.9 3.39-.24 4.79.82 1.57 1.18 1.62 2.54.12 3.85-1.63 1.43-3.38 2.73-5.18 3.93-1.38.93-2.49 2.12-3.58 3.32-.59.66-1.01 1.51-1.36 2.33-.68 1.6-.35 3.41.69 4.27 1.17.98 2.9.88 4.49-.38.99-.79 1.84-1.75 3.04-2.26.85-.36 1.71-.63 2.64-.51 1.48.19 2.15 1.3 1.62 2.73-.22.59-.51 1.16-.84 1.71-.66 1.11-.48 2.15.38 2.96.84.79 1.87.98 3.01.42 1.21-.6 2.47-1.12 3.74-1.59 2.38-.87 3.95-.36 5.44 1.66.88 1.19.8 1.7-.34 2.7-1.93 1.69-4.32 2.63-6.45 4-1.16.75-2.29 1.46-2.52 2.99-.34 2.28.55 3.92 2.76 4.67 3.49 1.17 7.05 1.54 10.65.4 1.49-.47 3.34-.99 4.38.13 1.14 1.23-.1 2.9-.54 4.34-.18.6-.52 1.16-.75 1.74-.88 2.22-.98 4.41.42 6.49.49.73.81 1.37-.04 2.11-.56.48-.98 1.26-.89 1.92.3 2.08-.92 3.36-2.08 4.77-1.11 1.35-1.16 3.01.09 4.17 1.67 1.55 3.52 2.85 6.09 2.11 1.76-.51 2-.2 2.35 1.45.67 3.1-.17 6.08-.56 9.1-.11.89-.84 1.06-1.57 1.24-1.92.49-3.83 1.02-5.74 1.55-.7.19-1.42.36-2.06.67-2.58 1.26-2.79 4.39-.32 5.84 1.15.67 1.9 1.56 2.69 2.56 1.82 2.31 4.09 4.09 6.86 5.25-.49 1.1-1.59 1.29-2.29 1.97-1.78 1.71-2.01 3.59-.48 5.51.56.7 1.24 1.32 1.83 1.94-.17 1.01-1.03 1.07-1.65 1.27-3.85 1.25-7.31 3.11-10.08 6.12-.66.71-1.53.95-2.44 1.02-2.48.19-4.83.78-6.85 2.29-.62.46-1.06.49-1.64-.05-3-2.78-6.11-1.52-9.01.05-2.49 1.35-4.36 4.35-3.75 8.13.45 2.79 2.77 4.64 5.58 4.32 1.43-.16 2.84-.5 4.23-.88 3.18-.87 5.67.36 7.86 2.5.94.92 1.25 3.79.57 4.86-.39.63-.93 1.14-1.74 1.15-.99 0-2 .13-2.96-.26-2.96-1.2-6.06-.88-9.14-.84-.27 0-.55 0-.81.07-1.35.35-2.65.82-3.04 2.36-.33 1.31.19 2.13 1.97 3.18 1.17.69 2.37 1.33 3.56 1.96s1.42 1.3.65 2.29c-1.04 1.34-2.5 1.98-4.1 1.51-3.7-1.08-7.13-.46-10.52 1.15-.75.36-1.49.74-2.08 1.25-1.55 1.32-1.1 3.15.88 3.68 1.57.41 3.16.84 4.77.96 2.43.17 3.51 1.73 4.13 3.72.52 1.67.32 3.43.07 5.14-.16 1.06-.88 1.26-1.74.61-.87-.65-1.7-1.35-2.56-2.02-1.46-1.16-3.07-1.16-4.55-.21-1.6 1.03-2.57 2.6-2.28 4.6.19 1.33.44 2.71.98 3.93.96 2.14-.08 3.43-1.56 4.66-.57.47-1.24.72-1.92.98-2.35.92-2.87 2.58-1.5 4.66 1.38 2.1 1.39 2.66-.2 4.46-1.02 1.15-2.07 2.34-3.3 3.24-3.3 2.42-6 5.24-7.06 9.74-1.41-2.05-2.17-3.99-2.53-5.94-.69-3.73-2.07-7.29-2.52-11.08-.27-2.27-.24-4.52-.29-6.78-.1-4.44.41-8.89-.41-13.3-.15-.83.02-1.55 1.06-1.91 3.45-1.19 5.39-3.95 6.62-7.13 1.5-3.86 3.85-7.15 6.2-10.47.94-1.33 1.92-2.64 2.78-4.02.49-.79 1.14-1.68.24-2.7-2.15 2.78-4.59 5.24-6.88 7.83-2.56 2.89-4.64 6.01-6.27 9.47-.55 1.17-1.23 2.23-2.28 3.01-.78.57-1.38.3-1.48-.64-.06-.54-.06-1.09 0-1.63.42-4.32.29-8.67.86-12.99.22-1.7.13-3.45.12-5.17 0-1.2.28-1.87 1.61-2.38 3.08-1.18 5.59-3.04 7.35-6.09 1.76-3.04 4.24-5.62 7.21-7.68 1.93-1.34 3.75-2.86 5.38-4.57 1.29-1.35 2.55-2.74 4.65-3.96-1.6-.45-2.33.06-2.95.61-3.27 2.89-6.95 5.19-10.54 7.64-2.63 1.8-4.81 4.13-6.71 6.7-1.34 1.81-3.01 3.04-5.32 3.64-.37-2.88.54-5.51.69-8.19.02-.26.23-.54.19-.78-.54-3.25 1.48-5.33 3.25-7.64 1.92-2.51 3.55-5.24 5.22-7.93 2.96-4.78 6.67-8.76 11.55-11.64 3.02-1.78 4.94-4.75 7.27-7.26.07-.07-.05-.32-.11-.65-.96-.05-1.65.55-2.3 1.13-3.11 2.79-6.47 5.2-10.02 7.4-3.49 2.17-6.29 5.19-8.67 8.54-1.62 2.28-3.75 4.14-5.44 6.59-.04-.74-.11-1.47-.12-2.21-.03-2 .18-4.03-.1-5.99-.5-3.5 1.25-6.11 3.18-8.58 4-5.14 8.57-9.82 12.51-15.03 1.13-1.49 2.79-2.56 4.18-3.86.71-.66 1.34-1.41 1.99-2.1-.73-1.02-1.36-.28-1.7 0-2.8 2.27-6.11 3.97-8.04 7.2-.09.15-.24.27-.36.41-3.68 3.88-7.37 7.77-11.06 11.64-.24.26-.45.58-1.06.59-.23-1.71-.58-3.42-.58-5.19 0-5.35-.88-10.66-.62-16.03.06-1.26.27-2.22 1.32-3.06 2.72-2.17 4.64-5.03 6.39-7.99 1.84-3.11 4.02-6 5.93-9.07 1.59-2.55 4.24-4.45 6.41-6.65.62-.63 1.19-1.31 1.84-2.02-.96-.75-1.57-.05-2.03.3-2.67 2.01-5.28 4.1-7.91 6.17-.21.17-.44.36-.56.59-1.9 3.64-5.11 6.32-7.22 9.82-.97 1.61-2.2 3.07-4.12 4.58 0-1.01 0-1.67 0-2.32-.01-7.35-.83-14.67-.55-22.03.07-1.82.72-3.56.51-5.39-.06-.5.15-1.21-.62-1.27-.49-.04-.77.47-.86.9-.9 4.45-2.87 8.54-4.2 12.85-1.21 3.92-1.5 7.98-2.48 11.92-.06.26-.15.51-.25.81-1.15-.07-1.1-1.09-1.36-1.75-2.46-6.31-4.9-12.63-7.58-18.86-.36-.84-.47-1.81-1.72-1.69-.02-.23.04-.56-.36-.27.13.08.26.16.38.25z" fill="#55b147"/><path d="m81.78 51.95c-.91 8.34-.4 16.07-.98 23.77-.75 10.07.1 20.14.43 30.21.24 7.44.41 14.91-.61 22.3-1.19 8.63-1.9 17.31-2.55 25.99-.52 6.88-.35 13.79-.15 20.69.17 5.62 0 11.28 1.07 16.82 1.2 6.22 2.5 12.44 5.39 18.17.24.48.45.99.6 1.51.26.9-.06 1.4-.91 1.95-4.21 2.73-8.07 1.08-11.74-.99-2.51-1.41-3.78-5.68-3.12-8.61 2.05-8.99 2.57-18.11 2.53-27.3-.03-7.53.18-15.06.91-22.56.23-2.34.69-4.66 1.14-6.98 2.61-13.23 3.76-26.58 3.28-40.06-.31-8.81.32-17.61.6-26.4.18-5.69 1.27-11.34 1.84-17.02.37-3.69.65-7.39 2.27-11.5z" fill="#dce9ae"/><path d="m65.45 43.93c-.13-.08-.26-.16-.38-.25.4-.3.35.03.36.27z" fill="#0e0f0d"/><path d="m124.02 23.87c4.59-.06 7.08 1.95 7.63 6.1 1.1.37 2.06-.1 3.03-.25 1.22-.18 2.38-.07 3.43.51 2.46 1.37 4.34 3.34 5.3 5.98.74 2.04.25 4-1.49 5.41-1.33 1.08-2.8 2.01-4.21 3-.81.56-1.79.88-2.61 1.97 1.89.71 3.67.84 5.5.37 1.95-.5 3.9-.83 5.93-.57 4.07.52 5.85 2.96 5.12 7.04-.32 1.8-1.15 3.44-1.69 5.17-.63 1.98-.61 1.99 1.09 3.34 1.82 1.45 2.07 3.28.35 4.86-1.16 1.07-1.78 2.11-1.74 3.69.04 1.55-1.55 2.37-2.1 3.72.96.69 1.57-.03 2.23-.39 2.19-1.19 3.12-.87 4.32 1.35 1.76 3.25 2.11 6.73 1.69 10.31-.12 1.03-.19 1.89.53 2.79.87 1.1.43 2.23-.43 3.2-1.49 1.7-3.37 2.73-5.57 3.21-.53.12-1.05.29-1.58.43-2.21.58-2.59 1.44-1.31 3.39 1.56 2.4 3.99 3.64 6.57 4.62.42.16.88.22 1.32.34 1 .27 1.92.7 2.16 1.83.28 1.27-.52 2.03-1.43 2.71-1.38 1.03-2.75 2.07-4.19 3.17.49 1.37 1.73 1.85 2.71 2.57 2.17 1.62 2.21 3.18.05 4.73-1.49 1.07-3.17 1.73-4.9 2.34-1.45.51-2.86 1.15-4.26 1.8-.64.3-1.34.59-1.76 1.25.03.17-.01.42.09.5.9.74 1.64 1.57.96 2.79-.7 1.26-1.9 1.28-3.11.95-2.66-.72-5.23-.11-7.78.55-1.43.37-2.6 1.18-3.59 2.34-1.69 1.98-2.97 1.83-4.46-.37-1.43-2.1-2.1-2.31-4.55-1.42-1.82.66-3.05 2.39-2.95 4.13.08 1.45.63 1.9 2.12 1.65 1.61-.28 3.2-.68 4.81-.9 4.34-.61 7.69 1.43 10.16 4.62 1.87 2.41 1.95 5.45.61 8.29-.92 1.96-2.64 2.94-4.81 3.07-1.74.1-3.43-.17-5.12-.6-1.29-.33-2.59-.81-3.98-.36.25.93 1.11.96 1.66 1.36 1.88 1.36 2.38 3.09 1.48 5.25-1.37 3.29-4.93 5.22-8.67 4.71-1.04-.14-2.07-.62-3.31-.21 4.42 3.33 5.67 7.68 4.62 12.83-.17.81-.43 1.58-.85 2.28-1.47 2.46-3.35 2.87-5.67 1.21-1.03-.74-1.98-1.6-3.03-2.3-.78-.51-1.43-.14-1.5.78s.18 1.81.51 2.66c1.83 4.72.28 7.48-4.87 10.17-.23.12-.47.23-.67.33-.15.44.03.76.26 1.04 1.39 1.68 1 3.35.02 5.05-1.4 2.43-3.48 4.28-5.75 5.71-3.5 2.21-5.03 5.6-6.45 9.16-.46 1.15-.23 2.33-.18 3.5.11 2.67-.18 3.07-2.82 3.68-.99.23-1.85.67-2.7 1.23-2.63 1.73-5.46 2.38-8.55 1.34-.86-.29-1.76-.45-2.62-.73-5.93-1.86-9.64-6.46-10.24-12.66-.05-.54-.1-1.09-.12-1.63-.06-2.61-1.33-4.51-3.57-5.69-3.74-1.99-5.43-5.2-5.74-9.27-.17-2.26-.25-4.53-.39-6.8-.17-2.87-1.06-4.06-3.78-4.98-1.38-.46-2.81-.76-4.17-1.25-5.22-1.86-7.24-4.7-7.34-10.18 0-.54-.04-1.09.01-1.63.16-1.67-.57-2.77-2.08-3.45-2.02-.91-3.74-2.23-5.2-3.89-1.97-2.24-2.78-4.75-1.19-7.49.73-1.25.28-1.97-.47-2.86-1.97-2.3-2.95-4.97-2.82-8.02.09-2.21 1-3.77 3.24-4.5 2.01-.65 2.77-1.68 2.75-3.22-.02-1.18-1.39-2.81-2.94-3.25-1.13-.32-2.32-.4-3.49-.56-1.35-.19-2.73-.22-4.04-.53-2.82-.66-4.09-2.53-3.85-5.37.16-1.85.16-1.91-1.7-2.08-8.21-.76-10.34-5.37-9.04-12.57.39-2.18 1.56-4.02 2.48-6.09-.67-.06-1.21-.06-1.73-.17-2.13-.45-3.07-1.73-2.86-3.91.06-.63.18-1.26.35-1.87.22-.79.05-1.35-.63-1.89-2.27-1.81-2.34-4.13-1.36-6.64.2-.51.38-1.02.63-1.51.61-1.16.43-1.84-.83-2.59-3.53-2.09-3.85-5.06-1.01-8.05 1.57-1.65 3.62-2.73 5.19-4.39 1.72-1.81 1.81-2.48.25-4.34-.9-1.06-2.02-1.8-3.27-2.39-.82-.39-1.65-.78-2.4-1.28-1.32-.88-1.83-2.29-1.38-3.52.44-1.22 1.77-2.14 3.28-1.9 2.16.34 4.32.56 6.49.65.5.02 1.06.23 1.49-.24.08-.69-.49-.92-.87-1.28-1.05-1.01-2.19-1.93-3.15-3.01-4.27-4.81-3.33-12.62 2.06-16.19 1.28-.84 1.79-1.48 1.29-2.99-.55-1.7-.22-3.44.53-5.04 1.74-3.7 4.26-6.73 7.83-8.82 3.43-2.01 6.81-1.41 10.14.24 1.29.64 1.85 1.94 2.45 3.18.45.93.63 2.06 1.82 2.84.26-1.9.47-3.56.72-5.22.64-4.12 2.51-7.51 5.83-10.13 1.63-1.29 3.4-2.14 5.46-2.19 4.24-.1 8.08 1.01 11.23 4 1.37 1.3 1.38 1.33 2.75.1 1.09-.98 2.23-1.87 3.56-2.48 4.52-2.05 8.93-2.4 12.91 1.1.72-.54.56-1.26.72-1.85 1.22-4.57 5.26-7.99 9.98-8.34 3.7-.27 7.3-.06 10.18 2.75.77.75 1.37.5 2.13-.04 3.37-2.43 6.9-2.39 10.54-.63 2.65 1.28 5.16 2.74 6.45 5.57.47 1.03 1.12 1.27 2.17.94 2.25-.7 4.49-.51 6.67.35 2.55 1 4.16 2.84 4.8 5.51.51 2.1.12 3.99-1.47 5.51-1.24 1.19-2.55 2.29-4.28 3.84zm-58.59 20.08c1.25-.12 1.36.85 1.72 1.69 2.68 6.23 5.11 12.55 7.58 18.86.26.67.21 1.68 1.36 1.75.09-.3.18-.55.25-.81.98-3.94 1.27-8 2.48-11.92 1.33-4.31 3.3-8.41 4.2-12.85.09-.44.37-.94.86-.9.77.06.56.77.62 1.27.21 1.83-.44 3.57-.51 5.39-.28 7.36.54 14.69.55 22.03v2.32c1.92-1.51 3.15-2.97 4.12-4.58 2.11-3.5 5.32-6.18 7.22-9.82.12-.23.35-.42.56-.59 2.63-2.07 5.24-4.16 7.91-6.17.46-.35 1.07-1.05 2.03-.3-.65.72-1.22 1.39-1.84 2.02-2.17 2.2-4.82 4.09-6.41 6.65-1.91 3.07-4.09 5.96-5.93 9.07-1.75 2.96-3.66 5.82-6.39 7.99-1.05.84-1.26 1.8-1.32 3.06-.27 5.37.62 10.68.62 16.03 0 1.78.34 3.49.58 5.19.61 0 .82-.34 1.06-.59 3.69-3.88 7.37-7.76 11.06-11.64.13-.13.27-.25.36-.41 1.93-3.23 5.25-4.93 8.04-7.2.34-.28.97-1.02 1.7 0-.65.69-1.28 1.43-1.99 2.1-1.39 1.3-3.05 2.38-4.18 3.86-3.94 5.21-8.51 9.88-12.51 15.03-1.92 2.47-3.67 5.08-3.18 8.58.28 1.96.07 3.99.1 5.99.01.74.08 1.47.12 2.21 1.69-2.44 3.82-4.31 5.44-6.59 2.38-3.35 5.18-6.38 8.67-8.54 3.55-2.21 6.91-4.62 10.02-7.4.65-.58 1.33-1.17 2.3-1.13.06.33.18.57.11.65-2.33 2.51-4.25 5.47-7.27 7.26-4.88 2.88-8.59 6.86-11.55 11.64-1.67 2.69-3.3 5.42-5.22 7.93-1.77 2.31-3.79 4.39-3.25 7.64.04.24-.17.52-.19.78-.16 2.68-1.06 5.31-.69 8.19 2.31-.6 3.98-1.83 5.32-3.64 1.9-2.56 4.08-4.9 6.71-6.7 3.59-2.45 7.27-4.75 10.54-7.64.62-.55 1.34-1.05 2.95-.61-2.1 1.22-3.35 2.61-4.65 3.96-1.64 1.71-3.45 3.23-5.38 4.57-2.96 2.06-5.44 4.64-7.21 7.68-1.76 3.05-4.28 4.91-7.35 6.09-1.33.51-1.62 1.18-1.61 2.38.01 1.73.11 3.47-.12 5.17-.57 4.31-.44 8.67-.86 12.99-.05.54-.05 1.09 0 1.63.1.94.7 1.21 1.48.64 1.04-.77 1.73-1.84 2.28-3.01 1.62-3.46 3.71-6.58 6.27-9.47 2.29-2.59 4.74-5.06 6.88-7.83.91 1.02.25 1.91-.24 2.7-.86 1.38-1.83 2.69-2.78 4.02-2.35 3.32-4.7 6.61-6.2 10.47-1.24 3.18-3.18 5.94-6.62 7.13-1.03.36-1.21 1.08-1.06 1.91.82 4.42.31 8.87.41 13.3.05 2.26.02 4.52.29 6.78.45 3.79 1.83 7.35 2.52 11.08.36 1.95 1.12 3.89 2.53 5.94 1.05-4.5 3.75-7.32 7.06-9.74 1.23-.9 2.28-2.09 3.3-3.24 1.6-1.79 1.58-2.36.2-4.46-1.37-2.08-.85-3.74 1.5-4.66.68-.27 1.35-.51 1.92-.98 1.48-1.23 2.52-2.52 1.56-4.66-.55-1.21-.79-2.6-.98-3.93-.29-2.01.68-3.57 2.28-4.6 1.47-.95 3.08-.94 4.55.21.85.67 1.69 1.37 2.56 2.02.86.65 1.59.44 1.74-.61.25-1.7.45-3.47-.07-5.14-.62-1.98-1.69-3.54-4.13-3.72-1.6-.11-3.2-.54-4.77-.96-1.98-.52-2.43-2.36-.88-3.68.6-.51 1.34-.89 2.08-1.25 3.39-1.61 6.82-2.24 10.52-1.15 1.6.47 3.06-.17 4.1-1.51.77-.99.54-1.66-.65-2.29-1.2-.63-2.4-1.27-3.56-1.96-1.78-1.05-2.3-1.87-1.97-3.18.39-1.54 1.69-2.01 3.04-2.36.26-.07.54-.07.81-.07 3.07-.05 6.18-.36 9.14.84.96.39 1.97.26 2.96.26.82 0 1.35-.52 1.74-1.15.67-1.08.36-3.95-.57-4.86-2.19-2.14-4.68-3.38-7.86-2.5-1.39.38-2.8.72-4.23.88-2.81.32-5.13-1.53-5.58-4.32-.61-3.78 1.26-6.77 3.75-8.13 2.9-1.57 6.01-2.84 9.01-.05.58.54 1.02.51 1.64.05 2.03-1.5 4.37-2.1 6.85-2.29.92-.07 1.79-.31 2.44-1.02 2.77-3.01 6.23-4.87 10.08-6.12.62-.2 1.48-.26 1.65-1.27-.6-.63-1.27-1.24-1.83-1.94-1.53-1.92-1.3-3.8.48-5.51.7-.68 1.8-.87 2.29-1.97-2.76-1.16-5.04-2.94-6.86-5.25-.79-1-1.54-1.89-2.69-2.56-2.48-1.45-2.26-4.57.32-5.84.64-.31 1.36-.48 2.06-.67 1.91-.53 3.82-1.06 5.74-1.55.73-.19 1.46-.36 1.57-1.24.39-3.02 1.23-6 .56-9.1-.35-1.65-.59-1.95-2.35-1.45-2.57.74-4.42-.56-6.09-2.11-1.25-1.16-1.21-2.82-.09-4.17 1.16-1.41 2.38-2.69 2.08-4.77-.1-.66.33-1.44.89-1.92.85-.73.54-1.37.04-2.11-1.4-2.07-1.3-4.26-.42-6.49.23-.59.57-1.14.75-1.74.44-1.44 1.68-3.11.54-4.34-1.04-1.12-2.89-.6-4.38-.13-3.6 1.13-7.15.77-10.65-.4-2.21-.74-3.1-2.38-2.76-4.67.23-1.53 1.35-2.23 2.52-2.99 2.13-1.38 4.52-2.31 6.45-4 1.14-1 1.22-1.51.34-2.7-1.49-2.02-3.07-2.52-5.44-1.66-1.27.46-2.53.99-3.74 1.59-1.14.56-2.18.37-3.01-.42-.86-.81-1.04-1.86-.38-2.96.32-.54.61-1.12.84-1.71.53-1.42-.13-2.53-1.62-2.73-.93-.12-1.79.15-2.64.51-1.2.51-2.05 1.47-3.04 2.26-1.59 1.26-3.32 1.37-4.49.38-1.03-.87-1.37-2.67-.69-4.27.35-.82.77-1.68 1.36-2.33 1.09-1.21 2.19-2.4 3.58-3.32 1.8-1.21 3.56-2.51 5.18-3.93 1.5-1.31 1.44-2.68-.12-3.85-1.4-1.05-3-1.72-4.79-.82-.97.49-1.92 1.04-2.92 1.45-2.24.94-3.93.16-4.13-2.23-.29-3.57-2.51-5.22-5.49-6.3-2.86-1.04-4.62-.52-6.43 1.84-1.93 2.52-3.36 2.65-4.96-.03-1.96-3.27-5.58-4.19-9.81-2.96-2.99.87-4.66 3.54-4.54 6.62.07 1.67.81 3.14 1.24 4.71.82 2.99-.71 7.74-3.17 9.52-1.99 1.45-4.83 1.5-5.91-.16-1.23-1.87-2.27-3.87-1.5-6.35.47-1.53.96-3.11.76-4.79-.11-.9-.42-1.53-1.35-1.81-1.13-.34-2.17-.62-3.42-.18-2.35.83-4.5 1.81-6.06 3.87-.53.7-1.32 1.24-2.06 1.74-1.76 1.17-3.07.87-4.32-.92-.31-.44-.59-.91-.91-1.35-2.21-3.05-5.46-4.04-8.87-3.56-2.93.42-4.8 2.8-5.82 5.56-1.39 3.76-1.49 7.52 0 11.37 1.06 2.76-1.22 5-4.11 4.31-2.11-.5-3.82-1.64-5.11-3.35-1.14-1.51-2.05-3.16-2.79-4.93-1.15-2.76-3.25-3.41-5.91-2.01-2.61 1.37-4.15 3.71-5.53 6.19-.81 1.44-.59 2.73.27 4.08 2.55 3.99 2.01 5.27-2.74 6.44-1.34.33-2.23 1.02-2.84 2.27-1.41 2.92-1.04 5.22 1.55 7.23 1.87 1.46 3.59 3.07 5.19 4.8 2.02 2.2 1.78 4.44-.5 6.33-.71.59-1.51.97-2.4 1.22-.66.19-1.41.28-1.79 1.06.23.5.47.98.68 1.48 1.64 3.88 1.21 6.07-1.78 9.05-.9.9-1.83 1.74-2.86 2.5-1.29.95-1.33 1.22-.09 2.23 1.59 1.29 2.12 2.84 1.86 4.8-.16 1.21-.78 2.22-1.28 3.27-.54 1.13-.59 2.04.52 2.86 1.13.83 1.49 2 1.32 3.37-.05.43-.14.91.37 1.41 1.66-.6 3.45-.43 5.16.18 1.46.52 2.69.84 3.62-.91.28-.53 1.16-1.01 1.93-.66.72.33.52 1.16.4 1.7-.49 2.32.32 4.27 1.52 6.14.19.3.34.65.45.99.58 1.84-.6 3.48-2.54 3.59-.76.04-1.42-.23-2.08-.55-1.06-.52-2.16-.95-3.34-1.08-2.48-.27-2.88.06-3.97 2.31-.53 1.11-.52 2.29-.78 3.42-.61 2.66.42 3.94 3.13 4.7 1.97.55 3.96.32 5.94.48 2.88.22 4.4 2.32 3.7 5.07-.15.59-.68 1.09-.26 1.92 1.14.2 2.36.48 3.6.61 1.75.18 3.37.7 4.83 1.64 2.72 1.76 4.94 4.25 4.78 7.45-.17 3.51-1.29 7.07-5.4 8.28-1.02.3-.92.85-.73 1.64.38 1.6 1.51 2.65 2.59 3.74 2.65 2.69 2.73 3.38.76 6.58-.09.15-.22.29-.34.43-.54.59-.4 1.11.1 1.67 1.05 1.18 2.3 2.03 3.74 2.66 3.85 1.7 5.48 4.78 5.5 8.86 0 .55.07 1.1 0 1.63-.27 2.07.77 3.27 2.58 3.94 1.61.6 3.28 1.03 4.85 1.71 4.14 1.8 7.15 4.46 7.42 9.43.11 2.07.34 4.14.49 6.21.3 3.97 2.89 7.24 6.36 8.13.12-3.72.87-7.37.75-11.1-.1-3.27-.08-6.54.01-9.81.09-3.26-.29-6.53.4-9.76.32-1.5-.4-2.34-1.76-2.92-2.33-1-4.8-1.94-6.28-4.14-2.51-3.74-5.57-7.15-7.24-11.43-.6-1.53-1.53-2.84-2.7-4.04-1.52-1.55-2.87-3.26-4.23-4.96-.5-.62-1-1.4-.27-2.2.72-.79 1.47-.46 2.17.07.58.43 1.28.78 1.7 1.33 1.66 2.15 3.66 4.17 4.74 6.6 1.92 4.33 4.46 8.26 6.8 12.33 1.61 2.8 4.36 3.81 6.97 5.63.43-3.12.52-5.83.88-8.5.54-4.01 1.44-7.98 2.33-11.94.25-1.13-.02-1.97-.64-2.77-.56-.71-1.2-1.37-1.87-1.97-4.31-3.91-8.04-8.38-11.98-12.64-1.9-2.06-3.5-4.37-4.74-6.92-1.81-3.74-3.7-7.45-5.6-11.15-1.53-2.97-2.62-6.16-4.45-8.99-.57-.89-.52-1.66.27-2.43.91-.87 1.71-.3 2.44.17 1.26.82 2.03 2.13 2.62 3.42 1.79 3.95 3.41 7.98 5.11 11.97 1.52 3.58 2.9 7.19 5.28 10.36 2.18 2.91 4.77 5.45 7.02 8.29 2.22 2.8 4.72 5.37 7.17 8.12.24-.84.52-1.52.61-2.22.4-3.04.8-6.09 1.1-9.15.26-2.61.38-5.23.6-7.85.11-1.3-.15-2.27-1.54-2.78-1.31-.48-2.38-1.46-3.04-2.63-1.92-3.38-3.77-6.81-4.11-10.81-.05-.54-.12-1.09-.3-1.59-1.86-5.37-3.31-10.89-5.76-16.06-1.7-3.59-3.32-7.23-4.73-10.95-1.8-4.75-3.76-9.39-6.64-13.59-.35-.51-.81-1.01-.3-1.75.23.06.58.05.7.2 2.03 2.64 4.63 4.81 6.12 7.91 2.54 5.3 5.18 10.55 8.01 15.71 3.52 6.42 6.56 13.08 7.91 20.38.53 2.87 1.92 5.37 3.6 7.78-.15-6.65.6-13.22.74-19.82.08-3.7.29-7.41.9-11.08.1-.61.24-1.46-.07-1.85-1.39-1.76-1.21-3.93-1.78-5.9-1.56-5.37-3.17-10.73-4.79-16.09-.99-3.28-1.94-6.56-2.53-9.94l-.02.02zm16.35 7.99c-1.62 4.11-1.9 7.81-2.27 11.5-.57 5.68-1.66 11.33-1.84 17.02-.27 8.8-.91 17.59-.6 26.4.48 13.48-.67 26.83-3.28 40.06-.46 2.31-.91 4.64-1.14 6.98-.73 7.5-.94 15.04-.91 22.56.04 9.19-.49 18.31-2.53 27.3-.67 2.93.61 7.2 3.12 8.61 3.67 2.07 7.54 3.71 11.74.99.85-.55 1.17-1.05.91-1.95-.15-.52-.36-1.03-.6-1.51-2.89-5.73-4.19-11.95-5.39-18.17-1.07-5.54-.9-11.2-1.07-16.82-.21-6.9-.37-13.81.15-20.69.65-8.68 1.36-17.36 2.55-25.99 1.02-7.39.85-14.86.61-22.3-.33-10.07-1.18-20.14-.43-30.21.57-7.7.07-15.43.98-23.77zm-5.33-30.6c1.99-1.9 2.14-3.67.57-6.42.5 2.21-1.27 4.19-.57 6.42z" fill="#0e0f0d"/><path d="m65.45 43.93c.59 3.38 1.54 6.66 2.53 9.94 1.61 5.36 3.23 10.71 4.79 16.09.57 1.97.39 4.14 1.78 5.9.31.39.17 1.24.07 1.85-.61 3.67-.82 7.37-.9 11.08-.14 6.6-.9 13.17-.74 19.82-1.68-2.41-3.07-4.91-3.6-7.78-1.35-7.3-4.39-13.96-7.91-20.38-2.83-5.16-5.47-10.41-8.01-15.71-1.48-3.1-4.08-5.27-6.12-7.91-.12-.16-.47-.14-.7-.2-.51.74-.05 1.24.3 1.75 2.88 4.2 4.84 8.84 6.64 13.59 1.41 3.72 3.03 7.36 4.73 10.95 2.45 5.17 3.89 10.69 5.76 16.06.18.5.25 1.06.3 1.59.34 4 2.19 7.43 4.11 10.81.67 1.17 1.73 2.15 3.04 2.63 1.39.51 1.65 1.47 1.54 2.78-.23 2.61-.34 5.24-.6 7.85-.31 3.06-.7 6.1-1.1 9.15-.09.71-.38 1.39-.61 2.22-2.45-2.75-4.95-5.32-7.17-8.12-2.25-2.84-4.84-5.38-7.02-8.29-2.38-3.18-3.76-6.79-5.28-10.36-1.69-3.99-3.32-8.02-5.11-11.97-.59-1.29-1.36-2.6-2.62-3.42-.73-.47-1.53-1.05-2.44-.17-.8.77-.85 1.54-.27 2.43 1.83 2.82 2.92 6.01 4.45 8.99 1.9 3.7 3.79 7.41 5.6 11.15 1.24 2.56 2.84 4.87 4.74 6.92 3.94 4.26 7.67 8.73 11.98 12.64.67.61 1.32 1.26 1.87 1.97.62.8.89 1.64.64 2.77-.88 3.96-1.78 7.93-2.33 11.94-.36 2.67-.45 5.38-.88 8.5-2.61-1.83-5.36-2.83-6.97-5.63-2.34-4.07-4.88-8-6.8-12.33-1.08-2.42-3.08-4.45-4.74-6.6-.43-.55-1.12-.9-1.7-1.33-.71-.53-1.46-.85-2.17-.07-.73.8-.23 1.58.27 2.2 1.36 1.7 2.71 3.41 4.23 4.96 1.17 1.2 2.1 2.51 2.7 4.04 1.67 4.29 4.73 7.69 7.24 11.43 1.47 2.2 3.95 3.13 6.28 4.14 1.35.58 2.08 1.42 1.76 2.92-.69 3.23-.31 6.51-.4 9.76-.09 3.27-.12 6.54-.01 9.81.12 3.73-.63 7.38-.75 11.1-3.47-.89-6.06-4.16-6.36-8.13-.16-2.07-.38-4.15-.49-6.21-.27-4.97-3.28-7.63-7.42-9.43-1.57-.68-3.24-1.12-4.85-1.71-1.81-.67-2.85-1.87-2.58-3.94.07-.54 0-1.09 0-1.63-.02-4.08-1.65-7.16-5.5-8.86-1.43-.63-2.69-1.48-3.74-2.66-.5-.56-.63-1.08-.1-1.67.12-.13.24-.27.34-.43 1.97-3.19 1.88-3.89-.76-6.58-1.08-1.1-2.21-2.14-2.59-3.74-.19-.79-.29-1.34.73-1.64 4.11-1.22 5.24-4.78 5.4-8.28.15-3.21-2.06-5.7-4.78-7.45-1.46-.94-3.08-1.46-4.83-1.64-1.24-.13-2.47-.42-3.6-.61-.42-.83.11-1.33.26-1.92.71-2.75-.82-4.85-3.7-5.07-1.98-.15-3.97.07-5.94-.48-2.71-.76-3.74-2.04-3.13-4.7.26-1.13.25-2.31.78-3.42 1.08-2.26 1.49-2.58 3.97-2.31 1.18.13 2.28.56 3.34 1.08.66.32 1.31.59 2.08.55 1.94-.11 3.12-1.75 2.54-3.59-.11-.34-.26-.69-.45-.99-1.21-1.88-2.01-3.82-1.52-6.14.11-.54.32-1.37-.4-1.7-.76-.35-1.65.13-1.93.66-.93 1.76-2.16 1.43-3.62.91-1.71-.6-3.49-.78-5.16-.18-.51-.5-.42-.97-.37-1.41.17-1.37-.19-2.54-1.32-3.37-1.1-.81-1.05-1.73-.52-2.86.5-1.05 1.12-2.07 1.28-3.27.26-1.96-.27-3.51-1.86-4.8-1.23-1-1.19-1.27.09-2.23 1.03-.76 1.96-1.6 2.86-2.5 2.99-2.99 3.42-5.18 1.78-9.05-.21-.5-.45-.98-.68-1.48.38-.78 1.13-.87 1.79-1.06.89-.25 1.69-.63 2.4-1.22 2.29-1.89 2.53-4.14.5-6.33-1.59-1.73-3.31-3.34-5.19-4.8-2.59-2.01-2.96-4.31-1.55-7.23.61-1.25 1.5-1.94 2.84-2.27 4.75-1.17 5.29-2.45 2.74-6.44-.86-1.34-1.08-2.63-.27-4.08 1.39-2.48 2.92-4.81 5.53-6.19 2.67-1.4 4.77-.75 5.91 2.01.74 1.77 1.65 3.42 2.79 4.93 1.29 1.71 3.01 2.85 5.11 3.35 2.89.69 5.18-1.55 4.11-4.31-1.49-3.86-1.39-7.61 0-11.37 1.02-2.76 2.88-5.14 5.82-5.56 3.41-.49 6.66.51 8.87 3.56.32.44.6.91.91 1.35 1.25 1.78 2.56 2.09 4.32.92.75-.5 1.54-1.04 2.06-1.74 1.55-2.07 3.71-3.04 6.06-3.87 1.25-.44 2.29-.16 3.42.18.93.28 1.24.9 1.35 1.81.2 1.68-.29 3.27-.76 4.79-.77 2.48.27 4.48 1.5 6.35 1.09 1.66 3.92 1.61 5.91.16 2.46-1.79 3.99-6.53 3.17-9.52-.43-1.56-1.17-3.03-1.24-4.71-.12-3.07 1.55-5.74 4.54-6.62 4.23-1.24 7.86-.31 9.81 2.96 1.6 2.68 3.03 2.55 4.96.03 1.81-2.37 3.57-2.89 6.43-1.84 2.98 1.08 5.19 2.73 5.49 6.3.2 2.39 1.89 3.17 4.13 2.23 1-.42 1.95-.97 2.92-1.45 1.8-.9 3.39-.24 4.79.82 1.57 1.18 1.62 2.54.12 3.85-1.63 1.43-3.38 2.73-5.18 3.93-1.38.93-2.49 2.12-3.58 3.32-.59.66-1.01 1.51-1.36 2.33-.68 1.6-.35 3.41.69 4.27 1.17.98 2.9.88 4.49-.38.99-.79 1.84-1.75 3.04-2.26.85-.36 1.71-.63 2.64-.51 1.48.19 2.15 1.3 1.62 2.73-.22.59-.51 1.16-.84 1.71-.66 1.11-.48 2.15.38 2.96.84.79 1.87.98 3.01.42 1.21-.6 2.47-1.12 3.74-1.59 2.38-.87 3.95-.36 5.44 1.66.88 1.19.8 1.7-.34 2.7-1.93 1.69-4.32 2.63-6.45 4-1.16.75-2.29 1.46-2.52 2.99-.34 2.28.55 3.92 2.76 4.67 3.49 1.17 7.05 1.54 10.65.4 1.49-.47 3.34-.99 4.38.13 1.14 1.23-.1 2.9-.54 4.34-.18.6-.52 1.16-.75 1.74-.88 2.22-.98 4.41.42 6.49.49.73.81 1.37-.04 2.11-.56.48-.98 1.26-.89 1.92.3 2.08-.92 3.36-2.08 4.77-1.11 1.35-1.16 3.01.09 4.17 1.67 1.55 3.52 2.85 6.09 2.11 1.76-.51 2-.2 2.35 1.45.67 3.1-.17 6.08-.56 9.1-.11.89-.84 1.06-1.57 1.24-1.92.49-3.83 1.02-5.74 1.55-.7.19-1.42.36-2.06.67-2.58 1.26-2.79 4.39-.32 5.84 1.15.67 1.9 1.56 2.69 2.56 1.82 2.31 4.09 4.09 6.86 5.25-.49 1.1-1.59 1.29-2.29 1.97-1.78 1.71-2.01 3.59-.48 5.51.56.7 1.24 1.32 1.83 1.94-.17 1.01-1.03 1.07-1.65 1.27-3.85 1.25-7.31 3.11-10.08 6.12-.66.71-1.53.95-2.44 1.02-2.48.19-4.83.78-6.85 2.29-.62.46-1.06.49-1.64-.05-3-2.78-6.11-1.52-9.01.05-2.49 1.35-4.36 4.35-3.75 8.13.45 2.79 2.77 4.64 5.58 4.32 1.43-.16 2.84-.5 4.23-.88 3.18-.87 5.67.36 7.86 2.5.94.92 1.25 3.79.57 4.86-.39.63-.93 1.14-1.74 1.15-.99 0-2 .13-2.96-.26-2.96-1.2-6.06-.88-9.14-.84-.27 0-.55 0-.81.07-1.35.35-2.65.82-3.04 2.36-.33 1.31.19 2.13 1.97 3.18 1.17.69 2.37 1.33 3.56 1.96s1.42 1.3.65 2.29c-1.04 1.34-2.5 1.98-4.1 1.51-3.7-1.08-7.13-.46-10.52 1.15-.75.36-1.49.74-2.08 1.25-1.55 1.32-1.1 3.15.88 3.68 1.57.41 3.16.84 4.77.96 2.43.17 3.51 1.73 4.13 3.72.52 1.67.32 3.43.07 5.14-.16 1.06-.88 1.26-1.74.61-.87-.65-1.7-1.35-2.56-2.02-1.46-1.16-3.07-1.16-4.55-.21-1.6 1.03-2.57 2.6-2.28 4.6.19 1.33.44 2.71.98 3.93.96 2.14-.08 3.43-1.56 4.66-.57.47-1.24.72-1.92.98-2.35.92-2.87 2.58-1.5 4.66 1.38 2.1 1.39 2.66-.2 4.46-1.02 1.15-2.07 2.34-3.3 3.24-3.3 2.42-6 5.24-7.06 9.74-1.41-2.05-2.17-3.99-2.53-5.94-.69-3.73-2.07-7.29-2.52-11.08-.27-2.27-.24-4.52-.29-6.78-.1-4.44.41-8.89-.41-13.3-.15-.83.02-1.55 1.06-1.91 3.45-1.19 5.39-3.95 6.62-7.13 1.5-3.86 3.85-7.15 6.2-10.47.94-1.33 1.92-2.64 2.78-4.02.49-.79 1.14-1.68.24-2.7-2.15 2.78-4.59 5.24-6.88 7.83-2.56 2.89-4.64 6.01-6.27 9.47-.55 1.17-1.23 2.23-2.28 3.01-.78.57-1.38.3-1.48-.64-.06-.54-.06-1.09 0-1.63.42-4.32.29-8.67.86-12.99.22-1.7.13-3.45.12-5.17 0-1.2.28-1.87 1.61-2.38 3.08-1.18 5.59-3.04 7.35-6.09 1.76-3.04 4.24-5.62 7.21-7.68 1.93-1.34 3.75-2.86 5.38-4.57 1.29-1.35 2.55-2.74 4.65-3.96-1.6-.45-2.33.06-2.95.61-3.27 2.89-6.95 5.19-10.54 7.64-2.63 1.8-4.81 4.13-6.71 6.7-1.34 1.81-3.01 3.04-5.32 3.64-.37-2.88.54-5.51.69-8.19.02-.26.23-.54.19-.78-.54-3.25 1.48-5.33 3.25-7.64 1.92-2.51 3.55-5.24 5.22-7.93 2.96-4.78 6.67-8.76 11.55-11.64 3.02-1.78 4.94-4.75 7.27-7.26.07-.07-.05-.32-.11-.65-.96-.05-1.65.55-2.3 1.13-3.11 2.79-6.47 5.2-10.02 7.4-3.49 2.17-6.29 5.19-8.67 8.54-1.62 2.28-3.75 4.14-5.44 6.59-.04-.74-.11-1.47-.12-2.21-.03-2 .18-4.03-.1-5.99-.5-3.5 1.25-6.11 3.18-8.58 4-5.14 8.57-9.82 12.51-15.03 1.13-1.49 2.79-2.56 4.18-3.86.71-.66 1.34-1.41 1.99-2.1-.73-1.02-1.36-.28-1.7 0-2.8 2.27-6.11 3.97-8.04 7.2-.09.15-.24.27-.36.41-3.68 3.88-7.37 7.77-11.06 11.64-.24.26-.45.58-1.06.59-.23-1.71-.58-3.42-.58-5.19 0-5.35-.88-10.66-.62-16.03.06-1.26.27-2.22 1.32-3.06 2.72-2.17 4.64-5.03 6.39-7.99 1.84-3.11 4.02-6 5.93-9.07 1.59-2.55 4.24-4.45 6.41-6.65.62-.63 1.19-1.31 1.84-2.02-.96-.75-1.57-.05-2.03.3-2.67 2.01-5.28 4.1-7.91 6.17-.21.17-.44.36-.56.59-1.9 3.64-5.11 6.32-7.22 9.82-.97 1.61-2.2 3.07-4.12 4.58 0-1.01 0-1.67 0-2.32-.01-7.35-.83-14.67-.55-22.03.07-1.82.72-3.56.51-5.39-.06-.5.15-1.21-.62-1.27-.49-.04-.77.47-.86.9-.9 4.45-2.87 8.54-4.2 12.85-1.21 3.92-1.5 7.98-2.48 11.92-.06.26-.15.51-.25.81-1.15-.07-1.1-1.09-1.36-1.75-2.46-6.31-4.9-12.63-7.58-18.86-.36-.84-.47-1.81-1.72-1.69-.02-.23.04-.56-.36-.27.13.08.26.16.38.25z" fill="#55b147"/><path d="m81.78 51.95c-.91 8.34-.4 16.07-.98 23.77-.75 10.07.1 20.14.43 30.21.24 7.44.41 14.91-.61 22.3-1.19 8.63-1.9 17.31-2.55 25.99-.52 6.88-.35 13.79-.15 20.69.17 5.62 0 11.28 1.07 16.82 1.2 6.22 2.5 12.44 5.39 18.17.24.48.45.99.6 1.51.26.9-.06 1.4-.91 1.95-4.21 2.73-8.07 1.08-11.74-.99-2.51-1.41-3.78-5.68-3.12-8.61 2.05-8.99 2.57-18.11 2.53-27.3-.03-7.53.18-15.06.91-22.56.23-2.34.69-4.66 1.14-6.98 2.61-13.23 3.76-26.58 3.28-40.06-.31-8.81.32-17.61.6-26.4.18-5.69 1.27-11.34 1.84-17.02.37-3.69.65-7.39 2.27-11.5z" fill="#dce9ae"/><path d="m65.45 43.93c-.13-.08-.26-.16-.38-.25.4-.3.35.03.36.27z" fill="#0e0f0d"/></svg>