<?xml version="1.0" encoding="utf-8"?>
<!-- Generator: Adobe Illustrator 27.5.0, SVG Export Plug-In . SVG Version: 6.00 Build 0)  -->
<svg version="1.1" id="Layer_1" xmlns="http://www.w3.org/2000/svg" xmlns:xlink="http://www.w3.org/1999/xlink" x="0px" y="0px"
	 viewBox="0 0 500 500" style="enable-background:new 0 0 500 500;" xml:space="preserve">
<g>
	<linearGradient id="SVGID_1_" gradientUnits="userSpaceOnUse" x1="213.3004" y1="390.9059" x2="330.0532" y2="-35.9318">
		<stop  offset="0.0104" style="stop-color:#FF962E"/>
		<stop  offset="1" style="stop-color:#FFC117"/>
	</linearGradient>
	<path style="fill:url(#SVGID_1_);" d="M282.987,475c15.967-5.943,148.032-38.842,156.74-56.842
		c8.708-18-6.53-282.428-14.512-321.534c-7.982-39.105-100.138,3.725-171.25-40.967C182.854,10.966,102.676,22.385,77.82,44.296
		c-24.856,21.913,4.481,117.447,52.374,214.9C178.085,356.649,282.987,475,282.987,475z"/>
	<path style="opacity:0.1;fill:#FFDC5C;" d="M442.322,379.559c0.12-79.065-10.772-251.901-17.107-282.935
		c-7.982-39.105-100.137,3.725-171.25-40.967c-23.144-14.547-47.227-23.07-70.072-27.301l55.839,154.5
		C335.485,249.214,399.581,318.755,442.322,379.559z"/>
	
		<linearGradient id="SVGID_00000023973253738150404960000000875905803067149959_" gradientUnits="userSpaceOnUse" x1="139.3091" y1="611.8468" x2="429.2101" y2="-97.9105">
		<stop  offset="0.0104" style="stop-color:#FF962E"/>
		<stop  offset="0.9948" style="stop-color:#FFDF29"/>
	</linearGradient>
	<path style="opacity:0.1;fill:url(#SVGID_00000023973253738150404960000000875905803067149959_);" d="M342.479,422.193
		c-58.658-16.512-49.346-90.316-67.969-289.305l-2.522-68.038c-6.101-2.593-12.149-5.503-18.022-9.193
		c-21.463-13.491-43.737-21.796-65.083-26.316c-23.612,36.493-54.248,84.958-93.968,149.353
		c9.768,25.623,21.74,52.953,35.279,80.502C178.085,356.649,282.989,475,282.989,475c15.966-5.943,148.031-38.842,156.738-56.842
		c0.979-2.023,1.641-7.298,2.059-14.878C409.465,417.976,370.873,430.185,342.479,422.193z"/>
	
		<linearGradient id="SVGID_00000026860022364463353830000000277545273881490061_" gradientUnits="userSpaceOnUse" x1="182.7898" y1="214.2886" x2="290.7951" y2="-50.1379">
		<stop  offset="0.0104" style="stop-color:#FF962E"/>
		<stop  offset="0.9948" style="stop-color:#FFDF29"/>
	</linearGradient>
	<path style="fill:url(#SVGID_00000026860022364463353830000000277545273881490061_);" d="M60.458,68.607l204.391,106.351
		c18.946-6.842,112.654-45.62,154.16-88.905c-23.2-19.608-102.273,9.054-165.044-30.396C182.854,10.966,102.676,22.383,77.82,44.296
		C67.183,53.674,63.226,49.058,60.458,68.607z"/>
	<path style="opacity:0.2;fill:#FFDC5C;" d="M408.38,80.928c-42.688,42.215-132.882,79.588-151.444,86.29L61.043,65.289
		c-0.194,1.092-0.401,2.026-0.583,3.317l204.39,106.352c18.946-6.842,112.652-45.62,154.158-88.905
		C416.237,83.712,412.622,82.091,408.38,80.928z"/>
	
		<linearGradient id="SVGID_00000119809818950360672820000013643353285244330167_" gradientUnits="userSpaceOnUse" x1="214.9918" y1="145.9251" x2="241.7604" y2="69.5764">
		<stop  offset="0.0104" style="stop-color:#FF962E"/>
		<stop  offset="0.9948" style="stop-color:#FFDF29"/>
	</linearGradient>
	<path style="opacity:0.4;fill:url(#SVGID_00000119809818950360672820000013643353285244330167_);" d="M75.99,53.375
		c24.856-21.913,105.034-33.332,176.146,11.36c59.157,37.18,132.751,13.897,160.451,27.505c2.218-2.054,4.43-4.108,6.421-6.187
		c-23.197-19.608-102.271,9.054-165.042-30.396C182.854,10.966,102.676,22.383,77.82,44.296c-10.637,9.378-14.593,4.761-17.36,24.31
		l0.07,0.037C63.299,59.618,67.509,60.851,75.99,53.375z"/>
	
		<linearGradient id="SVGID_00000103252836019772771370000009019197495914964624_" gradientUnits="userSpaceOnUse" x1="61.982" y1="396.1809" x2="216.4036" y2="209.7452">
		<stop  offset="0.0104" style="stop-color:#FF962E"/>
		<stop  offset="1" style="stop-color:#FFC117"/>
	</linearGradient>
	<path style="fill:url(#SVGID_00000103252836019772771370000009019197495914964624_);" d="M58.044,62.796
		c-2.584,70.727,8.706,291.428,14.15,320.291c5.442,28.864,212.014,107.453,210.789,89.192
		c-2.507-37.362-6.227-293.098-25.242-302.41c-19.014-9.31-107.178-55.864-119.152-94.038
		C126.616,37.656,59.133,33.001,58.044,62.796z"/>
	<path style="opacity:0.2;fill:#FFF9D0;" d="M257.741,169.869c-19.014-9.31-107.18-55.864-119.152-94.038
		c-11.513-36.709-74.186-42.328-79.96-16.218c17.614-13.762,64.022-4.881,73.753,26.149
		c11.973,38.174,100.138,84.728,119.152,94.038c18.069,8.847,22.325,240.065,24.855,295.128c4.274,0.121,6.729-0.659,6.595-2.649
		C280.477,434.917,276.757,179.181,257.741,169.869z"/>
	
		<linearGradient id="SVGID_00000036218116671978567070000001750605216470430908_" gradientUnits="userSpaceOnUse" x1="205.0736" y1="181.5818" x2="179.9346" y2="233.7222">
		<stop  offset="0.0104" style="stop-color:#FFDC7D"/>
		<stop  offset="1" style="stop-color:#FFC117"/>
	</linearGradient>
	<path style="opacity:0.5;fill:url(#SVGID_00000036218116671978567070000001750605216470430908_);" d="M119.951,77.976
		c0,0-4.19,56.514,62.383,85.376c66.572,28.864,83.332,172.716,83.332,172.716s15.174-132.742-25.932-161.109
		c-41.107-28.366-77.418-37.676-92.316-56.299C132.52,100.039,119.951,77.976,119.951,77.976z"/>
	
		<linearGradient id="SVGID_00000103975950004618039400000015577882790732684458_" gradientUnits="userSpaceOnUse" x1="191.9004" y1="194.0507" x2="154.8193" y2="320.127">
		<stop  offset="0.0104" style="stop-color:#FF962E"/>
		<stop  offset="1" style="stop-color:#FFC117"/>
	</linearGradient>
	<path style="opacity:0.1;fill:url(#SVGID_00000103975950004618039400000015577882790732684458_);" d="M282.983,472.279
		c-0.604-8.986-1.279-30.67-2.218-58.453C150.884,392.691,22.779,241.308,102.568,45.449c-21.347-5.46-43.899,0.221-44.524,17.347
		c-2.584,70.727,8.706,291.428,14.15,320.291C77.636,411.951,284.208,490.539,282.983,472.279z"/>
	
		<linearGradient id="SVGID_00000022548963700520080010000005622239968661568443_" gradientUnits="userSpaceOnUse" x1="234.7662" y1="203.9899" x2="100.6905" y2="330.6169">
		<stop  offset="0.0104" style="stop-color:#FFDC7D"/>
		<stop  offset="1" style="stop-color:#FFC117"/>
	</linearGradient>
	<path style="opacity:0.6;fill:url(#SVGID_00000022548963700520080010000005622239968661568443_);" d="M80.574,378.432
		C75.13,349.569,63.84,128.868,66.424,58.14c0.189-5.187,2.484-9.264,6.056-12.368c-8.305,2.911-14.125,8.513-14.435,17.024
		c-2.584,70.727,8.706,291.428,14.15,320.291c5.442,28.864,212.014,107.451,210.789,89.192c-0.04-0.583-0.08-1.375-0.12-2.063
		C244.044,466.996,85.335,403.684,80.574,378.432z"/>
	
		<linearGradient id="SVGID_00000097467664131586905730000003192839694300815256_" gradientUnits="userSpaceOnUse" x1="232.4851" y1="206.2302" x2="100.1736" y2="331.1909">
		<stop  offset="0.0104" style="stop-color:#FFDC7D"/>
		<stop  offset="1" style="stop-color:#FFC117"/>
	</linearGradient>
	<path style="opacity:0.6;fill:url(#SVGID_00000097467664131586905730000003192839694300815256_);" d="M76.576,380.458
		c-5.443-28.864-16.734-249.564-14.15-320.293c0.206-5.63,2.975-9.869,7.127-13.016c-6.643,3.143-11.238,8.225-11.509,15.646
		c-2.584,70.727,8.706,291.428,14.15,320.291c5.439,28.854,211.872,107.395,210.784,89.207
		C253.352,474.284,81.532,406.753,76.576,380.458z"/>
	
		<linearGradient id="SVGID_00000150104942589536815040000017062157439313746568_" gradientUnits="userSpaceOnUse" x1="207.2736" y1="169.4113" x2="187.1002" y2="221.862">
		<stop  offset="0.0104" style="stop-color:#FFDC7D"/>
		<stop  offset="1" style="stop-color:#FFC117"/>
	</linearGradient>
	<path style="opacity:0.2;fill:url(#SVGID_00000150104942589536815040000017062157439313746568_);" d="M182.334,163.352
		c66.572,28.864,83.332,172.716,83.332,172.716s0.605-5.454,1.247-14.166c-2.387-24.544-7.685-70.102-16.115-95.621
		c-11.92-36.076-34.635-62.307-74.982-75.652c-40.346-13.346-55.865-72.652-55.865-72.652S115.761,134.489,182.334,163.352z"/>
	
		<linearGradient id="SVGID_00000054980072163961162960000015935983553973214655_" gradientUnits="userSpaceOnUse" x1="48.2695" y1="565.6581" x2="306.4385" y2="-66.4107">
		<stop  offset="0.0104" style="stop-color:#FF962E"/>
		<stop  offset="0.9948" style="stop-color:#FFDF29"/>
	</linearGradient>
	<path style="opacity:0.1;fill:url(#SVGID_00000054980072163961162960000015935983553973214655_);" d="M282.983,472.279
		c-1.265-18.847-2.84-93.264-6.531-163.59c-4.77,1.451-9.546,3.099-14.32,5.147C103.946,381.731,55.122,242.789,92.147,43.694
		c-17.678-1.503-33.58,4.773-34.103,19.102c-2.584,70.727,8.706,291.428,14.15,320.291
		C77.636,411.951,284.208,490.539,282.983,472.279z"/>
	
		<linearGradient id="SVGID_00000091701337896456594670000005230895659913644426_" gradientUnits="userSpaceOnUse" x1="162.395" y1="166.0946" x2="277.65" y2="26.9454">
		<stop  offset="0.0104" style="stop-color:#FF962E"/>
		<stop  offset="1" style="stop-color:#FFC117"/>
	</linearGradient>
	<path style="opacity:0.1;fill:url(#SVGID_00000091701337896456594670000005230895659913644426_);" d="M167.436,74.278
		c-10.514-25.776-28.568-37.275-38.887-48.08c-22.778,2.634-41.014,9.532-50.73,18.098c-10.637,9.378-14.593,4.761-17.36,24.31
		l204.39,106.352c18.946-6.842,112.652-45.62,154.158-88.905c-5.843-4.939-15.245-6.81-27.025-7.484
		c-2.037,1.092-4.109,2.164-6.052,3.304C287.235,139.745,186.679,121.454,167.436,74.278z"/>
	
		<linearGradient id="SVGID_00000076588167533170330670000010000351376490738817_" gradientUnits="userSpaceOnUse" x1="268.424" y1="411.5773" x2="299.6153" y2="378.5238">
		<stop  offset="0.0104" style="stop-color:#FFDC7D"/>
		<stop  offset="1" style="stop-color:#FFC117"/>
	</linearGradient>
	<path style="opacity:0.3;fill:url(#SVGID_00000076588167533170330670000010000351376490738817_);" d="M282.982,221.079
		c0,0,11.546,224.391,10.15,233.702c-1.397,9.31,132.678-34.915,132.678-34.915s-112.66,21.415-115.919,15.362
		C306.633,429.176,282.982,221.079,282.982,221.079z"/>
</g>
</svg>
