<?xml version="1.0" encoding="utf-8"?>
<!-- Generator: Adobe Illustrator 27.5.0, SVG Export Plug-In . SVG Version: 6.00 Build 0)  -->
<svg version="1.1" id="Capa_1" xmlns="http://www.w3.org/2000/svg" xmlns:xlink="http://www.w3.org/1999/xlink" x="0px" y="0px"
	 viewBox="0 0 2122 2122" style="enable-background:new 0 0 2122 2122;" xml:space="preserve">
<g>
	<path style="fill:#FED317;" d="M1862.555,1158.259c0.149-0.254,0.282-0.514,0.425-0.773c0.404-0.733,0.783-1.478,1.134-2.24
		c0.132-0.285,0.264-0.565,0.387-0.853c0.432-0.997,0.832-2.002,1.179-3.011c10.679-31.064-13.423-61.982-18.325-94.463
		c-0.788-5.227-1.395-10.326-1.897-15.35c-0.048-0.486-0.111-0.982-0.156-1.467c-0.451-4.734-0.771-9.375-1.013-13.959
		c-0.039-0.731-0.084-1.467-0.118-2.195c-0.205-4.399-0.323-8.735-0.38-13.024c-0.011-0.872-0.023-1.743-0.029-2.61
		c-0.029-4.127-0.009-8.214,0.057-12.264c0.019-1.087,0.041-2.17,0.065-3.253c0.079-3.744,0.181-7.468,0.308-11.169
		c0.507-14.815,1.26-29.365,1.391-44.207c0-0.024,0.002-0.049,0.002-0.073c0,0.001,0,0.001,0,0.001
		c0.028-3.233,0.036-6.476-0.005-9.744c-0.609-48.351,10.315-93.58-2.636-139.51c-3.067-13.905-8.126-27.479-14.583-40.654
		c0.002,0,0.002,0,0.002,0c-0.005-0.01-0.011-0.02-0.017-0.031c-6.551-13.361-14.575-26.294-23.584-38.707
		c-0.107-0.149-0.212-0.298-0.32-0.447c-5.809-7.976-12.007-15.728-18.474-23.243c-0.443-0.515-0.883-1.031-1.328-1.544
		c-3.178-3.656-6.398-7.267-9.68-10.803c-0.085-0.092-0.173-0.181-0.258-0.272c-3.055-3.287-6.151-6.505-9.268-9.682
		c-0.794-0.81-1.586-1.615-2.384-2.417c-3.157-3.177-6.328-6.319-9.517-9.379c-0.034-0.033-0.068-0.068-0.102-0.102
		c-53.861-51.677-111.923-94.507-173.251-130.698c-0.123-0.073-0.247-0.145-0.372-0.219c-18.057-10.646-36.398-20.716-55.001-30.258
		c-0.268-0.137-0.536-0.273-0.803-0.411c-18.449-9.445-37.156-18.38-56.098-26.847c-0.429-0.192-0.858-0.385-1.288-0.576
		c-18.793-8.376-37.813-16.303-57.046-23.824c-0.575-0.225-1.15-0.453-1.725-0.678c-9.61-3.744-19.267-7.397-28.977-10.947
		c-0.154-0.056-0.307-0.11-0.461-0.166c-9.44-3.448-18.928-6.802-28.458-10.079c-0.715-0.247-1.427-0.497-2.143-0.742
		c-9.503-3.254-19.049-6.428-28.636-9.525c-1.005-0.325-2.014-0.642-3.019-0.965c-8.999-2.89-18.031-5.719-27.101-8.482
		c-0.783-0.239-1.562-0.484-2.345-0.722c-9.382-2.846-18.803-5.621-28.255-8.342c-1.688-0.486-3.381-0.965-5.07-1.448
		c-8.882-2.534-17.786-5.028-26.726-7.463c-0.634-0.173-1.264-0.351-1.898-0.523c-9.35-2.539-18.736-5.017-28.144-7.459
		c-2.094-0.544-4.189-1.084-6.286-1.622c-9.374-2.41-18.765-4.792-28.192-7.117C912.869,495.839,671.676,642.608,444.866,812.352
		c-0.01,0.006-0.018,0.014-0.027,0.021c-3.757,2.812-7.527,5.786-11.294,8.827c-1.805,1.446-3.59,2.898-5.39,4.39
		c-0.642,0.537-1.277,1.099-1.918,1.641c-12.818,10.76-25.406,22.553-36.618,35.226c-8.112,6.865-16.209,13.748-24.308,20.628
		c-5.687,4.831-11.388,9.646-17.086,14.465c-11.903,10.066-23.831,20.103-35.875,30c-0.028,0.023-0.056,0.047-0.084,0.07
		c-0.19,0.156-0.408,0.321-0.602,0.478v0.001c-4.221,3.422-9.317,7.107-14.652,11.101c-5.275,3.95-10.746,8.205-15.771,12.779
		c-11.768,7.686-21.233,17.606-25.609,30.757c-0.29,0.872-0.476,1.808-0.724,2.707c-0.311,1.12-0.675,2.208-0.905,3.379
		c0,0,0,0.002,0,0.003c-0.433,2.127-0.742,4.331-0.897,6.626c-1.381,20.386,6.034,40.206,12.885,59.456
		c6.851,19.25,19.729,37.4,16.451,57.568c-2.72,16.743-4.316,19.809-11.051,35.378c-5.128,11.854-3.039,68.757,21.168,52.593
		c4.883-3.26,7.668-8.821,9.839-14.275c12.487-31.347-8.911-49.205-3.527-81.515c1.527-9.164,3.618-18.566,9.108-26.061
		c5.488-7.495,16.585-8.091,25.527-5.571c9.268,2.612,18.224,5.174,42.747,20.001c8.678,6.988,19.25,12.67,32.162,18.573
		c40.966,18.73,97.955,8.661,124.034,45.389c13.778,19.403,13.648,46.679,29.276,64.626c28.559,32.797,86.402,12.893,122.01,37.86
		c39.431,27.648,27.793,87.768,13.692,133.815c-14.101,46.047-19.589,108.949,23.778,129.888c6.222,3.004,13.466,4.755,20.051,2.663
		c6.367-2.022,11.166-7.317,14.732-12.965c0.91-1.441,1.741-2.912,2.526-4.4c0-0.001,0.001-0.002,0.001-0.003
		c0.144-0.272,0.274-0.55,0.408-0.826c0.779-1.531,1.492-3.085,2.147-4.659c0.111-0.272,0.228-0.544,0.338-0.817
		c0-0.001,0-0.002,0-0.003c0.564-1.408,1.085-2.831,1.557-4.27c0.057-0.171,0.119-0.34,0.174-0.511
		c0.001-0.001,0.001-0.002,0.001-0.003c0.333-1.041,0.634-2.091,0.921-3.146c0-0.001,0-0.003,0.001-0.004
		c0.027-0.1,0.054-0.201,0.082-0.302c1.062-3.963,1.815-8.018,2.292-12.141c0.039-0.372,0.081-0.743,0.12-1.115
		c0.001-0.007,0.002-0.015,0.003-0.021c0.156-1.504,0.278-3.015,0.367-4.534c0.013-0.23,0.03-0.459,0.043-0.69
		c0-0.001,0-0.002,0-0.003c0.335-6.526,0.089-13.165-0.597-19.804c0-0.001,0-0.003,0-0.004c-0.129-1.253-0.281-2.503-0.439-3.755
		c-0.002-0.004-0.002-0.008-0.002-0.013c-0.099-0.781-0.208-1.56-0.317-2.34c-0.124-0.88-0.245-1.761-0.381-2.64
		c0-0.005-0.001-0.01-0.002-0.015c-0.046-0.302-0.095-0.603-0.142-0.904c-0.001-0.002-0.001-0.004-0.002-0.005
		c-0.219-1.37-0.447-2.735-0.693-4.099c-0.001-0.002-0.001-0.005-0.001-0.006c-0.905-5-1.971-9.954-3.149-14.799
		c-8.658-35.607-21.901-72.033-5.852-108.111c6.923-15.566,20.669-27.523,37.423-30.614c7.068-1.304,13.334-0.832,19.114,0.734
		c0.977,0.264,1.943,0.553,2.892,0.88c0.267,0.092,0.53,0.195,0.795,0.292c3.33,1.216,6.505,2.781,9.57,4.607
		c0.019,0.011,0.039,0.022,0.058,0.034c1.075,0.642,2.135,1.312,3.186,2.009c0.009,0.005,0.017,0.011,0.025,0.016
		c8.761,5.809,16.807,13.324,25.542,19.543c0.336,0.24,0.675,0.474,1.013,0.709c0.937,0.652,1.886,1.283,2.841,1.899
		c0.375,0.242,0.747,0.488,1.126,0.723c1.291,0.803,2.596,1.58,3.93,2.298c22.005,11.838,48.453,9.963,73.268,12.897
		c24.815,2.935,52.526,14.544,58.861,38.715c4.526,17.27-3.489,35.325-2.818,53.166c1.826,48.477,82.902,81.146,123.036,108.401
		c41.343,28.076,30.167,88.133,19.919,133.384c-7.821,34.538-9.108,62.071,22.858,85.764c3.623,2.686,7.03,6.147,9.887,5.003
		c55.531-22.241,23.291-139.904,19.313-161.053c-0.546-2.905-0.904-5.797-1.158-8.683c-0.032-0.366-0.078-0.732-0.106-1.098
		c-0.208-2.734-0.277-5.46-0.251-8.18c0.005-0.485,0.008-0.969,0.02-1.453c0.064-2.677,0.227-5.349,0.491-8.014
		c0.047-0.474,0.103-0.945,0.156-1.418c0.301-2.711,0.677-5.418,1.155-8.12c0.054-0.309,0.121-0.618,0.178-0.926
		c0.497-2.708,1.068-5.412,1.715-8.113c0.046-0.193,0.084-0.387,0.132-0.579c0.667-2.741,1.415-5.478,2.206-8.214
		c0.132-0.455,0.258-0.91,0.393-1.365c0.774-2.614,1.599-5.227,2.459-7.839c0.185-0.562,0.37-1.124,0.559-1.686
		c0.858-2.559,1.743-5.117,2.657-7.677c0.221-0.618,0.445-1.237,0.669-1.855c0.884-2.449,1.78-4.898,2.69-7.35
		c0.013-0.036,0.027-0.072,0.04-0.109c0,0,0,0,0,0.001c7.993-21.512,16.626-43.149,19.406-65.491
		c5.449-43.796-11.938-89.039,10.96-131.318c1.604-2.961,3.532-5.691,5.6-8.293c-1.451,2.83-2.734,5.698-3.703,8.634
		c12.143-18.039,31.28-30.862,50.56-27.873c0.452,0.077,0.928,0.12,1.37,0.21c0.716,0.139,1.431,0.346,2.147,0.531
		c0.886,0.233,1.769,0.47,2.615,0.757c0.643,0.216,1.284,0.467,1.924,0.722c0.889,0.354,1.768,0.722,2.615,1.132
		c0.433,0.21,0.866,0.42,1.289,0.643c0.991,0.524,1.955,1.086,2.896,1.68c0.285,0.18,0.582,0.344,0.863,0.53
		c1.197,0.793,2.357,1.638,3.483,2.531c0.275,0.218,0.538,0.454,0.809,0.677c0.858,0.707,1.702,1.433,2.526,2.188
		c0.36,0.33,0.716,0.667,1.071,1.005c0.75,0.716,1.489,1.448,2.217,2.197c0.309,0.319,0.623,0.633,0.929,0.956
		c0.979,1.035,1.946,2.089,2.896,3.166c0.023,0.025,0.045,0.049,0.067,0.074c0.997,1.132,1.982,2.286,2.961,3.447
		c0.384,0.454,0.765,0.911,1.147,1.368c0.778,0.931,1.556,1.861,2.332,2.796c0.765,0.922,1.536,1.838,2.307,2.755
		c0.297,0.353,0.593,0.708,0.892,1.06c0.971,1.144,1.952,2.277,2.949,3.394c0.214,0.24,0.434,0.472,0.649,0.71
		c0.783,0.866,1.576,1.718,2.382,2.556c0.339,0.352,0.683,0.698,1.027,1.044c0.746,0.752,1.508,1.485,2.281,2.205
		c0.339,0.316,0.674,0.636,1.019,0.944c1.106,0.991,2.233,1.956,3.406,2.864c33.527,25.946,84.848,5.183,110.777-28.358
		c1.705-2.205,3.335-4.455,4.911-6.736c0.529-0.764,1.021-1.55,1.536-2.322c1.023-1.534,2.045-3.069,3.019-4.633
		c0.582-0.934,1.135-1.885,1.7-2.829c0.861-1.435,1.721-2.87,2.546-4.326c0.576-1.015,1.131-2.043,1.692-3.067
		c0.772-1.413,1.541-2.829,2.286-4.259c0.554-1.062,1.095-2.132,1.636-3.202c0.719-1.425,1.432-2.854,2.129-4.292
		c0.522-1.079,1.04-2.161,1.553-3.247c0.689-1.461,1.371-2.927,2.044-4.399c0.491-1.075,0.982-2.15,1.465-3.23
		c0.684-1.53,1.362-3.064,2.033-4.602c0.45-1.028,0.901-2.055,1.346-3.087c0.716-1.662,1.427-3.328,2.136-4.996
		c0.407-0.96,0.817-1.919,1.224-2.881c1.014-2.401,2.024-4.804,3.034-7.208c0.547-1.303,1.099-2.603,1.648-3.905
		c0.571-1.353,1.14-2.707,1.715-4.058c1.088-2.557,2.185-5.11,3.298-7.654c0.27-0.617,0.551-1.228,0.822-1.844
		c0.854-1.932,1.711-3.861,2.589-5.78c0.422-0.924,0.861-1.838,1.291-2.757c0.749-1.609,1.502-3.216,2.276-4.812
		c0.49-1.01,0.999-2.01,1.498-3.014c0.744-1.491,1.491-2.98,2.26-4.458c0.543-1.043,1.106-2.077,1.664-3.113
		c0.765-1.421,1.54-2.838,2.336-4.243c5.67-9.907,13.079-19.666,23.654-23.236c0.782-0.247,1.555-0.56,2.343-0.749
		c0.727-0.175,1.464-0.248,2.195-0.374c1.065-0.184,2.129-0.384,3.201-0.469c0.782-0.061,1.567-0.036,2.351-0.047
		c1.029-0.014,2.058-0.039,3.089,0.031c0.807,0.055,1.614,0.182,2.42,0.287c1.005,0.13,2.01,0.259,3.011,0.464
		c0.817,0.168,1.628,0.392,2.441,0.608c0.981,0.26,1.962,0.525,2.934,0.853c0.811,0.272,1.613,0.588,2.415,0.905
		c0.959,0.379,1.914,0.77,2.858,1.209c0.793,0.369,1.577,0.769,2.359,1.178c0.925,0.485,1.844,0.989,2.75,1.527
		c0.769,0.457,1.529,0.934,2.281,1.428c0.888,0.581,1.763,1.186,2.626,1.815c0.733,0.534,1.458,1.08,2.172,1.646
		c0.844,0.67,1.67,1.367,2.485,2.08c0.686,0.599,1.367,1.203,2.03,1.831c0.793,0.75,1.558,1.529,2.317,2.316
		c0.632,0.656,1.265,1.312,1.873,1.993c0.734,0.822,1.431,1.673,2.125,2.527c0.568,0.699,1.142,1.392,1.681,2.11
		c0.673,0.893,1.295,1.814,1.92,2.734c0.493,0.726,1.001,1.443,1.464,2.184c0.602,0.964,1.143,1.952,1.691,2.938
		c0.407,0.732,0.837,1.455,1.212,2.197c0.529,1.045,0.98,2.109,1.445,3.171c0.31,0.712,0.657,1.416,0.937,2.134
		c0.462,1.184,0.83,2.381,1.205,3.578c0.191,0.609,0.429,1.212,0.595,1.823c0.497,1.813,0.896,3.633,1.175,5.45
		c10.477,68.331,0,220.691,16.103,213.073c3.112-72.348,6.224-144.696,9.336-217.044c0.769-17.882,1.626-36.18,8.394-52.749
		c17.202-42.108,65.387-60.208,106.682-79.281c2.43-1.123,4.87-2.299,7.311-3.527c0.217-0.109,0.432-0.231,0.649-0.341
		c2.221-1.127,4.441-2.285,6.651-3.498c0.604-0.332,1.201-0.696,1.804-1.034c1.818-1.02,3.639-2.041,5.438-3.118
		c0.644-0.386,1.27-0.805,1.911-1.198c1.741-1.068,3.482-2.132,5.191-3.253c0.857-0.561,1.682-1.162,2.529-1.737
		c1.468-0.995,2.945-1.977,4.381-3.012c0.871-0.628,1.703-1.297,2.561-1.939c1.373-1.028,2.76-2.041,4.095-3.106
		c0.837-0.667,1.625-1.374,2.445-2.055c1.305-1.084,2.627-2.152,3.884-3.271c0.836-0.743,1.611-1.526,2.424-2.284
		c1.182-1.103,2.39-2.19,3.521-3.325c0.784-0.787,1.499-1.613,2.258-2.415c1.088-1.151,2.205-2.286,3.235-3.467
		c0.744-0.853,1.406-1.745,2.119-2.613c0.961-1.173,1.957-2.331,2.856-3.533c0.689-0.922,1.289-1.881,1.939-2.82
		c0.829-1.194,1.698-2.371,2.46-3.592c0.608-0.971,1.115-1.981,1.678-2.969c0.702-1.229,1.447-2.441,2.077-3.696
		c0.513-1.02,0.915-2.078,1.379-3.116c0.566-1.264,1.18-2.512,1.67-3.801c0.408-1.074,0.694-2.185,1.047-3.275
		c0.418-1.292,0.891-2.567,1.228-3.882c0.295-1.143,0.456-2.322,0.686-3.482c0.26-1.303,0.579-2.59,0.755-3.914
		c0.159-1.197,0.177-2.43,0.266-3.646c0.095-1.285,0.267-2.551,0.281-3.855c1.33-0.579,2.662-1.157,3.992-1.737
		c0.087-0.032,0.134-0.05,0.229-0.085c0.072,0.083,0.128,0.172,0.199,0.255c1.034,1.215,1.998,2.456,2.876,3.726
		c0.326,0.471,0.592,0.963,0.898,1.441c0.576,0.904,1.158,1.805,1.663,2.734c0.314,0.577,0.574,1.174,0.86,1.761
		c0.421,0.857,0.848,1.711,1.213,2.587c0.266,0.64,0.485,1.296,0.724,1.946c0.312,0.851,0.63,1.7,0.895,2.567
		c0.208,0.683,0.38,1.378,0.561,2.07c0.226,0.861,0.452,1.722,0.637,2.597c0.151,0.715,0.273,1.44,0.398,2.165
		c0.151,0.876,0.297,1.753,0.412,2.642c0.096,0.744,0.171,1.495,0.242,2.248c0.085,0.893,0.162,1.791,0.215,2.697
		c0.045,0.764,0.074,1.533,0.097,2.305c0.026,0.913,0.04,1.831,0.038,2.755c-0.002,0.784-0.012,1.571-0.035,2.362
		c-0.026,0.934-0.066,1.871-0.118,2.814c-0.044,0.795-0.09,1.591-0.151,2.393c-0.073,0.961-0.164,1.927-0.258,2.897
		c-0.079,0.798-0.158,1.596-0.252,2.399c-0.115,0.986-0.245,1.979-0.38,2.973c-0.11,0.804-0.216,1.605-0.336,2.414
		c-0.152,1.015-0.32,2.037-0.49,3.06c-0.131,0.793-0.257,1.583-0.397,2.379c-0.187,1.055-0.386,2.116-0.587,3.178
		c-0.147,0.78-0.289,1.557-0.442,2.34c-0.213,1.084-0.439,2.174-0.663,3.263c-0.159,0.768-0.309,1.533-0.473,2.303
		c-0.247,1.171-0.503,2.346-0.757,3.521c-0.15,0.688-0.295,1.375-0.446,2.064c-0.189,0.856-0.38,1.716-0.57,2.574
		c-0.634,2.857-1.273,5.72-1.904,8.586c-0.078,0.352-0.152,0.704-0.229,1.056c-0.331,1.509-0.659,3.019-0.979,4.528
		c-0.135,0.638-0.263,1.274-0.396,1.911c-0.255,1.225-0.509,2.449-0.751,3.671c-0.147,0.743-0.285,1.484-0.427,2.226
		c-0.217,1.13-0.431,2.259-0.633,3.386c-0.139,0.771-0.265,1.538-0.395,2.306c-0.185,1.087-0.367,2.172-0.534,3.254
		c-0.124,0.801-0.234,1.598-0.347,2.395c-0.147,1.044-0.291,2.087-0.419,3.126c-0.1,0.809-0.187,1.614-0.272,2.419
		c-0.111,1.026-0.212,2.051-0.299,3.07c-0.068,0.804-0.126,1.604-0.178,2.404c-0.067,1.006-0.121,2.008-0.161,3.007
		c-0.033,0.799-0.056,1.596-0.071,2.39c-0.017,0.992-0.017,1.98-0.005,2.964c0.01,0.785,0.024,1.568,0.053,2.347
		c0.038,0.977,0.1,1.947,0.171,2.915c0.056,0.77,0.113,1.54,0.191,2.303c0.099,0.964,0.232,1.919,0.368,2.873
		c0.106,0.747,0.208,1.496,0.339,2.236c0.169,0.96,0.383,1.907,0.594,2.855c0.16,0.714,0.306,1.43,0.491,2.136
		c0.252,0.966,0.558,1.915,0.859,2.866c0.21,0.667,0.401,1.34,0.637,2c0.356,0.992,0.776,1.963,1.189,2.937
		c0.254,0.597,0.477,1.203,0.754,1.793c0.041,0.089,0.072,0.182,0.113,0.271c0.475,0.998,1.017,1.989,1.59,2.971
		c1.095,1.97,2.281,3.913,3.672,5.792c3.82,5.159,9.262,9.171,15.629,9.988c0.365,0.047,0.681-0.005,1.035,0.021
		c0.998,0.109,1.999,0.146,3.009,0.061c0.103-0.009,0.198-0.033,0.302-0.044c1.028-0.107,2.057-0.336,3.088-0.666
		c0.176-0.056,0.358-0.098,0.529-0.16c0.109-0.039,0.219-0.057,0.329-0.099c0.901-0.347,1.745-0.787,2.553-1.279
		c0.197-0.121,0.375-0.267,0.568-0.396c0.7-0.468,1.365-0.982,1.995-1.546c0.233-0.209,0.462-0.419,0.687-0.64
		c0.635-0.628,1.236-1.294,1.799-2.003c0.106-0.135,0.225-0.256,0.33-0.394C1861.411,1160.105,1862.002,1159.197,1862.555,1158.259z
		"/>
	<path style="fill:#FBC21D;" d="M1753.432,650.814c-166.09-159.358-371.934-234.998-591.293-289.112
		C912.869,495.839,671.676,642.608,444.866,812.352c-19.006,14.224-38.612,31.303-55.247,50.106
		c-8.112,6.864-16.209,13.747-24.308,20.627c-17.595,14.948-35.207,29.878-53.045,44.535c-0.191,0.156-0.408,0.321-0.603,0.478
		c22.783,37.026,62.323,58.704,99.706,80.962c42.446,25.261,90.439,37.394,134.145,59.651
		c40.877,20.817,78.169,47.515,120.987,66.006c92.496,39.946,191.497,61.721,289.538,83.171
		c45.909,10.044,89.459,17.533,135.849,5.552c87.127-22.502,174.424-70.021,253.903-111.362
		c131.792-68.552,256.651-149.891,367.721-248.799c40.677-36.229,79.121-74.88,114.85-115.84
		C1810.764,711.531,1782.467,678.671,1753.432,650.814z"/>
	<path style="fill:#FFDF0F;" d="M420.649,852.55c14.872,18.375,32.469,34.648,50.91,49.376
		c15.254,12.182,31.964,24.849,50.23,32.179c17.885,7.177,39.162,3.842,56.063-4.427c38.458-18.816,62.608-57.979,101.558-76.084
		c20.414-9.489,42.646-10.707,64.121-3.982c33.289,10.424,59.552,35.893,84.237,59.424c14.629,13.946,28.963,28.216,44.064,41.659
		c13.079,11.642,27.539,21.55,39.568,34.337c12.216,12.985,23.089,27.15,34.91,40.484c10.936,12.334,22.653,24.517,38.315,30.6
		c34.967,13.581,67.975-4.647,94.584-26.75c25.291-21.009,47.084-45.528,78.512-57.622c28.08-10.806,59.054-10.883,88.194-17.408
		c35.396-7.926,68.19-23.284,99.22-41.798c66.32-39.568,124.344-91.144,184.7-138.898c12.622-9.987,25.224-19.914,38.832-28.536
		c13.664-8.658,27.652-16.807,41.034-25.907c25.909-17.619,51.662-40.482,53.538-73.925c1.805-32.187-13.67-63.85-29.288-91.005
		c-0.023-0.039-0.047-0.078-0.071-0.118c-141.154-96.033-302.41-150.675-471.741-192.448
		C912.869,495.839,671.676,642.608,444.866,812.352c-11.238,8.411-22.617,17.914-33.537,28.087
		C414.511,844.972,417.863,849.108,420.649,852.55z"/>
	<path style="fill:#F59D1E;" d="M1201.237,1515.662c-7.165,9.002-13.99,18.363-24.006,23.964
		c-7.073,3.955-16.175,4.749-23.561,1.045c-7.651-3.836-11.349-12.485-13.871-20.176c-3.149-9.605-4.792-19.627-7.863-29.254
		c-3.279-10.278-8.84-17.228-19.339-20.953c-11.564-4.103-24.12-4.297-35.634-8.644c-12.823-4.841-23.442-14.568-30.357-26.358
		c-5.253-8.956-6.605-18.679-6.062-28.902c0.599-11.271,2.259-23.457-1.671-34.324c-7.367-20.377-19.695-40.344-41.56-46.857
		c-17.724-5.28-36.945-2.441-55.011-0.86c-20.477,1.793-41.267,2.611-61.131-3.625c-16.618-5.217-28.876-19.6-43.391-28.631
		c-6.014-3.742-13.919-8.158-21.251-6.001c-1.93,0.567-3.575,1.599-5.087,2.82c19.646,5.069,33.383,23.432,51.468,33.16
		c22.005,11.838,48.453,9.963,73.268,12.897c24.814,2.935,52.526,14.544,58.861,38.715c4.526,17.27-3.49,35.325-2.819,53.166
		c1.826,48.477,82.903,81.146,123.036,108.401c41.343,28.076,30.166,88.133,19.919,133.384
		c-7.821,34.538-9.109,62.071,22.857,85.764c3.623,2.686,7.03,6.147,9.887,5.003c55.531-22.241,23.292-139.904,19.314-161.053
		C1181.938,1570.192,1191.068,1543.029,1201.237,1515.662z"/>
	<path style="fill:#F59D1E;" d="M1847.355,1056.92c-6.714-44.479-2.109-81.023-1.771-119.572c-1.783,1.876-3.513,3.8-5.335,5.64
		c-14.781,14.921-30.719,28.656-45.274,43.803c-7.38,7.68-14.149,15.666-20.237,24.401c-5.195,7.453-10.706,14.702-16.63,21.592
		c-11.929,13.878-25.672,25.987-40.655,36.474c-9.059,6.341-18.482,12.14-27.625,18.362c-9.79,6.663-19.769,13.04-29.727,19.447
		c-9.998,6.434-19.977,12.906-29.727,19.715c-6.433,4.494-8.972,10.512-12.053,17.521c-4.993,11.357-14.12,27.023-29.053,24.484
		c-13.448-2.287-18.501-17.34-27.054-26.017c-5.527-5.607-12.672-6.381-20.216-7.057c-7.036-0.63-14.217-0.613-21.197,0.566
		c-25.277,4.268-42.354,22.769-54.498,44.162c-12.912,22.748-21.206,47.714-32.954,71.031
		c-11.311,22.449-28.631,47.782-56.268,49.06c-23.132,1.069-44-13.233-65.365-19.88c-11.217-3.489-23.055-5.204-34.617-2.348
		c-15.782,3.898-29.932,15.136-38.201,29.006c-2.294,3.848-4.058,7.823-5.398,11.885c14.131-20.994,37.736-34.986,60.015-25.128
		c18.465,8.17,27.645,29.04,43.614,41.398c33.528,25.947,84.848,5.183,110.777-28.357c25.931-33.54,36.221-76.399,56.818-113.454
		c6.127-11.022,14.29-22.363,26.524-25.427c27.697-6.935,59.276,21.845,63.603,50.067c10.477,68.331,0,220.691,16.102,213.073
		c3.112-72.348,6.224-144.696,9.337-217.044c0.768-17.882,1.626-36.18,8.394-52.749c17.202-42.108,65.387-60.208,106.682-79.281
		c38.807-17.925,80.269-49.539,80.732-90.777c1.403-0.611,2.807-1.221,4.212-1.832c34.697,40.164-19.443,111.735,3.339,159.671
		c5.396,11.353,17.448,22.372,29.181,17.862c6.556-2.52,10.568-9.193,12.85-15.835
		C1876.36,1120.319,1852.258,1089.401,1847.355,1056.92z"/>
	<path style="fill:#F59D1E;" d="M764.393,1441.844c-1.197,1.765-2.486,3.465-3.956,5.031c-6.902,7.358-16.588,9.083-25,3.157
		c-9.176-6.465-14.715-17.593-18.499-27.844c-4.95-13.41-6.293-27.245-4.328-41.398c2.49-17.936,8.761-35.05,12.063-52.82
		c1.601-8.62,2.663-17.806,1.108-26.511c-1.429-8-3.461-15.978-6.218-23.625c-3.702-10.27-9.269-20.648-18.329-27.15
		c-15.032-10.786-35.255-8.905-52.76-9.679c-10.536-0.466-21.134-1.538-31.311-4.421c-11.947-3.385-25.508-9.219-34.037-18.461
		c-8.484-9.195-9.421-20.899-9.694-32.82c-0.146-6.353-0.347-12.705-1.857-18.908c-1.862-7.644-5.801-14.335-10.507-20.577
		c-8.831-11.712-20.807-19.903-34.134-25.738c-13.394-5.865-27.794-10.691-41.96-14.297c-26.469-6.738-54.426-7.115-80.357-16.036
		c-21.988-7.565-34.012-28.875-54.362-37.189c-1.591-0.771-3.216-1.465-4.91-1.989c-12.244-3.783-22.621-0.23-31.835,8.142
		c-7.694,6.991-14.366,15.544-23.956,20.079c-1.927,0.911-4.85,0.318-5.314-2.162c-6.044-32.338-21.446-61.972-28.605-93.891
		c-1.313,3.946-2.218,8.153-2.527,12.715c-1.381,20.386,6.034,40.206,12.886,59.456c6.851,19.25,19.728,37.4,16.451,57.568
		c-2.72,16.744-4.317,19.81-11.051,35.379c-5.128,11.854-3.039,68.757,21.168,52.593c4.883-3.26,7.667-8.821,9.839-14.275
		c12.487-31.347-8.911-49.205-3.528-81.515c1.528-9.164,3.619-18.566,9.108-26.061c5.488-7.495,16.585-8.091,25.527-5.571
		c9.268,2.612,18.223,5.174,42.748,20.001c8.678,6.988,19.25,12.67,32.161,18.573c40.966,18.73,97.955,8.661,124.034,45.389
		c13.778,19.403,13.648,46.679,29.276,64.626c28.559,32.797,86.402,12.893,122.01,37.86c39.431,27.648,27.793,87.768,13.691,133.815
		c-14.102,46.047-19.589,108.949,23.779,129.887c6.221,3.004,13.466,4.755,20.051,2.664c6.367-2.022,11.165-7.317,14.732-12.965
		C769.067,1492.171,768.835,1466.398,764.393,1441.844z"/>
	<path style="fill:#FFDF0F;" d="M403.096,985.76c23.15,28.145,65.109,28.107,100.283,37.639
		c44.611,12.09,81.796,41.973,120.24,67.632c38.444,25.66,82.781,48.4,128.697,43.1c-30.775-28.455-67.435-49.619-103.756-70.536
		c-28.618-16.481-57.237-32.963-85.855-49.444c-13.005-7.49-26.341-15.104-41.109-17.778c-18.33-3.319-38.162,1.106-55.194-6.438
		c-22.981-10.179-33.91-51.2-57.503-56.068C378.556,927.606,389.938,969.762,403.096,985.76z"/>
	<path style="fill:#F59D1E;" d="M1250.016,1216.861c-14.364-15.727-39.6-12.203-60.293-7.153
		c-67.74,16.531-136.849,36.047-206.092,27.819c-24.413-2.902-51.727-11.201-75.789-4.701c9.446,43.75,124.671,41.263,158.597,39.67
		c32.797-1.54,65.406-7.116,96.813-16.7C1171.088,1253.405,1251.128,1218.078,1250.016,1216.861z"/>
	<path style="fill:#F59D1E;" d="M1696.091,912.234c-6.821,12.659-11.9,26.316-20.139,38.101
		c-19.77,28.281-54.195,41.518-85.96,54.994c-31.766,13.476-65.363,31.259-78.622,63.116c18.565-2.378,35.499-11.519,51.714-20.866
		c89.259-51.457,171.905-114.37,245.269-186.707c3.2-3.156,6.532-6.596,7.437-10.997c6.847-33.293-46.041-6.805-55.581-1.165
		C1733.487,864.504,1710.987,884.588,1696.091,912.234z"/>
	<path style="fill:#F59D1E;" d="M1387.426,1128.241c-0.324,6.193-6.455,10.325-11.622,13.755
		c-8.772,5.823-17.544,11.646-26.316,17.469c-7.131,4.734-18.582,8.566-22.632,1.026c-3.205-5.968,2.209-12.773,7.182-17.374
		c9.858-9.12,19.717-18.24,29.575-27.361C1363.614,1115.755,1388.816,1101.668,1387.426,1128.241z"/>
	<path style="fill:#FFDF0F;" d="M826.938,1039.664c16.472,15.973,39.658,22.5,61.816,28.459
		c26.223,7.053,52.446,14.106,78.669,21.159c5.855,13.726-6.005,29.864-20.381,33.866c-14.376,4.001-29.634-0.636-43.588-5.925
		c-38.853-14.728-257.558-112.73-248.823-142.256c10.227-34.568,89.709-37.821,112.674-23.463
		C797.923,970.648,801.671,1015.163,826.938,1039.664z"/>
	<path style="fill:#FFDF0F;" d="M1455.504,896.403c-16.877,18.266-26.154,42.322-41.748,61.695
		c-16.564,20.579-39.439,34.93-61.866,48.891c-56.754,35.329-115.268,71.356-181.043,83.307c-30.122,5.474-61.277,5.77-90.54,14.769
		c-7.697,2.367-16.151,6.291-18.415,14.018c-4.994,17.039,21.638,23.635,39.089,20.359
		c226.654-42.549,422.681-179.177,610.914-312.41c30.45-21.552,63.076-46.194,71.891-82.443
		c-2.136,8.786-84.021,44.748-96.587,53.534c-23.945,16.743-45.762,38.427-73.775,48.359
		C1559.845,865.478,1498.612,849.744,1455.504,896.403z"/>
	<path style="fill:#FFED00;" d="M1770.735,964.029c-10.822,6.669-21.972,13.648-29.109,24.166
		c-6.57,9.684-9.144,21.525-14.794,31.772c-15.874,28.791-52.424,39.909-72.104,66.244c4.451,2.772,10.15-0.136,14.546-2.995
		c12.623-8.212,25.246-16.423,37.87-24.635c14.227-9.255,29.055-19.154,36.936-34.186c5.169-9.858,7.023-21.408,13.56-30.416
		c6.088-8.39,15.504-13.583,24.391-18.919c20.155-12.104,39.073-26.264,56.366-42.191
		C1819.705,922.198,1785.948,954.653,1770.735,964.029z"/>
	<path style="fill:#FFED00;" d="M1451.136,1140.715c-22.592,28.938-25.263,73.966-57.131,92.193
		c-17.819,10.192-40.123,8.658-59.04,16.629c1.406,9.018,11.054,14.982,20.181,14.999c9.127,0.017,17.627-4.53,25.147-9.703
		c12.005-8.258,22.606-18.364,33.149-28.422c11.038-10.53,22.256-21.292,29.544-34.693c5.667-10.42,8.753-22.085,14.421-32.504
		c9.314-17.121,25.704-30.25,44.446-35.6c14.589-4.165,49.519-3.037,55.091-19.263
		C1521.644,1097.202,1473.595,1111.949,1451.136,1140.715z"/>
	<path style="fill:#FFED00;" d="M1179.759,1325.226c-11.209,22.026-13.243,48.548-5.523,72.026
		c4.356,13.248,11.39,28.725,3.091,39.933c-5.108,6.9-14.705,9.212-23.188,7.897c-8.484-1.315-16.162-5.628-23.629-9.866
		c9.634,17.7,19.269,35.4,28.903,53.099c1.38,2.536,2.829,5.153,5.142,6.88c4.422,3.303,10.984,2.341,15.418-0.948
		c4.434-3.288,7.127-8.395,9.219-13.503c9.123-22.279,9.368-47.107,8.287-71.157c-1.081-24.051-3.332-48.386,1.233-72.024
		c4.473-23.159,16.369-38.643,31.661-55.184C1210.506,1280.839,1188.123,1308.791,1179.759,1325.226z"/>
	<path style="fill:#FFED00;" d="M1057.496,1371.343c-0.299,9.269-3.916,18.102-5.215,27.284c-1.803,12.742,1.188,26.364,9.29,36.364
		c8.101,10,21.509,15.845,34.194,13.675c0.813-0.139,1.65-0.322,2.309-0.817c1.791-1.345,1.31-4.34-0.295-5.901
		c-1.605-1.562-3.891-2.136-6.001-2.887c-8.769-3.121-15.938-10.437-18.881-19.268c-2.917-8.755-1.771-18.266-0.87-27.45
		c1.473-15.019,2.13-30.611-3.105-44.764c-2.607-7.047-22.18-35.867-28.672-20.622
		C1037.691,1332.968,1057.843,1360.613,1057.496,1371.343z"/>
	<path style="fill:#FFED00;" d="M900.416,1305.279c-26.972-5.408-47.207-28.394-73.384-36.85
		c-35.355-11.42-77.905,9.734-90.141,44.815c0.935-16.638,2.875-34.691,14.389-46.738c12.108-12.668,31.289-15.003,48.81-15.318
		c22.964-0.413,46.763,1.564,66.986,12.452c9.789,5.271,18.553,12.537,28.97,16.425c9.412,3.513,41.06,0.896,41.568,13.065
		C938.273,1308.9,908.897,1306.98,900.416,1305.279z"/>
	<path style="fill:#FFED00;" d="M685.566,1219.77c-25.808-10.099-58.971,7.073-81.039-9.692
		c-14.964-11.369-16.835-32.77-17.425-51.553c-0.108-3.446,0.029-7.444,2.761-9.547c3.003-2.31,7.668-0.795,9.997,2.193
		c2.329,2.989,2.926,6.935,3.407,10.693c0.953,7.442,1.857,15.189,5.862,21.534c7.873,12.475,24.779,15.37,39.52,14.795
		c14.74-0.575,30.179-3.275,43.762,2.479c8.963,3.797,31.771,23.753,25.175,35.539
		C711.111,1247.784,694.972,1223.451,685.566,1219.77z"/>
	<path style="fill:#FFED00;" d="M384.732,1064.463c18.688,14.662,45.048,12.476,68.664,9.913
		c23.615-2.563,50.28-3.866,68.072,11.872c5.053,4.47,9.03,10.077,14.237,14.367c5.207,4.29,12.355,7.194,18.704,4.911
		c-10.141-25.854-35.403-45.111-63.02-48.039c-28.907-3.065-60.195,10.067-86.13-3.061c-8.739-4.424-26.524-30.94-33.573-28.564
		C354.995,1031.489,378.959,1059.934,384.732,1064.463z"/>
</g>
</svg>
