<?xml version="1.0" encoding="utf-8"?>
<!-- Generator: Adobe Illustrator 27.5.0, SVG Export Plug-In . SVG Version: 6.00 Build 0)  -->
<svg version="1.1" id="_xB9_Ã_xBC_h_x5F_1" xmlns="http://www.w3.org/2000/svg" xmlns:xlink="http://www.w3.org/1999/xlink"
	 x="0px" y="0px" viewBox="0 0 4000 4000" style="enable-background:new 0 0 4000 4000;" xml:space="preserve">

<g>
	<g>
		<g>
			<g>
				<path style="fill:#E0E0E0;" d="M2255.872,795.006v133.664h-511.733V795.006c0-14.485,11.739-26.249,26.249-26.249h459.21
					C2244.107,768.757,2255.872,780.521,2255.872,795.006z"/>
				<g>
					<path style="fill:#D3D3D3;" d="M2368.451,958.824v172.383h-736.892V958.824c0-16.651,12.974-30.154,28.97-30.154h678.977
						C2355.503,928.671,2368.451,942.173,2368.451,958.824z"/>
					<g>
						<path style="fill:#E0E0E0;" d="M2319.339,1110.57L2319.339,1110.57c-7.096,0-12.902-5.806-12.902-12.902V962.196
							c0-7.096,5.806-12.902,12.902-12.902l0,0c7.096,0,12.902,5.806,12.902,12.902v135.472
							C2332.241,1104.764,2326.435,1110.57,2319.339,1110.57z"/>
						<path style="fill:#E0E0E0;" d="M2261.279,1110.57L2261.279,1110.57c-7.096,0-12.902-5.806-12.902-12.902V962.196
							c0-7.096,5.806-12.902,12.902-12.902l0,0c7.096,0,12.902,5.806,12.902,12.902v135.472
							C2274.181,1104.764,2268.375,1110.57,2261.279,1110.57z"/>
						<path style="fill:#E0E0E0;" d="M2203.22,1110.57L2203.22,1110.57c-7.096,0-12.902-5.806-12.902-12.902V962.196
							c0-7.096,5.806-12.902,12.902-12.902l0,0c7.096,0,12.902,5.806,12.902,12.902v135.472
							C2216.122,1104.764,2210.316,1110.57,2203.22,1110.57z"/>
						<path style="fill:#E0E0E0;" d="M2145.161,1110.57L2145.161,1110.57c-7.096,0-12.902-5.806-12.902-12.902V962.196
							c0-7.096,5.806-12.902,12.902-12.902l0,0c7.096,0,12.902,5.806,12.902,12.902v135.472
							C2158.063,1104.764,2152.257,1110.57,2145.161,1110.57z"/>
						<path style="fill:#E0E0E0;" d="M2087.101,1110.57L2087.101,1110.57c-7.096,0-12.902-5.806-12.902-12.902V962.196
							c0-7.096,5.806-12.902,12.902-12.902l0,0c7.096,0,12.902,5.806,12.902,12.902v135.472
							C2100.003,1104.764,2094.198,1110.57,2087.101,1110.57z"/>
						<path style="fill:#E0E0E0;" d="M2029.042,1110.57L2029.042,1110.57c-7.096,0-12.902-5.806-12.902-12.902V962.196
							c0-7.096,5.806-12.902,12.902-12.902h0c7.096,0,12.902,5.806,12.902,12.902v135.472
							C2041.944,1104.764,2036.138,1110.57,2029.042,1110.57z"/>
						<path style="fill:#E0E0E0;" d="M1912.923,1110.57L1912.923,1110.57c-7.096,0-12.902-5.806-12.902-12.902V962.196
							c0-7.096,5.806-12.902,12.902-12.902h0c7.096,0,12.902,5.806,12.902,12.902v135.472
							C1925.825,1104.764,1920.019,1110.57,1912.923,1110.57z"/>
						<path style="fill:#E0E0E0;" d="M1796.805,1110.57L1796.805,1110.57c-7.096,0-12.902-5.806-12.902-12.902V962.196
							c0-7.096,5.806-12.902,12.902-12.902h0c7.096,0,12.902,5.806,12.902,12.902v135.472
							C1809.707,1104.764,1803.901,1110.57,1796.805,1110.57z"/>
						<path style="fill:#E0E0E0;" d="M1970.983,1110.57L1970.983,1110.57c-7.096,0-12.902-5.806-12.902-12.902V962.196
							c0-7.096,5.806-12.902,12.902-12.902l0,0c7.096,0,12.902,5.806,12.902,12.902v135.472
							C1983.885,1104.764,1978.079,1110.57,1970.983,1110.57z"/>
						<path style="fill:#E0E0E0;" d="M1854.864,1110.57L1854.864,1110.57c-7.096,0-12.902-5.806-12.902-12.902V962.196
							c0-7.096,5.806-12.902,12.902-12.902l0,0c7.096,0,12.902,5.806,12.902,12.902v135.472
							C1867.766,1104.764,1861.96,1110.57,1854.864,1110.57z"/>
						<path style="fill:#E0E0E0;" d="M1738.745,1110.57L1738.745,1110.57c-7.096,0-12.902-5.806-12.902-12.902V962.196
							c0-7.096,5.806-12.902,12.902-12.902l0,0c7.096,0,12.902,5.806,12.902,12.902v135.472
							C1751.647,1104.764,1745.841,1110.57,1738.745,1110.57z"/>
						<path style="fill:#E0E0E0;" d="M1680.686,1110.57L1680.686,1110.57c-7.096,0-12.902-5.806-12.902-12.902V962.196
							c0-7.096,5.806-12.902,12.902-12.902l0,0c7.096,0,12.902,5.806,12.902,12.902v135.472
							C1693.588,1104.764,1687.782,1110.57,1680.686,1110.57z"/>
					</g>
				</g>
				<g>
					<polygon style="fill:#E8E8E8;" points="2146.555,768.757 1853.456,768.757 1926.031,374.339 2073.979,374.339 					"/>
					<path style="fill:#FFFFFF;" d="M1911.821,746.917L1911.821,746.917c-6.166-0.923-10.456-6.723-9.534-12.889l48.09-321.388
						c0.923-6.166,6.723-10.456,12.889-9.534h0c6.166,0.923,10.456,6.723,9.534,12.889l-48.09,321.388
						C1923.787,743.55,1917.987,747.84,1911.821,746.917z"/>
				</g>
			</g>
			<g>
				<path style="fill:#A3422C;" d="M2415.226,1589.586h-796.897c50.256-220.397,102.704-388.801,125.477-458.378h586.979
					C2347.714,1211.391,2381.193,1377.577,2415.226,1589.586z"/>
				<path style="fill:#B55040;" d="M1929.415,3624.678c-132.228-3.728-237.225-17.356-310.506-30.456
					c-71.014-12.797-125.981-71.971-135.503-146.486l-57.108-451.023h123.814
					C1608.076,3252.252,1724.107,3476.856,1929.415,3624.678z"/>
				<path style="fill:#872A21;" d="M2573.704,2996.713l-57.109,451.023c-9.421,74.515-64.388,133.689-135.528,146.486
					c-12.042,2.141-24.914,4.307-38.643,6.449c95.5-144.648,145.076-359.553,164.952-603.958H2573.704z"/>
				<path style="fill:#A3422C;" d="M2507.375,2996.713c-19.875,244.405-69.452,459.31-164.952,603.958h-0.025
					c-84.138,13.099-199.816,24.99-342.348,24.99c-24.335,0-47.888-0.353-70.636-0.983
					c-205.308-147.822-321.338-372.426-379.303-627.965H2507.375z"/>
				<path style="fill:#FFEAE9;" d="M1531.596,2902.675h-117.189c-31.363-260.754-22.219-525.059,27.333-782.74l83.811-436.512
					h72.223C1523.107,2039.298,1463.63,2500.75,1531.596,2902.675z"/>
				<path style="fill:#FFEAE9;" d="M1550.111,2996.713h-123.84l-5.542-43.656h120.111
					C1543.738,2967.719,1546.837,2982.253,1550.111,2996.713z"/>
				<path style="fill:#FFC7C7;" d="M2579.22,2953.057l-5.542,43.656h-66.303c1.184-14.434,2.267-28.995,3.25-43.656H2579.22z"/>
				<path style="fill:#FFC7C7;" d="M2585.543,2902.675h-71.996c15.216-301.614-9.396-638.344-45.646-939.555
					c-4.232-35.217-8.641-69.931-13.15-104.065c-8.011-60.635-16.4-119.406-24.889-175.633h44.639l83.811,436.512
					C2607.762,2377.59,2617.007,2641.921,2585.543,2902.675z"/>
				<path style="fill:#FFDAD7;" d="M2513.547,2902.675c-0.831,16.903-1.814,33.705-2.922,50.382
					c-0.982,14.662-2.066,29.222-3.25,43.656h-957.264c-3.275-14.46-6.373-28.995-9.27-43.656
					c-3.325-16.677-6.398-33.479-9.245-50.382c-44.236-261.56-34.487-548.361-1.688-814.833c1.007-8.364,2.066-16.677,3.149-24.99
					c1.662-12.948,3.375-25.796,5.164-38.618v-0.025c1.814-13.175,3.678-26.274,5.592-39.323v-0.025
					c1.335-9.119,2.696-18.188,4.081-27.231c0.176-1.109,0.353-2.217,0.504-3.325c1.385-8.968,2.796-17.911,4.207-26.803
					c1.335-8.465,2.721-16.853,4.081-25.242v-0.026c0.151-0.755,0.252-1.511,0.378-2.242c1.008-5.996,1.99-11.941,2.998-17.885
					c0.403-2.394,0.806-4.761,1.234-7.129c1.663-9.875,3.376-19.725,5.114-29.499c9.9-55.925,20.455-110.111,31.363-162.055
					c3.577-17.055,7.205-33.857,10.832-50.382c3.224-14.712,6.474-29.197,9.724-43.455h796.897
					c2.292,14.283,4.584,28.768,6.877,43.455c2.595,16.551,5.164,33.353,7.759,50.382c8.489,56.227,16.878,114.997,24.889,175.633
					c4.509,34.134,8.917,68.848,13.15,104.065C2504.151,2264.331,2528.763,2601.061,2513.547,2902.675z"/>
				<path style="fill:#A3422C;" d="M2429.862,1683.423h-832.089c3.577-17.055,7.205-33.857,10.832-50.382h813.498
					C2424.698,1649.591,2427.268,1666.394,2429.862,1683.423z"/>
				<path style="fill:#B55040;" d="M1540.841,2953.057H1420.73l-4.383-34.587c-0.655-5.265-1.31-10.53-1.94-15.795h117.189
					C1534.443,2919.578,1537.516,2936.38,1540.841,2953.057z"/>
				<path style="fill:#872A21;" d="M2585.543,2902.675c-0.63,5.264-1.26,10.53-1.94,15.795l-4.383,34.587h-68.595
					c1.108-16.677,2.091-33.479,2.922-50.382H2585.543z"/>
				<path style="fill:#A3422C;" d="M2513.547,2902.675c-0.831,16.903-1.814,33.705-2.922,50.382h-969.784
					c-3.325-16.677-6.398-33.479-9.245-50.382H2513.547z"/>
				<path style="fill:#B55040;" d="M1743.806,1131.208c-22.773,69.578-75.221,237.981-125.477,458.378h-74.793l88.018-458.378
					H1743.806z"/>
				<path style="fill:#FFEAE9;" d="M1618.329,1589.586c-3.25,14.258-6.499,28.743-9.724,43.455h-73.382l8.338-43.455H1618.329z"/>
				<path style="fill:#B55040;" d="M1608.605,1633.041c-3.628,16.526-7.255,33.328-10.832,50.382h-72.223l9.673-50.382H1608.605z"/>
				<path style="fill:#872A21;" d="M2456.464,1589.586h-41.238c-34.033-212.009-67.513-378.195-84.441-458.378h37.661
					L2456.464,1589.586z"/>
				<path style="fill:#FFC7C7;" d="M2464.828,1633.041h-42.724c-2.292-14.687-4.585-29.172-6.877-43.455h41.263L2464.828,1633.041z"
					/>
				<path style="fill:#872A21;" d="M2474.501,1683.423h-44.639c-2.595-17.029-5.164-33.832-7.759-50.382h42.724L2474.501,1683.423z"
					/>
			</g>
		</g>
		<g>
			<g>
				<g>
					<path style="fill:#FFF5F5;" d="M1853.619,1983.343c-11.016,0-21.51-0.622-32.08-1.902
						c-11.467-1.389-20.091-11.122-20.091-22.672v-145.316c0-10.81,7.578-20.139,18.157-22.353
						c10.529-2.203,25.559-3.573,39.226-3.573c26.074,0,45.972,6.508,59.142,19.34c10.716,10.442,16.38,24.396,16.38,40.358
						c0,11.091-3.197,21.439-9.016,30.26c9.073,10.536,14.225,24.189,14.225,39.408c0,12.672-3.457,30.98-19.896,46.324
						C1905.282,1976.947,1884.288,1983.343,1853.619,1983.343z"/>
					<path style="fill:#FFF5F5;" d="M1969.8,1983.343c-11.016,0-21.51-0.622-32.08-1.902c-11.467-1.389-20.091-11.122-20.091-22.672
						v-145.316c0-10.81,7.578-20.139,18.157-22.353c10.529-2.203,25.559-3.573,39.226-3.573c26.073,0,45.971,6.508,59.141,19.34
						c10.716,10.442,16.381,24.396,16.381,40.358c0,11.091-3.196,21.439-9.017,30.26c9.072,10.536,14.226,24.189,14.226,39.408
						c0,12.672-3.457,30.98-19.896,46.324C2021.463,1976.947,2000.467,1983.343,1969.8,1983.343z"/>
					<path style="fill:#FFF5F5;" d="M2168.969,2004.189c-2.07,0-4.168-0.283-6.249-0.874c-16.825-4.779-35.048-10.986-54.165-18.448
						c-0.459-0.178-0.915-0.372-1.361-0.58c-0.192-0.091-0.354-0.163-0.488-0.221c-40.365-1.847-80.81-32.644-80.81-97.665
						c0-58.898,35.659-100.031,86.715-100.031c49.578,0,84.204,40.023,84.204,97.328c0,22.518-4.924,42.336-13.963,58.01
						c5.504,1.811,10.147,5.66,12.938,10.805c3.158,5.823,3.633,12.73,1.3,18.93l-6.753,17.947
						C2186.915,1998.482,2178.258,2004.189,2168.969,2004.189z"/>
				</g>
				<g>
					<path style="fill:#A3422C;" d="M1887.198,1880.033c15.438,3.86,29.526,16.211,29.526,36.861
						c0,15.631-7.333,24.702-12.737,29.718c-9.842,9.458-26.053,13.896-50.369,13.896c-13.123,0-22.964-0.966-29.334-1.737v-145.316
						c8.299-1.737,21.421-3.089,34.546-3.089c44.963,0,52.684,22.001,52.684,36.861c0,14.088-8.878,26.439-24.316,32.229V1880.033z
						 M1860.179,1873.086c17.755,0,28.948-9.842,28.948-23.544c0-17.755-14.28-22.193-28.177-22.193
						c-7.333,0-11.771,0.58-14.472,1.157v44.58H1860.179z M1846.479,1942.559c3.281,0.58,7.719,0.772,13.508,0.772
						c17.947,0,33.386-7.525,33.386-27.017c0-19.492-16.791-26.631-33.966-26.631h-12.928V1942.559z"/>
					<path style="fill:#A3422C;" d="M2003.379,1880.033c15.438,3.86,29.526,16.211,29.526,36.861
						c0,15.631-7.333,24.702-12.737,29.718c-9.842,9.458-26.053,13.896-50.369,13.896c-13.123,0-22.964-0.966-29.334-1.737v-145.316
						c8.299-1.737,21.421-3.089,34.546-3.089c44.963,0,52.684,22.001,52.684,36.861c0,14.088-8.879,26.439-24.316,32.229V1880.033z
						 M1976.36,1873.086c17.755,0,28.948-9.842,28.948-23.544c0-17.755-14.28-22.193-28.177-22.193
						c-7.333,0-11.771,0.58-14.472,1.157v44.58H1976.36z M1962.66,1942.559c3.281,0.58,7.719,0.772,13.508,0.772
						c17.947,0,33.386-7.525,33.386-27.017c0-19.492-16.791-26.631-33.966-26.631h-12.929V1942.559z"/>
					<path style="fill:#A3422C;" d="M2137.506,1953.753c12.737,3.86,26.825,7.141,38.21,9.65l-6.753,17.947
						c-18.334-5.21-36.281-11.579-52.107-17.755c-2.895-1.351-5.79-2.315-8.49-2.315c-32.421-1.158-59.631-26.439-59.631-74.877
						c0-46.703,25.665-77.194,63.878-77.194c38.596,0,61.369,31.649,61.369,74.491c0,37.247-15.054,60.983-36.475,69.282V1953.753z
						 M2072.279,1885.823c0,30.106,14.086,57.122,38.982,57.122c25.667,0,39.176-26.631,39.176-58.28
						c0-28.562-12.351-57.122-38.598-57.122C2084.63,1827.543,2072.279,1856.683,2072.279,1885.823z"/>
				</g>
			</g>
			<g>
				<g>
					<path style="fill:#FFF5F5;" d="M1750.078,2225.644c-17.959,0-36.994-5.022-48.491-12.797
						c-8.069-5.453-11.79-15.427-9.269-24.833l5.018-18.718c1.863-6.949,6.894-12.614,13.574-15.288
						c2.734-1.095,5.615-1.635,8.484-1.635c4.142,0,8.262,1.126,11.891,3.339c4.362,2.661,12.284,5.346,20.144,5.346
						c1.786,0,3.13-0.174,4.069-0.375c-1.156-0.983-3.995-2.95-10.438-5.649c-42.156-17.061-51.012-43.879-51.012-63.385
						c0-36.939,29.813-63.751,70.889-63.751c20.44,0,34.792,5.821,41.529,9.291c9.72,5.005,14.528,16.2,11.467,26.696l-5.404,18.526
						c-1.949,6.682-6.838,12.11-13.279,14.744c-2.779,1.135-5.716,1.699-8.644,1.699c-3.862,0-7.708-0.979-11.16-2.913
						c-1.059-0.593-4.077-2.116-8.477-2.995c1.338,0.627,2.859,1.313,4.588,2.061c12.168,5.341,48.885,21.457,48.885,64.571
						C1824.442,2198.478,1793.863,2225.644,1750.078,2225.644z"/>
					<path style="fill:#FFF5F5;" d="M1909.101,2223.521c-10.034,0-18.892-6.548-21.834-16.142l-8.367-27.28h-11.173l-7.925,27.014
						c-2.854,9.726-11.778,16.408-21.914,16.408h-22.964c-7.24,0-14.052-3.435-18.359-9.255s-5.598-13.339-3.479-20.261
						l45.159-147.631c2.936-9.601,11.799-16.158,21.838-16.158h27.402c10.039,0,18.902,6.557,21.838,16.158l45.157,147.631
						c2.119,6.923,0.827,14.441-3.479,20.261c-4.306,5.821-11.119,9.255-18.359,9.255H1909.101z"/>
					<path style="fill:#FFF5F5;" d="M2003.666,2225.644c-46.082,0-73.593-31.622-73.593-84.592v-88
						c0-12.612,10.224-22.837,22.837-22.837h22.387c12.612,0,22.837,10.225,22.837,22.837h13.571
						c0-12.612,10.226-22.837,22.837-22.837h22.385c12.612,0,22.837,10.225,22.837,22.837v87.42
						C2079.765,2193.803,2051.317,2225.644,2003.666,2225.644z"/>
					<path style="fill:#FFF5F5;" d="M2205.15,2223.521c-12.612,0-22.837-10.226-22.837-22.837v-147.631
						c0-12.612,10.226-22.837,22.837-22.837h77.194c12.612,0,22.837,10.225,22.837,22.837v18.718
						c0,10.364-6.903,19.115-16.363,21.907c7.837,3.617,13.274,11.546,13.274,20.743v18.526c0,12.612-10.226,22.837-22.837,22.837
						h-28.881v3.341h35.251c12.612,0,22.837,10.226,22.837,22.837v18.72c0,12.612-10.226,22.837-22.837,22.837H2205.15z"/>
					<path style="fill:#FFF5F5;" d="M2148.217,2225.644c-54.751,0-91.539-39.035-91.539-97.137c0-30.043,9.532-55.526,27.568-73.693
						c17.106-17.233,41.194-26.722,67.83-26.722c23.491,0,37.236,5.872,42.055,8.399c9.432,4.94,14.198,15.743,11.488,26.04
						l-4.824,18.332c-1.724,6.552-6.271,12.003-12.409,14.874c-3.066,1.434-6.372,2.152-9.677,2.152
						c-3.312,0-6.621-0.72-9.692-2.159c-3.158-1.481-8.526-3.245-16.167-3.245c-17.884,0-26.952,11.731-26.952,34.865
						c0,33.708,19.3,33.708,26.566,33.708c7.75,0,14.336-1.793,16.666-2.924c3.147-1.526,6.557-2.288,9.965-2.288
						c3.426,0,6.851,0.77,10.011,2.311c6.301,3.073,10.843,8.872,12.315,15.728l3.858,17.949c2.19,10.19-2.794,20.567-12.117,25.228
						C2182.409,2222.435,2165.606,2225.644,2148.217,2225.644z"/>
				</g>
				<g>
					<path style="fill:#A3422C;" d="M1790.603,2076.017c-4.826-2.703-14.088-6.561-26.247-6.561
						c-17.561,0-24.894,10.228-24.894,19.684c0,12.543,8.299,18.718,27.017,26.825c23.738,10.42,35.124,23.35,35.124,43.614
						c0,24.702-18.335,43.228-51.527,43.228c-13.894,0-28.562-4.052-35.701-8.878l5.018-18.718
						c7.911,4.824,19.876,8.685,32.035,8.685c17.561,0,27.403-9.07,27.403-22.387c0-12.543-7.525-20.264-25.088-27.597
						c-21.999-8.876-36.859-22.193-36.859-42.262c0-23.35,18.718-40.913,48.052-40.913c14.088,0,24.702,3.475,31.071,6.755
						L1790.603,2076.017z"/>
					<path style="fill:#A3422C;" d="M1932.641,2200.684h-23.542l-13.317-43.422h-45.157l-12.739,43.422h-22.964l45.16-147.631
						h27.403L1932.641,2200.684z M1892.116,2140.087l-11.579-38.596c-2.703-9.65-5.21-20.07-7.333-29.14h-0.386
						c-2.123,9.07-4.44,19.876-6.947,28.946l-11.773,38.79H1892.116z"/>
					<path style="fill:#A3422C;" d="M2056.928,2140.472c0,43.808-21.807,62.334-53.262,62.334c-30.3,0-50.755-17.755-50.755-61.755
						v-88h22.387v89.351c0,29.526,12.157,42.069,29.14,42.069c18.526,0,30.106-12.737,30.106-42.069v-89.351h22.385V2140.472z"/>
					<path style="fill:#A3422C;" d="M2182.953,2196.631c-6.176,3.087-18.718,6.176-34.736,6.176
						c-41.105,0-68.702-27.211-68.702-74.3c0-50.175,31.649-77.578,72.56-77.578c16.983,0,27.405,3.667,31.457,5.79l-4.824,18.333
						c-6.176-2.895-14.86-5.404-25.859-5.404c-28.562,0-49.789,19.298-49.789,57.702c0,36.281,18.912,56.545,49.404,56.545
						c10.034,0,20.261-2.123,26.631-5.212L2182.953,2196.631z"/>
					<path style="fill:#A3422C;" d="M2285.625,2200.684h-80.473v-147.631h77.192v18.718h-54.807v42.651h51.721v18.526h-51.721
						v49.016h58.088V2200.684z"/>
				</g>
			</g>
		</g>
	</g>
	<g>
		<ellipse style="fill:#FFC0BD;" cx="2068.525" cy="2795.612" rx="217.903" ry="51.642"/>
		<g>
			<g>
				<path style="fill:#878787;" d="M2070.385,2683.39L2070.385,2683.39c-2.695,0.646-5.428-1.03-6.074-3.724l-70.509-293.956
					c-0.646-2.695,1.03-5.428,3.724-6.074h0c2.694-0.646,5.428,1.03,6.074,3.724l70.509,293.956
					C2074.755,2680.01,2073.08,2682.744,2070.385,2683.39z"/>
				<path style="fill:#727272;" d="M2098.589,2800.973L2098.589,2800.973c-11.452,2.747-23.07-4.375-25.816-15.827l-26.441-110.233
					c-2.747-11.452,4.375-23.069,15.828-25.816l0,0c11.452-2.747,23.069,4.375,25.816,15.828l26.441,110.233
					C2117.163,2786.608,2110.041,2798.226,2098.589,2800.973z"/>
			</g>
			<g>
				<path style="fill:#C4401C;" d="M1936.394,2492.957c-28.761,3.422-58.038,3.411-85.259-3.972
					c-34.431-9.339-78.556-37.33-65.498-79.513c9.09-29.365,44.242-38.684,71.618-38.848c31.196-0.187,60.725,1.804,91.542-5.319
					c48.82-11.285,103.125-31.35,141.298-64.702c33.268-29.066,84.474-2.634,86.643,39.205
					c1.894,36.532-23.137,65.935-51.489,85.719c-40.203,28.054-86.628,46.556-134.25,57.517
					C1973.482,2487.075,1955.047,2490.738,1936.394,2492.957z"/>
				<g>
					<path style="fill:#A02912;" d="M2053.608,2335.083c0,0,40.475-9.853,54.012,23.875
						C2117.982,2330.987,2086.56,2316.856,2053.608,2335.083z"/>
					<path style="fill:#A02912;" d="M1962.946,2368.745c0,0,41.353-5.025,50.83,30.061
						C2027.355,2372.247,1997.813,2354.52,1962.946,2368.745z"/>
					<path style="fill:#A02912;" d="M1853.872,2385.201c0,0,41.887,1.547,51.365,36.632
						C1918.816,2395.275,1888.739,2370.976,1853.872,2385.201z"/>
				</g>
			</g>
		</g>
	</g>
</g>
</svg>
