<svg id="Layer_3" height="512" viewBox="0 0 64 64" width="512" xmlns="http://www.w3.org/2000/svg" data-name="Layer 3"><path d="m13 8v12l-7.2 6a5 5 0 0 0 -1.8 3.842v27.158a5 5 0 0 0 5 5h18a5 5 0 0 0 5-5v-26.755a5 5 0 0 0 -1.678-3.737l-7.322-6.508v-12z" fill="#ab2a25"/><path d="m30.322 26.508-7.322-6.508v-12h-10v12l-7 5.833v3.967a29.2 29.2 0 0 0 25.659 28.978 4.955 4.955 0 0 0 .341-1.778v-26.755a5 5 0 0 0 -1.678-3.737z" fill="#d23f33"/><path d="m8 33h20v23h-20z" fill="#bce4f8"/><path d="m8 33h20v23h-20z" fill="#e3e8f6"/><path d="m8 40.414a29.3 29.3 0 0 0 14.309 15.586h5.691v-23h-20z" fill="#f8f7fe"/><circle cx="18" cy="47" fill="#ab2a25" r="5"/><path d="m18 42a4.942 4.942 0 0 1 2.1.479l.9-4.479-3 1-3-1 .9 4.479a4.942 4.942 0 0 1 2.1-.479z" fill="#539a36"/><path d="m18 42a4.959 4.959 0 0 0 -2.988 1.012 4.979 4.979 0 0 0 6.976 6.976 4.979 4.979 0 0 0 -3.988-7.988z" fill="#d23f33"/><rect fill="#f3a744" height="44" rx="2" width="24" x="36" y="18"/><path d="m58 18h-19v12a29 29 0 0 0 21 27.873v-37.873a2 2 0 0 0 -2-2z" fill="#edcb61"/><rect fill="#e3e8f6" height="22" rx="2.536" width="16" x="40" y="34"/><path d="m54.629 55.705a2.527 2.527 0 0 0 1.371-2.241v-16.928a2.535 2.535 0 0 0 -2.536-2.536h-10.928a2.535 2.535 0 0 0 -2.536 2.536v.992a29.034 29.034 0 0 0 14.629 18.177z" fill="#f8f7fe"/><path d="m11 2h14v6h-14z" fill="#cbccca"/><path d="m36 24h24v4h-24z" fill="#cbccca"/><path d="m39 24h21v4h-21z" fill="#e0dee0"/><path d="m41 13h14v5h-14z" fill="#cbccca"/><path d="m45 13 1.783-9.807a1.333 1.333 0 0 1 1.217-1.193 1.333 1.333 0 0 1 1.217 1.193l1.783 9.807z" fill="#cbccca"/><path d="m12 2.161a4.84 4.84 0 0 0 4.839 4.839h8.161v-5h-13z" fill="#e0dee0"/><path d="m43 13.107a2.893 2.893 0 0 0 2.893 2.893h9.107v-3h-12z" fill="#e0dee0"/><path d="m16 38.333v.408a3.259 3.259 0 0 0 3.259 3.259h.941l.8-4-3 1z" fill="#69c147"/><circle cx="20" cy="45" fill="#db655c" r="1"/><path d="m51 42h2v2h-2z"/><path d="m51 50h2v2h-2z"/><path d="m30.986 25.761-6.986-6.21v-10.551h1a1 1 0 0 0 1-1v-6a1 1 0 0 0 -1-1h-14a1 1 0 0 0 -1 1v6a1 1 0 0 0 1 1h1v10.532l-6.842 5.7a5.985 5.985 0 0 0 -2.158 4.61v27.158a6.006 6.006 0 0 0 6 6h18a6.006 6.006 0 0 0 6-6v-26.755a6 6 0 0 0 -2.014-4.484zm-18.986-22.761h12v4h-12zm19 54a4 4 0 0 1 -4 4h-18a4 4 0 0 1 -4-4v-27.158a3.987 3.987 0 0 1 1.439-3.073l7.2-6a1 1 0 0 0 .361-.769v-11h8v11a1 1 0 0 0 .336.748l7.322 6.508a4 4 0 0 1 1.342 2.989z"/><path d="m28 32h-20a1 1 0 0 0 -1 1v23a1 1 0 0 0 1 1h20a1 1 0 0 0 1-1v-23a1 1 0 0 0 -1-1zm-1 23h-18v-21h18z"/><path d="m58 17h-2v-4a1 1 0 0 0 -1-1h-3.166l-1.634-8.986a2.209 2.209 0 0 0 -4.4 0l-1.634 8.986h-3.166a1 1 0 0 0 -1 1v4h-2a3 3 0 0 0 -3 3v40a3 3 0 0 0 3 3h20a3 3 0 0 0 3-3v-40a3 3 0 0 0 -3-3zm-10.233-13.627c.047-.261.193-.373.233-.373s.186.112.233.372l1.567 8.628h-3.6zm-5.767 10.627h12v3h-12zm-4 5h20a1 1 0 0 1 1 1v3h-22v-3a1 1 0 0 1 1-1zm21 6v2h-22v-2zm-1 36h-20a1 1 0 0 1 -1-1v-31h22v31a1 1 0 0 1 -1 1z"/><path d="m53.464 33h-10.928a3.54 3.54 0 0 0 -3.536 3.536v16.928a3.54 3.54 0 0 0 3.536 3.536h10.928a3.54 3.54 0 0 0 3.536-3.536v-16.928a3.54 3.54 0 0 0 -3.536-3.536zm1.536 20.464a1.538 1.538 0 0 1 -1.536 1.536h-10.928a1.538 1.538 0 0 1 -1.536-1.536v-16.928a1.538 1.538 0 0 1 1.536-1.536h10.928a1.538 1.538 0 0 1 1.536 1.536z"/><path d="m43 38h10v2h-10z"/><path d="m43 42h6v2h-6z"/><path d="m43 46h10v2h-10z"/><path d="m43 50h6v2h-6z"/><path d="m18 53a5.995 5.995 0 0 0 3.229-11.049l.751-3.751a1 1 0 0 0 -1.3-1.145l-2.68.891-2.684-.895a1 1 0 0 0 -1.3 1.145l.751 3.755a5.995 5.995 0 0 0 3.233 11.049zm-1.682-13.506 1.366.455a1 1 0 0 0 .632 0l1.366-.455-.333 1.664a5.838 5.838 0 0 0 -2.7 0zm1.682 3.506a4 4 0 1 1 -4 4 4 4 0 0 1 4-4z"/></svg>