<svg id="Layer_1" enable-background="new 0 0 512 512" height="512" viewBox="0 0 512 512" width="512" xmlns="http://www.w3.org/2000/svg"><g><g><path d="m301.4 96.6v-57.1c0-6.1-5-11.1-11.1-11.1h-66.5c-6.1 0-11.1 5-11.1 11.1v57.1c0 31.8-3.4 63.5-10.8 94.3-5.3 21.9-24.4 29.5-34.9 46-7.2 11.4-11 24.5-11 38v177.2c0 12.6 10.2 22.8 22.8 22.8h77.5 1.6 77.5c12.6 0 22.8-10.2 22.8-22.8v-177.2c0-13.5-3.8-26.6-11-38-10.5-16.6-29.7-24.2-34.9-46.1-7.5-30.8-10.9-62.5-10.9-94.2z" fill="#e92933"/></g><g><path d="m347.1 237c-10.5-16.6-29.7-24.2-34.9-46.1-7.4-30.9-10.8-62.6-10.8-94.3v-57.1c0-6.1-5-11.1-11.1-11.1h-26.9c6.1 0 11.1 5 11.1 11.1v57.1c0 31.7 3.4 63.5 10.8 94.3 5.3 21.9 24.4 29.5 34.9 46.1 7.2 11.4 11 24.5 11 38 0 0-.1 107.9-.3 157.6-.1 13.5-11 24.4-24.6 24.4h-149.8c0 7.7 6.3 14 14 14h150.7c-3.6 2.5 14.2 3.9 14.2 3.9 4.7 0 9.1-1.4 12.7-3.9 6.1-4.1 10-11 10-18.9v-177.1c.1-13.5-3.8-26.7-11-38z" fill="#ad1f32"/></g><g><path d="m316.4 446.8h-119.4c-8.2 0-14.9-6.7-14.9-14.9v-98.6c0-37.1 30.1-67.1 67.1-67.1h14.9c37.1 0 67.1 30.1 67.1 67.1v98.6c.1 8.3-6.6 14.9-14.8 14.9z" fill="#f3f7f6"/></g><g><path d="m289.4 271.1c-.2 36.3-11.9 116.4-107.3 144.1v16.7c0 8.2 6.7 14.9 14.9 14.9h119.4c8.2 0 14.9-6.7 14.9-14.9v-98.6c0-28.1-17.4-52.2-41.9-62.2z" fill="#ddcccf"/></g><g><circle cx="254.7" cy="375.6" fill="#e92933" r="50.5"/></g><g><path d="m278.4 331.1c-10.2 26.5-29.7 54-65.8 72.3 9.7 14.7 26.8 23.9 45.6 22.6 27.8-2 48.8-26.1 46.8-53.9-1.2-18-11.8-33.1-26.6-41z" fill="#ad1f32"/></g><g><path d="m177.2 285.1c-.2 0-.5 0-.7 0-3.2-.4-5.5-3.3-5.1-6.5 1-7.9 3-15.7 6-23 1.2-3 4.6-4.4 7.6-3.2s4.4 4.6 3.2 7.6c-2.6 6.4-4.4 13.2-5.3 20-.3 2.9-2.8 5.1-5.7 5.1z" fill="#fff"/></g><g><path d="m194 244.2c-1.2 0-2.5-.4-3.6-1.2-2.5-2-3-5.6-1.1-8.2l17.5-22.7c9.7-12.5 15-28.1 15-43.9v-84.8c0-3.2 2.6-5.8 5.8-5.8s5.8 2.6 5.8 5.8v84.8c0 18.4-6.2 36.5-17.4 51.1l-17.5 22.7c-1 1.4-2.7 2.2-4.5 2.2z" fill="#fff"/></g><g><path d="m299.3 83.7h-88.7v-45.5c0-5.4 4.4-9.8 9.8-9.8h69.1c5.4 0 9.8 4.4 9.8 9.8z" fill="#f3f7f6"/></g><g><path d="m289.5 28.4h-27.2c5.4 0 9.8 4.4 9.8 9.8v45.5h27.2v-45.5c0-5.4-4.4-9.8-9.8-9.8z" fill="#ddcccf"/></g><g><path d="m209.1 107.1h94.5v50.1h-94.5z" fill="#10c16c"/></g><g><path d="m209.1 107.1h16.1v50.1h-16.1z" fill="#94ffc9"/></g><g><path d="m274.9 107.1h28.6v50.1h-28.6z" fill="#078445"/></g><g><path d="m301.6 363.5-13.8 13.1-5.4-24.7-26.4 10.2 9.4-21.1-27.9-1.7 11.5-14c.1-.1 41.6-10.1 52.6 38.2z" fill="#10c16c"/></g><g><path d="m301.6 363.5-13.8 13.1-5.4-24.7-26.4 10.2 9.4-21.1-27.9-1.7 11.5-14c.1-.1 41.6-10.1 52.6 38.2z" fill="#10c16c"/></g><g><path d="m314.3 451.7h-119.4c-10.9 0-19.7-8.9-19.7-19.7v-98.6c0-39.7 32.3-72 72-72h14.8c39.7 0 72 32.3 72 72v98.6c0 10.8-8.8 19.7-19.7 19.7zm-67.2-180.7c-34.3 0-62.3 27.9-62.3 62.3v98.6c0 5.5 4.5 10 10 10h119.4c5.5 0 10-4.5 10-10v-98.6c0-34.3-27.9-62.3-62.3-62.3z" fill="#3f0f33"/></g><g><path d="m278.7 337.3c-1 0-2.1-.3-3-1-2.1-1.6-2.5-4.7-.9-6.8.5-.7 13.3-17.2 28.5-24.4 2.4-1.1 5.3-.1 6.5 2.3 1.1 2.4.1 5.3-2.3 6.5-13.1 6.2-24.9 21.4-25 21.5-.9 1.2-2.4 1.9-3.8 1.9z" fill="#3f0f33"/></g><g><path d="m277.2 328.6c-3.8 10.5-9.1 21.2-16.2 31.5l21.4-8.3 5.4 24.7 13.8-13.1c-4.6-20-14.4-30-24.4-34.8z" fill="#078445"/></g><g><path d="m333.3 479.8h-156.7c-15.2 0-27.6-12.4-27.6-27.6v-177.2c0-14.4 4.1-28.4 11.8-40.6 4.4-6.9 10-12.3 15.5-17.4 8.2-7.8 15.9-15.1 18.8-27.1 7.1-29.4 10.7-60.8 10.7-93.2v-57.2c0-8.8 7.2-15.9 15.9-15.9h66.5c8.8 0 15.9 7.1 15.9 15.9v57.1c0 32.5 3.6 63.8 10.7 93.2 2.9 12 10.6 19.4 18.8 27.2 5.5 5.2 11.1 10.5 15.5 17.4 7.7 12.2 11.8 26.2 11.8 40.6v177.2c0 15.2-12.4 27.6-27.6 27.6zm-111.6-446.5c-3.4 0-6.2 2.8-6.2 6.2v57.1c0 33.2-3.7 65.3-10.9 95.5-3.6 14.8-12.7 23.5-21.6 31.9-5.3 5-10.2 9.7-14 15.6-6.7 10.6-10.3 22.9-10.3 35.4v177.2c0 9.9 8 17.9 17.9 17.9h156.7c9.9 0 17.9-8 17.9-17.9v-177.2c0-12.5-3.6-24.8-10.3-35.4-3.7-5.9-8.7-10.6-14-15.6-8.9-8.4-18-17.1-21.6-31.9-7.3-30.1-10.9-62.2-10.9-95.5v-57.1c0-3.4-2.8-6.2-6.2-6.2z" fill="#3f0f33"/></g><g><path d="m299.3 60.1h-88.7c-2.7 0-4.9-2.2-4.9-4.9s2.2-4.9 4.9-4.9h88.7c2.7 0 4.9 2.2 4.9 4.9-.1 2.8-2.2 4.9-4.9 4.9z" fill="#3f0f33"/></g><g><path d="m299.3 88.6h-88.7c-2.7 0-4.9-2.2-4.9-4.9s2.2-4.9 4.9-4.9h88.7c2.7 0 4.9 2.2 4.9 4.9-.1 2.7-2.2 4.9-4.9 4.9z" fill="#3f0f33"/></g><g><path d="m274.6 67.9h-36.4c-2.7 0-4.9-2.2-4.9-4.9s2.2-4.9 4.9-4.9h36.4c2.7 0 4.9 2.2 4.9 4.9s-2.2 4.9-4.9 4.9z" fill="#3f0f33"/></g><g><path d="m295.1 116h-84.5c-2.7 0-4.9-2.2-4.9-4.9s2.2-4.9 4.9-4.9h84.5c2.7 0 4.9 2.2 4.9 4.9s-2.2 4.9-4.9 4.9z" fill="#3f0f33"/></g><g><path d="m303.5 162.1h-94.5c-2.7 0-4.9-2.2-4.9-4.9s2.2-4.9 4.9-4.9h94.5c2.7 0 4.9 2.2 4.9 4.9s-2.2 4.9-4.9 4.9z" fill="#3f0f33"/></g><g><path d="m314.3 451.7h-119.4c-10.9 0-19.7-8.9-19.7-19.7v-98.6c0-39.7 32.3-72 72-72h14.8c39.7 0 72 32.3 72 72v98.6c0 10.8-8.8 19.7-19.7 19.7zm-67.2-180.7c-34.3 0-62.3 27.9-62.3 62.3v98.6c0 5.5 4.5 10 10 10h119.4c5.5 0 10-4.5 10-10v-98.6c0-34.3-27.9-62.3-62.3-62.3z" fill="#3f0f33"/></g><g><path d="m252.5 430.9c-13.3 0-26.1-4.7-36.2-13.6-11.2-9.7-17.9-23.1-18.9-37.9-2.1-30.4 20.9-56.9 51.3-59.1 30.4-2.1 56.9 20.9 59.1 51.3 2.1 30.4-20.9 56.9-51.3 59.1-1.4.2-2.7.2-4 .2zm.1-100.9c-1.1 0-2.1 0-3.2.1-25.1 1.8-44.1 23.6-42.3 48.7.9 12.2 6.4 23.3 15.6 31.2 9.2 8 21 11.9 33.1 11.1 12.2-.9 23.3-6.4 31.2-15.6 8-9.2 11.9-21 11.1-33.1-1.7-24-21.8-42.4-45.5-42.4z" fill="#3f0f33"/></g><g><path d="m287.8 381.4c-.5 0-1-.1-1.4-.2-1.7-.5-2.9-1.9-3.3-3.6l-4.2-19.2-21.1 8.2c-1.8.7-3.9.2-5.3-1.2s-1.7-3.5-.9-5.3l6.6-14.7-20.9-1.3c-1.8-.1-3.4-1.2-4.2-2.9-.7-1.7-.5-3.6.7-5l11.5-14c1.7-2.1 4.8-2.4 6.8-.7 2.1 1.7 2.4 4.8.7 6.8l-5.5 6.7 18.4 1.1c1.6.1 3 1 3.9 2.3.8 1.4.9 3 .3 4.5l-4.6 10.3 15.4-6c1.3-.5 2.8-.4 4 .3s2.1 1.9 2.4 3.2l3.6 16.3 7.6-7.2c1.9-1.8 5-1.8 6.9.2 1.8 1.9 1.8 5-.2 6.9l-13.8 13.1c-1 1-2.2 1.4-3.4 1.4z" fill="#3f0f33"/></g></g></svg>