<svg id="Capa_1" enable-background="new 0 0 512 512" height="512" viewBox="0 0 512 512" width="512" xmlns="http://www.w3.org/2000/svg"><g><g><g><path d="m394.565 502h-102.333c-11.003 0-20.965-6.507-25.386-16.583l-35.572-81.072h224.249l-35.572 81.072c-4.422 10.076-14.383 16.583-25.386 16.583z" fill="#f9f5f3"/></g></g><g><g><path d="m427.974 404.344v-3.493c0-21.518-17.444-38.963-38.963-38.963-13.459 0-24.37-10.911-24.37-24.37 0-6.362-7.589-9.66-12.24-5.32l-23.749 22.16c-5.185 4.839-12.014 7.529-19.106 7.529h-11.761c-21.519 0-38.963 17.444-38.963 38.963v3.493h169.152z" fill="#fff0d7"/></g></g><g><g><path d="m258.827 404.34h-27.55l37.44 85.32c-10 7.85-22.51 12.34-35.7 12.34h-118.71c-31.219 0-57.83-26.629-57.83-57.83v-47.72c0-50.22 6.75-100.21 20.07-148.64l30.14-109.59c5.02-18.27 7.57-37.12 7.57-56.06v-10.27h118.81v10.27c0 18.94 2.55 37.79 7.57 56.06l30.14 109.59c10.33 37.56 16.71 76.07 19.05 114.89-17.7 3.68-31 19.36-31 38.15z" fill="#fff0d7"/></g></g><g><g><path d="m251.174 71.889h-155.022v-37.725c0-13.345 10.819-24.164 24.165-24.164h106.692c13.346 0 24.164 10.819 24.164 24.164v37.725z" fill="#ffc135"/></g></g><g><g><path d="m173.663 451.731c-32.431 0-58.721-26.29-58.721-58.72v-51.448c0-32.43 26.29-58.72 58.72-58.72 32.43 0 58.72 26.29 58.72 58.72v51.448c.002 32.43-26.288 58.72-58.719 58.72z" fill="#ffc135"/></g></g><g><path d="m463.895 398.876c-1.847-2.827-4.995-4.531-8.372-4.531h-17.994c-3.194-23.931-23.727-42.456-48.518-42.456-7.923 0-14.369-6.446-14.369-14.369 0-14.773-18.23-22.735-29.062-12.632l-23.749 22.16c-3.346 3.122-7.707 4.841-12.283 4.841h-10.458c-2.825-36.033-9.088-71.888-18.67-106.729l-30.14-109.59c-4.786-17.417-7.213-35.387-7.213-53.41v-.271h8.106c5.522 0 10-4.478 10-10v-37.725c.001-18.838-15.325-34.164-34.164-34.164h-106.693c-18.838 0-34.164 15.326-34.164 34.164v37.725c0 5.522 4.478 10 10 10h8.105v.271c0 18.021-2.427 35.99-7.212 53.408l-18.488 67.226c-1.465 5.325 1.665 10.829 6.99 12.293 5.325 1.467 10.829-1.666 12.293-6.99l18.489-67.228c5.261-19.146 7.928-38.898 7.928-58.709v-.27h98.81v.27c0 19.813 2.667 39.566 7.929 58.711l30.14 109.591c9.428 34.282 15.536 69.576 18.183 105.036-16.085 6.572-27.719 21.642-30.054 38.842h-6.915c.008-.444.034-.883.034-1.329v-51.448c0-37.893-30.828-68.721-68.721-68.721s-68.721 30.828-68.721 68.721v51.448c0 37.893 30.828 68.72 68.721 68.72 24.31 0 45.697-12.7 57.917-31.802l24.605 56.076c-7.058 3.899-15.063 5.995-23.167 5.995h-118.71c-12.426 0-24.341-5.073-33.551-14.285-9.074-9.076-14.279-21.304-14.279-33.545v-47.72c0-34.702 3.331-69.638 9.9-103.837 1.042-5.424-2.51-10.665-7.934-11.707-5.432-1.049-10.666 2.511-11.707 7.934-6.808 35.439-10.26 71.646-10.26 107.61v47.72c0 36.768 31.062 67.83 67.83 67.83h118.71c12.07 0 23.98-3.288 34.346-9.362 6.75 5.916 15.534 9.362 24.869 9.362h102.332c14.97 0 28.528-8.857 34.543-22.565l35.572-81.072c1.357-3.092 1.062-6.661-.784-9.487zm-357.743-364.712c0-7.811 6.354-14.164 14.164-14.164h106.692c7.811 0 14.165 6.354 14.165 14.164v27.725h-135.021zm229.323 327.507 19.658-18.343c2.768 16.195 16.906 28.561 33.878 28.561 13.734 0 25.266 9.607 28.226 22.456h-147.638c3.014-12.95 14.854-22.456 28.187-22.456h11.762c9.657 0 18.865-3.629 25.927-10.218zm-161.812 80.059c-26.864 0-48.721-21.855-48.721-48.72v-51.448c0-26.864 21.856-48.721 48.721-48.721s48.721 21.856 48.721 48.721v51.448c0 26.865-21.857 48.72-48.721 48.72zm237.13 39.668c-2.826 6.44-9.196 10.602-16.229 10.602h-102.332c-6.953 0-13.253-4.072-16.126-10.388l-29.519-67.267h12.235 169.15 12.241z"/><path d="m67.31 251.64c1.7 4.084 6.065 6.651 10.463 6.088 4.328-.555 7.868-3.902 8.619-8.209 1.482-8.501-8.232-14.766-15.392-10.019-3.937 2.61-5.475 7.782-3.69 12.14z"/></g></g></svg>