<?xml version="1.0" encoding="utf-8"?>
<!-- Generator: Adobe Illustrator 27.5.0, SVG Export Plug-In . SVG Version: 6.00 Build 0)  -->
<svg version="1.1" id="Layer_1" xmlns="http://www.w3.org/2000/svg" xmlns:xlink="http://www.w3.org/1999/xlink" x="0px" y="0px"
	 viewBox="0 0 150 200" style="enable-background:new 0 0 150 200;" xml:space="preserve">
<g>
	
		<radialGradient id="SVGID_1_" cx="-2513.3105" cy="1912.1415" r="0.4031" gradientTransform="matrix(110.9592 -1.3217 -0.163 -13.6672 279261.5938 22998.2344)" gradientUnits="userSpaceOnUse">
		<stop  offset="0.4216" style="stop-color:#828282"/>
		<stop  offset="0.5032" style="stop-color:#A0A0A0"/>
		<stop  offset="0.6333" style="stop-color:#C9C9C9"/>
		<stop  offset="0.7516" style="stop-color:#E6E6E6"/>
		<stop  offset="0.853" style="stop-color:#F9F9F9"/>
		<stop  offset="0.9255" style="stop-color:#FFFFFF"/>
	</radialGradient>
	<path style="fill:url(#SVGID_1_);" d="M74.933,180.925c-24.596,0.293-44.509,2.987-44.473,6.017l0,0
		c0.036,3.029,20.008,5.248,44.605,4.955l0,0c24.601-0.293,44.513-2.987,44.476-6.016
		C119.505,182.851,99.534,180.632,74.933,180.925z"/>
	<g>
		
			<linearGradient id="SVGID_00000003786003836651732870000007274508658800109705_" gradientUnits="userSpaceOnUse" x1="45.6777" y1="173.8073" x2="104.3223" y2="173.8073">
			<stop  offset="0" style="stop-color:#F2F2F2"/>
			<stop  offset="0.0753" style="stop-color:#D2D2D2"/>
			<stop  offset="0.2104" style="stop-color:#E6E6E6"/>
			<stop  offset="0.3818" style="stop-color:#F2F2F2"/>
			<stop  offset="0.7481" style="stop-color:#DBDBDB"/>
			<stop  offset="0.9221" style="stop-color:#D2D2D2"/>
			<stop  offset="1" style="stop-color:#E6E6E6"/>
		</linearGradient>
		<path style="fill:url(#SVGID_00000003786003836651732870000007274508658800109705_);" d="M75,157.979H45.678
			c0,0,0,14.055,0,18.012c0,2.358,0.328,5.674,0.592,7.968c0.187,1.621,1.361,2.954,2.946,3.346
			c2.037,0.503,5.087,1.165,8.507,1.596C63.884,189.677,75,189.635,75,189.635s11.116,0.041,17.277-0.735
			c3.42-0.431,6.47-1.092,8.507-1.596c1.585-0.391,2.758-1.724,2.946-3.346c0.265-2.294,0.593-5.609,0.593-7.968
			c0-3.957,0-18.012,0-18.012H75z"/>
		
			<radialGradient id="SVGID_00000021809140576043817630000007243298827282804903_" cx="75.3892" cy="21640.3887" r="54.1946" gradientTransform="matrix(1 0 0 0.278 0 -5841.5967)" gradientUnits="userSpaceOnUse">
			<stop  offset="0.8701" style="stop-color:#FFFFFF"/>
			<stop  offset="1" style="stop-color:#000000"/>
		</radialGradient>
		<path style="opacity:0.2;fill:url(#SVGID_00000021809140576043817630000007243298827282804903_);" d="M45.678,174.839
			c0,0.442,0,0.83,0,1.152c0,2.358,0.328,5.674,0.592,7.968c0.187,1.621,1.361,2.954,2.946,3.346
			c2.037,0.503,5.087,1.165,8.507,1.596C63.884,189.677,75,189.635,75,189.635s11.116,0.041,17.277-0.735
			c3.42-0.431,6.47-1.092,8.507-1.596c1.585-0.391,2.758-1.724,2.946-3.346c0.265-2.294,0.593-5.609,0.593-7.968
			c0-0.321,0-0.71,0-1.152H45.678z"/>
		
			<linearGradient id="SVGID_00000005966171166637186200000015473595861833393302_" gradientUnits="userSpaceOnUse" x1="40.4429" y1="195.0196" x2="40.4429" y2="179.6884" gradientTransform="matrix(1.0231 0 0 1.0423 33.0104 -17.677)">
			<stop  offset="0" style="stop-color:#000000"/>
			<stop  offset="1" style="stop-color:#FFFFFF"/>
		</linearGradient>
		<path style="fill:url(#SVGID_00000005966171166637186200000015473595861833393302_);" d="M75.014,169.612
			c-8.284,0-15,4.037-15,8.767c0,4.73,6.716,7.212,15,7.212s13.746-2.482,13.746-7.212C88.761,173.65,83.298,169.612,75.014,169.612
			z"/>
		<g>
			
				<linearGradient id="SVGID_00000100376721189084102240000002787634046404242318_" gradientUnits="userSpaceOnUse" x1="45.6776" y1="177.6021" x2="104.3224" y2="177.6021">
				<stop  offset="0" style="stop-color:#EAEAEA"/>
				<stop  offset="0.0753" style="stop-color:#CACACA"/>
				<stop  offset="0.2104" style="stop-color:#DEDEDE"/>
				<stop  offset="0.3818" style="stop-color:#EAEAEA"/>
				<stop  offset="0.7481" style="stop-color:#D3D3D3"/>
				<stop  offset="0.9221" style="stop-color:#CACACA"/>
				<stop  offset="1" style="stop-color:#DEDEDE"/>
			</linearGradient>
			<path style="fill:url(#SVGID_00000100376721189084102240000002787634046404242318_);" d="M75,169.937
				c-8.097,0-14.661,3.873-14.661,8.411c0,4.538,6.564,6.919,14.661,6.919s13.436-2.381,13.436-6.919
				C88.436,173.81,83.097,169.937,75,169.937z"/>
			
				<radialGradient id="SVGID_00000000909249151962323500000010523595193207446170_" cx="74.5822" cy="7484.2573" r="24.7518" gradientTransform="matrix(1 0 0 0.5311 0 -3793.9265)" gradientUnits="userSpaceOnUse">
				<stop  offset="0.5544" style="stop-color:#FFFFFF"/>
				<stop  offset="1" style="stop-color:#000000"/>
			</radialGradient>
			<path style="opacity:0.4;fill:url(#SVGID_00000000909249151962323500000010523595193207446170_);" d="M75,169.937
				c-8.097,0-14.661,3.873-14.661,8.411c0,4.538,6.564,6.919,14.661,6.919s13.436-2.381,13.436-6.919
				C88.436,173.81,83.097,169.937,75,169.937z"/>
			
				<radialGradient id="SVGID_00000129183111555447002920000011657337620873514405_" cx="75.3817" cy="9367.7998" r="24.75" gradientTransform="matrix(1 0 0 0.4734 0 -4260.8984)" gradientUnits="userSpaceOnUse">
				<stop  offset="0.7692" style="stop-color:#000000"/>
				<stop  offset="0.8775" style="stop-color:#FFFFFF"/>
			</radialGradient>
			<path style="opacity:0.8;fill:url(#SVGID_00000129183111555447002920000011657337620873514405_);" d="M75,169.937
				c-8.097,0-14.661,3.873-14.661,8.411c0,4.538,6.564,6.919,14.661,6.919s13.436-2.381,13.436-6.919
				C88.436,173.81,83.097,169.937,75,169.937z"/>
		</g>
		
			<linearGradient id="SVGID_00000097461921644391237410000002173225890197279362_" gradientUnits="userSpaceOnUse" x1="45.6777" y1="157.9789" x2="104.3223" y2="157.9789">
			<stop  offset="0" style="stop-color:#FFFFFF"/>
			<stop  offset="0.0753" style="stop-color:#DFDFDF"/>
			<stop  offset="0.2104" style="stop-color:#F3F3F3"/>
			<stop  offset="0.3818" style="stop-color:#FFFFFF"/>
			<stop  offset="0.7481" style="stop-color:#E8E8E8"/>
			<stop  offset="0.9221" style="stop-color:#DFDFDF"/>
			<stop  offset="1" style="stop-color:#F3F3F3"/>
		</linearGradient>
		<path style="fill:url(#SVGID_00000097461921644391237410000002173225890197279362_);" d="M75,154.649
			c-16.194,0-29.322,1.491-29.322,3.33s13.128,3.33,29.322,3.33s29.322-1.491,29.322-3.33S91.194,154.649,75,154.649z M75,160.855
			c-15.944,0-28.868-1.288-28.868-2.876s12.925-2.876,28.868-2.876s28.868,1.288,28.868,2.876S90.943,160.855,75,160.855z"/>
		
			<linearGradient id="SVGID_00000050647930811513725690000016451091936710599352_" gradientUnits="userSpaceOnUse" x1="46.1318" y1="157.9789" x2="103.8682" y2="157.9789">
			<stop  offset="0" style="stop-color:#4B2500"/>
			<stop  offset="0.0753" style="stop-color:#230000"/>
			<stop  offset="0.2104" style="stop-color:#371100"/>
			<stop  offset="0.3818" style="stop-color:#4B2500"/>
			<stop  offset="0.7481" style="stop-color:#2D0700"/>
			<stop  offset="0.9221" style="stop-color:#230000"/>
			<stop  offset="1" style="stop-color:#371100"/>
		</linearGradient>
		
			<ellipse style="fill:url(#SVGID_00000050647930811513725690000016451091936710599352_);" cx="75" cy="157.979" rx="28.868" ry="2.876"/>
		
			<linearGradient id="SVGID_00000000924207338484177370000008164813171905854393_" gradientUnits="userSpaceOnUse" x1="48.4898" y1="157.9789" x2="101.5102" y2="157.9789">
			<stop  offset="0" style="stop-color:#977100"/>
			<stop  offset="0.0753" style="stop-color:#6F4900"/>
			<stop  offset="0.2104" style="stop-color:#835D00"/>
			<stop  offset="0.3818" style="stop-color:#977100"/>
			<stop  offset="0.7481" style="stop-color:#795300"/>
			<stop  offset="0.9221" style="stop-color:#6F4900"/>
			<stop  offset="1" style="stop-color:#835D00"/>
		</linearGradient>
		<path style="fill:url(#SVGID_00000000924207338484177370000008164813171905854393_);" d="M75,155.103
			c-11.879,0-22.08,0.715-26.51,1.736v2.28c4.431,1.021,14.632,1.736,26.51,1.736s22.08-0.715,26.51-1.736v-2.28
			C97.08,155.818,86.879,155.103,75,155.103z"/>
		
			<linearGradient id="SVGID_00000025425340156346590190000006888594103434290353_" gradientUnits="userSpaceOnUse" x1="34.0216" y1="89.5956" x2="115.9784" y2="89.5956">
			<stop  offset="0" style="stop-color:#FDD756"/>
			<stop  offset="0.0753" style="stop-color:#D5AF2A"/>
			<stop  offset="0.2104" style="stop-color:#E9C33E"/>
			<stop  offset="0.3818" style="stop-color:#FDD756"/>
			<stop  offset="0.7481" style="stop-color:#DFB92F"/>
			<stop  offset="0.9221" style="stop-color:#D5AF2A"/>
			<stop  offset="1" style="stop-color:#E9C33E"/>
		</linearGradient>
		<path style="fill:url(#SVGID_00000025425340156346590190000006888594103434290353_);" d="M115.94,124.905
			c-0.491-10.348-4.699-26.498-4.699-40.856s4.18-24.629,4.18-32.299c0-4.078,0.58-11.148-0.72-17.446
			c-1.145-5.547-3.209-9.366-4.555-11.156c-1.397-1.857-4.502-2.841-8.581-3.223C91.435,18.976,81.643,18.846,75,18.846
			s-16.435,0.13-26.566,1.079c-4.079,0.382-7.184,1.366-8.581,3.223c-1.346,1.79-3.41,5.609-4.555,11.156
			c-1.3,6.298-0.72,13.368-0.72,17.446c0,7.67,4.18,17.942,4.18,32.299s-4.208,30.508-4.699,40.856
			c-0.491,10.348,3.886,16.767,7.622,22.25c5.33,7.823,3.365,8.668,5.312,10.615c1.947,1.947,20.971,2.575,28.006,2.575
			c7.036,0,26.06-0.628,28.006-2.575c1.947-1.947-0.017-2.792,5.312-10.615C112.054,141.672,116.431,135.253,115.94,124.905z"/>
		
			<linearGradient id="SVGID_00000042697246520348900290000008323868532583510681_" gradientUnits="userSpaceOnUse" x1="75" y1="35.216" x2="75" y2="139.0079">
			<stop  offset="0" style="stop-color:#BEBEBE"/>
			<stop  offset="1" style="stop-color:#FFFFFF"/>
		</linearGradient>
		<path style="opacity:0.8;fill:url(#SVGID_00000042697246520348900290000008323868532583510681_);" d="M75,139.008
			c-3.074,0-8.219,0-13.059-0.505c-6.113-0.637-9.804-1.872-11.284-3.774c-0.525-0.675-0.667-1.197-0.832-1.802
			c-0.251-0.924-0.631-2.322-2.924-5.687c-2.599-3.815-5.828-8.555-5.473-16.051c0.145-3.06,0.75-6.853,1.391-10.869
			c0.894-5.601,1.907-11.949,1.907-17.783c0-5.754-0.952-10.486-1.793-14.661c-0.613-3.044-1.142-5.672-1.142-8.016
			c0-0.599-0.019-1.312-0.038-2.066c-0.075-2.854-0.177-6.764,0.558-10.325c0.975-4.723,2.791-7.404,3.325-8.113
			c1.05-1.397,3.184-2.228,6.521-2.54C59.36,36.14,69.224,35.216,75,35.216c5.777,0,15.64,0.924,22.842,1.598
			c3.338,0.313,5.471,1.143,6.521,2.54c0.534,0.709,2.35,3.39,3.325,8.113c0.735,3.561,0.633,7.471,0.558,10.325
			c-0.02,0.754-0.038,1.467-0.038,2.066c0,2.344-0.529,4.973-1.142,8.016c-0.84,4.175-1.793,8.907-1.793,14.661
			c0,5.834,1.013,12.182,1.907,17.783c0.641,4.016,1.246,7.81,1.391,10.869c0.356,7.496-2.874,12.237-5.469,16.046
			c-2.297,3.371-2.677,4.768-2.928,5.693c-0.164,0.605-0.307,1.127-0.832,1.802c-1.48,1.902-5.171,3.137-11.284,3.774
			C83.219,139.008,78.074,139.008,75,139.008z"/>
		<g>
			
				<linearGradient id="SVGID_00000114069240691440002420000014714109386637456574_" gradientUnits="userSpaceOnUse" x1="34.0217" y1="87.112" x2="115.9783" y2="87.112">
				<stop  offset="0" style="stop-color:#FCFCFC"/>
				<stop  offset="0.0753" style="stop-color:#DCDCDC"/>
				<stop  offset="0.2104" style="stop-color:#F0F0F0"/>
				<stop  offset="0.3818" style="stop-color:#FCFCFC"/>
				<stop  offset="0.7481" style="stop-color:#E5E5E5"/>
				<stop  offset="0.9221" style="stop-color:#DCDCDC"/>
				<stop  offset="1" style="stop-color:#F0F0F0"/>
			</linearGradient>
			<path style="fill:url(#SVGID_00000114069240691440002420000014714109386637456574_);" d="M107.869,111.222
				c-0.345-7.265-3.299-18.605-3.299-28.686s2.935-17.292,2.935-22.678c0-2.863,0.407-7.827-0.506-12.249
				c-0.804-3.894-2.253-6.576-3.198-7.833c-0.981-1.304-3.161-1.994-6.025-2.263C90.663,36.848,80.72,35.919,75,35.919
				s-15.663,0.929-22.776,1.595c-2.864,0.268-5.044,0.959-6.025,2.263c-0.945,1.257-2.394,3.938-3.198,7.833
				c-0.913,4.422-0.505,9.386-0.505,12.249c0,5.386,2.935,12.597,2.935,22.678s-2.954,21.42-3.299,28.686
				c-0.345,7.265,2.728,11.772,5.351,15.622c3.742,5.492,2.542,5.927,3.73,7.453c3.119,4.008,17.757,4.008,23.788,4.008
				s20.669,0,23.788-4.008c1.187-1.526-0.012-1.961,3.73-7.453C105.14,122.994,108.213,118.487,107.869,111.222z"/>
			<g>
				
					<linearGradient id="SVGID_00000070806498214238866680000018408389691342235056_" gradientUnits="userSpaceOnUse" x1="34.0216" y1="87.112" x2="115.9781" y2="87.112">
					<stop  offset="0" style="stop-color:#EBC544"/>
					<stop  offset="0.0753" style="stop-color:#C39D18"/>
					<stop  offset="0.2104" style="stop-color:#D7B12C"/>
					<stop  offset="0.3818" style="stop-color:#EBC544"/>
					<stop  offset="0.7481" style="stop-color:#CDA71D"/>
					<stop  offset="0.9221" style="stop-color:#C39D18"/>
					<stop  offset="1" style="stop-color:#D7B12C"/>
				</linearGradient>
				<path style="fill:url(#SVGID_00000070806498214238866680000018408389691342235056_);" d="M104.628,109.694
					c-0.311-6.805-2.974-17.426-2.974-26.868c0-9.442,2.645-16.197,2.645-21.241c0-2.682,0.367-7.332-0.456-11.473
					c-0.725-3.648-2.031-6.159-2.883-7.336c-0.884-1.221-2.849-1.868-5.431-2.119c-6.412-0.624-15.374-1.494-20.53-1.494
					s-14.119,0.87-20.53,1.494c-2.582,0.251-4.547,0.898-5.431,2.119c-0.852,1.177-2.158,3.689-2.883,7.336
					c-0.823,4.141-0.456,8.791-0.456,11.473c0,5.044,2.645,11.799,2.645,21.241c0,9.442-2.663,20.063-2.974,26.868
					s2.459,11.026,4.824,14.632c3.373,5.144,2.292,5.552,3.362,6.981c2.812,3.754,16.006,3.754,21.442,3.754s18.631,0,21.442-3.754
					c1.07-1.429-0.011-1.836,3.362-6.981C102.168,120.72,104.938,116.499,104.628,109.694z M98.643,123.277
					c-3.215,4.999-2.185,5.395-3.204,6.784c-2.68,3.648-15.257,3.648-20.438,3.648s-17.758,0-20.438-3.648
					c-1.02-1.389,0.01-1.785-3.205-6.784c-2.254-3.504-4.894-7.606-4.598-14.22c0.296-6.613,2.835-16.934,2.835-26.11
					s-2.521-15.74-2.521-20.642c0-2.606-0.35-7.125,0.434-11.149c0.691-3.545,1.936-5.986,2.748-7.129
					c0.843-1.187,2.716-1.815,5.176-2.06c6.111-0.606,14.654-1.452,19.569-1.452s13.458,0.846,19.569,1.452
					c2.461,0.244,4.334,0.873,5.176,2.06c0.812,1.144,2.057,3.585,2.748,7.129c0.784,4.025,0.434,8.543,0.434,11.149
					c0,4.902-2.521,11.466-2.521,20.642s2.538,19.497,2.835,26.11C103.537,115.67,100.896,119.773,98.643,123.277z"/>
				
					<linearGradient id="SVGID_00000072249823532854534130000013808735492372809138_" gradientUnits="userSpaceOnUse" x1="34.0216" y1="87.112" x2="115.9785" y2="87.112">
					<stop  offset="0" style="stop-color:#737373"/>
					<stop  offset="0.0753" style="stop-color:#535353"/>
					<stop  offset="0.2104" style="stop-color:#676767"/>
					<stop  offset="0.3818" style="stop-color:#737373"/>
					<stop  offset="0.7481" style="stop-color:#5C5C5C"/>
					<stop  offset="0.9221" style="stop-color:#535353"/>
					<stop  offset="1" style="stop-color:#676767"/>
				</linearGradient>
				<path style="fill:url(#SVGID_00000072249823532854534130000013808735492372809138_);" d="M99.158,83.068
					c0-8.91,2.397-15.283,2.397-20.043c0-2.531,0.333-6.918-0.413-10.826c-0.657-3.442-1.84-5.812-2.613-6.923
					c-0.801-1.152-2.582-1.763-4.922-2c-5.811-0.589-13.934-1.41-18.608-1.41s-12.797,0.821-18.608,1.41
					c-2.34,0.237-4.121,0.847-4.922,2c-0.772,1.111-1.956,3.481-2.613,6.923c-0.746,3.908-0.413,8.295-0.413,10.826
					c0,4.76,2.397,11.133,2.397,20.043s-2.414,18.931-2.695,25.353c-0.282,6.421,2.229,10.404,4.372,13.807
					c3.057,4.854,2.077,5.239,3.047,6.587c2.548,3.542,14.507,3.542,19.434,3.542s16.886,0,19.434-3.542
					c0.97-1.348-0.01-1.733,3.047-6.587c2.143-3.403,4.653-7.386,4.372-13.807C101.572,101.999,99.158,91.978,99.158,83.068z
					 M96.942,121.725c-2.984,4.785-2.027,5.164-2.974,6.493C91.481,131.71,79.809,131.71,75,131.71s-16.481,0-18.968-3.492
					c-0.947-1.329,0.01-1.708-2.974-6.493c-2.091-3.354-4.542-7.28-4.267-13.609c0.275-6.329,2.631-16.208,2.631-24.99
					s-2.34-15.064-2.34-19.756c0-2.495-0.325-6.819,0.403-10.671c0.641-3.393,1.796-5.729,2.55-6.823
					c0.782-1.136,2.52-1.738,4.804-1.971c5.672-0.58,13.6-1.39,18.161-1.39c4.561,0,12.49,0.809,18.161,1.39
					c2.284,0.234,4.022,0.835,4.804,1.971c0.754,1.095,1.909,3.431,2.55,6.823c0.728,3.852,0.403,8.176,0.403,10.671
					c0,4.692-2.34,10.974-2.34,19.756s2.356,18.661,2.631,24.99C101.484,114.445,99.034,118.371,96.942,121.725z"/>
			</g>
		</g>
		<path style="fill:#FFFFFF;" d="M71.17,178.978c1.262-0.005,2.539-0.01,3.83-0.01c1.291,0,2.568,0.005,3.83,0.01
			c1.238,0.005,2.458,0.01,3.66,0.01c3.561,0,6.961-0.044,10.166-0.259c6.143-0.412,9.657-1.309,11.664-2.408
			c0.001-0.102,0.002-0.204,0.002-0.303c-1.933,1.114-5.416,2.032-11.684,2.452c-4.278,0.287-8.906,0.268-13.807,0.248
			c-1.262-0.005-2.54-0.01-3.831-0.01s-2.569,0.005-3.831,0.01c-4.9,0.02-9.529,0.039-13.807-0.248
			c-6.268-0.42-9.751-1.338-11.684-2.452c0,0.099,0.001,0.201,0.003,0.303c2.007,1.099,5.521,1.996,11.664,2.408
			C61.631,179.017,66.265,178.997,71.17,178.978z"/>
		<path d="M71.17,178.721c1.262-0.005,2.539-0.01,3.83-0.01c1.291,0,2.568,0.005,3.83,0.01c1.238,0.005,2.458,0.01,3.66,0.01
			c3.561,0,6.961-0.044,10.166-0.259c6.146-0.412,9.66-1.316,11.666-2.425c0-0.018,0.001-0.038,0.001-0.056c0-0.078,0-0.161,0-0.247
			c-1.933,1.124-5.416,2.049-11.684,2.47c-4.278,0.287-8.906,0.268-13.807,0.248c-1.262-0.005-2.54-0.01-3.831-0.01
			s-2.569,0.005-3.831,0.01c-4.9,0.02-9.529,0.039-13.807-0.248c-6.268-0.42-9.751-1.345-11.684-2.47c0,0.086,0,0.169,0,0.247
			c0,0.018,0,0.038,0,0.056c2.007,1.109,5.521,2.013,11.667,2.425C61.631,178.76,66.265,178.74,71.17,178.721z"/>
		<g>
			
				<linearGradient id="SVGID_00000102506159160914177420000009420713411822917541_" gradientUnits="userSpaceOnUse" x1="34.0219" y1="81.593" x2="115.9779" y2="81.593">
				<stop  offset="0" style="stop-color:#5A5A5A"/>
				<stop  offset="0.0753" style="stop-color:#3A3A3A"/>
				<stop  offset="0.2104" style="stop-color:#4E4E4E"/>
				<stop  offset="0.3818" style="stop-color:#5A5A5A"/>
				<stop  offset="0.7481" style="stop-color:#434343"/>
				<stop  offset="0.9221" style="stop-color:#3A3A3A"/>
				<stop  offset="1" style="stop-color:#4E4E4E"/>
			</linearGradient>
			<polygon style="fill:url(#SVGID_00000102506159160914177420000009420713411822917541_);" points="68.677,84.09 66.422,84.09 
				66.422,82.058 68.049,82.058 68.049,80.909 66.422,80.909 66.422,79.082 68.546,79.082 68.546,77.947 65.204,77.947 
				65.204,85.239 68.677,85.239 			"/>
			
				<linearGradient id="SVGID_00000069398535533108845070000009486796322068696455_" gradientUnits="userSpaceOnUse" x1="34.022" y1="91.6718" x2="115.9785" y2="91.6718">
				<stop  offset="0" style="stop-color:#5A5A5A"/>
				<stop  offset="0.0753" style="stop-color:#3A3A3A"/>
				<stop  offset="0.2104" style="stop-color:#4E4E4E"/>
				<stop  offset="0.3818" style="stop-color:#5A5A5A"/>
				<stop  offset="0.7481" style="stop-color:#434343"/>
				<stop  offset="0.9221" style="stop-color:#3A3A3A"/>
				<stop  offset="1" style="stop-color:#4E4E4E"/>
			</linearGradient>
			<path style="fill:url(#SVGID_00000069398535533108845070000009486796322068696455_);" d="M85.812,92.479h0.213
				c0.106,0,0.214-0.004,0.326-0.012c0.112-0.008,0.214-0.016,0.307-0.024l1.096,3.787h1.547l-1.26-4.031
				c0.414-0.244,0.726-0.567,0.935-0.971c0.209-0.404,0.314-0.882,0.314-1.434c0-0.471-0.078-0.9-0.234-1.288
				c-0.156-0.388-0.372-0.689-0.648-0.904c-0.227-0.174-0.488-0.299-0.783-0.374c-0.294-0.075-0.736-0.113-1.324-0.113h-2.022v9.116
				h1.534V92.479z M85.812,88.362c0.008,0,0.022-0.002,0.043-0.006c0.183-0.012,0.319-0.018,0.408-0.018
				c0.516,0,0.889,0.111,1.12,0.332c0.231,0.221,0.347,0.575,0.347,1.063c0,0.54-0.12,0.925-0.359,1.154
				c-0.24,0.229-0.644,0.344-1.212,0.344c-0.093,0-0.163-0.001-0.21-0.003c-0.047-0.002-0.092-0.007-0.137-0.015V88.362z"/>
			
				<linearGradient id="SVGID_00000067931453025536306780000007920211000403110581_" gradientUnits="userSpaceOnUse" x1="34.0212" y1="81.593" x2="115.9793" y2="81.593">
				<stop  offset="0" style="stop-color:#5A5A5A"/>
				<stop  offset="0.0753" style="stop-color:#3A3A3A"/>
				<stop  offset="0.2104" style="stop-color:#4E4E4E"/>
				<stop  offset="0.3818" style="stop-color:#5A5A5A"/>
				<stop  offset="0.7481" style="stop-color:#434343"/>
				<stop  offset="0.9221" style="stop-color:#3A3A3A"/>
				<stop  offset="1" style="stop-color:#4E4E4E"/>
			</linearGradient>
			<path style="fill:url(#SVGID_00000067931453025536306780000007920211000403110581_);" d="M63.275,85.239v-3.025l1.437-4.267
				h-1.208l-0.687,2.265c-0.029,0.088-0.056,0.218-0.08,0.39c-0.024,0.172-0.048,0.383-0.071,0.633
				c-0.013-0.221-0.033-0.417-0.058-0.587c-0.026-0.171-0.055-0.313-0.088-0.426l-0.682-2.275h-1.213l1.432,4.267v3.025H63.275z"/>
			
				<linearGradient id="SVGID_00000009551741690554332310000018244692614114297997_" gradientUnits="userSpaceOnUse" x1="34.0217" y1="91.6718" x2="115.9784" y2="91.6718">
				<stop  offset="0" style="stop-color:#5A5A5A"/>
				<stop  offset="0.0753" style="stop-color:#3A3A3A"/>
				<stop  offset="0.2104" style="stop-color:#4E4E4E"/>
				<stop  offset="0.3818" style="stop-color:#5A5A5A"/>
				<stop  offset="0.7481" style="stop-color:#434343"/>
				<stop  offset="0.9221" style="stop-color:#3A3A3A"/>
				<stop  offset="1" style="stop-color:#4E4E4E"/>
			</linearGradient>
			<path style="fill:url(#SVGID_00000009551741690554332310000018244692614114297997_);" d="M55.724,90.341
				c0-0.073-0.009-0.271-0.027-0.594c-0.018-0.323-0.046-0.776-0.082-1.361c0.037,0.211,0.081,0.459,0.134,0.743
				c0.053,0.284,0.128,0.672,0.225,1.163l1.212,5.937h0.785l1.212-5.937c0.097-0.491,0.172-0.879,0.225-1.163
				c0.053-0.284,0.097-0.532,0.134-0.743c-0.037,0.584-0.064,1.038-0.082,1.361c-0.018,0.323-0.027,0.521-0.027,0.594l-0.012,5.888
				h1.407v-9.116H58.83L57.783,91.9c-0.045,0.203-0.082,0.483-0.113,0.84c-0.03,0.357-0.05,0.763-0.058,1.218
				c-0.033-0.479-0.066-0.891-0.1-1.236c-0.035-0.345-0.072-0.611-0.113-0.798l-1.035-4.811h-2.022v9.116h1.394L55.724,90.341z"/>
			
				<linearGradient id="SVGID_00000017476171503853438520000007718740398561665420_" gradientUnits="userSpaceOnUse" x1="34.022" y1="81.593" x2="115.978" y2="81.593">
				<stop  offset="0" style="stop-color:#5A5A5A"/>
				<stop  offset="0.0753" style="stop-color:#3A3A3A"/>
				<stop  offset="0.2104" style="stop-color:#4E4E4E"/>
				<stop  offset="0.3818" style="stop-color:#5A5A5A"/>
				<stop  offset="0.7481" style="stop-color:#434343"/>
				<stop  offset="0.9221" style="stop-color:#3A3A3A"/>
				<stop  offset="1" style="stop-color:#4E4E4E"/>
			</linearGradient>
			<polygon style="fill:url(#SVGID_00000017476171503853438520000007718740398561665420_);" points="69.535,77.947 69.535,85.239 
				73.008,85.239 73.008,84.09 70.753,84.09 70.753,77.947 			"/>
			
				<linearGradient id="SVGID_00000007402361385856875770000006639147973433614503_" gradientUnits="userSpaceOnUse" x1="34.0216" y1="91.6779" x2="115.9785" y2="91.6779">
				<stop  offset="0" style="stop-color:#5A5A5A"/>
				<stop  offset="0.0753" style="stop-color:#3A3A3A"/>
				<stop  offset="0.2104" style="stop-color:#4E4E4E"/>
				<stop  offset="0.3818" style="stop-color:#5A5A5A"/>
				<stop  offset="0.7481" style="stop-color:#434343"/>
				<stop  offset="0.9221" style="stop-color:#3A3A3A"/>
				<stop  offset="1" style="stop-color:#4E4E4E"/>
			</linearGradient>
			<path style="fill:url(#SVGID_00000007402361385856875770000006639147973433614503_);" d="M70.753,95.018
				c-0.272,0-0.491-0.114-0.658-0.341c-0.167-0.227-0.288-0.574-0.365-1.041l-1.419,0.213c0.085,0.804,0.341,1.427,0.767,1.869
				c0.426,0.442,0.984,0.664,1.675,0.664c0.69,0,1.253-0.22,1.69-0.661c0.436-0.44,0.655-1.002,0.655-1.684
				c0-0.877-0.597-1.859-1.79-2.947c-0.13-0.122-0.227-0.213-0.292-0.274c-0.455-0.418-0.749-0.74-0.883-0.965
				c-0.134-0.225-0.201-0.46-0.201-0.703c0-0.272,0.073-0.492,0.219-0.661c0.146-0.168,0.339-0.253,0.578-0.253
				c0.231,0,0.422,0.095,0.572,0.286c0.15,0.191,0.25,0.467,0.298,0.828l1.388-0.213c-0.089-0.694-0.325-1.228-0.706-1.601
				c-0.382-0.374-0.883-0.56-1.504-0.56c-0.662,0-1.206,0.209-1.632,0.627c-0.426,0.418-0.639,0.954-0.639,1.608
				c0,0.43,0.097,0.85,0.292,1.26c0.195,0.41,0.473,0.779,0.834,1.108c0.085,0.081,0.211,0.197,0.378,0.347
				c1.084,0.97,1.626,1.699,1.626,2.186c0,0.276-0.079,0.496-0.237,0.661C71.24,94.936,71.025,95.018,70.753,95.018z"/>
			
				<linearGradient id="SVGID_00000069367204705872199810000010545196723321394619_" gradientUnits="userSpaceOnUse" x1="34.0218" y1="91.7662" x2="115.978" y2="91.7662">
				<stop  offset="0" style="stop-color:#5A5A5A"/>
				<stop  offset="0.0753" style="stop-color:#3A3A3A"/>
				<stop  offset="0.2104" style="stop-color:#4E4E4E"/>
				<stop  offset="0.3818" style="stop-color:#5A5A5A"/>
				<stop  offset="0.7481" style="stop-color:#434343"/>
				<stop  offset="0.9221" style="stop-color:#3A3A3A"/>
				<stop  offset="1" style="stop-color:#4E4E4E"/>
			</linearGradient>
			<path style="fill:url(#SVGID_00000069367204705872199810000010545196723321394619_);" d="M64.743,96.418
				c0.828,0,1.434-0.244,1.818-0.731c0.384-0.487,0.575-1.254,0.575-2.302v-6.272h-1.559v6.461c0,0.536-0.064,0.908-0.192,1.117
				s-0.346,0.314-0.655,0.314c-0.292,0-0.5-0.098-0.624-0.295c-0.124-0.197-0.186-0.547-0.186-1.051v-6.546h-1.559v6.272
				c0,1.051,0.191,1.82,0.572,2.305C63.315,96.176,63.918,96.418,64.743,96.418z"/>
			
				<linearGradient id="SVGID_00000007397484046439545770000016236466978111810207_" gradientUnits="userSpaceOnUse" x1="34.0221" y1="81.593" x2="115.9781" y2="81.593">
				<stop  offset="0" style="stop-color:#5A5A5A"/>
				<stop  offset="0.0753" style="stop-color:#3A3A3A"/>
				<stop  offset="0.2104" style="stop-color:#4E4E4E"/>
				<stop  offset="0.3818" style="stop-color:#5A5A5A"/>
				<stop  offset="0.7481" style="stop-color:#434343"/>
				<stop  offset="0.9221" style="stop-color:#3A3A3A"/>
				<stop  offset="1" style="stop-color:#4E4E4E"/>
			</linearGradient>
			<polygon style="fill:url(#SVGID_00000007397484046439545770000016236466978111810207_);" points="73.754,77.947 73.754,85.239 
				77.227,85.239 77.227,84.09 74.971,84.09 74.971,77.947 			"/>
			
				<linearGradient id="SVGID_00000148645779696149263260000000948815889651479686_" gradientUnits="userSpaceOnUse" x1="34.0222" y1="91.6718" x2="115.9784" y2="91.6718">
				<stop  offset="0" style="stop-color:#5A5A5A"/>
				<stop  offset="0.0753" style="stop-color:#3A3A3A"/>
				<stop  offset="0.2104" style="stop-color:#4E4E4E"/>
				<stop  offset="0.3818" style="stop-color:#5A5A5A"/>
				<stop  offset="0.7481" style="stop-color:#434343"/>
				<stop  offset="0.9221" style="stop-color:#3A3A3A"/>
				<stop  offset="1" style="stop-color:#4E4E4E"/>
			</linearGradient>
			<path style="fill:url(#SVGID_00000148645779696149263260000000948815889651479686_);" d="M93.935,87.315
				c-0.341-0.134-0.818-0.201-1.431-0.201h-1.882v9.116h1.882c0.613,0,1.09-0.067,1.431-0.201c0.341-0.134,0.633-0.357,0.877-0.67
				c0.292-0.378,0.506-0.86,0.642-1.446c0.136-0.586,0.204-1.336,0.204-2.25c0-0.909-0.067-1.655-0.201-2.238
				c-0.134-0.582-0.349-1.063-0.646-1.44C94.568,87.672,94.276,87.449,93.935,87.315z M93.983,93.499
				c-0.077,0.465-0.201,0.815-0.371,1.05c-0.089,0.126-0.214,0.215-0.375,0.268c-0.16,0.053-0.397,0.079-0.709,0.079h-0.371v-6.461
				h0.371c0.313,0,0.549,0.026,0.709,0.079c0.16,0.053,0.285,0.142,0.375,0.268c0.171,0.235,0.294,0.586,0.371,1.05
				c0.077,0.465,0.116,1.075,0.116,1.83C94.099,92.422,94.061,93.034,93.983,93.499z"/>
			
				<linearGradient id="SVGID_00000026859110420568669380000010135148947104628120_" gradientUnits="userSpaceOnUse" x1="34.0225" y1="91.6718" x2="115.9778" y2="91.6718">
				<stop  offset="0" style="stop-color:#5A5A5A"/>
				<stop  offset="0.0753" style="stop-color:#3A3A3A"/>
				<stop  offset="0.2104" style="stop-color:#4E4E4E"/>
				<stop  offset="0.3818" style="stop-color:#5A5A5A"/>
				<stop  offset="0.7481" style="stop-color:#434343"/>
				<stop  offset="0.9221" style="stop-color:#3A3A3A"/>
				<stop  offset="1" style="stop-color:#4E4E4E"/>
			</linearGradient>
			<polygon style="fill:url(#SVGID_00000026859110420568669380000010135148947104628120_);" points="76.726,96.23 76.726,88.496 
				78.236,88.496 78.236,87.114 73.688,87.114 73.688,88.496 75.192,88.496 75.192,96.23 			"/>
			
				<linearGradient id="SVGID_00000038388450891228900190000004137243620779009706_" gradientUnits="userSpaceOnUse" x1="34.0217" y1="91.6718" x2="115.9784" y2="91.6718">
				<stop  offset="0" style="stop-color:#5A5A5A"/>
				<stop  offset="0.0753" style="stop-color:#3A3A3A"/>
				<stop  offset="0.2104" style="stop-color:#4E4E4E"/>
				<stop  offset="0.3818" style="stop-color:#5A5A5A"/>
				<stop  offset="0.7481" style="stop-color:#434343"/>
				<stop  offset="0.9221" style="stop-color:#3A3A3A"/>
				<stop  offset="1" style="stop-color:#4E4E4E"/>
			</linearGradient>
			<path style="fill:url(#SVGID_00000038388450891228900190000004137243620779009706_);" d="M79.674,96.23l0.298-1.973h1.699
				l0.262,1.973h1.498l-1.638-9.116h-1.93L78.2,96.23H79.674z M80.806,88.6l0.639,4.238h-1.236L80.806,88.6z"/>
			
				<linearGradient id="SVGID_00000090265613915462284960000003824808088755620255_" gradientUnits="userSpaceOnUse" x1="34.0212" y1="81.593" x2="115.9786" y2="81.593">
				<stop  offset="0" style="stop-color:#5A5A5A"/>
				<stop  offset="0.0753" style="stop-color:#3A3A3A"/>
				<stop  offset="0.2104" style="stop-color:#4E4E4E"/>
				<stop  offset="0.3818" style="stop-color:#5A5A5A"/>
				<stop  offset="0.7481" style="stop-color:#434343"/>
				<stop  offset="0.9221" style="stop-color:#3A3A3A"/>
				<stop  offset="1" style="stop-color:#4E4E4E"/>
			</linearGradient>
			<path style="fill:url(#SVGID_00000090265613915462284960000003824808088755620255_);" d="M84.714,85.239l0.77-4.151
				c0.023-0.107,0.047-0.28,0.073-0.519c0.026-0.239,0.055-0.567,0.088-0.986c0.003,0.253,0.019,0.51,0.046,0.77
				c0.028,0.26,0.066,0.521,0.114,0.784l0.765,4.102h1.008l1.228-7.293H87.73l-0.628,4.048c-0.036,0.227-0.063,0.461-0.083,0.701
				c-0.02,0.24-0.029,0.482-0.029,0.726c-0.003-0.257-0.014-0.5-0.034-0.731c-0.019-0.23-0.047-0.448-0.083-0.653l-0.721-4.092
				h-0.965l-0.731,3.961c-0.023,0.127-0.047,0.317-0.073,0.57c-0.026,0.253-0.052,0.568-0.078,0.945
				c-0.016-0.387-0.032-0.695-0.046-0.926c-0.015-0.231-0.032-0.411-0.051-0.541l-0.609-4.009h-1.106l1.237,7.293H84.714z"/>
			
				<linearGradient id="SVGID_00000095320540198967679100000014074622840153652906_" gradientUnits="userSpaceOnUse" x1="34.0211" y1="81.6028" x2="115.9785" y2="81.6028">
				<stop  offset="0" style="stop-color:#5A5A5A"/>
				<stop  offset="0.0753" style="stop-color:#3A3A3A"/>
				<stop  offset="0.2104" style="stop-color:#4E4E4E"/>
				<stop  offset="0.3818" style="stop-color:#5A5A5A"/>
				<stop  offset="0.7481" style="stop-color:#434343"/>
				<stop  offset="0.9221" style="stop-color:#3A3A3A"/>
				<stop  offset="1" style="stop-color:#4E4E4E"/>
			</linearGradient>
			<path style="fill:url(#SVGID_00000095320540198967679100000014074622840153652906_);" d="M81.448,84.436
				c0.362-0.643,0.543-1.59,0.543-2.84c0-1.244-0.181-2.186-0.543-2.828c-0.362-0.641-0.896-0.962-1.6-0.962
				c-0.705,0-1.238,0.321-1.6,0.962c-0.362,0.642-0.543,1.584-0.543,2.828c0,1.25,0.181,2.197,0.543,2.84
				c0.362,0.643,0.896,0.965,1.6,0.965C80.552,85.4,81.086,85.078,81.448,84.436z M79.146,83.654
				c-0.149-0.44-0.224-1.126-0.224-2.058c0-0.929,0.075-1.613,0.224-2.053c0.149-0.44,0.383-0.66,0.702-0.66
				c0.318,0,0.552,0.22,0.701,0.66c0.149,0.44,0.224,1.125,0.224,2.053c0,0.932-0.075,1.618-0.224,2.058
				c-0.149,0.44-0.383,0.66-0.701,0.66C79.529,84.314,79.296,84.094,79.146,83.654z"/>
		</g>
		<g>
			
				<linearGradient id="SVGID_00000000206519233711007690000017142502548238383293_" gradientUnits="userSpaceOnUse" x1="34.0212" y1="101.7482" x2="115.9786" y2="101.7482">
				<stop  offset="0" style="stop-color:#5A5A5A"/>
				<stop  offset="0.0753" style="stop-color:#3A3A3A"/>
				<stop  offset="0.2104" style="stop-color:#4E4E4E"/>
				<stop  offset="0.3818" style="stop-color:#5A5A5A"/>
				<stop  offset="0.7481" style="stop-color:#434343"/>
				<stop  offset="0.9221" style="stop-color:#3A3A3A"/>
				<stop  offset="1" style="stop-color:#4E4E4E"/>
			</linearGradient>
			<path style="fill:url(#SVGID_00000000206519233711007690000017142502548238383293_);" d="M85.608,103.797h0.662l0.134-0.887
				h0.764l0.118,0.887h0.673l-0.736-4.098h-0.868L85.608,103.797z M86.78,100.367l0.287,1.905h-0.556L86.78,100.367z"/>
			
				<linearGradient id="SVGID_00000019658993217406624660000003949070611445196718_" gradientUnits="userSpaceOnUse" x1="34.0218" y1="101.7659" x2="115.978" y2="101.7659">
				<stop  offset="0" style="stop-color:#5A5A5A"/>
				<stop  offset="0.0753" style="stop-color:#3A3A3A"/>
				<stop  offset="0.2104" style="stop-color:#4E4E4E"/>
				<stop  offset="0.3818" style="stop-color:#5A5A5A"/>
				<stop  offset="0.7481" style="stop-color:#434343"/>
				<stop  offset="0.9221" style="stop-color:#3A3A3A"/>
				<stop  offset="1" style="stop-color:#4E4E4E"/>
			</linearGradient>
			<path style="fill:url(#SVGID_00000019658993217406624660000003949070611445196718_);" d="M63.259,99.661
				c-0.361,0-0.62,0.16-0.775,0.481c-0.155,0.32-0.233,0.863-0.233,1.627c0,0.763,0.078,1.304,0.233,1.623
				c0.155,0.319,0.413,0.479,0.775,0.479c0.363,0,0.623-0.161,0.78-0.482c0.157-0.321,0.235-0.861,0.235-1.62
				c0-0.761-0.078-1.302-0.235-1.625C63.882,99.822,63.622,99.661,63.259,99.661z M63.534,102.973
				c-0.052,0.214-0.144,0.32-0.275,0.32c-0.13,0-0.22-0.105-0.271-0.315c-0.051-0.21-0.077-0.613-0.077-1.21
				c0-0.599,0.026-1.002,0.077-1.211c0.051-0.209,0.141-0.313,0.271-0.313c0.131,0,0.223,0.106,0.275,0.319
				c0.052,0.213,0.078,0.615,0.078,1.206C63.612,102.358,63.586,102.759,63.534,102.973z"/>
			
				<linearGradient id="SVGID_00000084506966920804265330000000256702909397813667_" gradientUnits="userSpaceOnUse" x1="34.0211" y1="101.7645" x2="115.9794" y2="101.7645">
				<stop  offset="0" style="stop-color:#5A5A5A"/>
				<stop  offset="0.0753" style="stop-color:#3A3A3A"/>
				<stop  offset="0.2104" style="stop-color:#4E4E4E"/>
				<stop  offset="0.3818" style="stop-color:#5A5A5A"/>
				<stop  offset="0.7481" style="stop-color:#434343"/>
				<stop  offset="0.9221" style="stop-color:#3A3A3A"/>
				<stop  offset="1" style="stop-color:#4E4E4E"/>
			</linearGradient>
			<path style="fill:url(#SVGID_00000084506966920804265330000000256702909397813667_);" d="M61.701,103.252h-0.534v-3.52h-0.454
				c-0.12,0.109-0.241,0.203-0.361,0.281c-0.121,0.078-0.243,0.139-0.367,0.185v0.381h0.561v2.674h-0.561v0.545h1.716V103.252z"/>
			
				<linearGradient id="SVGID_00000088128399642601307550000011312426427447419803_" gradientUnits="userSpaceOnUse" x1="34.0219" y1="101.7482" x2="115.9782" y2="101.7482">
				<stop  offset="0" style="stop-color:#5A5A5A"/>
				<stop  offset="0.0753" style="stop-color:#3A3A3A"/>
				<stop  offset="0.2104" style="stop-color:#4E4E4E"/>
				<stop  offset="0.3818" style="stop-color:#5A5A5A"/>
				<stop  offset="0.7481" style="stop-color:#434343"/>
				<stop  offset="0.9221" style="stop-color:#3A3A3A"/>
				<stop  offset="1" style="stop-color:#4E4E4E"/>
			</linearGradient>
			<polygon style="fill:url(#SVGID_00000088128399642601307550000011312426427447419803_);" points="88.34,99.699 88.34,103.797 
				90.292,103.797 90.292,103.151 89.024,103.151 89.024,99.699 			"/>
			
				<linearGradient id="SVGID_00000174574636558010255730000011687044573736732857_" gradientUnits="userSpaceOnUse" x1="34.0201" y1="101.7482" x2="115.98" y2="101.7482">
				<stop  offset="0" style="stop-color:#5A5A5A"/>
				<stop  offset="0.0753" style="stop-color:#3A3A3A"/>
				<stop  offset="0.2104" style="stop-color:#4E4E4E"/>
				<stop  offset="0.3818" style="stop-color:#5A5A5A"/>
				<stop  offset="0.7481" style="stop-color:#434343"/>
				<stop  offset="0.9221" style="stop-color:#3A3A3A"/>
				<stop  offset="1" style="stop-color:#4E4E4E"/>
			</linearGradient>
			<path style="fill:url(#SVGID_00000174574636558010255730000011687044573736732857_);" d="M75.032,99.699h-0.6v2.097
				c0,0.1,0.008,0.221,0.023,0.361c0.016,0.141,0.038,0.297,0.067,0.468h-0.022c-0.029-0.15-0.059-0.287-0.09-0.413
				c-0.031-0.126-0.063-0.234-0.096-0.326l-0.797-2.187h-0.627v4.098h0.6v-2.157c0-0.164-0.007-0.323-0.022-0.475
				c-0.015-0.152-0.037-0.302-0.068-0.45h0.022c0.018,0.12,0.043,0.241,0.074,0.361c0.031,0.12,0.068,0.241,0.112,0.361l0.851,2.36
				h0.572V99.699z"/>
			
				<linearGradient id="SVGID_00000101782815887873815950000009542115060323631237_" gradientUnits="userSpaceOnUse" x1="34.0223" y1="101.7906" x2="115.9778" y2="101.7906">
				<stop  offset="0" style="stop-color:#5A5A5A"/>
				<stop  offset="0.0753" style="stop-color:#3A3A3A"/>
				<stop  offset="0.2104" style="stop-color:#4E4E4E"/>
				<stop  offset="0.3818" style="stop-color:#5A5A5A"/>
				<stop  offset="0.7481" style="stop-color:#434343"/>
				<stop  offset="0.9221" style="stop-color:#3A3A3A"/>
				<stop  offset="1" style="stop-color:#4E4E4E"/>
			</linearGradient>
			<path style="fill:url(#SVGID_00000101782815887873815950000009542115060323631237_);" d="M80.213,99.699v2.819
				c0,0.473,0.086,0.818,0.257,1.036c0.172,0.218,0.443,0.327,0.813,0.327c0.372,0,0.645-0.109,0.817-0.328
				c0.173-0.219,0.259-0.564,0.259-1.035v-2.819h-0.701v2.904c0,0.241-0.029,0.408-0.086,0.502
				c-0.057,0.094-0.156,0.141-0.294,0.141c-0.131,0-0.225-0.044-0.281-0.133c-0.056-0.088-0.083-0.246-0.083-0.472v-2.942H80.213z"
				/>
			
				<linearGradient id="SVGID_00000158711043615855897980000010415809265038029466_" gradientUnits="userSpaceOnUse" x1="34.0222" y1="101.7482" x2="115.9781" y2="101.7482">
				<stop  offset="0" style="stop-color:#5A5A5A"/>
				<stop  offset="0.0753" style="stop-color:#3A3A3A"/>
				<stop  offset="0.2104" style="stop-color:#4E4E4E"/>
				<stop  offset="0.3818" style="stop-color:#5A5A5A"/>
				<stop  offset="0.7481" style="stop-color:#434343"/>
				<stop  offset="0.9221" style="stop-color:#3A3A3A"/>
				<stop  offset="1" style="stop-color:#4E4E4E"/>
			</linearGradient>
			<path style="fill:url(#SVGID_00000158711043615855897980000010415809265038029466_);" d="M85.166,101.548
				c0.094-0.182,0.141-0.396,0.141-0.645c0-0.212-0.035-0.405-0.105-0.579c-0.07-0.174-0.167-0.31-0.291-0.407
				c-0.102-0.078-0.219-0.135-0.352-0.168c-0.132-0.034-0.331-0.051-0.595-0.051h-0.909v4.098h0.69v-1.686h0.096
				c0.047,0,0.096-0.002,0.147-0.006c0.05-0.004,0.096-0.007,0.138-0.011l0.493,1.703h0.695l-0.567-1.812
				C84.932,101.875,85.072,101.73,85.166,101.548z M84.445,101.395c-0.108,0.103-0.289,0.155-0.545,0.155
				c-0.042,0-0.073,0-0.094-0.001c-0.021-0.001-0.042-0.003-0.062-0.007v-1.281c0.004,0,0.01-0.001,0.019-0.003
				c0.082-0.006,0.143-0.008,0.183-0.008c0.232,0,0.4,0.05,0.504,0.149c0.104,0.1,0.156,0.259,0.156,0.478
				C84.606,101.119,84.553,101.292,84.445,101.395z"/>
			
				<linearGradient id="SVGID_00000079467857025988910760000002856685440435927972_" gradientUnits="userSpaceOnUse" x1="34.0213" y1="101.7482" x2="115.9787" y2="101.7482">
				<stop  offset="0" style="stop-color:#5A5A5A"/>
				<stop  offset="0.0753" style="stop-color:#3A3A3A"/>
				<stop  offset="0.2104" style="stop-color:#4E4E4E"/>
				<stop  offset="0.3818" style="stop-color:#5A5A5A"/>
				<stop  offset="0.7481" style="stop-color:#434343"/>
				<stop  offset="0.9221" style="stop-color:#3A3A3A"/>
				<stop  offset="1" style="stop-color:#4E4E4E"/>
			</linearGradient>
			<path style="fill:url(#SVGID_00000079467857025988910760000002856685440435927972_);" d="M76.176,99.699l-0.747,4.098h0.662
				l0.134-0.887h0.764l0.118,0.887h0.673l-0.736-4.098H76.176z M76.332,102.272l0.268-1.905l0.287,1.905H76.332z"/>
			
				<linearGradient id="SVGID_00000178915337875063147350000006068719686471641752_" gradientUnits="userSpaceOnUse" x1="34.0215" y1="101.7878" x2="115.9786" y2="101.7878">
				<stop  offset="0" style="stop-color:#5A5A5A"/>
				<stop  offset="0.0753" style="stop-color:#3A3A3A"/>
				<stop  offset="0.2104" style="stop-color:#4E4E4E"/>
				<stop  offset="0.3818" style="stop-color:#5A5A5A"/>
				<stop  offset="0.7481" style="stop-color:#434343"/>
				<stop  offset="0.9221" style="stop-color:#3A3A3A"/>
				<stop  offset="1" style="stop-color:#4E4E4E"/>
			</linearGradient>
			<polygon style="fill:url(#SVGID_00000178915337875063147350000006068719686471641752_);" points="70.419,99.71 70.017,99.71 
				67.786,103.865 68.183,103.865 			"/>
			
				<linearGradient id="SVGID_00000026882489947145331120000011645058193300687003_" gradientUnits="userSpaceOnUse" x1="34.0219" y1="101.7659" x2="115.978" y2="101.7659">
				<stop  offset="0" style="stop-color:#5A5A5A"/>
				<stop  offset="0.0753" style="stop-color:#3A3A3A"/>
				<stop  offset="0.2104" style="stop-color:#4E4E4E"/>
				<stop  offset="0.3818" style="stop-color:#5A5A5A"/>
				<stop  offset="0.7481" style="stop-color:#434343"/>
				<stop  offset="0.9221" style="stop-color:#3A3A3A"/>
				<stop  offset="1" style="stop-color:#4E4E4E"/>
			</linearGradient>
			<path style="fill:url(#SVGID_00000026882489947145331120000011645058193300687003_);" d="M65.676,99.661
				c-0.361,0-0.62,0.16-0.775,0.481c-0.155,0.32-0.233,0.863-0.233,1.627c0,0.763,0.077,1.304,0.233,1.623
				c0.155,0.319,0.413,0.479,0.775,0.479c0.363,0,0.623-0.161,0.78-0.482c0.157-0.321,0.235-0.861,0.235-1.62
				c0-0.761-0.078-1.302-0.235-1.625C66.299,99.822,66.039,99.661,65.676,99.661z M65.951,102.973
				c-0.052,0.214-0.144,0.32-0.275,0.32c-0.13,0-0.22-0.105-0.271-0.315c-0.051-0.21-0.077-0.613-0.077-1.21
				c0-0.599,0.026-1.002,0.077-1.211c0.051-0.209,0.141-0.313,0.271-0.313c0.131,0,0.223,0.106,0.275,0.319
				c0.052,0.213,0.078,0.615,0.078,1.206C66.029,102.358,66.003,102.759,65.951,102.973z"/>
			
				<linearGradient id="SVGID_00000076563192234638959560000005949532145372866973_" gradientUnits="userSpaceOnUse" x1="34.0213" y1="100.6299" x2="115.979" y2="100.6299">
				<stop  offset="0" style="stop-color:#5A5A5A"/>
				<stop  offset="0.0753" style="stop-color:#3A3A3A"/>
				<stop  offset="0.2104" style="stop-color:#4E4E4E"/>
				<stop  offset="0.3818" style="stop-color:#5A5A5A"/>
				<stop  offset="0.7481" style="stop-color:#434343"/>
				<stop  offset="0.9221" style="stop-color:#3A3A3A"/>
				<stop  offset="1" style="stop-color:#4E4E4E"/>
			</linearGradient>
			<path style="fill:url(#SVGID_00000076563192234638959560000005949532145372866973_);" d="M68.878,100.624
				c0-0.255-0.09-0.472-0.268-0.649c-0.179-0.177-0.396-0.266-0.651-0.266c-0.256,0-0.473,0.089-0.652,0.266
				c-0.179,0.177-0.268,0.393-0.268,0.649c0,0.256,0.09,0.474,0.27,0.654c0.18,0.181,0.396,0.271,0.65,0.271
				c0.255,0,0.472-0.09,0.651-0.271C68.789,101.098,68.878,100.88,68.878,100.624z M68.262,100.927
				c-0.082,0.081-0.183,0.122-0.304,0.122c-0.121,0-0.221-0.04-0.303-0.122c-0.081-0.081-0.122-0.18-0.122-0.297
				c0-0.119,0.041-0.22,0.125-0.305c0.083-0.085,0.183-0.127,0.3-0.127c0.117,0,0.217,0.042,0.301,0.127
				c0.084,0.085,0.126,0.187,0.126,0.305C68.385,100.747,68.344,100.846,68.262,100.927z"/>
			
				<linearGradient id="SVGID_00000065756357110863735460000017433105416205321915_" gradientUnits="userSpaceOnUse" x1="34.0223" y1="101.7482" x2="115.9778" y2="101.7482">
				<stop  offset="0" style="stop-color:#5A5A5A"/>
				<stop  offset="0.0753" style="stop-color:#3A3A3A"/>
				<stop  offset="0.2104" style="stop-color:#4E4E4E"/>
				<stop  offset="0.3818" style="stop-color:#5A5A5A"/>
				<stop  offset="0.7481" style="stop-color:#434343"/>
				<stop  offset="0.9221" style="stop-color:#3A3A3A"/>
				<stop  offset="1" style="stop-color:#4E4E4E"/>
			</linearGradient>
			<polygon style="fill:url(#SVGID_00000065756357110863735460000017433105416205321915_);" points="79.107,103.797 79.107,100.321 
				79.786,100.321 79.786,99.699 77.742,99.699 77.742,100.321 78.418,100.321 78.418,103.797 			"/>
			
				<linearGradient id="SVGID_00000082360918165356936020000007595401218858122156_" gradientUnits="userSpaceOnUse" x1="34.0233" y1="102.9402" x2="115.9765" y2="102.9402">
				<stop  offset="0" style="stop-color:#5A5A5A"/>
				<stop  offset="0.0753" style="stop-color:#3A3A3A"/>
				<stop  offset="0.2104" style="stop-color:#4E4E4E"/>
				<stop  offset="0.3818" style="stop-color:#5A5A5A"/>
				<stop  offset="0.7481" style="stop-color:#434343"/>
				<stop  offset="0.9221" style="stop-color:#3A3A3A"/>
				<stop  offset="1" style="stop-color:#4E4E4E"/>
			</linearGradient>
			<path style="fill:url(#SVGID_00000082360918165356936020000007595401218858122156_);" d="M70.247,103.86
				c0.255,0,0.473-0.09,0.651-0.27c0.179-0.18,0.268-0.396,0.268-0.65c0-0.256-0.089-0.473-0.268-0.652
				c-0.179-0.179-0.396-0.268-0.651-0.268c-0.256,0-0.473,0.089-0.652,0.268c-0.179,0.179-0.268,0.396-0.268,0.652
				c0,0.254,0.089,0.47,0.268,0.65C69.774,103.77,69.991,103.86,70.247,103.86z M69.944,102.638
				c0.083-0.083,0.184-0.125,0.303-0.125c0.117,0,0.217,0.042,0.3,0.125c0.083,0.083,0.125,0.184,0.125,0.302
				s-0.041,0.219-0.123,0.301s-0.182,0.123-0.301,0.123c-0.121,0-0.222-0.041-0.304-0.123s-0.123-0.183-0.123-0.301
				S69.861,102.721,69.944,102.638z"/>
		</g>
		<g>
			
				<radialGradient id="SVGID_00000018937882405833538400000010105853643072666534_" cx="75" cy="-5262.2822" r="48.2575" gradientTransform="matrix(1 0 0 2.892 0 15308.0098)" gradientUnits="userSpaceOnUse">
				<stop  offset="0.6286" style="stop-color:#FFFFFF"/>
				<stop  offset="1" style="stop-color:#000000"/>
			</radialGradient>
			<path style="opacity:0.2;fill:url(#SVGID_00000018937882405833538400000010105853643072666534_);" d="M115.94,124.905
				c-0.491-10.348-4.699-26.498-4.699-40.856s4.18-24.629,4.18-32.299c0-4.078,0.58-11.148-0.72-17.446
				c-1.145-5.547-3.209-9.366-4.555-11.156c-1.397-1.857-4.502-2.841-8.581-3.223C91.435,18.976,81.643,18.846,75,18.846
				s-16.435,0.13-26.566,1.079c-4.079,0.382-7.184,1.366-8.581,3.223c-1.346,1.79-3.41,5.609-4.555,11.156
				c-1.3,6.298-0.72,13.368-0.72,17.446c0,7.67,4.18,17.942,4.18,32.299s-4.208,30.508-4.699,40.856
				c-0.491,10.348,3.886,16.767,7.622,22.25c5.33,7.823,3.365,8.668,5.312,10.615c1.947,1.947,20.971,2.575,28.006,2.575
				c7.036,0,26.06-0.628,28.006-2.575c1.947-1.947-0.017-2.792,5.312-10.615C112.054,141.672,116.431,135.253,115.94,124.905z"/>
			
				<radialGradient id="SVGID_00000142872186484280206460000000488584751185655978_" cx="75" cy="7067.7095" r="148.7926" gradientTransform="matrix(1 0 0 0.5398 0 -3723.4783)" gradientUnits="userSpaceOnUse">
				<stop  offset="0.7685" style="stop-color:#FFFFFF"/>
				<stop  offset="0.9115" style="stop-color:#000000"/>
			</radialGradient>
			<path style="opacity:0.2;fill:url(#SVGID_00000142872186484280206460000000488584751185655978_);" d="M115.94,124.905
				c-0.491-10.348-4.699-26.498-4.699-40.856s4.18-24.629,4.18-32.299c0-4.078,0.58-11.148-0.72-17.446
				c-1.145-5.547-3.209-9.366-4.555-11.156c-1.397-1.857-4.502-2.841-8.581-3.223C91.435,18.976,81.643,18.846,75,18.846
				s-16.435,0.13-26.566,1.079c-4.079,0.382-7.184,1.366-8.581,3.223c-1.346,1.79-3.41,5.609-4.555,11.156
				c-1.3,6.298-0.72,13.368-0.72,17.446c0,7.67,4.18,17.942,4.18,32.299s-4.208,30.508-4.699,40.856
				c-0.491,10.348,3.886,16.767,7.622,22.25c5.33,7.823,3.365,8.668,5.312,10.615c1.947,1.947,20.971,2.575,28.006,2.575
				c7.036,0,26.06-0.628,28.006-2.575c1.947-1.947-0.017-2.792,5.312-10.615C112.054,141.672,116.431,135.253,115.94,124.905z"/>
			
				<radialGradient id="SVGID_00000168074671243112780250000012527629381602657182_" cx="68.2535" cy="-3803.2761" r="66.7932" fx="82.0988" fy="-3784.7991" gradientTransform="matrix(1 0 0 1.9078 0 7344.9287)" gradientUnits="userSpaceOnUse">
				<stop  offset="0.0122" style="stop-color:#FFFFFF"/>
				<stop  offset="0.9115" style="stop-color:#000000"/>
			</radialGradient>
			<path style="opacity:0.3;fill:url(#SVGID_00000168074671243112780250000012527629381602657182_);" d="M115.94,124.905
				c-0.491-10.348-4.699-26.498-4.699-40.856s4.18-24.629,4.18-32.299c0-4.078,0.58-11.148-0.72-17.446
				c-1.145-5.547-3.209-9.366-4.555-11.156c-1.397-1.857-4.502-2.841-8.581-3.223C91.435,18.976,81.643,18.846,75,18.846
				s-16.435,0.13-26.566,1.079c-4.079,0.382-7.184,1.366-8.581,3.223c-1.346,1.79-3.41,5.609-4.555,11.156
				c-1.3,6.298-0.72,13.368-0.72,17.446c0,7.67,4.18,17.942,4.18,32.299s-4.208,30.508-4.699,40.856
				c-0.491,10.348,3.886,16.767,7.622,22.25c5.33,7.823,3.365,8.668,5.312,10.615c1.947,1.947,20.971,2.575,28.006,2.575
				c7.036,0,26.06-0.628,28.006-2.575c1.947-1.947-0.017-2.792,5.312-10.615C112.054,141.672,116.431,135.253,115.94,124.905z"/>
		</g>
	</g>
</g>
</svg>
