<?xml version="1.0" encoding="utf-8"?>
<!-- Generator: Adobe Illustrator 27.5.0, SVG Export Plug-In . SVG Version: 6.00 Build 0)  -->
<svg version="1.1" id="Layer_1" xmlns="http://www.w3.org/2000/svg" xmlns:xlink="http://www.w3.org/1999/xlink" x="0px" y="0px"
	 viewBox="0 0 8530 4781" style="enable-background:new 0 0 8530 4781;" xml:space="preserve">
<g>
	<path style="fill:#FDFDFD;" d="M4265.402,4780.453c-1412.831,0-2825.662-0.06-4238.493,0.547
		c-21.964,0.01-26.917-4.945-26.909-26.907C0.6,3178.363,0.6,1602.634,0,26.904C-0.008,4.942,4.946-0.004,26.909,0
		c2825.662,0.574,5651.324,0.574,8476.985,0c21.963-0.004,26.918,4.942,26.909,26.904c-0.6,1575.73-0.6,3151.459,0,4727.189
		c0.009,21.962-4.945,26.917-26.909,26.907C7091.064,4780.394,5678.233,4780.453,4265.402,4780.453z"/>
	<path style="fill:#DCDCDC;" d="M6702.684,3374.96c33.328,18.559,71.35,15.857,107.117,22.26
		c222.027,39.751,442.724,84.657,653.984,166.05c69.947,26.949,136.923,60.484,196.338,107.884
		c87.684,69.952,79.141,153.152,0.068,220.421c-102.248,86.985-228.748,122.527-352.795,161.797
		c-115.73,36.638-234.433,62.464-353.569,85.567c-123.65,23.979-247.735,45.515-372.689,61.867
		c-97.005,12.694-193.723,27.66-290.823,39.536c-66.399,8.121-133.265,12.39-199.872,18.881
		c-74.292,7.241-148.468,15.719-222.808,22.395c-58.019,5.21-116.204,8.598-174.328,12.6
		c-112.354,7.737-224.701,15.606-337.087,22.851c-41.713,2.688-83.743,4.155-125.287,4.816
		c-79.904,1.273-159.683,5.862-239.456,8.608c-89.634,3.086-179.468,0.385-268.758,6.271c-64.393,4.245-128.525,2.746-192.751,4.272
		c-98.38,2.338-196.68,8.694-295.174,5.84c-161.817-4.69-323.718-4.14-485.54-6.961c-115.726-2.018-231.52-6.981-347.227-11.523
		c-85.473-3.354-170.972-7.25-256.446-11.179c-100.924-4.639-201.842-10.157-302.593-17.59
		c-110.271-8.137-220.222-20.836-330.544-27.958c-106.575-6.878-212.618-19.031-318.487-31.395
		c-123.089-14.375-246.012-30.934-368.603-50.054c-169.769-26.479-338.431-57.739-504.594-101.195
		c-131.854-34.483-262.806-72.346-378.248-149.142c-24.754-16.467-45.016-37.807-63.528-60.126
		c-33.614-40.527-28.297-95.744,8.131-135.554c59.271-64.773,136.968-98.332,216.239-128.864
		c145.649-56.098,297.797-87.878,450.407-117.51c121.8-23.649,244.634-41.004,367.478-58.06
		c21.915-3.043,44.263-2.507,64.998-11.737c16.362-4.809,24.591,8.911,34.705,16.43c121.661,90.44,254.736,161.182,390.706,226.871
		c17.49,8.45,35.19,16.631,52.975,24.556c48.863,17.396,92.985,43.533,135.277,73.144c92.787,58.102,196.794,84.102,302.216,106.012
		c223.876,46.528,450.398,75.335,677.437,100.511c155.085,17.197,310.602,28.032,466.487,36.037
		c146.408,7.518,292.751,5.743,438.961,3.123c123.638-2.216,247.437-8.027,370.928-16.617
		c303-21.078,604.321-54.921,901.414-120.484c68.613-15.141,137.632-28.281,206.142-44.109
		c98.704-22.802,179.4-69.749,232.324-158.47c19.459-24.151,49.189-30.951,75.542-42.458c75.217-32.842,146.97-71.7,215.429-116.8
		c61.664-35.875,119.219-77.768,176.509-120.103C6675.176,3386.889,6684.486,3372.139,6702.684,3374.96z"/>
	<path style="fill:#FDCA11;" d="M3933.167,1067.381c11.228-5.901,22.456-11.802,33.684-17.703
		c19.424-1.835,33.318-14.905,48.033-25.21c43.771-30.653,86.206-63.286,128.265-96.146c33.322-26.035,69.2-38.607,110.159-39.031
		c29.229-0.303,57.715-2.669,86.552-9.198c57.775-13.08,102.51,16.158,113.224,70.355c-11.892,6.121-20.485-2-29.475-7.222
		c-22.975-13.345-47.335-23.029-73.254-28.727c-42.107-9.257-79.872-3.833-115.343,24.491
		c-89.897,71.783-179.376,144.661-280.013,201.281c-123.868,69.691-254.958,121.468-393.889,153.434
		c-121.728,28.008-240.795,65.396-359.093,105.511c-153.212,51.954-305.425,107.085-465.321,137.191
		c-62.99,11.86-124.752,30.904-186.052,50.335c-94.344,24.216-190.412,42.436-281.047,79.758
		c-74.381,30.629-143.667,69.901-205.29,121.995c-12.746,10.775-24.297,22.76-30.753,38.495
		c-4.715,11.492-5.005,23.254,4.191,32.803c9.169,9.521,20.056,5.835,29.82,1.008c44.288-21.894,92.577-36.368,130.574-69.991
		c12.661,1.288,23.792-5.348,35.892-7.126c44.416-6.28,80.287-33.256,120.366-49.975c34.896-14.557,69.667-29.557,103.973-45.542
		c4.411-2.056,9.066-3.654,13.886-4.293c6.73-0.892,14.263-2.187,17.958,5.399c2.944,6.044-1.553,11.071-4.982,15.65
		c-10.07,13.447-24.245,22.269-37.107,32.549c-46.937,29.499-99.654,48.34-146.084,78.833
		c-27.261,17.903-53.931,36.439-68.754,66.819c5.543,2.44,11.504,1.988,17.035,3.514c6.644,1.832,13.532,3.989,13.285,12.508
		c-0.195,6.734-5.842,9.804-11.442,11.314c-27.471,7.407-38.794,29.4-48.483,52.987c-12.818,39.658-3.858,65.743,30.987,87.127
		c18.304,11.233,37.678,20.707,57.491,28.954c150.565,62.667,303.489,117.609,461.282,160.568
		c161.451,43.956,323.965,79.541,490.083,98.457c98.768,11.247,197.711,20.815,297.005,26.675
		c25.618,1.512,52.78-0.949,75.757,15.141c41.907,16.118,86.578,19.418,130.329,24.073c166.53,17.714,333.598,27.74,501.189,23.792
		c51.087-1.203,102.028-6.013,152.5-15.885c-38.093-9.917-76.401-6.819-114.93-4.556c-86.504,5.08-173.076,6.367-259.619-0.449
		c-8.761-3.887-17.029-9.145-27.279-8.496c-45.431,2.874-90.193-9.339-135.648-6.029c-10.246-0.181-20.524,0.023-30.625-2.112
		c-26.281-3.224-40.219-16.043-37.234-44.557c2.172-20.752-8.638-29.744-29.74-29.309c-32.127,0.662-64.291,0.54-96.445-0.189
		c-163.042-22.161-327.059-38.044-487.72-75.502c-16.621-3.875-38.852-3.518-42.405-24.563c-3.44-20.373,16.6-29.024,30.897-38.533
		c25.203-16.763,51.568-31.488,80.927-39.858c12.866-3.834,26.792-4.225,41.551-12.644c-17.587-14.4-38.064-18.858-57.137-25.793
		c-11.892-4.323-24.14-7.652-34.455-15.288c-11.501-8.515-16.544-19.903-9.412-33.016c7.636-14.039,20.165-12.967,32.921-7.103
		c7.138,3.281,12.938,8.555,19.268,13.049c7.709,5.473,15.921,9.114,22.615-0.898c4.912-7.346,8.712-14.969-0.143-23.3
		c-5.525-5.198-15.981-11.129-4.294-20.698c12.236-2.629,22.913,2.568,33.571,6.976c90.408,37.389,186.015,52.039,282.045,64.682
		c24.12,2.271,47.024,19.119,75.056,6.577c-13.751-11.688-29.872-8.106-42.897-13.841c-9.566-4.213-24.263-6.258-22.727-18.882
		c1.773-14.57,16.081-18.896,29.501-17.852c33.891,2.638,67.894,4.234,99.763,19.078c16.445,7.66,34.492,11.906,54.739,19.388
		c-17.371-9.408-32.057-16.708-46.481-24.529c-31.659-17.167-36.853-53.154-56.685-78.685c-0.719-0.926,3.448-4.167,6.202-5.448
		c12.967-3.818,25.195,0.505,37.482,3.329c136.284,31.32,274.049,49.569,413.857,58.313c179.068,11.2,356.544-1.941,534.155-19.829
		c21.833-2.199,43.831-2.133,65.55-5.488c3.893-0.313-2.693-4.142-0.48-0.923c0.599,0.871-0.14,1.321-2.187,1.576
		c-113.563,14.093-227.775,14.879-341.705,10.939c-233.937-8.091-465.207-32.767-684.866-122.852
		c-98.756-40.501-204.044-49.999-309.361-58.549c-55.161-4.479-111.288-6.947-161.554-34.918
		c1.881-17.378-7.593-27.601-21.427-36.289c-26.385-16.569-49.033-38.471-74.104-56.365
		c-37.729-26.928-79.553-49.269-129.756-37.706c-4.788,1.103-9.63,1.651-13.078-3.199c-0.946-26.017,18.086-40.123,34.573-54.401
		c66.473-57.564,143.942-96.246,225.073-128.425c43.711-17.338,88.468-30.501,135.124-36.986c9.699-1.348,19.517-3.578,29.05-1.093
		c15.598,4.065,27.021,10.948,10.541,27.513c-5.149,5.176-9.868,10.82-6.898,17.887c13.704,32.614,7.073,67.596,12.662,101.046
		c3.67,21.968,7.702,44.472,24.816,61.245c8.28,4.778,14.924,14.943,26.714,7.944c28.894-33.698,57.201-67.837,89.213-98.654
		c96.897-103.712,219.443-170.707,341.687-237.875c77.733-42.711,153.718-88.577,233.586-127.475
		c61.157-29.786,124.667-50.88,192.493-56.439c63.59-5.212,123.742,10.982,182.237,34.362c49.25,26.033,94.786,57.831,138.35,92.314
		c22.026,17.435,21.776,25.032,3.937,44.556c-9.552,10.454-19.325,20.799-9.597,35.751c8.069,12.402,19.862,19.359,34.964,15.055
		c16.166-4.608,23.827-16.016,21.816-33.172c-0.568-4.851-0.987-9.696,0.01-14.579c9.167-20.037,25.798-28.781,46.776-30.97
		c35.269,20.629,45.367,55.524,45.505,91.964c0.086,22.572,6.308,38.104,20.378,54.74c29.172,34.491,60.245,66.416,97.517,92.191
		c44.501,30.774,93.673,42.786,147.163,37.337c25.507-2.598,45.128-8.012,50.54-42.36c3.742-23.75,16.613-28.405,47.061-25.529
		c57.366,5.417,114.102,14.967,170.842,24.608c9.544,1.621,19.036,4.485,31.561,1.869c-21.334-31.667-53.458-48.363-82.238-68.733
		c-12.712-8.998-27.041-15.659-40.171-24.055c-8.095-5.176-20.931-9.312-13.456-23.945c34.878-13.333,69.892-3.37,103.983,1.957
		c155.228,24.255,310.635,47.997,462.31,90.534c11.394,3.195,24.189,9.006,22.284-12.184c8.764-10.657,19.803-6.123,29.778-3.592
		c129.085,32.757,248.581,87.355,356.442,164.984c65.192,46.92,103.861,112.272,113.613,193.853
		c7.751,64.834-14.412,118.67-54.916,167.066c-66.733,67.548-147.417,114.768-232.449,154.128
		c-178.288,82.526-365.499,139.799-554.734,190.978c-32.875,8.891-65.572,18.577-98.262,28.284
		c-108.027,31.221-219.267,47.717-328.823,71.904c-63.765,14.078-127.535,28.788-192.858,34.667
		c-79.657-4.73-159.215-3.194-238.565,4.587c-40.77,3.998-81.762,4.286-122.537,6.356c-61.229,3.11-122.432,7.917-183.936,8.304
		c-123.752,0.78-247.446,7.997-371.266,5.164c-229.877-5.258-459.768-10.326-688.639-35.359
		c-16.695-1.826-32.772-5.414-47.781-12.775c-82.471-40.448-170.837-59.918-260.837-73.551
		c-41.399-6.271-82.483-14.167-124.777-14.405c-21.114-0.118-38.556,0.465-48.816,22.256c-4.275,9.08-13.087,14.215-23,16.63
		c-47.434-1.638-90.787-20.676-135.426-33.567c-95.448-27.565-189.798-58.586-279.194-102.894
		c-93.462-46.323-184.871-96.106-269.788-157.084c-11.74-10.303-25.01-18.497-38.029-26.969
		c-74.052-48.187-100.375-123.273-112.39-204.734c-9.979-67.65,30.726-111.288,79.771-148.626
		c39.684-30.212,84.171-52.243,129.257-73.023c8.845-4.077,17.796-7.759,25.222-14.284c57.748-26.96,119.576-41.622,180.517-58.548
		c311.82-86.606,623.15-174.936,932.649-269.49c88.476-27.03,178.24-50.209,264.86-83.178c15.68-4.775,31.267-9.881,46.64-15.616
		c68.371-21.95,136.516-44.501,201.251-76.056C3826.807,1127.722,3876.642,1090.866,3933.167,1067.381z"/>
	<path style="fill:#C48A5E;" d="M7591.883,2045.133c-1.723,98.396-8.19,195.942-51.429,286.897
		c-98.814,93.935-214.765,161.588-336.899,219.809c-227.499,108.447-467.822,180.435-709.544,247.942
		c-303.23,84.685-611.8,143.875-923.455,187.307c-129.486,18.045-259.691,29.067-389.999,39.722
		c-121.45,9.93-243.093,16.96-364.506,27.192c-35.934,3.028-72.036,3.327-108.052,5.482
		c-298.244,17.844-596.961,17.746-895.397,11.604c-256.665-5.282-511.501-37.13-765.032-77.87
		c-58.777-9.445-117.952-16.384-176.7-26.045c-8.975-1.476-24.748,1.273-20.652-17.41c20.989-9.372,43.801-13.449,65.74-10.659
		c43.063,5.477,85.594-0.28,128.324-0.324c155.137-0.162,310.044-7.892,464.916-13.827c239.078-9.162,478.094-2.358,717.12-4.532
		c139.591-1.269,278.462-13.346,417.629-21.58c102.295-6.052,203.962-18.189,306.08-25.752c84.3-6.244,168.718-12.34,252.703-22.656
		c6.962-0.855,13.252-3.048,19.046-6.83c45.504-16.835,93.999-14.61,141.069-20.017c122.768-14.103,245.119-31.091,367.139-50.099
		c137.226-21.376,273.93-46.143,410.098-73.469c84.152-11.669,166.483-32.651,248.891-52.391
		c149.892-35.905,298.94-75.42,444.518-126.594c151.979-53.424,301.904-111.877,442.402-191.758
		c73.124-41.575,141.229-90.554,204.822-145.582c38.119-32.984,66.083-74.062,89.769-118.244
		C7575.276,2056.504,7577.366,2044.094,7591.883,2045.133z"/>
	<path style="fill:#925122;" d="M6702.684,3374.96c-60.291,46.268-121.524,91.216-185.834,131.808
		c-8.075,5.097-15.05,12.584-25.508,13.156c-11.666-1.6-15.552-7.202-8.951-17.852c5.78-9.325,14.418-15.723,23.048-22.168
		c92.307-68.934,178.798-144.755,261.699-224.551c56.785-54.658,117.614-105.509,164.698-169.744
		c14.363-19.595,28.004-39.496,43.528-65.22c-54.784,34.623-99.135,73.927-147.134,108.202
		c-136.556,97.511-272.315,196.12-414.713,285.124c-22.415,14.01-45.962,25.853-70.05,36.433
		c-22.919,10.066-27.792,5.888-26.756-22.854c-17.648,8.821-32.362,19.491-46.86,30.343
		c-151.706,113.558-319.906,197.661-491.616,275.512c-14.244,6.458-29.388,10.509-43.942,16.169
		c-8.848,3.441-20.154,9.801-26.433-0.744c-6.04-10.144,5.056-17.442,11.28-24.349c9.134-10.135,19.058-19.532,29.508-28.383
		c73.218-62.015,134.846-135.134,197.896-206.883c2.562-2.915,4.418-6.384,4.136-13.017c-19.955,1.12-35.336,13.092-51.319,21.923
		c-23.888,13.198-46.167,29.169-68.084,45.514c-10.96,8.173-22.019,16.315-34.495,21.987c-8.529,3.879-18.646,11.027-26.387,0.702
		c-6.592-8.793,1.688-16.289,6.871-23.167c17.488-23.206,39.199-44.044,41.792-75.51c2.804-7.052,8.44-11.731,13.789-16.664
		c70.167-66.613,137.918-134.663,182.489-222.831c38.203-75.572,43.008-154.496,34.803-236.187
		c-1.219-12.133-9.638-18.606-16.482-26.64c1.317-15.54,14.845-13.735,24.223-15.617c171.334-34.387,340.612-77.268,508.706-124.67
		c216.212-60.971,428.019-134.192,631.613-230.226c50.131-23.646,97.525-53.908,151.956-67.935
		c10.696-2.757,23.313-11.375,32.461,0.398c7.7,9.91-0.58,20.6-5.232,29.885c-71.525,142.752-157.137,276.049-262.825,396.315
		c-59.214,67.381-118.962,134.208-180.948,199.037c-3.389,3.544-6.622,7.17-7.149,12.365
		c-66.988,71.217-140.625,135.339-213.584,200.185C6709.296,3367.99,6706.072,3371.568,6702.684,3374.96z"/>
	<path style="fill:#F9EBD5;" d="M967.409,1904.784c21.254-73.905,62.83-132.963,120.66-184.447
		c86.483-76.993,184.019-136.147,284.669-190.995c52.867-28.809,107.486-54.534,163.755-76.349
		c7.113-2.758,14.879-3.834,22.342-5.689c17.006,4.79,6.338,12.943,1.105,17.807c-10.825,10.063-24.724,15.719-38.308,21.038
		c-99.934,39.13-190.544,95.479-275.771,158.989c-73.618,54.86-139.884,118.876-176.848,206.814
		c-35.618,84.736-21.325,181.078,57.343,253.183c68.298,62.6,147.149,109.105,228.797,151.503
		c264.269,137.23,547.473,220.681,833.997,295.265c212.56,55.331,428.875,91.375,645.096,127.499
		c121.046,20.223,243.179,34.838,365.354,46.645c93.958,9.08,187.873,19.107,282.051,26.573
		c88.321,7.002,176.767,12.945,265.044,20.785c48.512,4.308,97.333,3.465,146,5.765c232.091,10.97,464.55,11.35,696.687,5.576
		c182.999-4.551,365.915-16.28,548.576-31.991c188.518-16.215,377.157-30.966,564.246-59.195
		c195.867-29.553,391.5-60.791,585.208-103.281c193.713-42.491,385.803-90.782,573.911-153.625
		c139.808-46.707,278.755-96.086,409.069-166.454c50.705-27.381,100.577-56.09,148.61-87.969c12.054-8,23.345-18.143,39.229-17.832
		c15.717,14.505-0.213,21.719-8.073,28.252c-49.306,40.985-100.545,79.305-157.177,109.945
		c-22.187,12.003-44.89,22.979-67.033,35.037c-69.766,30.725-145.209,49.192-207.464,96.162c-2.572,1.255-5.26,2.202-8.006,2.987
		c-25.76,3.824-47.211,17.21-68.502,30.999c-97.155,40.324-196.025,75.708-296.848,105.767
		c-161.453,48.136-325.037,87.703-489.611,123.521c-101.3,19.442-202.548,39.134-304.315,55.749
		c-152.79,24.945-305.861,47.738-460.072,62.882c-141.708,13.916-283.719,23.642-425.723,32.832
		c-95.275,6.165-190.806,9.873-286.275,13.719c-118.868,4.787-237.842,11.282-356.662,10.252
		c-161.831-1.404-323.77-5.058-485.493-11.522c-392.195-15.677-782.195-54.833-1169.684-117.924
		c-240.988-39.238-480.907-84.228-715.579-152.439c-181.898-52.871-362.047-111.892-533.258-194.155
		c-125.249-60.179-245.32-129.23-346.806-226.219c-23.377-22.341-42.838-48.049-61.364-74.459
		c-35.593-50.738-53.368-105.952-42.364-168.414C969.251,1919.824,972.479,1912.201,967.409,1904.784z"/>
	<path style="fill:#FCF6EB;" d="M7464.612,2168.208c-10.341,0.087-18.447,5.467-26.513,11.059
		c-146.021,101.253-307.084,172.37-473.424,231.53c-146.478,52.097-295.574,96.169-446.509,134.08
		c-144.839,36.38-290.484,69.065-437.271,96.058c-131.365,24.156-263.184,46.592-395.523,64.455
		c-94.913,12.811-190.204,23.763-285.828,32.223c-110.026,9.735-220.026,19.658-330.156,28.473
		c-92.902,7.436-185.956,11.437-278.871,17.638c-244.411,16.311-489.021,10.994-733.532,9.953
		c-102.903-0.438-205.916-7.641-308.883-11.612c-105.548-4.071-210.755-15.799-316.165-23.509
		c-100.318-7.337-199.952-23.57-300.144-33.22c-108.031-10.406-215.442-25.208-322.493-42.323
		c-105.162-16.812-209.645-37.826-314.656-55.641c-158.033-26.81-312.934-67.175-467.162-109.605
		c-167.893-46.19-332.655-102.047-494.013-168.347c-130.184-53.491-254.471-116.89-367.811-200.167
		c-48.528-35.656-93.698-76.796-112.217-137.624c-17.541-57.616-13.456-112.766,10.905-169.68
		c36.49-85.249,100.796-146.714,170.695-199.574c84.888-64.195,175.545-122.032,276.379-160.629
		c15.417-5.901,29.908-14.234,44.776-21.549c6.253-3.076,9.449-7.022,2.637-12.89c49.871-29.114,105.433-44.323,159.208-63.386
		c157.621-55.876,319.341-97.884,482.573-133.319c132.438-28.75,265.819-53.937,400.192-71.606
		c106.479-14.002,213.17-26.97,320.213-37.143c108.989-10.359,217.934-20.547,327.107-28.951
		c105.36-8.111,210.722-15.946,316.124-23.485c77.554-5.547,155.228-7.668,232.652-12.722c45.302-2.957,91.464,1.679,136.26-9.314
		c-49.746,35.407-102.934,64.538-159.55,87.415c-78.353,16.433-158.408,17.313-237.651,25.468
		c-89.095,9.169-178.545,14.907-267.287,27.557c-11.609,1.655-23.234,2.581-34.92,2.379c-58.798-5.67-116.797,4.269-174.495,12.203
		c-69.562,9.565-139.767,10.921-209.263,21.071c-88.775,12.966-177.861,23.868-266.394,38.522
		c-186.881,30.933-371.858,71.078-554.497,121.039c-174.177,47.645-347.009,100.326-510.338,178.807
		c-71.123,34.175-142.191,69.701-204.664,118.84c-51.556,40.552-101.613,83.934-125.127,147.766
		c-32.761,88.935-30.424,172.459,28.685,254.382c52.09,72.195,123.187,116.272,197.743,156.17
		c129.248,69.165,265.227,122.497,404.917,167.876c164.433,53.417,330.717,99.272,498.89,138.562
		c82.577,19.292,166.262,33.619,249.381,50.503c101.15,20.546,203.74,32.588,304.964,52.604c8.659,1.712,17.537,0.472,26.334,1.136
		c159.349,20.412,318.644,41.482,478.624,55.504c93.942,8.234,187.83,17.713,282.295,21.402
		c111.507,4.355,222.654,17.328,334.494,15.938c21.856-0.423,43.725-1.283,65.446,2.271c52.771,8.284,105.818,2.888,158.746,3.226
		c69.551-0.454,139.096-0.567,208.637-0.12c58.624,0.089,117.321,4.884,175.801-2.916c24.869-4.218,49.962-2.281,74.968-2.646
		c22.049,0.634,44.184,3.198,65.976-2.768c8.434-1.8,16.958-2.678,25.58-2.521c25.559-0.703,51.356,3.365,76.58-3.997
		c67.921-5.069,135.974-7.897,203.87-13.651c135.796-11.508,271.534-23.135,407.082-37.681
		c123.084-13.209,245.265-31.885,367.556-50.191c23.388,1.892,45.845-2.636,67.838-10.186c51.43-10.67,103.438-18.35,155.147-27.418
		c56.626-9.931,112.618-23.282,169.557-31.302c17.083-0.575,33.472-4.526,49.411-10.552c16.953-7.413,35.511-7.72,53.157-12.096
		c17.67-2.48,35.072-6.319,52.37-10.663c8.655-2.476,17.218-5.29,26.066-7.058c26.146-0.118,49.6-11.717,74.39-17.581
		c66.964-17.369,133.474-36.454,200.593-53.181c24.303-4.589,47.905-11.711,71.11-20.242c2.726-1.11,5.535-1.935,8.382-2.648
		c58.599-18.162,118.741-31.612,174.705-57.713c50.957-19.954,102.029-39.627,153.248-58.927
		c52.738-14.733,102.002-37.732,150.209-63.206c52.986-26.917,103.406-58.292,154.133-89.153
		c34.852-17.41,64.431-42.612,96.283-64.466c10.718-7.353,25.358-20.639,33.17,4.428
		C7505.492,2143.143,7491.081,2161.963,7464.612,2168.208z"/>
	<path style="fill:#D39B6E;" d="M5226.108,2847.276c-23.847,22.337-54.864,13.122-82.275,16.836
		c-99.8,13.523-200.815,15.026-300.764,28.865c-54.646,7.566-110.144,9.068-165.28,12.981
		c-109.295,7.757-218.604,15.328-327.917,22.85c-9.717,0.669-19.499,0.565-29.25,0.567c-224.449,0.033-448.9,0.639-673.345-0.295
		c-78.92-0.328-157.631,4.951-236.367,7.518c-122.474,3.994-245.141,5.615-367.347,12.466c-65.819,3.69-131.67-7.872-196.937,4.516
		c-11.927,10.227-25.697,6.856-39.076,4.977c-274.055-38.496-545.469-90.393-812.779-162.449
		c-58.233-15.697-117.106-29.107-174.648-47.265c-187.906-61.694-368.367-141.013-544.394-230.82
		c-20.777-10.6-41.518-21.244-61.991-32.36c-40.513-24.205-82.692-45.901-118.76-77.009
		c-54.928-100.156-95.234-205.98-122.829-316.734c11.45-2.357,12.091-2.723,15.235,2.784
		c91.048,159.479,247.769,235.068,401.891,313.331c101.031,51.303,206.344,92.931,313.286,130.303
		c174.316,60.918,352.253,108.773,532.708,147.612c114.499,24.644,229.605,46.122,345.233,64.494
		c164.746,26.177,330.118,47.786,496.031,65.489c131.857,14.07,264.041,23.993,396.257,33.099
		c88.424,6.09,177.028,10.356,265.672,13.515c141.259,5.034,282.58,8.392,423.796,13.311c100.503,3.501,201.106,6.938,301.196,2.525
		c143.034-6.305,286.186-11.462,429.138-20.756c95.275-6.194,190.727-9.696,285.888-18.176
		C5194.452,2838.029,5211.872,2834.927,5226.108,2847.276z"/>
	<path style="fill:#773B18;" d="M1816.342,2740.997c138.604,35.063,277.05,70.759,415.85,105.026
		c170.115,41.998,343.157,68.507,516.161,94.992c32.642,4.997,65.021,12.324,98.279,12.561
		c61.333,9.448,122.596,19.421,184.028,28.217c103.977,14.888,207.979,29.646,312.127,43.26
		c62.67,8.193,125.526,15.391,188.488,20.844c297.855,25.8,596.464,21.826,894.792,16.429
		c169.257-3.062,338.623-12.234,507.559-26.324c115.463-9.63,231.268-15.246,346.675-25.428
		c124.98-11.026,249.48-26.309,373.714-44.652c164.661-24.311,328.136-54.507,490.8-89.215
		c272.757-58.199,540.425-134.779,803.267-227.921c155.597-55.138,306.271-121.514,445.116-211.656
		c47.215-30.654,90.241-67.761,135.186-101.912c3.574-2.716,6.428-8.256,12.068-3.187c-37.359,98.172-92.742,186.54-150.601,273.31
		c-130.133,195.16-274.283,378.991-443.828,541.948c-6.276,6.032-13.032,11.566-19.566,17.334
		c4.482-25.647,25.262-40.061,40.958-57.477c102.138-113.334,205.689-225.449,289.501-353.769
		c43.128-66.03,80.236-135.466,116.508-205.372c2.963-5.71,8.133-11.186,5.09-19.877c-39.997,4.518-75.569,22.335-110.302,40.352
		c-111.638,57.908-227.713,105.526-345.236,149.456c-235.287,87.949-478.224,150.136-721.884,209.427
		c-55.274,13.45-111.933,21.009-166.693,37.005c-11.508,12.764-27.894,12.923-42.892,16.025
		c-176.74,36.554-355.372,60.399-534.553,81.192c-112.294,13.032-224.957,20.453-337.627,28.132
		c-34.062,2.321-67.929-4.722-101.729-8.782c-29.199-3.508-58.116-5.092-87.003,1.798c-69.911,4.419-139.836,8.293-209.722,13.155
		c-175.76,12.226-351.615,23.763-528.02,18.6c-15.564-0.456-31.19,0.508-46.617-2.295c-8.594-1.457-16.793-5.019-25.789-4.654
		c-63.392,2.572-126.516-4.538-189.763-6.552c-111.92-3.566-223.696-12.412-335.49-19.923
		c-203.695-13.686-404.875-47.038-606.917-73.553c-108.306-14.214-215.906-33.586-323.637-51.809
		c-162.551-27.496-325.64-52.105-485.615-93.079c-112.494-28.812-224.363-59.749-334.162-97.696
		C1833.028,2760.835,1816.651,2759.829,1816.342,2740.997z"/>
	<path style="fill:#FACA89;" d="M5226.108,2847.276c-85.472,2.289-170.516,10.987-255.758,16.743
		c-42.654,2.88-85.438,2.884-128.2,5.973c-66.926,4.835-134.449,1.915-201.27,7.587c-140.98,11.966-282.171,13.147-423.277,9.888
		c-134.258-3.101-268.513-7.728-402.752-11.929c-83.491-2.614-167.254-4.959-250.464-11.659
		c-117.978-9.5-236.179-15.708-354.093-26.771c-116.855-10.964-233.656-22.435-349.956-37.547
		c-145.048-18.847-289.549-41.595-433.65-67.412c-211.455-37.883-420.081-86.791-624.887-151.02
		c-133.691-41.927-264.522-92.126-391.043-153.038c-98.27-47.311-195.426-96.205-281.655-164.14
		c-60.666-47.795-119.99-96.555-150.063-171.111c-1.396-3.461-4.246-3.14-6.888-0.915c-21.251-61.888-20.494-124.329-4.746-187.145
		c8.432,6.726,6.017,16.286,5.182,24.522c-9.201,90.725,33.874,160.138,92.677,221.648c71.302,74.585,157.005,130.427,246.607,180.4
		c211.596,118.014,440.309,191.676,671.557,258.792c115.866,33.628,233.357,60.996,351.51,84.441
		c142.792,28.334,286.11,54.455,430.532,73.871c105.799,14.224,211.095,32.654,317.151,44.357
		c105.197,11.609,210.303,24.467,316.021,31.82c133.899,9.313,267.611,20.405,401.886,24.378
		c34.837,1.031,69.968,2.372,104.912,4.445c105.175,6.239,210.836,0.495,315.651,7.535c125.042,8.398,249.306-2.817,373.893-3.355
		c122.464-0.529,244.973-9.157,367.303-16.776c129.949-8.093,259.915-17.065,389.504-29.5
		c155.558-14.927,310.485-35.321,464.678-61.537c110.101-18.719,220.097-37.721,329.482-60.242c3.745-0.771,7.784-0.119,11.686-0.13
		c3.325,10.688-7.991,11.413-11.756,17.277c-105.778,19.555-211.396,40.033-317.382,58.389
		c-94.578,16.38-189.336,32.074-284.43,45.012c-92.269,12.553-185.071,21.173-277.627,31.631
		C5252.963,2843.283,5239.552,2845.422,5226.108,2847.276z"/>
	<path style="fill:#FCF5EA;" d="M4692.855,1084.307c105.959-1.42,211.138,11.921,316.747,16.357
		c42.707,1.794,85.317,4.968,127.938,7.413c92.803,5.323,185.693,9.613,278.054,21.784c50.847,6.7,102.386,7.961,153.466,13.118
		c51.988,5.249,103.838,11.956,155.675,18.596c70.973,9.092,142.183,16.875,212.737,28.563
		c103.082,17.076,206.908,29.907,308.949,53.203c69.846,15.946,139.973,30.661,209.975,45.926
		c-3.199,16.633-17.053,12.641-27.571,13.474c-45.364,3.591-89.838-6.948-132.532-17.928
		c-44.532-11.453-89.731-15.733-134.309-24.808c-117.346-23.886-236.622-35.931-354.326-57.946
		c-33.833-6.328-69.703-3.669-104.578-7.183c-63.463-6.396-127.413-8.128-190.394-19.208
		c122.872,12.338,245.084,30.325,368.087,41.443c9.788,0.885,19.267,3.056,28.807,4.933
		c97.349,19.152,196.558,25.896,293.993,44.664c103.505,19.937,204.766,48.846,306.737,74.874
		c123.857,31.614,245.381,71.263,366.459,111.956c137.92,46.354,264.541,116.037,382.284,200.503
		c91.541,65.67,157.547,152.841,194.894,260.619c13.287,38.345,28.364,76.219,48.723,115.411
		c27.721-45.923,43.008-89.473,24.37-140.478c-16.989-46.49-41.864-86.254-74.985-123.813
		c-86.12-97.659-189.669-169.251-305.755-226.224c-84.168-41.308-169.904-78.136-257.263-111.887
		c-40.821-15.771-79.195-37.207-123.074-45.591c-22.44-4.287-26.842-17.693-16.572-34.313
		c78.022,16.896,151.679,46.738,225.446,76.197c134.722,53.801,266.176,114.183,385.875,197.223
		c89.293,61.946,164.811,135.915,202.701,241.321c6.261,17.417,12.443,34.71,11.881,53.574
		c-14.645,35.928-14.93,76.392-35.698,110.541c-7.592,12.484-13.715,25.935-23.495,36.912c-20.543,23.058-39.186,20.051-49.754-9.33
		c-19.479-54.15-37.879-108.753-60.142-161.791c-40.011-95.315-106.929-168.682-190.954-227.434
		c-142.067-99.338-299.019-167.58-462.986-220.861c-58.372-18.968-117.302-36.31-177.487-48.899
		c-20.022-4.188-40.001-8.3-58.972-16.575c-17.138-7.476-35.066-11.848-54.022-6.76c-107.193-20.729-212.114-51.354-319.689-70.56
		c-172.834-30.857-346.458-55.507-521.017-74.084c-114.309-12.165-228.669-24.229-343.266-32.696
		c-98.046-7.244-196.153-14.297-294.319-20.286c-67.044-4.091-134.407-3.707-201.144-12.34c-17.777-3.002-30.885-14.27-44.22-25.124
		C4722.809,1119.529,4695.381,1112.627,4692.855,1084.307z"/>
	<path style="fill:#87521B;" d="M2461.35,3701.215c-157.532-69.052-307.836-150.885-446.876-252.641
		c-9.393-6.874-18.824-13.697-28.238-20.544c-12.238-11.589-24.475-23.178-36.713-34.767
		c-19.241-32.153-47.016-56.887-74.664-80.882c-85.368-74.089-157.844-160.31-233.331-243.716
		c-17.567-19.41-34.616-39.345-50.986-59.812c-6.482-8.104-15.979-15.406-8.915-27.915c14.115-6.442,21.369,4.869,30.225,11.792
		c69.088,54.008,134.635,112.661,209.29,159.36c82.359,53.954,161.15,113.003,241.807,169.388
		c133.785,93.523,277.54,169.579,421.868,244.802c11.631,6.062,26.607,8.571,31.049,24.18c-4.158,13.898-2.46,26.627,6.094,38.798
		c6.765,9.626,10.951,20.749,13.371,32.266c5.692,27.088-11.913,46.236-39.478,42.652
		C2484.367,3702.681,2473.27,3697.538,2461.35,3701.215z"/>
	<path style="fill:#FBF5EB;" d="M6749.391,1347.764c-5.025,17.149,4.222,26.462,19.137,28.451
		c70.791,9.444,130.97,48.016,196.228,72.225c77.227,28.649,152.058,64.946,225.12,103.275
		c66.037,34.644,129.167,74.89,185.265,125.399c43.364,39.045,85.344,79.961,118.714,127.047
		c33.361,47.073,59.739,99.823,46.514,162.293c-5.544,26.187-21.842,47.555-30.074,72.576c-4.26,12.949-12.043,10.36-16.766-1.747
		c-16.252-41.659-33.999-82.788-48.761-124.964c-28.59-81.687-76.438-150.446-138.612-209.376
		c-55.426-52.535-121.593-90.227-186.766-128.912c-91.531-54.33-188.508-97.856-289.817-129.217
		c-139.039-43.041-278.439-85.019-419.518-121.612c-96.729-25.09-194.561-44.467-291.82-66.56
		c-44.971-10.216-93.234-5.598-138.475-15.038c-89.339-18.642-180.901-19.086-270.354-37.921
		c-35.882-7.555-75.122-8.3-113.063-8.178c-31.354,0.1-60.589-9.422-94.579-17.834c13.053-7.326,21.33-12.22,31.441-9.818
		c76.779,18.234,155.771,18.32,233.648,25.59c126.982,11.854,251.71,35.03,376.629,58.615c24.665,4.657,50.029,6.554,75.156,7.518
		c19.818,0.76,37.506,8.94,55.875,12.471c59.807,11.496,119.202,34.444,181.881,17.217c14.473,1.133,28.501,3.833,41.072,11.661
		c31.822,13.548,64.28,23.516,99.545,17.651c1.954,1.921,3.907,3.842,5.861,5.762c13.359,4.12,25.384,17.48,41.005,5.916
		C6681.632,1320.531,6716.27,1329.575,6749.391,1347.764z"/>
	<path style="fill:#80421A;" d="M1582.278,2982.169c17.339,36.46,47.564,63.22,73.492,92.53
		c61.786,69.844,126.094,137.585,191.809,203.766c27.269,27.462,57.645,52.114,84.601,80.143
		c9.163,9.527,21.999,17.917,17.342,34.655c-24.53-10.798-41.253-31.836-60.287-49c-207.892-187.459-404.999-385.466-577.774-606.31
		c-81.116-103.683-155.7-212.055-216.484-329.297c42.471,18.121,77.983,48.023,118.261,69.859
		c36.515,22.386,60.829,54.12,82.525,91.42c77.063,132.488,165.554,257.373,262.999,375.813
		C1567.961,2956.927,1578.769,2967.242,1582.278,2982.169z"/>
	<path style="fill:#FDC10B;" d="M4692.855,1084.307c15.775,15.549,31.549,31.098,47.324,46.647
		c-8.359,9.444-20.612,10.626-31.525,13.122c-27.701,6.335-44.768,20.411-43.391,50.921c-14.666,5.416-23.707-5.368-32.953-12.736
		c-41.127-32.772-85.97-59.155-133.277-81.911c-38.605-18.571-38.696-23.109-5.993-49.526c11.818-24.725,1.153-43.849-14.374-62.534
		c-9.879-11.889-27.387-18.994-25.905-38.585c-4.749-6.081-9.646-12.053-14.224-18.261c-37.004-50.182-57.477-57.689-115.694-39.09
		c-21.21,6.776-42.351,3.992-63.497,4.186c-44.03,0.404-81.77,12.778-116.496,42.314c-43.286,36.817-90.635,68.989-137.411,101.468
		c-10.237,7.108-22.229,21.35-38.588,9.355c73.771-60.565,146.773-122.215,224.55-177.584
		c85.916-61.164,167.688-59.053,254.134,2.762c79.573,56.9,149.677,124.794,221.951,190.189
		C4675.33,1072.142,4684.37,1077.918,4692.855,1084.307z"/>
	<path style="fill:#F1BE75;" d="M6145.884,2706.727c-0.825-8.988,8.032-11.389,11.757-17.279
		c135.207-31.579,270.528-62.682,404.337-99.938c129.217-35.979,255.94-79.283,380.65-128.572
		c23.422-10.021,45.566-23.144,70.652-29.134l-0.178,0.128c68.574-37.447,142.917-62.625,211.729-99.564
		c20.952-11.731,41.95-23.38,62.847-35.209c63.926-36.186,124.688-76.729,176.931-128.952
		c17.334-13.737,32.941-29.206,46.712-46.518c19.715-40.246,48.226-75.881,62.4-119.068c1.191-3.627,5.342-5.282,9.2-6.234
		c14.145,7.136,1.959,22.269,9.541,31.403c-0.192,5.783-0.383,11.567-0.577,17.346c-17.696,28.677-33.38,58.859-53.469,85.751
		c-55.73,74.599-131.505,126.631-209.446,174.26c-228.612,139.703-479.261,225.523-735.702,297.233
		c-140.246,39.218-281.901,71.949-424.351,101.65C6161.38,2705.602,6153.568,2705.859,6145.884,2706.727z"/>
	<path style="fill:#F9EBD5;" d="M7581.604,1999.213c-15.111,45.596-34.92,88.496-70.285,122.472
		c-9.676-23.015-20.002-4.38-27.545,0.857c-31.428,21.818-60.058,47.799-95.889,62.922c-4.38-9.53,0.918-17.186,5.578-24.354
		c41.276-63.498,35.257-129.587,16.438-199.011c-15.516-57.243-37.211-110.471-71.736-158.369
		c-60.544-83.996-142.087-143.136-231.44-192.436c-37.385-20.628-73.137-44.802-114.715-57.121
		c-91.941-37.661-183.522-76.338-278.664-105.441c-58.646-17.939-116.851-37.396-176.336-52.538
		c-16.826-3.445-33.604-7.273-49.568-13.572c-8.161-3.22-19.643-3.943-19.365-17.177c7.925-4.196,15.259-5.629,24.873-2.771
		c135.565,40.314,273.813,71.752,405.311,125.433c109.295,44.617,213.549,98.161,311.528,164.37
		c110.08,74.385,188.893,171.099,226.611,299.998c10.069,34.412,25,67.398,37.607,101.072c9.182,24.525,19.813,27.165,35.844,6.451
		c25.285-32.671,40.902-69.978,48.061-110.861c2.199-12.559,0.194-28.076,17.385-33.058c-2.129,22.578,7.858,42.984,11.566,64.515
		C7583.657,1986.391,7587.897,1994.288,7581.604,1999.213z"/>
	<path style="fill:#FCF5EA;" d="M6597.012,1318.578c-13.621,14.541-94.947,1.964-101.576-15.772
		c-0.122-0.327,1.319-1.239,2.03-1.879C6532.033,1299.008,6562.82,1318.394,6597.012,1318.578z"/>
	<path style="fill:#FCF5EA;" d="M6643.878,1330.256c1.353,5.131,4.856,12.683-4.893,11.192
		c-13.392-2.048-28.236-2.729-36.113-17.107C6616.542,1326.312,6630.21,1328.284,6643.878,1330.256z"/>
	<path style="fill:#F7E9CF;" d="M7581.604,1999.213c-0.218-6.764-1.787-13.911,5.258-18.621c9.114,14.871,5.958,31.199,5.603,47.196
		C7582.745,2020.581,7591.937,2006.188,7581.604,1999.213z"/>
	<path style="fill:#70371A;" d="M5823.671,3468.401c5.03,34.011-23.042,51.562-37.847,75.66
		c-3.888,6.328-9.328,11.704-16.997,21.134c27.496-1.158,42.837-16.465,59.167-28.441c35.446-25.994,72.046-49.89,112.172-68.03
		c6.662-3.011,14.255-10.24,21.133-2.251c6.423,7.461,0.151,15.626-4.23,21.15c-15.089,19.022-30.783,37.642-47.281,55.458
		c-58.224,62.876-115.789,126.421-181.341,182.049c-6.944,5.893-15.943,11.227-18.226,25.897
		c32.552-12.427,64.008-21.986,93.309-36.036c144.824-69.447,289.244-139.787,420.899-233.068
		c25.372-17.977,50.58-36.188,76.105-53.942c8.451-5.878,19.027-17.472,27.864-9.031c9.364,8.943-6.545,17.814-9.987,36.566
		c32.725-17.084,61.949-30.136,88.946-46.796c161.513-99.675,314.141-212.322,467.844-323.321
		c33.031-23.854,64.025-50.596,98.335-72.82c3.802-2.463,7.042-7.357,14.289-2.001c-19.429,40.989-45.977,77.572-76.539,110.932
		c-101.359,110.639-212.977,210.307-328.197,306.226c-26.209,21.818-52.641,42.94-80.007,63.197
		c-6.974,5.162-30.901,10.461-11.743,28.995c-77.508,56.322-164.024,95.885-251.074,134.341
		c-12.565,5.551-24.319,11.824-34.938,20.387c-117.602,60.672-242.304,103.124-369.422,137.393
		c-263.441,71.021-532.06,115.324-803.174,143.612c-105.589,11.017-211.88,15.221-318.026,20.726
		c-172.557,8.948-345.114,13.301-517.668,9.426c-119.759-2.689-239.542-9.213-359.28-14.941
		c-220.542-10.551-439.363-36.758-657.535-67.759c-155.297-22.066-312.328-35.845-463.968-79.902
		c-14.889-4.326-29.91-8.073-43.98-14.661c-3.409-12.468,7.623-11.312,13.795-13.858c41.491-17.117,52.689-53,29.214-92.126
		c-5.61-9.349-20.479-18.83-4.102-31.615c12.122-1.235,23.112,3.221,34.105,7.028c302.094,104.635,614.547,158.996,931.356,192.566
		c124.993,13.245,250.48,17.184,375.815,24.526c111.444,6.529,221.917-5.624,332.825-2.107c13.722,0.435,27.162-2.308,40.63-4.354
		c193.467-3.161,381.767-39.497,568.043-88.804c54.706-14.481,109.29-29.488,164.185-43.172
		c101.23-25.235,194.583-69.238,286.537-116.916c6.922-3.589,13.506-7.854,20.876-10.468c6.823-1.557,15.001-3.011,17.778,4.839
		c3.011,8.513-4.33,14.336-10.288,19.256c-33.219,27.431-61.644,59.788-92.48,89.661c-11.745,11.377-22.606,23.521-30.177,42.861
		c22.876-3.786,40.205-12.691,56.891-21.264c138.123-70.959,263.639-159.345,372.623-270.654
		C5791.502,3482.101,5799.771,3460.717,5823.671,3468.401z"/>
	<path style="fill:#50211C;" d="M2672.146,3802.089c65.606,20.271,132.245,36.186,200.096,46.796
		c99.453,15.552,198.785,32.01,298.479,45.841c85.359,11.842,171.145,20.633,256.763,30.589
		c82.708,9.618,165.39,19.518,248.194,28.249c35.701,3.764,71.803,3.646,107.623,5.546c58.197,3.087,116.773,4.918,174.834,8.473
		c177.153,10.846,354.374,12.592,531.578,9.53c103.948-1.796,207.957-7.026,311.865-11.738
		c93.862-4.256,187.717-12.444,281.062-23.303c99.949-11.627,199.612-25.719,298.864-43.389
		c132.67-23.62,265.3-46.995,396.168-79.267c102.088-25.176,201.45-59.128,299.354-97.243
		c39.863-15.519,78.908-33.141,118.302-49.86c4.038-1.714,7.404-1.587,10.001,2.343c-51.215,96-136.736,143.639-238.412,167.145
		c-301.592,69.722-605.694,123.826-914.625,149.206c-305.694,25.115-611.72,40.38-918.456,32.892
		c-260.751-6.365-519.989-32.293-778.52-66.18c-186.783-24.482-372.925-52.347-556.003-97.561
		c-74.264-18.341-144.648-46.648-209.199-88.368c0.558-8.417,7.283-9.393,12.254-7.158
		C2626.47,3775.472,2653.886,3780.359,2672.146,3802.089z"/>
	<path style="fill:#80441A;" d="M2672.146,3802.089c-20.574-9.238-41.039-18.734-61.789-27.559
		c-6.238-2.653-12.335-10.8-20.241-2.739c-38.829-30.997-84.706-49.128-128.765-70.576c7.938-14.274,19.022-9.375,30.025-4.92
		c11.901,4.817,22.323,2.992,31.751-6.086c10.057-9.683,8.158-19.85,4.313-31.802c-4.222-13.122-10.751-24.469-18.22-35.803
		c-7.312-11.095-12.033-23.094,4.573-31.288c20.839-4.059,36.605,9.691,54.136,16.291c37.921,14.278,74.766,31.338,112.588,45.976
		c10.584,4.096,22.557,6.957,26.647,19.982c-0.371,12.354,9.933,18.471,16.374,26.395c18.575,22.847,15.162,46.692,4.44,70.697
		C2717.337,3794.476,2698.826,3805.945,2672.146,3802.089z"/>
	<path style="fill:#8B6D31;" d="M3526.823,1247.329c-177.749,60.839-358.94,110.444-538.523,165.304
		c-263.525,80.502-530.694,148.212-794.5,227.675c-16.629,5.009-32.694,11.888-49.022,17.898
		c-83.005,34.839-169.034,61.999-250.845,100.001c-44.049,20.461-83.949,48.149-127.489,69.315
		c-20.792,1.518-39.594,8.762-57.912,18.557c-68.934,36.862-136.069,76.39-194.397,129.113
		c-25.342,22.907-44.254,51.905-69.68,74.805c-6.999,6.303-11.599,16.376-23.616,14.617c-11.377-5.787-14.113-16.525-16.051-27.74
		c-6.256-35.709-9.837-71.449-2.545-107.536c4.067-20.126-4.625-28.865-25.19-28.465c-14.281,0.278-29.574,2.76-41.884-8.242
		c-7.419-12.569-0.181-22.264,6.773-31.552c12.116-16.182,22.644-33.743,38.823-46.565
		c102.258-90.41,223.851-148.804,346.662-203.391c205.658-91.411,423.37-144.972,641.64-196.571
		c110.81-26.195,221.023-55.034,333.179-74.849c105.313-18.606,211.436-32.229,317.393-46.8
		c93.393-12.843,186.872-25.363,280.768-33.126c68.848-5.692,137.356-13.723,205.964-21.246
		C3514.455,1237.643,3524.561,1233.889,3526.823,1247.329z"/>
	<path style="fill:#FDF0A9;" d="M3615.813,2384.113c-48.165-14.198-98.305-11.906-147.459-15.624
		c-242.282-18.325-480.984-53.424-715.67-119.987c-166.485-47.22-328.741-103.815-487.244-172.295
		c-21.493-9.286-42.589-19.409-58.735-37.431c-22.211-24.791-24.821-46.767-8.787-80.216c18.679-16.451,34.972-4.036,49.793,5.809
		c29.306,19.466,56.724,15.566,84.211-2.749c6.579-4.384,13.236-9.368,14.744-17.381c9.263-49.224,48.132-78.573,76.602-114.874
		c5.964-7.605,13.74-13.734,22.025-27.647c-38.184,10.75-69.697,25.429-100.565,41.31c-16.367,8.42-32.344,17.974-47.156,29.004
		c-23.363,17.398-48.733,22.33-76.706,14.758c-9.181-8.797,1.478-10.718,5.225-14.986c58.965-67.154,140.22-98.912,217.531-136.931
		c7.409-5.838,16.681-8.024,24.729-12.635c40.141-17.283,81.785-30.421,124.262-39.808c38.791-8.573,76.72-1.166,113.573,13.807
		c25.396,10.318,31.333,31.88,36.672,54.67c9.997,15.568,19.369,31.711,33.511,44.009c24.996,21.738,47.471,15.709,57.827-15.489
		c5.21-15.695,8.682-32.002,16.402-46.785c3.198-6.126,7.361-12.373,15.262-11.623c8.251,0.784,10.131,8.126,11.754,14.843
		c1.83,7.568,2.727,15.345,4.968,22.829c14.305,47.764,37.143,87.912,80.748,117.321c67.936,45.818,136.622,89.888,209.683,127.054
		c10.133,5.155,27.219,9.668,24.873,21.251c-2.999,14.808-20.85,10.039-32.791,10.298c-27.75,0.603-53.952-6.524-78.871-18.532
		c-71.853-26.02-144.176-50.722-216.448-77.094c8.442,16.887,23.344,25.286,37.975,33.887c27.674,16.269,56.046,31.28,84.291,46.522
		c10.244,5.528,21.1,10.714,23.287,24.179c-4.59,22.483-23.486,27.343-41.265,31.051c-53.251,11.107-107.244,17.094-161.602,19.47
		c-46.714,2.042-93.054,7.149-137.249,22.98c-11.344,4.063-31.978,5.082-23.514,27.852c62.877,28.209,130.395,39.883,196.894,54.108
		c192.524,41.183,387.096,70.952,581.687,100.386c50.286,7.606,99.308,20.476,147.479,36.117
		c42.757,13.883,86.258,24.203,130.08,33.609c7.601,1.631,15.497,2.381,22.264,6.649c4.187,2.64,8.053,5.992,7.744,11.468
		c-0.329,5.846-5.314,7.643-9.881,8.983c-10.456,3.069-21.203,2.417-31.927,1.759
		C3668.963,2395.262,3641.398,2395.391,3615.813,2384.113z"/>
	<path style="fill:#E98600;" d="M4857.033,2478.321c86.567-11.625,171.581-31.334,256.905-49.415
		c88.133-18.676,176.253-37.408,264.379-56.116c6.034-4.115,11.218-2.837,14.227,3.474c3.364,7.053,1.383,15.482-5.049,17.807
		c-31.39,11.347-41.696,48.338-74.01,58.925c-14.524,4.758-18.808,21.434-26.681,33.47c-6.893,10.537-10.238,23.919-19.575,32.165
		c-14.579,12.876-9.531,23.287,0.644,34.643c-7.327,9.819-18.796,9.086-28.992,11.198
		c-117.852,24.411-236.794,42.086-356.258,56.163c-16.602,1.957-27.211,7.755-32.674,23.234c-8.22,6.502-18.033,7.135-27.808,7.392
		c-97.479,2.565-194.867,8.156-292.211,12.974c-191.293,9.467-382.579,5.058-573.791,3.834
		c-143.205-0.916-286.374-9.823-429.384-20.816c-170.368-13.096-340.226-30.063-509.174-55.047
		c-89.705-13.266-179.899-24.407-268.338-45.344c-16.018-9.583-34.219-11.969-51.951-16.428c-11.3-2.842-26.117-0.223-32.496-14.682
		c19.06-14.451,38.018-29.2,63.46-28.745c-5.995-15.501-3.606-35.986,0.056-54.789c4.263-21.887,25.657-19.298,43.02-19.966
		c83.169,16.86,164.929,39.812,248.207,56.013c170.333,33.137,340.766,64.89,514.213,78.539
		c150.688,11.857,301.552,20.631,452.484,15.603c220.997-7.362,441.855-19.338,660.518-56.042
		C4716.5,2494.658,4786.405,2483.652,4857.033,2478.321z"/>
	<path style="fill:#FEDE37;" d="M2466.343,1728.104c-6.875,4.605-14.159,7.837-22.723,6.767
		c11.593-16.735,33.156-23.652,43.737-46.028c-28.87,2.186-51.025,17.817-74.578,27.667
		c-52.802,22.083-104.449,46.925-156.617,70.531c-7.621,3.448-15.479,10.247-23.391,0.298
		c18.952-29.187,52.641-35.246,80.656-48.846c65.589-31.841,133.187-59.497,198.977-91.083c10.96-5.261-1.767-5.862-0.001-8.622
		c5.282-13.366,18.661-12.508,29.081-15.92c41.367-13.542,81.108-30.711,122.007-51.641c-36.557,3.557-69.127,15.625-103.477,17.079
		c-4.502-0.78-8.438-2.548-11.272-6.275c65.881-26.178,134.559-44.015,203.629-57.328
		c132.101-25.461,258.475-68.916,385.067-112.339c129.479-44.414,259.073-89.752,392.504-119.668
		c136.775-30.666,266.243-78.072,390.198-141.713c95.479-49.02,178.876-116.231,263.566-181.273
		c14.609-11.22,30.447-21.173,43.59-33.906c42.87-41.531,92.18-38.559,144.299-24.242c29.433,8.085,53.813,26.094,81.167,38.141
		c11.93,12.815,24.512,25.09,35.638,38.567c16.292,19.735,24.118,41.574,11.315,66.571c-11.242-11.838-4.77-33.509-23.091-41.399
		c-58.968-46.562-126.629-58.382-198.759-46.977c-45.798,7.242-77.313,40.215-109.026,70.29
		c-55.901,53.014-112.118,105.59-172.627,153.355c-88.713,70.027-190.45,113.805-297.752,145.766
		c-28.92,8.614-57.245,19.612-87.218,24.508c-5.783,3.53-26.442-7.175-11.666,15.837c9.23,14.375-1.168,34.073-12.672,45.103
		c-47.173,45.233-48.878,94.753-18.762,148.98c-29.209,33.289-58.418,66.578-87.627,99.867
		c-15.575-14.069-11.762-33.458-14.217-51.975c-11.938,13.385-2.38,33.319-15.061,45.711
		c-30.794-21.895-32.425-56.158-34.598-88.497c-1.956-29.101-0.523-58.191-12.586-85.753c-3.286-7.507-8.935-17.339,6.682-18.942
		c5.966-0.613,13.504-2.183,12.672-9.037c-1.009-8.313-9.595-8.452-16.423-8.198c-36.057,1.344-71.482,8.462-105.265,19.767
		c-99.017,33.135-193.239,76.362-274.329,143.851c-17.062,14.2-33.119,30.112-39.346,52.838
		c-0.854,10.048-6.052,17.686-13.372,24.189c-25.861,11.749-52.318,10.073-78.336,1.654c-12.104-3.917-21.743-12.353-22.856-26.797
		c14.971-51.905,45.305-94.103,83.525-131.279c4.734-4.604,13.265-8.767,9.821-16.059c-4.711-9.974-15.238-7.287-23.411-4.798
		c-32.729,9.964-63.194,25.77-93.519,40.919c-106.463,53.184-216.797,96.987-328.003,138.728
		C2501.32,1704.214,2484.839,1717.573,2466.343,1728.104z"/>
	<path style="fill:#F9A603;" d="M1764.029,1822.074c110.043-71.751,231.896-117.22,355.243-159.283
		c8.083-2.756,16.984-3.112,25.506-4.585c-3.28,8.219-10.917,9.671-18.07,13.001c-59.087,27.508-116.587,56.872-165.349,102.118
		c-51.803,48.068-54.705,104.972-35.482,165.696c10.178,32.152,27.805,61.992,42.603,92.619
		c9.502,19.667,24.253,34.484,42.949,46.205c17.899,11.221,37.525,20.364,51.473,37.164c-5.286,9.455-24.113,6.521-22.387,19.511
		c1.452,10.923,15.883,12.97,25.136,17.818c69.941,36.649,136.74,78.811,205.8,117.022c28.723,15.893,26.894,18.008,4.987,40.826
		c-30.948,32.234-67.547,51.442-111.63,57.38c-9.655,1.301-18.057,7.228-27.482,9.884c-35.502,0.962-65.086-18.435-97.162-28.906
		c-95.558-31.194-188.308-69.242-274.237-122.11c-41.564-25.572-81.181-53.787-111.007-93.54
		c-54.966-73.262-57.84-140.179-5.946-215.354C1678.059,1875.405,1716.274,1842.565,1764.029,1822.074z"/>
	<path style="fill:#F6A605;" d="M6257.194,2003.646c3.528-20.305,22.382-30.555,30.883-48.417
		c37.703-79.215,18.742-193.386-40.998-258.054c-56.228-60.867-126.649-99.433-199.519-133.984
		c-68.339-32.403-137.654-63.477-212.769-77.982c-5.674-1.096-11.452-1.657-17.182-2.467c-9.017,7.02-18.815,3.617-27.774,0.898
		c-35.987-10.923-74.711-11.754-108.836-29.462c-40.823-46.407-87.566-83.55-149.221-99.098
		c-13.62-3.435-31.862-10.243-10.097-28.587c67.416,4.328,132.441,21.919,197.759,37.049
		c123.448,28.594,244.671,65.621,366.541,100.155c9.333,2.645,19.014,4.863,25.246,13.364c-2.338,14.663,10.236,16.793,18.93,21.114
		c42.922,21.336,90.167,30.521,134.817,47.112c28.164,10.465,58.426,15.251,84.556,31.309c13.779,9.952,19.69,22.282,17.366,40.226
		c-3.627,28.018,10.493,55.361,3.84,84.189c-6.916,29.963-16.045,59.528-5.107,91.636c4.786,14.05-8.444,29.323-11.7,44.605
		c-6.508,30.535-9.702,61.832-18.298,91.808c-23.351,81.421-78.266,137.851-147.885,181.914
		c-17.325,10.965-34.398,22.256-51.274,33.896c-18.161,12.528-33.17,26.931-38.361,49.588c-2.193,9.57-6.779,19.75-15.068,24.523
		c-29.066,16.738-48.676,45.54-77.534,61.483c-26.674,14.736-50.526,32.493-74.641,50.738
		c-21.278,16.098-30.756,39.914-46.58,59.415c-11.661,14.371,6.067,21.697,10.938,32.106c-4.818,10.326-14.996,11.964-24.254,13.821
		c-53.259,10.677-106.373,22.109-159.885,31.442c-30.13-4.843-38.693-15.772-33.976-44.747c2.683-16.485,7.574-33.427,17.618-46.065
		c36.045-45.356,70.355-91.223,127.391-115.956c99.92-43.329,200.95-85.181,293.943-142.749
		c42.807-26.5,87.794-50.526,121.673-89.686C6244.75,2020.678,6252.074,2013.104,6257.194,2003.646z"/>
	<path style="fill:#F8A904;" d="M4857.033,2478.321c-52.044,14.869-105.693,21.151-158.972,29.21
		c-58.388,8.833-116.885,17.021-175.455,24.558c-62.38,8.028-124.716,18.228-187.394,21.75
		c-170.838,9.599-341.75,23.465-512.958,17.418c-116.226-4.105-232.425-9.428-348.469-21.308
		c-179.635-18.391-356.214-52.616-532.527-89.355c-58.827-12.258-117.115-27.106-175.65-40.771
		c-7.318-9.895-25.636,7.322-29.193-11.842c15.409-1.458,26.065-9.511,28.416-24.767c3.129-20.308,18.112-21.212,32.437-20.117
		c102.473,7.835,204.003,21.924,302.84,51.13c26.95,7.964,55.036,15.251,79.159,28.922c43.578,24.697,90.95,24.228,137.98,29.599
		c107.964,12.331,216.671,13.313,324.819,22.569c3.879,0.332,7.784,0.438,11.679,0.483c171.382,1.928,342.824,12.159,514.098,4.903
		c108.742-4.607,217.834-0.835,326.168-11.322c72.361-7.005,145.039-10.071,217.391-14.438
		C4759.055,2472.069,4808.705,2469.675,4857.033,2478.321z"/>
	<path style="fill:#FBAD05;" d="M4663.841,1195.326c-9.518-34.974-6.317-41.131,28.551-53.056
		c15.533-5.313,30.627-12.759,47.786-11.316c11.638,7.898,23.276,15.796,34.914,23.694c22.529,6.534,38.257,24.122,57.836,35.469
		c41.652,28.927,83.815,57.037,128.319,81.48c83.509,42.036,163.927,90.297,251.498,124.088c5.472,2.111,10.558,5.089,13.473,10.625
		c33.582,22.56,66.773,45.733,100.911,67.418c16.821,10.686,29.091,25.708,43.221,38.979c4.177,3.923,9.329,8.608,6.626,14.979
		c-3.442,8.117-10.375,2.343-15.174,1.666c-44.97-6.349-89.805-13.654-134.782-19.949c-26.786-3.75-53.732-6.428-80.652-9.13
		c-16.345-1.641-25.713,4.467-25.843,22.798c-0.174,24.425-11.439,38.61-37.43,43.54c-68.38,12.971-128.228-3.835-183.713-44.318
		c-40.611-29.63-70.627-69.154-104.638-105.003c-6.791-7.158-6.958-14.118-5.063-23.803c8.18-41.814-8.274-75.511-37.574-104.22
		C4721.246,1259.304,4687.394,1232.153,4663.841,1195.326z"/>
	<path style="fill:#FEDD4E;" d="M4663.841,1195.326c31.451,29.404,65.482,56.385,88.26,93.94
		c-15.302,8.103-33.297,12.421-42.003,29.821c-10.871,1.865-15.201-6.792-20.511-13.24
		c-44.967-54.601-100.898-95.091-163.25-127.381c-3.445-1.784-6.42-4.285-9.751-6.237c-1.408,3.951,4.082,7.354,0.909,11.445
		c-48.294-17.977-97.636-33.334-149.344-34.408c-75.139-1.562-146.315,18.112-212.93,51.797
		c-140.477,71.036-277.641,148.238-412.198,229.864c-63.991,38.819-121.467,86.793-174.883,139.378
		c-26.436-23.105-28.897-65.196-23.713-93.482c6.237-34.03,36.844-47.876,46.979-76.594c6.802-19.272,8.221-32.75-21.658-29.186
		c11.562-17.052,25.405-18.058,40.022-17.165c24.946,3.962,46.969-8.318,70.372-12.837
		c162.131-31.306,306.907-100.132,436.806-201.596c27.639-21.589,57.815-39.882,87.492-58.663
		c30.336-19.198,62.94-30.539,99.675-27.901c34.221,2.457,68.176-1.859,102.013-6.395c29.699-3.981,57.054-13.046,76.047-38.422
		c21.683,9.657,17.43,29.036,17.538,46.779c-3.888,12.86-20.042,10.215-30.424,23.412
		C4541.317,1108.709,4603.871,1149.972,4663.841,1195.326z"/>
	<path style="fill:#FBC10E;" d="M2976.491,1687.497c0.11-8.316,4.008-14.139,11.554-17.561
		c21.252-13.969,42.548-11.174,66.498-5.224c72.821,18.091,118.799,76.838,178.22,114.973c15.238,9.779-3.297,12.225-11.41,13.933
		c-17.814,11.321-30.368-6.405-49.508-8.974c56.99,42.483,116.731,72.583,180.764,93.086
		c92.804,29.716,184.526,63.263,280.215,83.452c12.129,2.559,25.353,3.534,35.025,13.192c14.854,12.331,28.662,24.018,32.587,45.701
		c3.607,19.92,24.902,25.613,40.5,34.967c16.276,9.761,36.79,13.635,47.822,36.625c-67.058-16.916-127.768-57.872-205.229-36.507
		c21.3,15.892,38.963,18.081,57.337,19.79c10.161,0.945,24.347,4.069,23.96,16.709c-0.464,15.172-15.42,10.459-25.382,11.868
		c-21.292,3.011-39.748-7.764-59.575-11.827c-43.567-19.864-91.095-27.073-136.024-42.997
		c-147.293-52.202-288.055-117.335-418.575-203.745c-9.798-6.487-19.89-12.221-31.387-15.211
		C2952.986,1797.752,2945.127,1733.25,2976.491,1687.497z"/>
	<path style="fill:#ECDBB8;" d="M3228.562,1201.461c67.984-7.397,135.941-15.049,203.96-22.1
		c44.17-4.579,88.363-10.54,132.666-11.858c69.653-2.072,138.46-16.929,208.425-12.71c-65.542,32.477-133.641,58.074-204.568,76.073
		c-82.837,16.879-167.223,20.408-251.02,28.951c-61.69,6.289-123.446,12.191-184.897,20.334
		c-66.198,8.772-132.386,17.697-198.603,26.305c-60.427,7.855-120.559,17.503-180.761,26.726
		c-188.455,28.872-372.303,78.807-557.32,123.24c-127.034,30.508-251.604,69.556-374.194,114.834
		c-17.223,6.361-33.732,15.839-53.093,14.514c-15.745-14.206-1.625-24.184,6.273-32.872c15.836-17.422,37.378-27.028,58.2-37.277
		c10.407-5.123,20.595-10.633,30.118-17.334c52.88-25.741,109.421-41.373,165.371-58.119
		c302.359-90.499,610.846-153.726,922.127-203.896C3043.224,1221.448,3136.092,1212.832,3228.562,1201.461z"/>
	<path style="fill:#FEF5D4;" d="M3667.849,1974.374c-60.858-11.852-120.837-26.613-180.087-45.419
		c-98.494-31.263-198.563-57.911-286.885-114.455c-17.658-11.305-34.092-23.893-50.422-42.34
		c29.533-2.758,46.128,22.863,70.903,21.456c44.444,22.804,93.423,30.265,141.615,31.72c158.453,4.784,307.282,48.09,454.7,101.766
		c117.146,42.654,240.21,59.067,363.938,69.717c142.11,12.233,284.489,15.621,427.022,11.469
		c43.45-1.266,86.793-6.938,130.403-2.358c-89.127,16.721-179.107,26.215-269.391,32.116c-149.173,9.75-298.348,9.483-447.336-4.568
		c-104.021-9.81-206.955-26.112-308.567-50.637C3698.643,1979.196,3683.156,1977.156,3667.849,1974.374z"/>
	<path style="fill:#F09602;" d="M6257.194,2003.646c-10.369,40.105-43.593,60.911-73.939,81.916
		c-65.537,45.361-136.478,81.766-208.777,115.217c-54.756,25.334-110.823,47.958-164.765,74.875
		c-25.198,12.574-48.965,27.614-66.015,54.207c-17.979,28.042-47.673,47.792-57.378,82.872c-7.993,28.89-4.116,42.182,20.192,48.034
		c-0.069,12.622-10.667,12.306-18.49,14.132c-128.591,30.006-257.955,56.284-387.914,79.634c-11.465,2.06-23.291,3.597-32.92-5.855
		c-8.878-1.782-21.598,5.237-25.917-5.738c-3.514-8.93,7.984-14.281,13.9-19.99c9.37-9.042,13.471-21.04,20.321-31.428
		c13.639-20.682,19.008-49.672,51.517-52.416c7.001-0.591,10.644-7.811,13.642-14.019c7.479-15.486,18.611-25.845,35.665-31.37
		c11.609-3.761,25.146-11.737,2.002-20.925c65.914-19.435,131.691-39.349,197.771-58.204
		c145.934-41.641,289.534-89.597,428.244-151.755c65.018-29.135,127.255-62.769,184.89-104.54
		C6212.732,2041.253,6234.586,2021.93,6257.194,2003.646z"/>
	<path style="fill:#EF9000;" d="M2736.416,2407.983c6.77,11.248,22.364,0.743,29.194,11.841
		c-23.179-1.366-37.207,3.945-29.952,32.506c3.329,13.108-11.406,27.666,7.12,44.461c-35.004-12.245-50.259,22.404-76.71,16.726
		c-10.348,9.702-21.892,5.155-33.167,2.646c-140.736-31.32-280.171-67.678-418.423-108.549c-17.749-5.247-35.923-9.289-53.14-16.064
		c-9.143-3.598-22.208-3.837-22.516-18.64c15.157-20.869,40.476-11.718,60.359-19.928c34.477-14.237,63.71-34.131,88.003-65.928
		c-40.029-23.099-82.948-48.184-126.181-72.717c-36.211-20.548-72.854-40.335-109.161-60.715
		c-9.657-5.421-26.592-9.888-24.374-20.522c3.195-15.316,19.503-19.748,35.432-18.09c74.427,49.23,151.008,94.768,230.228,135.924
		C2433.613,2323.917,2584.758,2366.632,2736.416,2407.983z"/>
	<path style="fill:#FDE24F;" d="M3696.948,2391.002c11.79-3.247,24.724,2.681,38.489-5.037c-13.162-11.655-29.104-8.224-42.178-10.8
		c-85.882-16.917-166.881-52.341-253.451-66.142c-100.455-16.014-201.097-30.883-301.461-47.442
		c-145.515-24.008-290.777-49.511-433.296-88.237c-21.386-5.811-43.176-11.151-62.447-22.99
		c-6.687-12.039,2.354-16.487,10.675-18.708c36.436-9.726,71.034-17.086,111.156-7.191c77.201,19.039,154.511,42.361,235.409,40.979
		c46.262-0.791,90.917-10.619,132.52-31.756c34.455-17.506,34.372-17.67,13.065-47.409c5.854-6.733,13.512-6.827,21.449-5.904
		c16.072,3.412,31.132,7.362,38.42,25.398c3.998,9.895,16.548,7.776,25.086,11.443c12.52,5.376,29.141,6.986,26.981,27.091
		c-37.888,10.705-70.903,30.829-102.307,53.76c-5.868,4.284-13.982,9.294-12.224,18.389c1.808,9.352,11.144,9.769,18.44,11.637
		c67.527,17.291,136.157,28.993,205.027,39.141c80.285,11.83,160.72,22.636,241.109,33.761c20.093,2.78,40.252,5.076,60.381,7.595
		c22.37,8.686,32.717,31.301,52.486,44.161c34.7,22.573,73.2,25.675,111.618,31.808c9.755,0.074,19.51,0.148,29.266,0.222
		c18.791,8.095,40.026-2.683,59.645,6.892c-7.787,15.41-21.496,12.482-33.262,12.677c-41.545,0.686-83.104,0.031-124.654,0.441
		c-17.406,1.889-34.413-2.912-51.719-3.123C3704.373,2401.574,3697.403,2400.246,3696.948,2391.002z"/>
	<path style="fill:#FCD01D;" d="M3257.367,2144.296c-4.688-10.313-13.242-14.816-23.633-18.749
		c-15.156-5.737-39.221,1.31-39.688-28.224c-0.135-8.532-18.239-2.083-24.237-11.206c-30.74-15.674-60.016-34.022-90.832-49.593
		c-9.212-4.655-20.957-11.297-15.658-23.73c4.757-11.161,16.063-6.249,25.087-3.277c33.338,13.752,67.599,21.359,107.206,15.293
		c-33.541-18.575-64.454-36.26-95.883-52.976c-56.084-29.829-107.627-66.63-159.094-103.44
		c-42.503-30.399-57.516-76.977-69.057-125.001c-1.477-6.147,1.818-13.977-7.904-18.928c-13.092,16.225-15.672,36.663-21.322,55.472
		c-12.553,41.795-42.434,50.396-73.161,19.108c-12.143-12.365-21.355-27.608-31.902-41.54c-10.682-48.869-3.24-66.899,36.465-91.672
		c20.01-12.485,41.237-21.625,64.587-24.328c17.767-2.057,35.444-1.365,38.684,22.618c1.644,17.549,14.975,25.877,28.923,27.479
		c23.366,2.683,47.623,6.626,70.542-4.104c-11.02,35.402-17.845,70.964-1.946,106.758c5.826,13.116,10.929,27.086,25.308,33.971
		c46.336,38.383,90.726,79.192,141.949,111.419c31.274,19.676,63.525,37.711,94.713,57.512c8.052,5.112,18.199,7.726,21.203,18.563
		c6.027,14.351,33.127,18.352,18.006,43.784c-9.669,16.263-18.337,17.985-32.044,8.786c-5.569-3.738-9.437-10.12-15.137-13.528
		c-10.287-6.151-22.545-17.6-32.284-1.266c-8.466,14.199,0.87,23.839,14.203,29.131c25.997,10.319,52.233,20.035,78.205,30.416
		c6.614,2.644,18.139,1.131,17.584,11.459c-0.465,8.666-10.88,10.338-17.916,12.642
		C3278.307,2140.429,3267.717,2141.996,3257.367,2144.296z"/>
	<path style="fill:#FEE67C;" d="M4505.634,1728.891c99.586,7.863,199.16,3.781,298.732-0.32
		c-2.841,16.949-17.009,12.722-27.082,13.052c-25.172,0.825-45.355,12.276-66.78,25.26c13.287,11.779,31.337,1.834,41.656,14.721
		c-27.694,11.186-57.607,8.351-85.982,9.713c-145.19,6.967-289.385-2.859-431.733-34.561
		c-69.137-15.397-138.604-29.292-204.314-56.862c14.24-18.782,34.865-16.274,53.684-13.603
		c86.708,12.307,174.084,18.906,260.502,34.352c52.417,9.368,106.151,13.252,159.656,15.416
		C4510.556,1736.324,4503.187,1730.912,4505.634,1728.891z"/>
	<path style="fill:#B89D63;" d="M1763.933,1582.385c107.866-36.761,214.916-76.161,325.153-105.474
		c209.703-55.76,420.129-109.377,634.244-144.874c170.697-28.298,342.682-49.173,514.441-70.576
		c91.677-11.424,184.088-16.961,276.162-25.218c18.378-1.648,36.731-3.578,55.104-5.378c-12.538,9.404-28.151,10.951-42.213,16.469
		c-35.825-5.583-70.309,6.286-105.555,8.724c-69.583,4.815-138.903,13.657-208.258,21.479
		c-69.368,7.824-138.784,15.438-207.93,24.954c-87.326,12.019-174.231,27.167-261.631,38.56
		c-84.89,11.066-167.739,31.82-250.839,50.795c-121.102,27.653-241.283,59.397-361.631,90.277
		c-228.346,58.59-446.411,142.851-648.594,265.187c-35.425,21.435-66.987,49.253-100.332,74.123
		c-5.601-21.04,11.985-29.764,23.475-39.626c49.58-42.554,101.459-82.277,159.072-113.576
		c57.391-31.178,116.903-58.005,177.211-83.042C1748.837,1582.275,1755.865,1577.786,1763.933,1582.385z"/>
	<path style="fill:#FEDF40;" d="M2548.742,1582.029c4.042,0.084,8.085,0.167,12.127,0.251c-2.469,16.713-17.748,15.95-28.631,19.772
		c-64.368,22.602-132.081,35-194.36,64.166c-15.025,7.037-29.578,15.068-44.622,21.788c-23.476,10.487-23.799,22.096-5.775,37.822
		c2.173,1.896,3.455,4.697,4.787,7.327c1.56,6.854-2.463,11.408-7.613,13.835c-28.291,13.333-51.006,36.45-81.32,46.148
		c-35.8,40.301-88.524,50.664-133.286,75.092c-12.988,7.088-28.127,13.419-39.696-1.366c-10.837-13.85-12.918-30.121-3.591-46.442
		c17.488-30.606,46.169-49.576,73.534-69.55c109.698-80.073,235.243-122.162,366.146-150.927
		C2493.861,1593.918,2520.266,1583.181,2548.742,1582.029z"/>
	<path style="fill:#FDDA4F;" d="M5226.219,1406.31c-71.15-20.788-134.302-58.965-199.773-92.063
		c-23.288-11.773-46.058-24.569-69.065-36.899c5.576-18.095,18.298-9.389,27.688-6.154c117.014,40.318,235.722,74.869,356.983,99.47
		c92.51,18.768,185.069,37.258,277.272,57.477c21.68,4.754,44.357,6.921,63.423,20.134c43.708,16.373,90.507,20.644,134.866,34.462
		c5.176,7.343,19.241,11.727,12.498,23.121c-6.069,10.257-17.041,4.799-26.474,1.979c-135.053-40.37-274.069-61.318-412.686-84.342
		C5336.34,1414.427,5281.963,1404.084,5226.219,1406.31z"/>
	<path style="fill:#F6A602;" d="M3773.962,1728.581c67.06,0.47,129.986,21.264,192.954,40.626
		c77.111,23.712,153.55,49.612,230.276,74.578c4.622,1.504,9.77,2.27,13.68,4.871c5.365,3.569,12.993,7.388,9.917,15.639
		c-2.53,6.789-9.951,4.67-15.446,4.697c-59.441,0.296-118.052-9.003-176.124-19.491c-90.713-16.384-180.2-38.53-266.119-72.978
		c-18.438-7.393-48.854-11.135-45.241-33.228c4.097-25.048,34.346-11.364,53.177-14.693
		C3771.985,1728.435,3772.986,1728.581,3773.962,1728.581z"/>
	<path style="fill:#FDF7E1;" d="M5930.504,1929.448c-19.536,34.965-48.712,59.133-80.164,80.419
		c-124.5,84.258-260.427,144.847-402.448,192.576c-20.609,6.926-42.071,9.899-63.5,6.422c-15.305-2.484-27.684-11.419-28.436-28.659
		c-0.742-17.048,10.646-23.304,26.054-25.358c188.482-25.134,357.383-99.809,514.698-203.727
		C5907.874,1943.745,5919.234,1936.665,5930.504,1929.448z"/>
	<path style="fill:#FEEB99;" d="M4752.161,1781.604c-14.522-0.653-29.115-0.675-43.529-2.294
		c-5.148-0.578-12.125-2.937-12.743-10.02c-0.611-7.012,5.291-10.231,10.699-12.015c26.105-8.609,48.738-29.014,79.256-22.989
		c6.522,1.288,13.742,0.669,18.522-5.715c143.561-12.033,285.299-38.063,428.126-55.741c33.685-4.169,67.233-3.841,101.107,1.672
		c-16.781,10.716-36.236,6.045-54.069,9.984c-107.321,23.705-214.61,47.59-322.18,70.12
		C4889.72,1768.772,4821.26,1777.941,4752.161,1781.604z"/>
	<path style="fill:#F7AC02;" d="M5193.098,1738.469c-49.859,62.635-115.647,66.113-177.462,77.044
		c-35.378,6.256-68.79,18.898-104.085,25.574c-39.863,7.54-79.544,3.305-119.222,6.872c-99.844,8.976-200.018,2.101-300.513-1.403
		C4725.804,1825.151,4958.854,1799.302,5193.098,1738.469z"/>
	<path style="fill:#F5A609;" d="M3696.948,2391.002c20.722,10.574,43.07,3.363,64.527,5.903c53.259,4.482,106.527,2.66,159.84,0.906
		c34.638-1.139,69.603-6.806,103.8,4.215c78.049,0.053,156.188,2.399,234.112-0.672c49.433-1.948,98.531-9.915,147.837,0.645
		c7.234,1.549,18.377-0.91,17.87,9.646c-0.459,9.571-10.212,12.829-19.658,13.907c-119.203,13.613-238.97,15.348-358.512,10.838
		c-99.694-3.762-199.248-13.385-298.603-23.084c-46.104-4.5-91.59-15.34-137.344-23.374c-0.568-0.1-0.979-1.103-1.463-1.685
		c2.151-1.376,4.302-2.753,6.455-4.132C3642.84,2386.619,3669.543,2392.945,3696.948,2391.002z"/>
	<path style="fill:#FECD20;" d="M2220.864,1886.79c47.172,7.454,77.015-27.547,113.272-46.556
		c38.663-20.27,77.688-39.111,126.659-48.668c-19.087,33.674-43.407,56.035-64.917,80.152
		c-19.251,21.584-34.509,43.797-40.657,72.595c-6.91,32.371-66.909,51.336-100.792,32.406c-17.744-9.913-33.81-24.072-56.514-18.168
		c10.872-29.119,25.002-54.887,63.3-56.983C2249.492,1885.181,2230.31,1899.927,2220.864,1886.79z"/>
	<path style="fill:#F5A203;" d="M3257.719,2015.722c-86.917-45.215-168.184-98.839-241.74-163.704
		c-6.957-6.135-10.821-15.777-16.123-23.791c29.364-2.043,45.439,22.499,66.497,35.457
		c109.795,67.562,226.683,120.088,346.201,166.92c44.966,17.62,92.43,28.864,138.75,43.032c11.161,3.414,22.772,6.152,28.566,18.065
		c-97.977-10.408-194.563-26.948-286.576-64.107C3281.725,2022.921,3269.591,2019.645,3257.719,2015.722z"/>
	<path style="fill:#FEEA94;" d="M4505.634,1728.891c5.578,2.911,11.156,5.821,19.272,10.056
		c-44.602,5.245-86.191-3.285-127.657-7.056c-80.571-7.328-160.028-24.877-241.292-27.056c-19.172-0.514-38.668-3.109-57.255-7.776
		c-23.556-5.916-45.968-4.45-68.564,2.83c-75.316-23.124-150.728-45.929-225.87-69.59c-21.16-6.663-45.115-3.193-64.419-17.534
		c48.254-2.914,95.654-1.545,143.125,6.526c106.761,18.151,209.729,52.968,316.632,70.409
		c72.005,11.747,143.483,26.109,216.269,33.748C4445.905,1726.599,4475.814,1725.898,4505.634,1728.891z"/>
	<path style="fill:#FDF7D3;" d="M4517.496,1183.674c-6.817-6.383-13.635-12.766-20.452-19.15
		c87.373,29.532,156.382,83.651,213.058,154.56c8.705,23.274,5.66,42.523-19.761,52.544c-20.416,8.047-36.045-0.602-47.903-17.07
		c-12.491-17.348-5.032-33.72,9.125-43.237c25.767-17.321,13.068-28.539-3.247-40.301
		C4605.76,1240.344,4563.18,1209.677,4517.496,1183.674z"/>
	<path style="fill:#FDDD30;" d="M3831.896,2384.549c-43.12,4.571-82.986-2.276-120.142-27.166
		c-19.449-13.028-29.381-32.541-43.961-48.804c33.814-0.016,67.776,1.908,101.395-0.664c26.919-2.059,38.587,8.252,34.703,33.35
		C3800.127,2365.591,3805.47,2381.135,3831.896,2384.549z"/>
	<path style="fill:#F2B20C;" d="M2203.335,1793.137c25.996-24.511,57.839-40.257,87.917-58.65
		c2.101-8.459,8.903-12.503,15.781-16.122c58.585-30.822,118.724-58.077,181.924-78.139c8.111-2.574,16.673-6.548,24.816,0.416
		c2.894,0.226,6.411-0.529,8.575,0.846c10.028,6.368-1.332,6.576-3.096,7.847c-29.301,21.099-63.431,32.802-95.883,47.521
		c-64.072,29.063-129.075,56.077-190.601,90.479C2222.997,1789.464,2216.301,1807.205,2203.335,1793.137z"/>
	<path style="fill:#FDF6D7;" d="M3436.478,1723.468c-17.457-9.945-33.028-13.516-53.137-8.952
		c-18.496,4.198-37.294-4.207-43.228-25.605c-4.376-15.78,1.078-29.855,17.65-35.066c19.243-6.05,37.093-2.987,47.253,17.106
		C3414.184,1689.081,3424.911,1706.131,3436.478,1723.468z"/>
	<path style="fill:#FDDD30;" d="M4025.116,2402.027c-78.622-0.034-157.244,0.021-235.865-0.222
		c-9.403-0.029-19.607,2.776-27.777-4.904c50.635,0.004,101.27,0.004,159.378,0.004c-23.926-12.093-44.02,0.993-59.69-12.135
		c47.446,1.926,94.886,3.985,142.34,5.663C4012.952,2390.768,4020.787,2392.784,4025.116,2402.027z"/>
	<path style="fill:#FDF9D3;" d="M4545.891,1311.983c14.255,0.617,23.554,5.86,23.957,20.64c0.423,15.512-8.403,24.045-22.912,24.478
		c-12.881,0.385-23.12-6.455-23.434-20.64C4523.174,1321.621,4531.97,1313.488,4545.891,1311.983z"/>
	<path style="fill:#FEDD4E;" d="M3451.236,1663.906c-0.503-23.877-1.38-47.855,19.77-71.234c3.531,28.788,6.517,53.141,9.506,77.496
		C3467.438,1683.578,3460.663,1667.547,3451.236,1663.906z"/>
	<path style="fill:#FCF8CC;" d="M4094.153,2176.506c-1.341,13.19-7.241,22.3-21.782,22.246c-12.954-0.048-23.475-4.468-23.8-19.642
		c-0.308-14.386,8.841-21.25,21.895-22.409C4084.17,2155.484,4092.738,2162.015,4094.153,2176.506z"/>
	<path style="fill:#9E6226;" d="M5472.218,3632.352c-106.243,62.097-218.47,109.338-338.054,139.466
		c-126.795,31.945-252.594,68.061-381.436,91.287c-70.453,12.701-141.399,21.746-212.859,27.671
		c-36.849,3.055-73.514,5.655-110.437,5.137c-1.027-14.365,11.723-15.993,20.152-20.814c32.521-18.6,66.568-34.123,101.194-48.371
		c150.221-70.483,297.967-145.741,441.3-229.452c29.468-17.21,56.476-38.477,87.195-53.718
		c34.482-16.012,65.762-37.742,99.271-55.545c23.202-12.326,46.21-25.038,69.925-36.325c47.444-22.579,47.75-22.438,28.313-70.136
		c-27.545-67.592-61.005-132.593-88.206-200.33c-7.046-17.546-20.118-21.624-37.151-21.528
		c-49.638,0.278-99.279,0.129-148.918,0.082c-9.732-0.009-19.516,0.557-29.178-0.603c-13.438-1.614-30.579-1.424-35.003-15.984
		c-4.832-15.898,13.267-18.678,23.093-25.334c11.008-7.456,16.881-18.005,21.265-30.566c-15.803-9.114-35.975,2.823-49.723-11.629
		c27.193-11.121,55.435-5.34,83.083-3.94c26.953,1.365,53.721,9.055,80.575,9.083c46.516,0.048,93.131-2.481,139.531-6.131
		c53.958-4.245,107.77-10.494,161.571-16.523c87.445-9.8,175.031-18.667,262.192-30.598
		c113.016-15.468,225.714-33.303,337.369-57.082c12.251-2.609,24.744-4.091,37.122-6.098c13.205-0.267,22.076,3.528,23.726,19.038
		c10.379,97.478,0.492,190.7-51.175,277.041c-45.439,75.936-106.004,138.087-171.531,196.171c-14.075,1.024-11-10.542-12.568-17.924
		c-5.594-26.351-8.551-27.829-30.889-12.096c-56.431,39.745-112.449,80.074-169.136,119.456
		c-34.348,23.862-69.313,46.752-105.201,68.262C5503.37,3622.865,5487.986,3627.935,5472.218,3632.352z"/>
	<path style="fill:#935220;" d="M5472.218,3632.352c103.359-57.795,197.895-128.797,294.486-196.721
		c11.081-7.793,21.904-15.995,33.329-23.248c19.835-12.591,27.343-8.75,29.58,13.983c1.006,10.227-3.854,21.67,5.812,30.253
		c-3.917,3.927-7.834,7.853-11.752,11.781c-35.71,14.583-53.668,49.023-81.042,72.997
		c-90.697,79.433-185.571,152.432-293.047,208.297c-28.417,14.771-56.896,29.183-86.084,42.284
		c-7.196,3.231-15.648,7.84-21.617,1.286c-6.644-7.295,1.165-14.701,5.353-20.392c34.174-46.436,76.842-84.746,119.502-122.973
		C5476.198,3641.419,5476.815,3642.108,5472.218,3632.352z"/>
	<path style="fill:#F7E9CF;" d="M7224.832,2332.367c-35.351,28.011-77.46,43.719-117.708,62.183
		c-30.511,13.997-59.778,32.341-94.022,37.378C7074.498,2379.224,7152.073,2360.917,7224.832,2332.367z"/>
	<path style="fill:#F7E9CF;" d="M7013.28,2431.804c-22.022,13.417-45,24.514-70.652,29.133
		C6963.512,2444.761,6984.789,2429.535,7013.28,2431.804z"/>
	<path style="fill:#F7E9CF;" d="M6995.331,1547.044c80.168,33.156,155.299,75.611,224.105,128.137
		c46.818,35.742,92.605,73.373,125.15,124.149c29.382,45.842,57.813,91.67,67.366,146.823c3.755,21.678,13.374,41.991,17.472,64.131
		c12.037,65.025-4.855,122.209-41.538,175.18c-48.881,32.559-99.069,62.854-152.287,87.903
		c-50.581,21.946-101.227,43.74-152.346,64.412c-50.752,19.539-101.506,39.078-152.258,58.617
		c-60.216,20.57-121.608,37.492-181.665,58.558l0.012-0.006c-23.436,7.807-49.305,8.305-70.313,23.402
		c-68.347,17.58-136.694,35.16-205.041,52.741c-26.191,2.361-50.712,11.969-76.158,17.559c-7.278,4.014-14.864,6.813-23.385,5.899
		c-17.294,5.231-36.5,1.824-52.773,11.674c-17.565,3.913-35.13,7.827-52.696,11.74c-15.389,4.867-32.357,3.396-46.896,11.677
		c-100.66,18.746-200.537,41.952-302.56,52.972c-8.594,0.928-16.987,3.723-25.473,5.65c-21.593,3.332-43.489,4.989-64.474,11.677
		c-69.743,10.55-139.362,22.017-209.264,31.377c-62.264,8.337-124.842,14.331-187.28,21.376
		c-64.354,7.262-128.586,15.992-193.098,21.352c-50.166,4.169-100.355,9.134-150.448,12.458
		c-81.232,5.392-162.401,14.892-244.063,13.063c-24.925,8.169-51.301-2.669-76.202,5.813c-7.801,0.011-15.603,0.022-23.404,0.033
		c-20.958,7.825-43.535-2.299-64.467,5.814c-25.375,0.017-50.75,0.034-76.125,0.051c-47.099,6.294-94.432,0.952-141.611,2.93
		c-11.398,0.478-23.205-2.984-34.169,2.865c-70.304,0-140.607-0.001-210.911-0.001c-38.294-6.576-76.904-1.061-115.309-3.072
		c-14.302-0.749-28.924,3.155-42.897-2.722c-21.468-0.011-42.936-0.023-64.404-0.035c-68.429-5.96-136.937-11.106-205.547-14.061
		c-54.39-2.344-108.354-8.402-162.324-14.727c-9.646-1.13-19.053-4.406-25.026-15.348c10.177-9.154,22.56-13.135,31.789-14.641
		c-3.191,0.165-9.992,2.695-17.034,4.604c-15.398,4.175-18.895-4.018-15.009-17.53c11.033-8.441,24.182-8.029,36.574-6.779
		c90.244,9.1,181.102,7.579,271.362,16.112c4.86,0.459,9.727,0.841,14.607,0.896c177.518,2.003,355.098,12.325,532.509,4.93
		c115.817-4.828,231.759-6.563,347.578-14.741c134.167-9.473,268.42-17.462,402.34-30.294
		c192.328-18.428,384.189-40.431,575.012-71.12c249.718-40.161,497.996-87.334,741.449-156.67
		c195.383-55.645,388.747-117.572,569.305-212.87c71.432-37.702,135.612-85.177,180.071-154.701
		c15.867-24.814,27.607-51.532,29.955-81.447c8.792-66.015-23.187-117.072-63.362-163.431
		c-58.68-67.713-130.082-119.741-209.874-160.326c-9.51-4.837-19.548-8.939-26.618-17.496c-10.019-13.791-5.024-24.071,6.113-35.075
		c20.718-20.47,20.02-27.062-0.1-47.097C7003.338,1563.107,6992.109,1559.611,6995.331,1547.044z"/>
	<path style="fill:#F9EDD7;" d="M3228.562,1201.461c-38.567,18.319-81.278,16.819-121.886,21.771
		c-93.339,11.38-185.95,26.533-278.502,42.527c-156.627,27.067-312.843,56.555-467.221,94.348
		c-152.828,37.414-305.352,76.448-454.066,128.607c-14.657,5.141-28.883,11.509-43.309,17.308
		c-86.716,34.586-176.807,61.709-255.441,114.233c-21.701,14.495-43.816,7.909-64.833,1.492c-20.806-6.353-38.04-4.373-54.42,9.417
		c-22.954,19.325-52.551,29.505-72.167,53.764c-7.721,9.548-20.85,9.875-32.698,9.964c-14.895,0.112-29.523,1.983-42.195,10.063
		c-63.435,40.445-114.121,91.084-132.593,167.308c-13.239,54.633-0.801,105.686,27.825,151.273
		c32.929,52.438,75.867,96.69,131.026,127.161c18.929,10.457,35.514,24.034,52.403,37.238c27.22,21.279,56.492,38.185,91.102,44.171
		c5.624,1.893,10.465,5.041,14.675,9.173c5.798,7.751,12.48,14.6,21.575,18.414c34.07,14.289,65.477,35.675,103.713,38.958
		c64.309,22.492,126.718,49.917,191.288,71.748c191.899,64.882,386.639,119.412,584.509,162.795
		c13.129,2.878,27.368,3.587,36.453,15.931c-1.594,28.968-10.869,32.561-35.659,21.407c41.09,0.802,85.667,30.775,137.439,28.429
		c20.704-0.938,40.143,2.603,59.256,11.862c29.514,14.298,62.709,11.872,94.199,17.327c48.758,8.447,98.898,9.505,146.041,26.368
		c11.834,4.233,28.008,4.731,29.475,23.001c-54.56-8.123-109.406-14.697-163.625-24.676
		c-130.42-24.004-260.782-48.447-390.721-74.906c-115.04-23.425-228.377-54.187-341.069-87.033
		c-110.109-32.094-219.723-66.045-326.935-106.833c-134.876-51.312-266.988-109.652-384.263-194.766
		c-60.482-43.896-110.676-104.138-123.89-178.262c-16.01-89.814,2.302-175.836,68.91-247.698
		c67.033-72.321,149.731-120.262,235.23-164.957c158.511-82.862,328.129-135.998,498.95-186.192
		c137.802-40.491,277.626-72.629,418.048-101.793c98.482-20.454,197.457-39.152,297.6-51.05
		c79.719-9.471,158.771-24.871,238.586-33.116c45.219-4.671,90.709-7.164,136.057-12.133
		C3114.224,1207.88,3170.92,1197.223,3228.562,1201.461z"/>
	<path style="fill:#F9EBD5;" d="M2894.552,2677.518c-28.196-18.649-60.179-24.987-92.972-29.39
		c-53.599-7.197-108.693-9.498-160.256-24.102c-69.427-19.663-143.207-18.318-210.24-47.123c-5.691-2.446-11.54-4.523-21.3-8.322
		c20.496-6.201,50.809,21.284,51.265-20.281c13.197-11.281,27.99-6.211,41.885-3.018c157.011,36.079,316.18,59.894,475.517,82.202
		c138.974,19.458,278.216,37.194,418.259,47.857c53.41,4.067,106.702,9.469,160.253,11.902c16.223,0.737,33.407,1.384,46.426,14.088
		c1.697,9.376,3.264,18.672,16.319,10.183c10.288-6.691,20.886-5.993,34.616-1.148c-14.306,13.464-33.652,3.917-45.298,18.956
		c40.346,11.673,82.552,13.463,123.797,17.704c82.232,8.455,164.913,12.549,247.417,18.336c5.934,0.416,11.712,0.545,15.68,5.879
		c-103.055,3.627-205.384-10.521-308.275-12.68c-76.303-1.601-152.577-9.462-228.628-16.933
		c-102.874-10.106-205.769-19.789-308.428-32.659c-73.739-9.245-147.46-20.484-221.758-25.76
		C2917.327,2682.393,2905.974,2679.468,2894.552,2677.518z"/>
	<path style="fill:#F9EBD5;" d="M6749.33,2454.954c31.454-24.118,71.566-25.262,106.973-39.094
		c23.359-9.125,47.76-21.104,74.69-19.464c-19.265,16.44-44.083,20.326-66.993,26.551
		C6825.703,2433.353,6789.604,2451.811,6749.33,2454.954z"/>
	<path style="fill:#F9EBD5;" d="M7083.252,2337.779c48.223-27.521,99.172-48.596,152.345-64.412
		C7187.925,2302.188,7137.45,2324.385,7083.252,2337.779z"/>
	<path style="fill:#F9EBD5;" d="M4429.44,2777.072c11.657-10.813,25.956-5.336,38.953-5.54c45.599-0.715,91.216-0.264,136.827-0.256
		c-13.699,11.362-29.874,5.191-44.786,5.503C4516.786,2777.692,4473.107,2777.084,4429.44,2777.072z"/>
	<path style="fill:#F9EBD5;" d="M4060.323,2771.277c43.64-0.009,87.282-0.183,130.92,0.106c9.308,0.062,19.667-3.17,27.285,5.688
		c-43.638,0.012-87.276,0.189-130.912-0.095C4078.304,2776.916,4067.951,2780.099,4060.323,2771.277z"/>
	<path style="fill:#F9EBD5;" d="M6679.028,2478.35c18.45-22.784,44.924-21.465,70.313-23.402
		C6728.027,2469.126,6702.738,2471.368,6679.028,2478.35z"/>
	<path style="fill:#F9EBD5;" d="M6397.829,2548.65c23.297-14.912,49.025-19.283,76.158-17.559
		C6449.167,2539.398,6425.252,2551.628,6397.829,2548.65z"/>
	<path style="fill:#F9EBD5;" d="M5829.572,2659.94c19.749-13.509,41.66-15.087,64.474-11.677
		C5873.665,2658.281,5851.856,2660.419,5829.572,2659.94z"/>
	<path style="fill:#F9EBD5;" d="M4769.217,2765.379c24.572-12.79,50.899-2.586,76.202-5.813
		C4820.842,2772.294,4794.522,2762.197,4769.217,2765.379z"/>
	<path style="fill:#F9EBD5;" d="M6321.671,2566.223c14.691-16.996,34.615-10.343,52.772-11.675
		C6357.602,2561.824,6340.173,2566.448,6321.671,2566.223z"/>
	<path style="fill:#F9EBD5;" d="M4681.346,2771.226c20.543-12.427,43.073-2.821,64.467-5.814
		C4725.269,2777.821,4702.745,2768.296,4681.346,2771.226z"/>
	<path style="fill:#F9EBD5;" d="M6222.08,2589.641c12.781-15.338,30.447-11.06,46.896-11.677
		C6254.445,2586.279,6238.773,2590.011,6222.08,2589.641z"/>
	<path style="fill:#9F6826;" d="M1582.278,2982.169c-45.336-46.52-84.047-98.53-121.875-150.984
		c-69.69-96.635-139.175-193.53-194.263-299.693c-12.016-23.156-41.15-29.436-52.901-52.979
		c53.862,26.92,107.169,55.024,161.694,80.525c136.498,63.839,273.65,126.238,417.682,171.857
		c8.161,2.584,15.834,6.706,23.73,10.106c17.714,17.222,42.001,19.123,63.728,26.361c162.176,54.029,327.38,97.214,495.062,129.804
		c120.671,23.453,242.434,41.301,363.722,61.571c78.316,13.088,156.512,26.994,235.025,38.774
		c77.561,11.637,155.454,21.057,233.199,31.461c69.095,9.247,138.088,19.364,207.316,27.483
		c50.066,5.872,100.401,9.66,150.689,13.399c108.368,8.058,216.776,15.599,325.189,23.043c15.545,1.067,31.217,0.14,46.816,0.607
		c63.213,1.892,126.419,3.984,189.629,5.949c5.956,0.185,11.709,0.624,16.018,5.471c-36.292,16.582-75.622,12.421-113.559,14.548
		c-54.08,3.031-108.445,0.776-162.688,0.786c-19.384,0.004-38.709,0.623-57.768,4.324c-121.052,1.835-241.579-7.084-361.912-19.494
		c-38.804-4.002-78.695-3.563-116.23-11.949c-41.023-9.165-82.129-15.998-123.53-22.264
		c-174.646-26.432-348.926-55.791-524.877-72.397c-218.927-20.663-429.134-81.248-640.521-136.704
		c-151.499-39.745-298.163-92.638-438.855-161.731c-16.764-8.233-35.073-11.96-52.819-17.279
		c-6.374-1.911-13.865-5.749-19.558-0.802c-7.622,6.623-1.666,14.665,1.026,21.5c23.681,60.134,54.974,116.43,87.419,172.132
		c23.113,39.68,49.866,76.997,74.907,115.373c31.847,33.215,62.23,67.91,96.69,98.626c5.094,5.084,9.929,10.367,12.894,17.058
		c-1.107,18.481,21.188,30.933,13.282,51.183c-77.003-49.367-146.395-108.626-216.601-166.815
		C1594.67,2986.57,1589.739,2982.05,1582.278,2982.169z"/>
	<path style="fill:#AC712B;" d="M3802.542,3116.916c39.272-9.616,79.317-6.682,118.947-5.514
		c73.939,2.179,147.473-5.406,221.247-6.475c97.574,0.053,195.257,3.067,292.684-0.639c104.709-3.983,209.089-16.18,313.787-21.088
		c61.204-2.868,122.292-10.766,183.758-7.538c7.787,0.088,15.684-0.606,23.345,0.436c14.764,2.005,30.797-5.938,44.342,5.522
		c-16.616,10.915-12.868,38.549-36.937,44.017c-8.002,1.818-16.618,5.647-22.484,14.435c12.038,12.095,27.331,11.927,42.595,11.923
		c56.489-0.015,113.019,1.246,169.448-0.589c24.41-0.794,35.839,7.187,44.447,30.208c29.574,79.093,71.739,152.882,99.68,232.839
		c5.953,17.034,2.06,24.854-13.6,31.016c-65.369,25.723-125.309,61.776-185.137,98.041c-5.633,3.415-12.643,4.558-19.013,6.756
		c-2.737-12.536,5.486-20.468,13.044-27.657c68.802-65.444,56.793-142.226,28.514-219.259
		c-17.661-48.109-53.17-73.444-107.906-73.078c-140.305,0.939-280.627,1.268-420.943,0.782
		c-74.106-0.257-148.339-2.784-222.293,0.581c-117.893,5.366-235.767,4.557-353.67,5.581c-30.83,0.267-56.57-7.43-80.473-27.62
		c-33.574-28.359-70.679-51.865-111.416-69.27C3814.282,3135.958,3801.424,3132.581,3802.542,3116.916z"/>
	<path style="fill:#EBDAB6;" d="M4828.054,1194.433c-19.201-11.204-36.766-24.586-52.962-39.785
		c121.105,6.601,242.348,10.391,363.164,22.433c64.654,6.444,129.835,7.414,194.611,12.856c71.403,6,142.626,14.169,213.903,21.629
		c58.775,6.151,117.589,12.023,176.25,19.138c78.814,9.559,157.687,18.936,236.195,30.659
		c122.622,18.31,244.723,40.191,365.171,69.59c47.848,11.679,95.689,23.421,143.691,34.492
		c21.327,14.117,46.616,16.398,70.284,23.524c18.862,10.671,28.019,27.118,21.857,47.81c-4.424,14.857,9.091,29.447-1.795,43.303
		c-12.009,4.294-23.177-0.254-34.226-3.7c-286.108-89.253-581.031-133.804-877.206-170.9
		c-142.989-17.909-285.983-37.123-430.177-43.861c-14.525-0.679-28.465-7.124-43.362-4.709
		c-53.291,2.701-103.823-13.662-155.167-23.475C4954.725,1221.288,4889.829,1215.33,4828.054,1194.433z"/>
	<path style="fill:#A8712D;" d="M1816.638,3157.833c-4.843-17.848-24.114-30.831-17.697-52.476
		c11.528-3.642,18.196,4.743,25.43,10.784c88.452,73.868,181.004,142.343,274.449,209.686c47.7,34.376,99.242,62.147,151.116,89.24
		c102.033,53.288,206.297,102.05,268.184,130.19c-100.984-48.539-224.923-146.273-348.488-244.557
		c-9.179-7.301-17.789-15.28-25.958-23.656c-6.533-6.699-17.537-13.612-10.441-24.251c6.43-9.642,17.847-5.576,26.952-2.034
		c50.021,19.458,101.209,35.868,150.338,57.651c98.098,43.495,194.772,90.774,298.497,120.003
		c132.347,37.294,264.529,74.845,401.859,91.314c148.859,17.851,298.047,9.285,447.099,10.342
		c73.929,0.525,145.709,12.574,216.696,30.79c89.833,23.054,179.41,47.928,271.556,59.184
		c82.206,10.042,165.015,16.593,247.931,5.373c4.839-0.655,9.723-0.953,14.603-0.961c188.387-0.358,376.773-0.291,565.159,0.078
		c12.287,0.024,27.705-2.074,32.96,12.797c5.439,15.391-6.462,26.079-16.872,34.549c-65.925,53.64-134.171,103.984-210.229,142.736
		c-9.601,4.892-18.722,10.456-27.323,16.913c-31.967,15.929-64.028,31.675-95.844,47.9c-9.415,4.801-18.14,10.953-27.182,16.485
		c-15.042,4.378-30.258,6.759-46.055,5.945c-66.281-3.419-132.269,6.789-198.444,5.168c-149.626-3.664-299.125-7.927-448.411-21.794
		c-252.575-23.462-502.298-62.724-748.291-124.448c-95.181-23.882-188.836-53.456-281.07-87.221
		c-64.457-27.414-128.914-54.831-193.371-82.247c-39.076-21.411-77.456-44.226-117.349-63.988
		c-168.835-83.64-324.889-187.479-476.624-298.374C1886.106,3204.315,1851.067,3181.492,1816.638,3157.833z"/>
	<path style="fill:#F3E4C4;" d="M6561.849,1476.83c-7.823-7.433-15.973-16.309-11.239-27.173c10.35-23.75-0.66-42.012-12.249-60.69
		c82.197,21.921,163.204,47.614,243.865,74.647c72.482,24.291,141.811,56.298,213.104,83.43c2.805,6.761,9.171,9.39,14.624,13.407
		c31.412,23.139,32.394,38.21,1.989,62.621c-10.369,8.326-9.097,15.36-5.283,24.796c-11.349,6.078-20.851-0.659-30.193-5.077
		c-97.662-46.181-198.104-85.323-300.186-120.544c-28.531-9.844-57.975-16.561-86.216-27.132
		C6579.406,1491.125,6566.886,1489.641,6561.849,1476.83z"/>
	<path style="fill:#BEAD7A;" d="M3603.387,2701.332c-211.266-14.801-421.992-35.319-631.622-65.386
		c-162.39-23.292-324.693-47.716-484.653-85.175c-8.419-1.971-17.364-1.695-26.064-2.468
		c-141.981-29.668-282.63-64.992-421.481-106.633c-133.054-39.902-265.408-82.476-392.628-139.16
		c-43.905-13.333-85.005-32.622-123.225-58.026c-3.478-2.27-6.955-4.539-10.433-6.809c-57.575-22.505-108.708-55.14-150.251-100.938
		c-20.33-22.413-41.843-45.794-39.954-80.014c21.333-4.607,42.326-9.912,61.965-20.191c8.57-4.486,19.479-11.44,26.759,3.104
		c1.143,9.036,4.607,16.93,11.412,23.179c6.722,2.174,12.151,6.146,16.133,11.96c39.903,58.261,98.531,93.33,158.149,126.883
		c117.923,66.367,245.115,109.953,373.534,150.291c213.029,66.914,431.262,112.842,649.212,159.775
		c42.453,9.142,85.307,16.512,127.724,25.951c78.437,18.805,158.534,28.044,238.052,40.357
		c179.753,27.835,360.495,46.886,541.991,59.685c111.678,7.875,223.342,13.697,335.224,18.01
		c199.833,7.703,399.646,5.749,599.416,3.004c124.455-1.71,248.806-11.015,373.192-17.169c5.537-0.274,10.946-3.1,16.415-4.738
		c4.665-5.818,11.256-7.259,18.14-8.051c24.604-1.747,49.545,2.828,73.899-3.888c87.504-5.975,174.983-12.35,262.431-19.409
		c109.983-8.878,219.23-23.798,328.521-37.995c236.307-30.697,470.977-71.796,704.126-120.834
		c205.621-43.248,408.512-97.502,603.564-176.485c71.954-29.136,143.742-60.656,207.389-107.405
		c45.67-33.544,80.925-73.143,92.235-130.313c18.349-15.842,24.327,4.054,33.486,12.371c10.178,9.241,8.844,30.98,27.308,30.464
		c18.853-0.527,34.572-11.839,48.079-24.695c16.079-15.303,32.907-30.031,43.044-50.578c3.274-6.637,6.57-14.515,16.394-14.121
		c1.345,54.815-27.247,96.639-61.275,134.835c-62.169,69.787-141.286,115.929-225.519,153.321
		c-298.887,132.681-612.903,215.528-932.455,279.055c-163.964,32.597-328.891,60.487-494.666,82.123
		c-129.146,16.855-258.65,31.167-388.417,43.116c-135.684,12.493-271.429,22.806-407.52,29.95
		c-85.604,4.494-171.206,7.764-256.822,11.464c-135.579,5.859-271.162,5.857-406.656,3.259
		c-151.904-2.913-303.735-10.474-455.526-17.536C3655.85,2704.254,3629.742,2700.339,3603.387,2701.332z"/>
	<path style="fill:#C46B03;" d="M2747.964,2537.674c-81.237-9.093-161.071-26.632-240.928-42.988
		c-226.872-46.465-451.791-101.034-670.249-179.042c-120.324-42.966-237.904-92.065-340.776-170.261
		c-29.796-22.649-55.104-49.251-72.794-82.571c80.501-100.153,180.581-175.01,296.144-230.179
		c14.49-6.918,28.654-11.738,44.665-10.557c-25.146,24.258-56.232,41.034-80.971,66.083
		c-97.788,99.01-76.455,201.969,19.829,283.499c91.949,77.859,202.482,121.83,314.66,161.054
		c40.167,14.045,78.819,32.986,121.277,40.198c50.655,22.433,104.636,34.328,157.565,49.497
		c114.669,32.864,230.311,61.959,346.671,88.192c7.508,1.693,15.333,1.978,23.011,2.918
		C2691.572,2527.651,2723.311,2520.654,2747.964,2537.674z"/>
	<path style="fill:#F9EBD5;" d="M1325.612,2056.293c17.646,69.051,70.643,106.913,125.817,143.025
		c20.311,13.294,43.813,21.415,61.843,38.359c-31.111,1.344-57.799-13.061-79.696-31.154
		c-36.796-30.403-79.258-52.133-116.091-82.287c-45.795-37.49-82.885-80.785-106.134-135.754
		c-39.007-92.226,5.152-194.301,69.186-245.806c20.183-16.234,35.99-38.915,62.523-46.903c3.689-1.111,7.143-4.865,10.573-4.696
		c64.43,3.173,97.497-53.091,147.237-77.643c6.004-2.964,11.39-10.126,18.12-6.346c58.604,32.916,100.271-9.081,148.809-29.652
		c63.81-27.043,124.828-63.434,195.777-71.416c-22.115,12.888-44.019,26.159-66.419,38.533c-15.822,8.74-26.653,21.263-33.224,37.83
		c-75.107,34.648-152.47,64.737-223.064,108.557c-50.529,31.365-98.773,65.922-141.469,107.63
		c-6.844,6.686-15.294,12.431-17.344,22.868c-16.339,20.877-35.606,39.641-46.532,64.427
		C1316.987,1941.789,1322.133,1999.09,1325.612,2056.293z"/>
	<path style="fill:#A18547;" d="M1325.612,2056.293c-16.449-57.958-22.177-115.292,9.912-170.428
		c16.397,13.045,35.553,5.922,53.295,6.19c17.429,0.263,27.155,5.751,23.203,23.441c-9.273,41.505-4.001,82.757-0.217,124.133
		c-15.515-8.857-24.941,5.984-37.22,9.638C1358.576,2054.033,1344.063,2068.666,1325.612,2056.293z"/>
	<path style="fill:#FEEA7C;" d="M3146.488,2085.874c8.751,11.182,34.171,6.221,31.682,24.148
		c-2.029,14.613-21.563,20.301-35.106,27.388c-82.433,43.135-168.534,43.668-256.973,23.201
		c-40.358-9.34-84.118-11.357-121.134-26.147c-43.659-17.444-78.604,0.046-117.118,6.411c-2.207,0.365-3.51,6.194-5.234,9.48
		c-15.487-25.772,5.677-33.068,22.023-39.287c41.082-15.631,84.619-23.027,128.106-24.363
		c60.351-1.854,119.843-9.507,179.118-19.216c16.042-2.627,35.698-5.997,39.742-28.215c2.105-2.063,4.605-4.756,7.349-4.274
		C3064.972,2043.089,3109.28,2055.628,3146.488,2085.874z"/>
	<path style="fill:#FEEB85;" d="M2877.027,1664.123c-10.865-15.622-24.923-18.3-43.33-14.447
		c-23.393,4.897-44.051,14.869-63.848,27.198c-30.237,18.831-38.748,46.873-32.564,80.632
		c-10.566-19.618-6.277-47.239-36.606-56.065c-39.843-11.594-78.887-20.784-120.053-7.986
		c-38.009,11.817-76.177,23.124-114.279,34.652c15.522-28.082,44.028-36.211,71.3-45.776
		c127.623-44.755,249.55-102.671,371.639-160.231c16.673-7.861,33.101-17.017,52.395-15.375c7.718,0.657,16.011,3.05,18.986,11.277
		c3.304,9.142-4.225,14.214-9.997,19.205c-38.564,33.337-70.682,71.004-84.11,121.782
		C2885.929,1661.374,2880.319,1662.442,2877.027,1664.123z"/>
	<path style="fill:#FDD927;" d="M3146.488,2085.874c-44.781-16.065-87.044-39.415-134.894-46.602
		c-45.12-28.047-95.018-47.948-137.44-80.598c-3.83-2.948-8.162-5.335-11.615-8.655c-4.829-4.644-11.052-9.917-7.004-17.354
		c4.082-7.5,12.055-5.41,18.201-3.12c22.69,8.452,44.99,17.954,67.696,26.359c48.904,18.103,97.968,35.771,146.971,53.616
		c-7.005,1.891-17.746-3.864-20.539,5.72c-2.893,9.929,8.238,11.616,14.571,15.079c30.401,16.624,64.088,28.038,87.374,55.798
		C3162.036,2086.037,3154.262,2085.956,3146.488,2085.874z"/>
	<path style="fill:#D47501;" d="M7147.163,2025.861c1.916,64.675-39.036,103.762-85.137,138.115
		c-81.043,60.39-173.724,98.645-267.449,133.862c-269.811,101.38-550.442,160.136-833.145,211.202
		c-204.833,37-410.701,66.587-617.253,91.47c-97.54,11.75-195.561,19.295-293.685,25.443c-34.922,2.188-69.683,6.179-104.75,4.942
		c-25.306,7.586-51.879-2.588-77.148,5.506c-5.454,0.139-10.908,0.277-16.352,0.419c-4.851-1.689-14.576-1.972-7.771-9.854
		c7.418-8.593,17.776-12.882,30.486-14.269c119.688-13.068,238.667-31.113,356.557-55.63c11.794-2.453,25.855,2.662,35.671-8.39
		c70.647-4.888,138.99-23.339,208.237-36.206c75.94-14.111,151.228-31.737,226.769-47.975c1.632-0.351,2.888-2.447,4.319-3.729
		c62.43-14.47,126.774-20.128,187.855-40.81c9.475-10.156,22.818-10.029,34.918-12.522c65.646-13.525,130.872-28.819,195.776-45.413
		c161.804-39.877,322.197-84.634,477.163-146.59c102.229-40.873,204.069-83.049,290.357-154.247
		c18.894-15.59,36.303-32.421,49.723-53.081c31.452-48.422,26.896-89.821-12.427-132.568c-16.751-18.21-40.983-30.626-47.311-57.49
		c11.979-11.626,21.633-1.186,31.187,3.937c48.295,25.893,91.1,59.763,134.599,92.72c29.276,22.182,63.478,38.244,83.179,71.694
		C7138.878,1998.872,7149.256,2009.787,7147.163,2025.861z"/>
	<path style="fill:#FEF0A8;" d="M4482.176,1008.063c2.276,21.604-13.289,28.625-29.148,34.447
		c-41.67,15.298-85.324,20.213-129.053,17.384c-52.344-3.386-97.281,11.7-138.96,42.316
		c-42.247,31.033-85.854,60.213-128.882,90.182c-121.642,84.725-256.456,136.741-402.301,160.591
		c-14.164,2.316-29.221,14.576-44.066,0.894c122.229-33.314,242.68-71.009,347.983-144.835
		c76.721-53.788,143.157-119.499,211.56-182.982c29.065-26.975,57.678-56.331,98.619-65.014
		C4346.174,944.45,4418.192,958.536,4482.176,1008.063z"/>
	<path style="fill:#FEE775;" d="M2513.774,1640.643c-78.387,21.295-150.475,57.521-222.522,93.844
		c-12.125-0.152-13.454-13.155-21.476-18.064c-18.02-11.027-11.208-17.556,3.026-25.768
		c63.708-36.757,132.368-60.445,203.087-79.054c29.044-7.642,58.099-15.354,84.977-29.321
		c35.033-6.185,70.056-12.416,105.103-18.513c5.76-1.002,13.836-8.193,16.08,3.236c1.51,7.689-6.76,6.933-11.565,9.576
		C2620.687,1603.977,2567.034,1621.805,2513.774,1640.643z"/>
	<path style="fill:#8C6E33;" d="M7147.163,2025.861c-63.603-100.105-164.931-152.761-263.22-209.241
		c-19.146,4.326-31.185-9.623-43.886-18.916c-112.052-81.985-236.512-140.603-364.809-190.885
		c-106.281-41.653-215.502-75.299-325.696-105.449c-13.804-3.777-29.344-4.872-37.896-19.281
		c-66.522-24.335-135.522-40.283-203.385-60.081c-111.859-32.632-224.682-61.251-339.41-81.998
		c-16.666-3.014-33.313-6.131-49.968-9.2c-8.264,4.976-16.934,3.386-25.535,1.389c-94.891-22.029-191.096-38.105-285.38-62.823
		c-12.534-3.286-27.784-3.158-33.922-18.688c74.693,5.57,149.555,9.5,224.039,17.117c96.731,9.892,193.258,21.967,289.704,34.418
		c288.672,37.269,575.675,83.093,854.292,170.784c6.358,2.001,13.164,2.578,19.761,3.82
		c73.285,25.304,146.473,50.894,219.881,75.833c77.316,26.266,149.718,64.029,224.929,95.203
		c84.974,44.218,165.191,94.914,229.912,167.07c24.166,26.941,45.658,55.548,60.862,88.593
		c12.076,26.246,17.985,53.431,13.441,82.355c-21.548,39.813-48.543,74.016-90.93,94.071c-19.707,9.324-34.327,7.995-40.753-14.384
		C7173.944,2047.299,7161.013,2036.516,7147.163,2025.861z"/>
	<path style="fill:#FCB809;" d="M6111.656,1482.09c121.662,34.014,243.229,68.806,360.817,115.059
		c133.494,52.51,263.014,113.542,379.245,199.398c10.147,7.496,21.457,13.418,32.226,20.072
		c14.764,15.483,29.293,31.2,44.338,46.405c56.411,57.011,57.127,115.826,1.481,174.08
		c-40.809,42.721-89.504,74.762-141.395,102.155c-157.562,83.177-325.69,138.358-496.341,186.821
		c-54.151,15.379-108.273,30.851-163.664,41.31c-3.896-20.415,17.063-54.797,39.727-70.281
		c43.165-29.49,84.893-60.865,111.537-107.653c8.386-14.725,21.891-24.416,34.074-35.628c32-29.45,67.743-56.562,73.68-104.646
		c0.83-6.724,6.022-12.094,9.669-17.851c45.298-71.528,83.008-147.129,108.577-227.596c12.405-39.036,14.91-81.582,6.142-123.19
		c-1.681-7.977-6.224-14.119-12.154-19.453c-18.186-16.359-37.168-31.739-60.457-40.151c-31.95-11.542-63.723-23.409-94.052-38.829
		c-49.223-23.38-102.564-34.788-153.747-52.479c-26.717-9.234-53.881-17.054-78.125-31.854
		C6108.871,1495.114,6093.101,1489.052,6111.656,1482.09z"/>
	<path style="fill:#F9AA04;" d="M6345.106,1582.11c52.77,13.515,103.58,30.13,148.963,62.849
		c35.179,25.362,32.899,62.612,29.659,94.04c-3.263,31.648-4.903,65.253-19.488,96.712c-15.243,32.879-26.721,69.397-42.215,100.8
		c-16.851,34.151-37.35,69.462-60.367,101.667c-3.331,4.66-8.591,9.657-8.73,14.618c-1.459,51.569-42.391,76.349-73.84,106.248
		c-15.688,14.915-28.328,30.802-41.446,47.597c-17.678,22.632-36.576,44.367-60.279,63.205
		c-34.014,27.032-79.574,46.942-88.999,97.54c-76.629,23.631-154.458,41.921-234,52.568c-7.988-1.529-18.882,3.498-22.552-8.143
		c-3.855-12.228,1.476-22.837,8.399-32.714c31.884-45.482,71.089-82.248,122.607-104.972c7.71-3.401,14.016-10.26,20.546-16.003
		c14.876-13.084,25.075-31.347,46.881-36.763c6.913-1.717,15.425-11.715,16.702-19.054c9.426-54.148,56.384-70.899,94.422-95.67
		c67.786-44.145,123.313-97.759,146.573-177.993c12.643-43.612,13.34-89.928,31.56-132.643c5.591-13.109-11.736-27.834-8.72-44.479
		c3.945-21.772,12.307-42.231,13.909-64.964c2.1-29.782-14.237-58.196-4.395-88.417
		C6361.386,1594.798,6350.46,1587.547,6345.106,1582.11z"/>
	<path style="fill:#FDC00D;" d="M5174.054,1250.69c104.675,32.51,213.357,47.586,319.556,73.463
		c8.466,2.063,16.857,4.428,25.282,6.656c-6.745,15.04,4.082,14.859,13.976,17.52c29.083,7.823,56.276,20.543,82.806,34.629
		c28.683,15.228,43.701,44.575,67.076,65.31c-58.596-8.026-115.587-23.812-173.383-35.704
		c-107.148-22.047-214.936-41.037-320.611-69.942c-71.098-19.447-141.244-41.786-210.792-66.091
		c-7.188-2.512-14.059-8.201-20.592,0.819c-45.069-24.567-87.914-52.615-129.318-82.913c98.417,9.255,194.27,33.32,291.358,50.255
		C5137.426,1247.833,5155.83,1248.747,5174.054,1250.69z"/>
	<path style="fill:#BC8734;" d="M4552.459,3831.529c8.609-18.728,28.328-23.723,43.744-32.596
		c63.394-36.494,120.96-81.181,179.454-124.521c11.629-8.616,31.583-18.991,25.739-35.067c-5.557-15.286-26.21-6.617-39.883-6.66
		c-168.86-0.536-337.724-0.732-506.583-0.041c-46.62,0.19-93.213,4.092-139.843,5.433c-151.348,4.353-296.48-30.819-441.253-69.104
		c-64.718-17.115-130.357-30.366-197.864-30.359c-97.608,0.011-195.216,0.085-292.823-0.037
		c-151.485-0.19-298.426-28.446-444.886-65.464c-147.776-37.35-288.432-91.643-426.449-154.97
		c-53.82-24.694-110.283-43.633-165.587-65.077c-3.736-1.448-7.552-0.941-11.782,6.029
		c139.406,120.337,287.536,228.893,448.907,320.616c-27.665-11.627-55.63-22.596-82.946-34.993
		c-135.747-61.607-272.381-122.184-396.261-205.909c-106.143-71.737-207.553-150.293-305.201-233.455
		c-3.897-3.943-7.793-7.888-11.689-11.833c12.465-16.69,25.086-4.059,35.751,1.38c52.867,26.959,105.896,53.552,159.306,79.433
		c31.526,15.277,64.944,26.486,99.003,47.508c-72.432-73.053-138.692-145.192-197.513-223.854
		c-5.246-7.016-10.273-14.21-15.978-20.875c-43.429-50.736-92.666-57.918-150.564-24.877
		c-20.272,11.569-11.073,34.247-23.753,47.554c-32.184-36.631-56.607-78.607-81.624-120.057
		c-35.245-58.396-66.934-118.737-92.057-182.248c-3.307-8.361-11.709-18.544-4.662-27.252c7.916-9.782,18.374,0.142,27.024,1.968
		c64.456,13.609,120.836,47.774,180.565,73.289c108.474,46.337,220.508,81.807,334.088,112.323
		c141.398,37.989,283.03,75.285,426.842,103.477c80.857,15.851,162.264,26.353,244.456,33.418
		c78.975,6.789,157.424,19.995,235.988,31.193c86.207,12.288,172.475,24.37,258.321,38.883c33.776,5.71,68.346,4.544,101.528,20.116
		c22.458,10.539,51.559,5.185,77.62,7.441c86.928,7.528,173.583,17.898,261.122,20.381c46.503,1.319,93.23,2.369,139.829,4.194
		c12.658,17.007,34.38,16.323,50.715,25.995c34.302,20.309,68.467,41.06,98.322,67.691c13.14,11.721,26.809,17.856,44.629,17.764
		c91.749-0.473,183.693,3.585,275.214-1.015c213.538-10.735,427.088-1.895,640.604-4.621c31.688-0.404,64.027-0.432,95.077-2.33
		c75.222-4.6,110.403,39.856,131.384,100.766c14.125,41.008,12.438,83.336,8.497,126.602c-4.38,48.082-43.417,69.472-67.336,102.5
		c-76.758,49.727-155.031,96.942-236.462,138.624c-86.641,44.351-171.975,91.347-261.158,130.619
		C4572.296,3823.796,4562.322,3827.536,4552.459,3831.529z"/>
	<path style="fill:#F9EBD5;" d="M1523.715,2244.483c43.3,14.618,82.041,38.914,123.224,58.027c-4.529,1.42-10.19,5.338-13.416,3.877
		c-34.972-15.833-69.67-32.289-104.075-49.32C1526.245,2255.482,1525.566,2248.8,1523.715,2244.483z"/>
	<path style="fill:#D1A246;" d="M1693.505,2999.789c0.774-20.719-6.418-45.742,21.68-54.214
		c37.744-11.38,73.876-37.975,116.25-10.452c37.108,24.102,59.801,60.756,86.298,93.832
		c37.697,47.058,76.393,92.958,118.972,135.722c20.513,20.602,38.976,43.308,62.304,61.612c-1.883,2.278-3.766,4.556-5.649,6.833
		c-33.116-15.054-66.588-29.378-99.271-45.32c-59.311-28.932-118.102-58.929-177.244-88.211c-9.143-4.527-17.869-13.229-29.592-6.07
		C1751.66,3066.62,1723.27,3032.518,1693.505,2999.789z"/>
	<path style="fill:#E98600;" d="M4868.596,2636.401c24.956-12.416,51.484-2.804,77.141-5.507
		C4920.601,2640.751,4894.333,2634.867,4868.596,2636.401z"/>
	<path style="fill:#CE9B3F;" d="M2314.575,3011.094c-0.396-70.136-1.271-64.837,57.809-39.721
		c128.156,54.483,262.412,83.02,399.937,98.887c101.961,11.763,203.949,23.289,305.921,34.959
		c42.323,4.843,84.753,8.938,126.921,14.885c57.203,8.068,106.164,37.48,156.067,63.718c42.807,22.508,88.31,32.995,135.959,38.89
		c81.7,10.108,163.554,3.366,245.303,5.387c123.371,3.051,218.348,59.822,295.063,153.068
		c31.588,38.395,63.259,76.475,84.107,122.103c4.844,10.601,9.853,21.363,12.744,32.577c11.864,46.011-9.365,73.597-56.443,72.948
		c-61.997-0.854-120.598-20.007-178.981-37.462c-149.04-44.559-301.47-58.9-455.617-49.097
		c-74.131,4.714-147.992,2.001-221.919,4.666c-128.684,4.639-253.762-15.216-375.359-56.573
		c-107.582-36.591-218.841-62.865-320.561-116.021C2391.604,3284.325,2314.906,3167.904,2314.575,3011.094z"/>
	<path style="fill:#DBAE50;" d="M3160.368,3368.72c-132.002,1.534-260.589-19.703-387.616-54.743
		c-99.743-27.514-145.392-133.199-153.519-204.61c-1.882-16.536,5.357-23.235,21.821-21.857
		c53.139,4.448,106.54,6.674,159.403,13.265c58.703,7.319,117.652,10.761,176.458,16.269c80.981,7.584,163.335,5.514,242.672,24.451
		c84.904,20.266,139.819,98.002,89.71,190.124c-14.839,27.281-36.822,35.753-64.041,36.849
		C3217.003,3369.604,3188.668,3368.72,3160.368,3368.72z"/>
</g>
</svg>
