<?xml version="1.0" encoding="utf-8"?>
<!-- Generator: Adobe Illustrator 27.5.0, SVG Export Plug-In . SVG Version: 6.00 Build 0)  -->
<svg version="1.1" xmlns="http://www.w3.org/2000/svg" xmlns:xlink="http://www.w3.org/1999/xlink" x="0px" y="0px"
	 viewBox="0 0 4000 3000" style="enable-background:new 0 0 4000 3000;" xml:space="preserve">
<g id="Layer_1">
	<path style="fill:#009245;stroke:#009245;stroke-miterlimit:10;" d="M1596.285,1830.881c3.215,0.619,55.215,126.619,55.215,126.619
		s91.958,485.496,461.479,449.248S2380.5,2173.5,2388.5,2144.5s-34.29-349.567-12.145-417.284
		c22.145-67.716-12.757-263.658,13.194-330.187c25.951-66.529,51.822-183.785,53.387-232.157
		C2444.5,1116.5,2532.5,878.5,2419.5,731.5s-229.187-147.852-256.594-106.426c-27.406,41.426-26.143,231.652-41.275,245.539
		c-15.132,13.887-85.185-150.021-333.658-174.067S1407.5,670.5,1382.5,790.5s-51.484,162.43-17.242,262.215
		s-263.78-52.307-297.769,9.739S1031.5,1324.5,1095.5,1400.5s356,199,403,268S1596.285,1830.881,1596.285,1830.881z"/>
	<path style="fill:#D7FFE8;stroke:#009245;stroke-miterlimit:10;" d="M1928.5,2377.5c-131.661-15.471-226.161-112.982-230-217
		c-2.847-77.136,69.97-157.031,85-174c40.317-45.517,54.697-38.534,83-78c58.145-81.079,25.889-150.204,67-174
		c18.41-10.656,47.915-10.127,166,60c113.612,67.47,116.152,96.509,210,144c78.642,39.796,52.765,37.339,72,68
		c43.108,68.714,31.728,175.898,29,255c-6,174-265.919,167.481-313,173"/>
</g>
<g id="Layer_2">
	<g>
		<path d="M1739.513,704.476c-45.233-12.392-95.452-9.521-140.815,0.794c-23.452,5.333-46.342,13.43-68.099,23.653
			c-19.14,8.994-37.655,20.26-52.821,35.137c-16.044,15.739-26.406,35.244-31.748,56.997c-5.616,22.867-7.704,47.023-9.425,70.46
			c-1.751,23.849-1.609,48.251,4.49,71.527c5.887,22.47,17.976,42.146,32.974,59.676c17.107,19.995,36.983,37.912,57.452,54.388
			c21.297,17.141,44.188,32.182,68.362,44.947c2.954,1.56,5.35-2.607,2.602-4.452c-38.2-25.653-74.956-54.295-107.121-87.297
			c-15.252-15.649-29.517-32.916-38.099-53.219c-9.005-21.305-11.244-44.62-10.726-67.543c0.51-22.567,2.884-45.425,6.386-67.72
			c3.438-21.882,9.651-43.495,23.98-60.868c12.912-15.656,29.873-27.318,47.678-36.755c19.828-10.509,40.78-18.82,62.345-25.008
			c24.558-7.047,49.807-11.54,75.32-13.026c25.633-1.493,51.163,0.313,76.683,2.605
			C1741.429,708.997,1741.839,705.113,1739.513,704.476L1739.513,704.476z"/>
	</g>
	<g>
		<path d="M1449.978,968.969c-52.432,6.184-93.186,46.146-112.44,93.758c-23.624,58.418-12.208,125.122,11.399,181.578
			c23.037,55.092,58.02,105.27,100.901,146.754c42.579,41.193,92.549,70.435,145.469,96.253
			c51.64,25.194,105.792,49.042,148.462,88.511c44.769,41.411,68.328,97.56,81.484,156.099
			c13.922,61.948,18.33,125.722,27.179,188.494c9.746,69.136,22.472,138.051,42.275,205.075
			c9.522,32.229,20.674,64.002,33.896,94.906c12.111,28.305,26.391,55.875,45.679,80.014c35.445,44.359,94.98,77.411,152.626,59.258
			c56.033-17.645,93.404-75.596,111.101-128.601c9.924-29.724,14.469-61.322,13.053-92.637
			c-1.581-34.953-10.111-69.165-20.575-102.406c-21.556-68.471-47.074-135.684-69.608-203.836
			c-11.161-33.756-21.273-67.978-27.449-103.037c-6.425-36.473-8.432-73.609-7.5-110.599
			c1.854-73.555,15.425-146.113,29.732-218.083c14.367-72.273,29.003-144.493,43.486-216.743
			c13.52-67.448,26.199-136.317,14.025-204.984c-10.277-57.966-36.354-112.936-74.247-157.933
			c-38.929-46.227-90.821-80.536-148.056-99.667c-28.592-9.557-58.539-15.25-88.65-16.815c-30.68-1.595-60.899,2.911-91.465,4.43
			c-28.985,1.441-58.516-0.455-83.007-17.607c-6.603-4.624-12.857,6.208-6.309,10.793c48.5,33.965,111.346,14.045,165.752,14.222
			c60.525,0.197,120.667,18.094,171.769,50.452c50.202,31.788,90.205,77.715,116.013,131.149
			c27.605,57.154,35.975,119.484,29.93,182.334c-3.414,35.493-10.518,70.503-17.511,105.425
			c-7.085,35.379-14.172,70.759-21.258,106.138c-13.967,69.737-29.255,139.382-39.75,209.751
			c-10.196,68.361-15.467,137.999-6.497,206.808c8.962,68.746,33.501,134.011,56.262,199.099
			c11.629,33.255,23.317,66.49,34.879,99.769c11.169,32.148,21.955,64.663,27.635,98.305
			c10.785,63.873-2.415,129.967-38.847,183.793c-16.77,24.778-39.009,47.78-67.144,59.284c-28.506,11.656-60.341,8.928-88.236-3.197
			c-58.249-25.319-90.075-84.117-112.711-140.255c-50.568-125.413-66.486-259.101-83.462-392.155
			c-7.21-56.508-16.622-113.845-41.159-165.774c-23.879-50.535-62.813-88.687-110.118-117.579
			c-48.403-29.563-101.574-50.137-150.857-78.085c-50.41-28.587-94.91-66.542-130.747-112.125
			c-69.327-88.18-127.284-237.779-32.435-329.597c18.57-17.977,42.224-31.092,67.675-35.979
			C1453.266,973.219,1452.704,968.647,1449.978,968.969L1449.978,968.969z"/>
	</g>
	<g>
		<path d="M1974.262,1780.995c-0.281-51.121-7.156-102.509-17.049-152.602c-4.839-24.502-10.271-49.05-18.3-72.73
			c-8.005-23.607-19.514-45.453-31.389-67.29c-22.504-41.383-40.014-84.504-51.632-130.202
			c-11.444-45.015-17.853-91.143-20.913-137.455c-3.477-52.632-3.04-105.576-1.285-158.263c0.057-1.703-2.373-1.594-2.578,0
			c-11.89,92.61-11.49,187.852,9.589,279.181c10.323,44.725,25.621,88.391,46.718,129.2c11.385,22.022,24.632,43.087,34.79,65.737
			c10.219,22.789,16.862,47.043,22.487,71.315c13.226,57.067,19.939,114.798,24.561,173.108
			C1969.513,1784.159,1974.28,1784.257,1974.262,1780.995L1974.262,1780.995z"/>
	</g>
	<g>
		<path d="M1917.003,1491.948c-31.698-60.201-2.705-127.883,21.36-184.922c13.007-30.83,25.089-62.02,28.974-95.487
			c4.199-36.17,0.795-73.003-1.758-109.176c-2.923-41.406-7.37-82.522-13.558-123.563c-0.261-1.73-3.202-1.337-3.069,0.415
			c2.846,37.428,5.618,74.861,8.424,112.293c2.74,36.56,6.378,73.738,3.543,110.39c-2.701,34.919-14.569,67.394-28.001,99.439
			c-12.795,30.526-26.405,60.956-32.448,93.706c-6.187,33.529-4.981,69.018,13.769,98.522
			C1915.344,1495.306,1917.966,1493.776,1917.003,1491.948L1917.003,1491.948z"/>
	</g>
	<g>
		<path d="M1792.822,1190.247c-4.88-33.907-9.3-67.915-14.934-101.706c-4.879-29.263-12.311-58.276-29.404-82.985
			c-27.025-39.066-68.794-63.661-103.298-95.235c-18.9-17.296-36.926-37.821-46.904-61.715c-0.992-2.376-4.782-1.533-3.993,1.101
			c6.58,21.955,18.8,40.174,34.827,56.411c16.646,16.864,35.601,31.216,54.076,45.974c18.257,14.583,36.49,29.657,51.459,47.71
			c18.809,22.685,28.431,49.588,34.599,78.103c8.092,37.409,14.265,75.335,21.386,112.944
			C1790.912,1192.302,1793.025,1191.657,1792.822,1190.247L1792.822,1190.247z"/>
	</g>
	<g>
		<path d="M2129.13,2355.805c66.488,14.53,153.791,24.849,203.095-34.196c23.76-28.454,30.311-66.96,37.984-102.128
			c8.819-40.417,16.347-81.107,22.795-121.969c26.05-165.059,30.855-333.463,15.492-499.825
			c-7.755-83.976-20.767-167.685-8.346-251.917c11.579-78.52,37.761-153.936,51.26-232.074
			c12.833-74.287,9.881-148.076-10.754-220.688c-20.203-71.092-54.182-138.373-93.914-200.455
			c-20.224-31.601-41.951-62.227-64.534-92.181c-9.812-13.014-20.13-26.422-35.863-32.443c-13.2-5.051-28.047-4.008-41.09,1.011
			c-31.26,12.029-47.587,41.603-54.523,72.896c-4.058,18.31-5.678,37.115-7.749,55.723c-2.348,21.109-4.697,42.219-7.045,63.328
			c-2.348,21.105-4.684,42.21-6.912,63.328c-0.922,8.732,12.575,8.558,13.594,0c4.881-41.024,9.43-82.087,14.08-123.138
			c3.775-33.332,4.738-74.484,28.297-100.998c9.789-11.017,23.664-19.463,38.546-20.878c16.64-1.582,29.054,7.42,39.272,19.693
			c22.956,27.57,43.322,58.024,63.066,87.939c39.106,59.251,74.058,121.708,96.537,189.295
			c23.19,69.726,30.761,142.354,20.566,215.217c-10.396,74.3-34.261,145.811-48.337,219.376
			c-7.183,37.538-11.427,75.435-11.202,113.686c0.236,40.036,4.394,79.911,8.664,119.679
			c17.049,158.778,19.192,318.097,0.639,476.891c-9.232,79.016-21.303,158.448-41.065,235.6
			c-8.87,34.629-24.167,65.017-56.317,83.089c-32.301,18.157-70.085,21.088-106.351,18.182c-19.79-1.585-39.504-4.638-59.188-7.186
			C2126.902,2350.285,2126.274,2355.18,2129.13,2355.805L2129.13,2355.805z"/>
	</g>
	<g>
		<path d="M2241.111,2183.826c9.181-31.623,23.883-61.508,32.222-93.441c4.166-15.951,6.428-32.28,5.87-48.784
			c-0.587-17.366-3.756-34.548-7.438-51.489c-3.787-17.428-8.053-34.742-11.028-52.337c-3.052-18.05-5.036-36.268-6.485-54.512
			c-2.89-36.393-3.789-72.928-5.469-109.39c-1.934-41.988-3.768-84.026-7.655-125.886c-0.187-2.017-3.187-2.099-3.203,0
			c-0.293,36.97,1.019,73.96,2.455,110.899c1.412,36.326,2.594,72.694,5.045,108.969c2.408,35.643,7.051,70.79,14.952,105.642
			c7.797,34.39,15.407,68.64,8.436,103.88c-3.528,17.833-9.574,35.034-15.764,52.084c-3.12,8.595-6.363,17.157-9.179,25.858
			c-2.935,9.066-5.066,18.028-7.054,27.323C2236.22,2185.429,2240.306,2186.597,2241.111,2183.826L2241.111,2183.826z"/>
	</g>
	<g>
		<path d="M2269.393,1307.9c18.031-26.732,27.567-57.254,28.788-89.523c0.634-16.762-1.807-33.024-4.355-49.532
			c-2.817-18.252-2.761-35.444,1.795-53.408c4.19-16.519,10.27-32.484,14.084-49.11c3.824-16.668,6.003-33.728,6.762-50.806
			c1.554-34.956-2.914-69.99-10.142-104.14c-4.13-19.513-9.022-38.95-14.827-58.034c-5.747-18.891-11.397-38.104-19.745-56.034
			c-1.053-2.262-4.179-0.558-3.784,1.595c3.134,17.067,8.576,33.664,13.211,50.368c4.667,16.818,9.309,33.644,13.231,50.654
			c7.761,33.659,13.061,68.04,12.825,102.657c-0.117,17.142-1.585,34.28-4.822,51.122c-3.188,16.588-8.58,32.486-13.334,48.656
			c-4.656,15.834-8.184,32.167-6.967,48.764c1.257,17.147,6.014,33.813,7.269,50.966c2.613,35.691-6.046,72.599-22.823,104.148
			C2265.56,1308.123,2268.216,1309.644,2269.393,1307.9L2269.393,1307.9z"/>
	</g>
	<g>
		<path d="M2321.056,1049.586c-5.291-6.391-3.551-18.577-0.825-25.625c3.303-8.541,9.194-15.812,12.988-24.121
			c7.603-16.652,5.311-35.424,4.452-53.144c-0.989-20.406-1.888-40.818-2.976-61.219c-1.1-20.609-2.16-41.148-5.382-61.551
			c-0.23-1.457-2.38-0.999-2.455,0.332c-1.899,33.493,1.125,67.255,2.869,100.715c0.842,16.155,2.381,32.444,2.187,48.626
			c-0.091,7.587-0.963,15.184-3.836,22.264c-2.836,6.987-7.268,13.197-10.646,19.914c-2.936,5.839-5.245,12.208-5.167,18.829
			c0.083,7.057,2.989,11.223,7.963,15.807C2320.791,1050.934,2321.531,1050.161,2321.056,1049.586L2321.056,1049.586z"/>
	</g>
	<g>
		<path d="M2119.483,2351.789c-56.953,27.961-124.532,34.668-187.072,27.501c-30.607-3.507-60.553-12.381-86.539-29.222
			c-22.969-14.886-42.438-34.963-58.156-57.275c-36.469-51.771-52.767-113.303-66.25-174.305
			c-12.778-57.811-25.065-115.728-43.78-171.99c-18.029-54.2-41.643-107.142-75.101-153.677
			c-33.66-46.816-76.99-83.93-124.391-116.269c-47.571-32.455-98.14-60.279-145.243-93.444
			c-47.6-33.515-89.852-73.643-123.643-121.192c-33.09-46.564-57.805-98.635-73.08-153.671
			c-15.656-56.409-20.321-116.079-44.247-170.034c-5.74-12.945-12.61-24.956-21.154-36.254c-2.916-3.855-9.436-0.393-6.678,3.904
			c32.956,51.363,41.987,111.17,53.771,169.875c11.474,57.163,31.199,111.623,61.091,161.815
			c29.577,49.663,67.744,93.953,112.666,130.336c45.786,37.083,96.961,66.479,146.586,97.961
			c49.026,31.101,96.967,64.504,134.998,108.904c38.294,44.707,65.62,97.863,86.031,152.803
			c20.83,56.066,34.925,114.302,47.503,172.684c13.239,61.452,26.378,125.284,58.556,180.131
			c29.073,49.556,72.612,89.328,129.046,104.133c31.005,8.134,63.732,9.913,95.651,8.553c31.165-1.328,62.432-6.043,92.095-15.884
			c14.402-4.778,28.315-10.764,41.637-18.029C2128.632,2356.496,2124.361,2349.394,2119.483,2351.789L2119.483,2351.789z"/>
	</g>
	<g>
		<path d="M1073.599,1102.771c0.361-5.912-1.861-11.12-0.478-17.158c-0.764,0.764-1.528,1.528-2.292,2.292
			c18.757-6.174,38.398-8.073,58.014-5.844c19.064,2.167,36.401,10.386,54.99,14.483c8.812,1.942,17.761,2.73,26.724,1.453
			c9.178-1.308,17.931-4.492,27.05-6.064c19.07-3.286,34.021,7.294,47.604,19.359c7.666,6.809,15.291,13.727,22.445,21.077
			c7.448,7.653,13.555,15.923,19.802,24.532c3.112,4.288,9.281,0.688,7.083-4.14c-7.904-17.364-24.059-31.101-37.89-43.684
			c-12.682-11.537-26.593-24.143-44.219-26.722c-19.835-2.902-38.058,8.902-57.948,6.908c-20.284-2.033-38.976-11.721-59.144-14.669
			c-22.295-3.259-45.102-0.715-66.256,6.983c-0.99,0.36-2.126,1.137-2.292,2.292c-0.947,6.603-0.932,15.884,5.573,19.611
			C1072.928,1103.803,1073.561,1103.385,1073.599,1102.771L1073.599,1102.771z"/>
	</g>
	<g>
		<path d="M1832.161,1727.216c1.06,9.779,2.685,19.524,3.101,29.362c0.43,10.155-0.116,20.333-1.297,30.422
			c-2.386,20.372-7.356,40.368-12.414,60.209c-5.134,20.139-10.444,40.261-13.763,60.8c-3.344,20.694-4.35,41.626-3.075,62.55
			c2.632,43.227,13.783,85.408,26.858,126.514c12.612,39.65,23.967,80.698,43.557,117.618c18.68,35.206,49.059,68.322,89.009,78.265
			c8.053,2.004,11.406-10.118,3.427-12.43c-34.459-9.983-60.041-35.744-77.914-66.007c-10.115-17.126-17.854-35.495-24.776-54.103
			c-7.25-19.492-14.291-39.108-21-58.793c-13.618-39.958-25.39-81.377-29.193-123.556c-1.888-20.943-1.776-42.105,1.083-62.957
			c2.754-20.083,7.652-39.813,12.384-59.5c5.103-21.228,10.254-42.522,12.735-64.25c2.393-20.948,3.452-44.862-4.886-64.663
			C1835.238,1724.893,1831.899,1724.797,1832.161,1727.216L1832.161,1727.216z"/>
	</g>
	<g>
		<path d="M1741.648,1830.621c-13.502-51.584-32.126-101.763-64.503-144.712c-24.701-32.767-55.497-60.127-88.571-84.193
			c-67.863-49.381-144.598-84.881-212.382-134.39c-37.521-27.406-70.863-59.634-97.568-97.763c-1.201-1.715-3.827-0.238-2.833,1.656
			c38.55,73.47,113.05,119.652,182.302,160.518c70.882,41.827,146.58,81.109,201.498,144.028
			c38.656,44.288,63.118,99.594,80.173,155.376C1740.131,1832.339,1741.968,1831.843,1741.648,1830.621L1741.648,1830.621z"/>
	</g>
	<g>
		<path d="M1438.709,1504.216c-32.411-25.808-49.645-64.323-70.022-99.3c-23.459-40.268-56.886-72.878-83.876-110.642
			c-15.653-21.902-30.469-44.835-43.584-68.346c-0.976-1.75-3.409-0.213-2.631,1.538c9.831,22.129,21.246,42.989,34.866,63.034
			c13.408,19.734,28.047,38.581,43.577,56.684c15.337,17.879,30.111,35.77,42.345,55.96c10.753,17.745,20.285,36.202,31.251,53.82
			c11.979,19.247,25.792,37.512,43.765,51.56C1437.445,1510.905,1441.788,1506.667,1438.709,1504.216L1438.709,1504.216z"/>
	</g>
	<g>
		<path d="M2303.751,1427.637c-5.658-34.406,4.605-69.289,15.073-101.777c5.332-16.548,11.03-32.984,15.591-49.769
			c4.702-17.301,8.414-34.871,11.526-52.523c3.43-19.449,5.862-39.018,7.452-58.695c0.099-1.222-1.901-1.497-2.148-0.291
			c-7.329,35.735-11.794,72.017-21.064,107.353c-8.855,33.755-22.685,66.195-28.646,100.699c-3.18,18.405-3.025,37.056,1.01,55.335
			C2302.722,1428.766,2303.88,1428.416,2303.751,1427.637L2303.751,1427.637z"/>
	</g>
	<g>
		<path d="M1987.816,2392.584c4.831,5.673,11.529,8.049,18.61,9.793c8.144,2.006,16.46,3.458,24.747,4.725
			c17.003,2.6,34.189,3.85,51.388,3.896c34.362,0.093,68.7-4.636,101.712-14.173c18.536-5.354,36.593-12.124,54.09-20.254
			c5.1-2.37,0.663-9.924-4.416-7.555c-59.425,27.713-126.041,38.117-191.162,31.407c-9.048-0.932-18.052-2.162-27.004-3.781
			c-8.689-1.571-17.1-3.502-24.556-8.476C1988.415,2386.292,1985.859,2390.286,1987.816,2392.584L1987.816,2392.584z"/>
	</g>
</g>
<g id="Layer_3">
</g>
</svg>
