<?xml version="1.0" encoding="utf-8"?>
<!-- Generator: Adobe Illustrator 27.5.0, SVG Export Plug-In . SVG Version: 6.00 Build 0)  -->
<svg version="1.1" id="Layer_1" xmlns="http://www.w3.org/2000/svg" xmlns:xlink="http://www.w3.org/1999/xlink" x="0px" y="0px"
	 viewBox="0 0 4000 4000" style="enable-background:new 0 0 4000 4000;" xml:space="preserve">
<g>
	<g>
		<rect x="2.497" y="2.497" style="fill:#83FBFF;" width="3995.006" height="3995.006"/>
	</g>
	<g>
		<g>
			<path style="fill:#24D16A;" d="M1826.868,595.516c0,0,193.07-103.233,339.381-56.561
				c146.311,46.672,158.811,163.772,158.811,163.772L1826.868,595.516z"/>
		</g>
		<g>
			<path style="fill:#390175;" d="M2325.058,727.364c-1.726,0-3.462-0.18-5.184-0.551l-498.191-107.212
				c-10.1-2.175-17.776-10.424-19.209-20.658c-1.439-10.234,3.662-20.277,12.777-25.149c8.256-4.418,204.042-107.585,358.482-58.306
				c159.781,50.966,175.24,179.193,175.82,184.628c0.839,7.859-2.146,15.642-8.022,20.928
				C2336.967,725.152,2331.081,727.364,2325.058,727.364z M1906.841,587.529l382.769,82.373
				c-15.054-33.32-50.162-81.739-130.847-107.475C2075.405,535.838,1973.062,562.885,1906.841,587.529z"/>
		</g>
		<g>
			<path style="fill:#24D16A;" d="M2913.736,1172.041c0,0-22.809-217.744-143.505-312.705
				c-120.697-94.961-224.658-39.637-224.658-39.637L2913.736,1172.041z"/>
		</g>
		<g>
			<path style="fill:#390175;" d="M2913.741,1196.675c-6.213,0-12.348-2.348-17.039-6.837l-368.163-352.34
				c-5.711-5.464-8.451-13.338-7.369-21.167c1.083-7.83,5.852-14.664,12.831-18.378c4.818-2.565,119.655-61.681,251.463,42.023
				c127.414,100.248,151.798,320.186,152.773,329.498c1.078,10.28-4.374,20.136-13.655,24.686
				C2921.13,1195.851,2917.423,1196.675,2913.741,1196.675z M2592.644,830.648l282.854,270.699
				c-16.732-68.649-51.737-168.549-120.504-222.651C2688.471,826.349,2628.688,824.42,2592.644,830.648z"/>
		</g>
		<g>
			<path style="fill:#24D16A;" d="M1201.566,3002.679c0,0-104.963-62.877-35.215-184.259
				c69.805-121.2,234.082-221.543,200.313-463.394c-11.786-83.757-62.491-180.194-116.243-293.411
				c-101.282-213.33-213.475-486.365-95.776-847.148c180.118-552.377,631.5-766.028,1043.144-543.232
				c0,0-776.604,713.567-714.076,1274.567c20.896,188.152,19.596,342.78,0.764,473.863
				C1446.984,2679.775,1340.519,2847.853,1201.566,3002.679z"/>
		</g>
		<g>
			<path style="fill:#7AED82;" d="M1201.566,3002.679c0,0-104.963-62.877-35.215-184.259
				c69.805-121.2,234.082-221.543,200.313-463.394c-11.786-83.757-62.491-180.194-116.243-293.411
				c3.382-7.243,5.173-11.195,5.173-11.195s146.428,188.57,228.883,369.244C1446.984,2679.775,1340.519,2847.853,1201.566,3002.679z
				"/>
		</g>
		<g>
			<g>
				<path style="fill:#7AED82;" d="M1308.999,2230.524c-106.26-230.324-201.744-538.806-163.525-793.232
					c2.934-16.067,7.322-38.899,11.733-54.389c34.458-123.256,91.032-239.596,163.172-344.764
					c71.747-104.5,156.46-202.255,258.863-277.744c29.276-21.388,60.564-40.602,94.092-54.561c0.712-0.322,1.551-0.006,1.873,0.705
					c0.309,0.699,0.022,1.487-0.634,1.839c-30.728,18.594-58.099,41.682-85.169,64.747
					c-92.635,82.991-175.306,178.083-243.695,281.95c-72.142,110.292-130.536,233.587-159.508,362.186
					c-24.992,130.3-9.014,264.845,19.454,393.367c31.508,138.39,78.086,274.564,136.619,403.82
					C1352.313,2235.792,1320.947,2252.985,1308.999,2230.524L1308.999,2230.524z"/>
			</g>
			<g>
				<path style="fill:#7AED82;" d="M1472.944,857.767c34.916-8.241,69.764-15.407,104.966-21.933
					c35.088-6.523,70.342-12.139,105.703-16.712c1.521-0.196,2.914,0.877,3.109,2.398c0.188,1.455-0.807,2.796-2.224,3.082
					c-52.255,10.397-103.96,23.183-155.236,37.542c-17.08,4.796-34.204,9.781-51.013,15.004
					C1465.103,880.825,1459.673,861.349,1472.944,857.767L1472.944,857.767z"/>
			</g>
			<g>
				<path style="fill:#7AED82;" d="M1228.852,1200.16c49.92-35.693,106.529-59.956,163.701-81.178
					c3.71-1.395,6.24,4.105,2.629,5.944c0.05-0.025-20.016,10.311-20.004,10.305c-45.06,24.333-90.102,51.366-128.009,85.833
					C1232.901,1234.498,1213.6,1212.624,1228.852,1200.16L1228.852,1200.16z"/>
			</g>
			<g>
				<path style="fill:#7AED82;" d="M1258.388,1149.599c-4.793-52.705,8.144-105.331,27.838-153.788
					c1.252-3.245,6.332-1.76,5.519,1.697c-2.95,12.319-5.838,24.631-7.673,37.138c-5.452,36.04-6.883,73.709,1.514,109.231
					C1290.557,1163.224,1261.676,1169.379,1258.388,1149.599L1258.388,1149.599z"/>
			</g>
			<g>
				<path style="fill:#7AED82;" d="M1147.75,1634.299c67.8-56.938,122.958-128.368,168.537-204.045
					c3.834-6.63,14.045-1.389,10.665,5.658c-40,82.702-90.053,161.021-155.181,226.469
					C1152.506,1679.511,1127.772,1650.794,1147.75,1634.299L1147.75,1634.299z"/>
			</g>
		</g>
		<g>
			<g style="opacity:0.6;">
				<path style="fill:#FFFFFF;" d="M1483.713,1945.802c-0.926-8.307-1.638-16.652-2.201-25.023
					c-1.056,29.857-0.194,59.44,3.055,88.594c7.845,70.638,12.56,136.548,14.395,198.264
					C1499.182,2128.111,1494.318,2041.291,1483.713,1945.802z"/>
			</g>
			<g style="opacity:0.6;">
				<path style="fill:#FFFFFF;" d="M1155.5,1278.037c173.706-532.712,599.696-750.236,999.033-565.221
					c27.207-26.826,43.256-41.582,43.256-41.582c-411.643-222.796-863.026-9.145-1043.144,543.232
					c-41.401,126.907-54.277,242.914-49.27,349.328C1107.326,1475.138,1122.202,1380.105,1155.5,1278.037z"/>
			</g>
			<g style="opacity:0.6;">
				<path style="fill:#FFFFFF;" d="M1167.205,2881.99c67.356-116.949,222.617-214.521,203.089-438.505
					c-11.549,180.11-143.327,269.688-203.944,374.935c-26.442,46.017-27.752,83.605-19.212,112.567
					C1150.761,2915.877,1157.106,2899.567,1167.205,2881.99z"/>
			</g>
		</g>
		<g>
			<path style="fill:#390175;" d="M1201.492,3027.338c-4.345,0-8.719-1.146-12.66-3.511
				c-43.471-26.071-108.565-105.113-43.803-217.653c19.322-33.576,44.651-64.583,71.463-97.413
				c73.341-89.785,149.179-182.628,125.785-350.265c-9.617-68.913-48.211-149.174-92.897-242.11
				c-104.318-216.946-247.186-514.064-118.163-909.642c96.988-297.377,275.164-510.929,501.702-601.311
				c183.799-73.339,388.562-57.657,576.555,44.142c7.003,3.789,11.738,10.729,12.719,18.629c0.98,7.898-1.917,15.786-7.778,21.172
				c-1.931,1.773-195.073,180.173-377.911,424.157c-167.11,223-359.726,547.938-328.34,829.547
				c29.66,266.042,16.508,482.461-40.204,661.617c-46.675,147.443-123.2,275.266-248.127,414.458
				C1215.025,3024.519,1208.3,3027.338,1201.492,3027.338z M1870.885,608.426c-74.438,0-148.145,14.218-219.706,42.769
				c-212.718,84.872-380.745,287.595-473.12,570.829c-122.893,376.773,9.412,651.924,115.724,873.013
				c46.475,96.652,86.61,180.126,97.29,256.652c26.368,188.943-63.895,299.45-136.426,388.245
				c-25.505,31.226-49.596,60.72-66.918,90.819c-41.442,72.014-11.031,117.626,10.646,138.338
				c205.578-234.931,319.678-492.593,260.826-1020.553c-14.752-132.335,14.557-283.223,87.113-448.473
				c57.394-130.713,141.922-270.914,251.239-416.71c146.243-195.044,298.987-348.793,358.102-406.062
				C2061.521,631.456,1965.62,608.426,1870.885,608.426z"/>
		</g>
		<g>
			<path style="fill:#24D16A;" d="M1271.452,3039.75c0,0,110.924,51.639,172.304-74.182
				c61.197-125.766,52.144-318.052,271.318-425.73c75.955-37.215,184.236-49.319,308.117-68.311
				c233.425-35.787,522.401-96.023,755.096-395.807c356.317-458.914,280.059-952.449-135.262-1168.313
				c0,0-155.246,1043.164-654.784,1306.018c-167.496,88.22-294.789,176.015-392.755,265.122
				C1401.158,2655.467,1321.709,2837.875,1271.452,3039.75z"/>
		</g>
		<g>
			<path style="fill:#7AED82;" d="M1271.452,3039.75c0,0,110.924,51.639,172.304-74.182
				c61.197-125.766,52.144-318.052,271.318-425.73c75.955-37.215,184.236-49.319,308.117-68.311
				c4.1-6.863,6.368-10.562,6.368-10.562s-238.244-15.478-434.074,17.582C1401.158,2655.467,1321.709,2837.875,1271.452,3039.75z"/>
		</g>
		<g>
			<g>
				<path style="fill:#7AED82;" d="M1845.145,2481.194c249.176-44.218,592.077-145.01,765.348-336.901
					c162.746-188.253,255.441-431.178,289.372-676.038c3.918-35.379,7.687-71.02,5.837-106.917c-0.039-0.78,0.561-1.444,1.341-1.484
					c0.722-0.037,1.346,0.476,1.465,1.172c5.328,26.664,7.934,54.024,7.873,81.237c0.365,118.164-27.434,235.116-65.991,346.275
					c-47.883,137.647-118.414,267.928-212.994,379.525c-10.295,12.332-26.927,28.859-38.451,40.215
					c-148.448,135.52-344.315,210.73-535.436,263.656c-70.412,18.891-140.678,34.77-213.016,45.823
					C1826.739,2520.623,1820.418,2485.749,1845.145,2481.194L1845.145,2481.194z"/>
			</g>
			<g>
				<path style="fill:#7AED82;" d="M2876.053,1618.536c-20.81-67.743-44.672-134.758-72.139-200.147
					c-1.351-3.137,3.401-5.541,5.033-2.339c32.083,63.835,60.562,129.345,86.152,196.092
					C2899.581,1625.1,2880.354,1631.652,2876.053,1618.536L2876.053,1618.536z"/>
			</g>
			<g>
				<path style="fill:#7AED82;" d="M2720.935,2002.817c7.275-50.722,4.399-103.162-0.726-154.121
					c-0.002-0.011-2.684-22.318-2.688-22.342c-0.494-3.93,5.465-5.098,6.396-1.156c14.494,59.245,26.15,119.703,24.599,181.06
					C2746.673,2025.816,2717.937,2022.326,2720.935,2002.817L2720.935,2002.817z"/>
			</g>
			<g>
				<path style="fill:#7AED82;" d="M2763.296,1927.722c22.544-8.244,43.295-21.567,62.695-35.843
					c14.848-11.329,28.998-23.884,42.056-37.351c4.418-4.558,8.629-9.32,12.977-13.992c1.088-1.17,2.919-1.236,4.089-0.148
					c1.066,0.991,1.214,2.6,0.41,3.762c-14.257,21.589-30.245,41.846-48.458,60.347c-19.043,18.779-39.498,36.389-63.421,49.035
					C2755.507,1961.615,2744.542,1934.453,2763.296,1927.722L2763.296,1927.722z"/>
			</g>
			<g>
				<path style="fill:#7AED82;" d="M2397.84,2312.744c15.358-79.479,45.853-154.691,83.737-225.773
					c5.368-10.03,11.178-19.823,16.733-29.719c1.634-2.906,5.311-3.939,8.217-2.308c2.836,1.587,3.865,5.117,2.45,7.966
					c-18.907,40.476-35.16,82.276-47.923,125.045c-12.326,42.208-22.516,85.533-26.518,129.237
					C2431.789,2342.605,2394.472,2338.227,2397.84,2312.744L2397.84,2312.744z"/>
			</g>
		</g>
		<g style="opacity:0.25;">
			<path style="fill:#390175;" d="M2712.924,2124.833c-50.287,64.77-103.209,118.338-157.609,162.852
				c-179.081,121.899-369.131,158.79-532.081,183.865c-123.882,18.991-232.162,31.096-308.117,68.311
				c-41.345,20.191-74.533,43.484-101.594,68.802c-116.667,109.055-120.055,254.916-169.725,356.928
				c-23.556,48.161-54.357,70.422-83.446,79.347c-46.715,14.433-88.857-5.165-88.857-5.165
				c50.256-201.875,129.705-384.283,324.032-561.202c21.846-19.813,45.082-39.653,70.071-59.331
				c86.645-68.919,192.586-137.252,322.684-205.792c16.982-8.913,33.563-18.805,49.619-29.435
				c380.91-250.878,545.75-960.704,591.413-1198.101C2998.682,1214.773,3053.875,1685.647,2712.924,2124.833z"/>
		</g>
		<g>
			<path style="fill:#390175;" d="M1323.634,3075.354c-24.691,0-46.875-5.911-62.549-13.196
				c-10.704-4.974-16.371-16.839-13.523-28.29c45.178-181.492,108.093-316.538,203.988-437.871
				c116.524-147.428,288.326-279.695,525.227-404.343c250.756-131.945,411.761-473.651,502.667-737.074
				c99.466-288.211,138.845-548.172,139.235-550.764c1.17-7.873,6.076-14.693,13.167-18.312c7.086-3.626,15.489-3.589,22.555,0.08
				c189.714,98.561,317.528,259.295,359.892,452.594c52.22,238.247-24.662,505.53-216.478,752.611
				c-255.155,328.671-581.275,377.019-819.396,412.317c-102.001,15.123-190.094,28.183-252.541,58.867
				c-151.915,74.643-186.252,189.509-219.457,300.586c-12.143,40.608-23.608,78.969-40.569,113.798
				C1428.391,3053.273,1371.338,3075.354,1323.634,3075.354z M1271.468,3039.818h0.049H1271.468z M1301.05,3023.559
				c29.294,6.311,84.123,5.92,120.509-68.776c15.201-31.216,26.11-67.704,37.658-106.337
				c32.84-109.848,73.707-246.557,244.933-330.695c69.347-34.073,160.966-47.655,267.044-63.378
				c242.67-35.976,544.681-80.749,787.707-393.8c182.692-235.326,256.301-488.132,207.27-711.847
				c-37.487-171.041-142.488-309.767-304.531-403.039c-14.264,81.061-55.897,293.752-135.363,524.215
				c-59.398,172.275-128.072,320.888-204.105,441.711c-96.125,152.749-204.617,261.636-322.453,323.639
				C1529.593,2482.628,1380.258,2721.597,1301.05,3023.559z"/>
		</g>
		<g>
			<path style="fill:#24D16A;" d="M2638.248,1920.256c-254.804,446.283-760.742,514.737-803.814,513.641
				c-43.136-0.978-189.702,24.974-291.737,134.745c-101.852,109.714-195.505,389.358-225.22,441.911
				c-7.396,13.079-17.055,22.047-27.366,27.913c-40.939,23.469-94.851-5.128-98.26-52.122c-0.926-11.827,1.082-24.853,7.762-38.312
				c26.846-54.075,205.729-288.508,239.444-434.366c33.779-145.977-26.933-281.879-52.053-317.107
				c-15.459-21.679-108.148-204.718-123.06-450.353c-9.304-151.675,11.139-327.089,97.52-503.215
				c226.41-461.192,875.768-666.327,1106.596-543.885c69.571,36.904,135.804,121.971,187.375,235.256
				C2775.156,1196.38,2816.264,1608.623,2638.248,1920.256z"/>
		</g>
		<g>
			<path style="fill:#7AED82;" d="M2373.563,2054.779c-0.141,0.109-82.046,38.101-82.148,38.213
				c-176.557,73.284-382.156,126.105-571.813,79.939c49.866-95.616,100.251-192.136,150.679-289.098
				c13.127,3.325,26.015,5.792,40.004,8.124c83.108,13.174,168.398,10.004,251.325-1.014c59.76-7.449,124.147-22.415,182.627-37.996
				c3.408-0.885,5.621-4.276,4.965-7.79c-0.689-3.782-4.443-6.206-8.173-5.354c0,0-60.397,11.271-60.397,11.273
				c-127.809,19.058-263.894,28.643-388.96-8.382c29.066-55.96,58.069-112.008,86.965-168.069c4.851,1.14,9.461,2.116,13.29,3.115
				c33.829,7.442,68.367,11.231,102.688,13.158c112.993,5.452,225.65-12.18,334.559-40.477c0,0,64.449-18.691,64.448-18.69
				c8.301-2.231,4.767-15.088-3.359-13.093c-38.271,8.877-91.956,20.523-130.397,25.986
				c-118.259,16.311-244.402,22.928-359.848-11.471c69.363-134.906,137.734-269.625,203.614-402.695
				c102.939-8.926,205.611-29.964,300.733-70.247c0.929-0.369,0.303-1.813-0.572-1.466
				c-92.244,30.332-189.662,41.585-286.314,43.583c42.407-85.974,83.824-171.28,123.616-255.364
				c0.847-1.841,0.199-4.081-1.579-5.148c-1.906-1.144-4.378-0.525-5.525,1.38c-104.017,176.175-208.33,361.229-312.01,549.232
				c-19.917-25.279-38.759-52.207-56.731-79.139c-71.629-108.544-124.029-229.695-142.251-359.218
				c-0.266-3.643-5.755-3.206-5.711,0.258c-2.732,171.905,80.946,339.442,185.278,473.343
				c-81.174,147.587-161.902,296.723-241.761,444.722c-21.878-26.04-42.919-53.669-62.958-80.795
				c-45.968-63.537-87.674-131.924-122.213-202.279c-42.635-83.716-76.168-175.132-95.703-267.283l-5.416-23.203l-3.633-23.513
				l-7.295-47.163c-0.237-2.473-2.379-4.372-4.911-4.206c-2.541,0.169-4.464,2.367-4.295,4.908
				c4.265,64.034,11.404,128.628,28.618,190.992c46.593,181.664,135.599,350.439,254.541,495.654
				c-84.294,156.286-167.567,310.959-249.242,460.619c-83.838,148.651-193.72,368.159-284.944,509.361
				c-34.677,58.28,53.276,103.315,80.953,42.938c66.22-155.629,185.66-368.486,261.919-521.571
				c49.358-95.775,100.066-193.294,151.464-291.903c52.929,12.468,106.579,14.529,160.815,13.202
				c153.878-5.778,302.316-53.545,440.156-119.349c0,0,80.748-42.176,80.747-42.176
				C2387.116,2062.626,2380.889,2051.28,2373.563,2054.779z"/>
		</g>
		<g style="opacity:0.25;">
			<path style="fill:#390175;" d="M2572.263,1885.254c-254.803,446.284-760.742,514.737-803.814,513.641
				c-43.135-0.977-189.703,24.974-291.737,134.745c-101.852,109.715-195.505,389.358-225.22,441.911
				c-7.396,13.079-17.055,22.047-27.366,27.913c-7.918,4.53-16.333,7.113-24.951,8.055c-4.116-7.544-6.635-16.08-7.324-25.175
				c-0.926-11.827,1.082-24.853,7.762-38.312c26.846-54.075,205.729-288.508,239.444-434.366
				c33.779-145.977-26.933-281.879-52.053-317.107c-15.459-21.679-108.148-204.718-123.06-450.353l11.311-17.283
				c176.126,602.112,737.395,669.31,1156.549,144.779c177.122-221.583,241.468-422.877,256.545-581.531
				C2704.867,1491.174,2675.205,1705.046,2572.263,1885.254z"/>
		</g>
		<g>
			<g style="opacity:0.6;">
				<path style="fill:#FFFFFF;" d="M1355.198,1335.211c226.41-461.192,875.768-666.327,1106.596-543.885
					c69.571,36.904,135.804,121.971,187.375,235.256c66.062,144.58,108.084,334.906,102.668,528.822
					c24.404-224.723-19.879-453.566-96.404-621.042c-51.571-113.285-117.804-198.353-187.375-235.256
					c-230.828-122.442-880.186,82.693-1106.596,543.885c-69.477,141.661-96.248,282.835-99.243,411.592
					C1273.842,1551.982,1301.97,1443.743,1355.198,1335.211z"/>
			</g>
			<g style="opacity:0.6;">
				<path style="fill:#FFFFFF;" d="M1432.792,2605.886c8.669-37.462,11.049-74.221,9.471-108.824
					c-1.02,5.529-1.919,11.041-3.206,16.604c-33.715,145.858-212.598,380.291-239.444,434.366
					c-6.68,13.458-8.688,26.485-7.762,38.312c0.938,12.919,5.783,24.369,13.036,33.809
					C1252.908,2942.385,1402.283,2737.877,1432.792,2605.886z"/>
			</g>
		</g>
		<g style="opacity:0.35;">
			<path style="fill:#FFFFFF;" d="M2359.849,889.133c-8.699-21.708-29.024-36.708-52.142-40.238
				c-329.104-50.248-588.866,206.337-639.282,259.218c-10.179,10.676-8.833,28.34,3.549,36.357c0.179,0.116,0.359,0.23,0.539,0.342
				c7.402,4.599,16.959,3.788,24.316-0.883c237.627-150.885,493.399-164.062,598.714-162.116
				c47.633,0.88,82.038-46.853,64.854-91.287C2360.216,890.058,2360.033,889.594,2359.849,889.133z"/>
		</g>
		<g>
			<path style="fill:#390175;" d="M1258.525,3071.482c-14.674,0-29.475-3.623-43.154-10.88
				c-27.865-14.786-45.856-41.872-48.119-72.463c-1.302-17.571,2.151-34.761,10.266-51.098
				c8.022-16.157,26.325-43.793,51.659-82.046c60.749-91.746,162.429-245.299,185.915-346.925
				c32.952-142.585-30.616-272.589-48.119-297.129c-18.054-25.315-80.495-154.958-111.287-326.984
				c-28.802-160.937-37.668-404.658,83.675-651.797c118.919-242.212,369.406-444.971,670.046-542.384
				c191.933-62.185,367.704-66.852,470.188-12.492c102.489,54.363,197.2,202.508,253.35,396.284
				c87.957,303.544,60.564,624.644-73.278,858.943c-136.563,239.069-343.321,368.409-492.719,434.82
				c-159.698,70.99-301.937,92.121-333.133,91.243c-0.502-0.01-1.044-0.02-1.614-0.02c-33.318,0-173.479,21.375-271.375,126.819
				c-70.966,76.433-141.069,246.728-182.955,348.476c-17.468,42.432-30.089,73.092-38.965,88.795
				c-8.973,15.874-21.262,28.373-36.541,37.156C1288.819,3067.586,1273.741,3071.482,1258.525,3071.482z M2296.281,688.994
				c-79.866,0-174.035,16.013-271.687,47.653c-288.214,93.387-527.841,286.741-641.01,517.229
				c-115.456,235.158-106.903,467.716-79.398,621.401c31.645,176.796,94.511,295.29,102.904,307.058
				c32.981,46.251,90.068,189.436,56.009,336.825c-25.491,110.306-126.2,262.396-192.845,363.037
				c-22.506,33.986-41.945,63.344-48.611,76.76c-4.184,8.427-5.901,16.781-5.252,25.544c1.005,13.601,9.256,25.778,22.072,32.576
				c12.811,6.798,27.529,6.808,39.355,0.01c7.613-4.379,13.567-10.49,18.195-18.683c7.374-13.04,20.78-45.602,36.297-83.309
				c45.948-111.609,115.383-280.28,192.411-363.242c102.918-110.858,253.336-144.039,310.286-142.532
				c14.577,0.522,147.843-14.074,311.93-87.01c142.668-63.417,340.01-186.759,469.954-414.236
				c127.36-222.959,153.056-529.797,68.733-820.793c-51.732-178.527-139.523-318.95-229.113-366.473
				C2416.394,699.53,2361.034,688.994,2296.281,688.994z"/>
		</g>
	</g>
	<g style="opacity:0.25;">
		<ellipse style="fill:#390175;" cx="2048.148" cy="3475.656" rx="768.103" ry="82.397"/>
	</g>
</g>
</svg>
